<?xml version="1.0" encoding="UTF-8"?>
<!DOCTYPE svg PUBLIC "-//W3C//DTD SVG 1.1//EN" "http://www.w3.org/Graphics/SVG/1.1/DTD/svg11.dtd">
<!-- Creator: CorelDRAW X7 -->
<svg xmlns="http://www.w3.org/2000/svg" xml:space="preserve" width="1.30208in" height="1.30208in" version="1.1" style="shape-rendering:geometricPrecision; text-rendering:geometricPrecision; image-rendering:optimizeQuality; fill-rule:evenodd; clip-rule:evenodd"
viewBox="0 0 1302 1302"
 xmlns:xlink="http://www.w3.org/1999/xlink">
 <defs>
  <style type="text/css">
   <![CDATA[
    .fil0 {fill:#612C75}
    .fil1 {fill:#FFED00}
   ]]>
  </style>
 </defs>
 <g id="Слой_x0020_1">
  <metadata id="CorelCorpID_0Corel-Layer"/>
  <g id="_629421520">
   <ellipse class="fil0" cx="655" cy="649" rx="633" ry="628"/>
   <g>
    <path class="fil1" d="M534 835c-5,10 -8,22 -8,35l0 72c0,33 21,60 48,60l149 0c26,0 48,-27 48,-60l0 -72c0,-13 -3,-25 -9,-35 -37,5 -75,7 -114,7 -39,0 -77,-2 -114,-7zm231 -41c3,-6 5,-14 5,-21l0 0c0,-21 -13,-37 -29,-37l-185 0c-16,0 -30,16 -30,37l0 0c0,7 3,15 6,21 37,5 76,7 116,7 40,0 79,-2 117,-7z"/>
    <path class="fil1" d="M691 740c-37,-219 -208,-458 -419,-473 -134,-10 172,339 168,336l81 -35 -53 76 40 39c0,0 37,7 71,-6 33,-13 -9,28 -9,28l79 35c0,0 -13,-61 -101,-198 -89,-137 -210,-206 -210,-206 0,0 179,91 271,258 93,167 60,146 60,146l33 0 -11 0z"/>
    <path class="fil1" d="M1004 823c0,0 168,84 116,151 -38,47 -928,49 -941,29 97,-4 517,-6 612,-24 229,-42 213,-156 213,-156z"/>
   </g>
  </g>
 </g>
</svg>
