<?xml version="1.0" encoding="UTF-8"?>
<!DOCTYPE svg PUBLIC "-//W3C//DTD SVG 1.1//EN" "http://www.w3.org/Graphics/SVG/1.1/DTD/svg11.dtd">
<!-- Creator: CorelDRAW X7 -->
<svg xmlns="http://www.w3.org/2000/svg" xml:space="preserve" width="1.30208in" height="1.30208in" version="1.1" style="shape-rendering:geometricPrecision; text-rendering:geometricPrecision; image-rendering:optimizeQuality; fill-rule:evenodd; clip-rule:evenodd"
viewBox="0 0 1302 1302"
 xmlns:xlink="http://www.w3.org/1999/xlink">
 <defs>
  <style type="text/css">
   <![CDATA[
    .str0 {stroke:#612C75;stroke-width:3}
    .str1 {stroke:#612C75;stroke-width:30.2008}
    .fil3 {fill:none}
    .fil0 {fill:#612C75}
    .fil1 {fill:#FFED00}
    .fil2 {fill:#FFED00;fill-rule:nonzero}
   ]]>
  </style>
 </defs>
 <g id="Слой_x0020_1">
  <metadata id="CorelCorpID_0Corel-Layer"/>
  <g id="_1020086816">
   <circle class="fil0" cx="647" cy="654" r="645"/>
   <g>
    <path class="fil1" d="M448 155l399 0c33,0 60,27 60,60l0 878c0,33 -27,60 -60,60l-399 0c-33,0 -60,-27 -60,-60l0 -878c0,-33 27,-60 60,-60z"/>
    <path id="1" class="fil2" d="M847 170l-399 0 0 -31 399 0 0 0 0 31zm75 45l-30 0 0 0 0 -2 0 -3 -1 -2 0 -2 -1 -2 0 -2 -1 -3 -1 -2 -1 -2 -1 -2 -1 -1 -1 -2 -1 -2 -1 -2 -2 -1 -1 -2 -2 -2 -2 -1 -1 -1 -2 -2 -2 -1 -2 -1 -2 -1 -2 -1 -2 -1 -2 0 -2 -1 -2 0 -3 -1 -2 0 -2 0 -2 0 0 -31 3 0 4 1 4 0 4 1 3 1 4 1 4 1 3 1 3 2 4 2 3 1 3 2 3 2 3 3 2 2 3 3 2 2 3 3 2 3 2 3 2 3 2 3 2 3 1 4 1 3 2 3 1 4 1 4 0 3 1 4 0 4 0 4 0 0zm-30 878l0 -878 30 0 0 878 0 0 -30 0zm-45 75l0 -30 0 0 2 0 2 0 2 0 3 -1 2 0 2 -1 2 -1 2 0 2 -1 2 -1 2 -1 2 -2 2 -1 1 -1 2 -2 2 -1 1 -2 2 -1 1 -2 1 -2 1 -2 1 -2 1 -2 1 -2 1 -2 1 -2 0 -2 1 -2 0 -2 1 -3 0 -2 0 -2 30 0 0 4 0 4 -1 3 0 4 -1 4 -1 3 -2 4 -1 3 -1 4 -2 3 -2 3 -2 3 -2 3 -2 3 -3 3 -2 2 -3 3 -2 2 -3 2 -3 2 -3 2 -3 2 -4 2 -3 1 -3 2 -4 1 -4 1 -3 1 -4 1 -4 0 -4 0 -3 0 0 0zm-399 -30l399 0 0 30 -399 0 0 0 0 -30zm-75 -45l30 0 0 0 0 2 0 2 0 3 1 2 0 2 1 2 1 2 0 2 1 2 1 2 1 2 1 2 2 2 1 2 2 1 1 2 2 1 1 2 2 1 2 1 2 2 2 1 1 1 2 1 3 0 2 1 2 1 2 0 2 1 2 0 3 0 2 0 0 30 -4 0 -4 0 -3 0 -4 -1 -4 -1 -3 -1 -4 -1 -3 -2 -4 -1 -3 -2 -3 -2 -3 -2 -3 -2 -3 -2 -3 -2 -2 -3 -3 -2 -2 -3 -2 -3 -2 -3 -2 -3 -2 -3 -2 -3 -1 -4 -2 -3 -1 -4 -1 -3 -1 -4 -1 -4 0 -3 0 -4 0 -4 0 0zm30 -878l0 878 -30 0 0 -878 0 0 30 0zm45 -76l0 31 0 0 -2 0 -3 0 -2 0 -2 1 -2 0 -2 1 -2 0 -3 1 -2 1 -1 1 -2 1 -2 1 -2 2 -2 1 -1 1 -2 2 -1 2 -2 1 -1 2 -2 2 -1 2 -1 1 -1 2 -1 2 0 2 -1 3 -1 2 0 2 -1 2 0 2 0 3 0 2 -30 0 0 -4 0 -4 0 -4 1 -3 1 -4 1 -4 1 -3 2 -3 1 -4 2 -3 2 -3 2 -3 2 -3 2 -3 2 -3 3 -2 2 -3 3 -2 3 -3 3 -2 3 -2 3 -1 3 -2 4 -2 3 -1 4 -1 3 -1 4 -1 4 -1 3 0 4 -1 4 0 0 0z"/>
   </g>
   <rect class="fil0 str0" x="595" y="191" width="178.778" height="35.9543" rx="56" ry="60"/>
   <circle class="fil3 str1" cx="649" cy="1072" r="41"/>
   <circle class="fil0 str0" cx="558" cy="209" r="17"/>
   <rect class="fil0" x="397" y="264" width="501" height="739"/>
  </g>
 </g>
</svg>
