<?xml version="1.0" encoding="UTF-8"?>
<!DOCTYPE svg PUBLIC "-//W3C//DTD SVG 1.1//EN" "http://www.w3.org/Graphics/SVG/1.1/DTD/svg11.dtd">
<!-- Creator: CorelDRAW X7 -->
<svg xmlns="http://www.w3.org/2000/svg" xml:space="preserve" width="1.30208in" height="1.30208in" version="1.1" style="shape-rendering:geometricPrecision; text-rendering:geometricPrecision; image-rendering:optimizeQuality; fill-rule:evenodd; clip-rule:evenodd"
viewBox="0 0 1302 1302"
 xmlns:xlink="http://www.w3.org/1999/xlink">
 <defs>
  <style type="text/css">
   <![CDATA[
    .fil1 {fill:#612C75}
    .fil0 {fill:#FFED00}
   ]]>
  </style>
 </defs>
 <g id="Слой_x0020_1">
  <metadata id="CorelCorpID_0Corel-Layer"/>
  <g id="_629421776">
   <circle class="fil0" cx="649" cy="656" r="636"/>
   <g>
    <path class="fil1" d="M184 674c0,5 -1,9 0,14l1 5c1,2 1,0 1,4 0,5 -1,12 1,17 0,0 0,0 0,0 0,1 1,2 1,3 0,2 0,4 0,6 0,6 2,6 2,9 0,3 -1,7 1,10 1,2 0,-1 1,2 0,0 0,2 0,2 0,7 2,6 2,10 0,2 0,4 1,5 0,2 1,2 1,4 1,2 1,3 1,5 1,3 1,1 2,4 0,2 0,4 1,5 1,2 0,0 1,4 0,1 0,2 0,3 1,3 1,1 2,4 0,1 0,3 1,4 1,2 0,-1 1,2 0,1 0,2 0,3 1,2 2,2 2,6 1,3 2,4 3,6 0,4 1,3 2,6 0,5 1,2 2,4 1,3 -1,2 1,5 2,2 1,1 1,5l2 1c0,4 1,3 2,6l2 4c2,2 -1,3 3,5 0,1 0,3 0,4 1,0 1,0 1,0 0,0 0,0 0,0 1,2 1,4 2,5l2 4c1,2 0,1 1,3l8 15c1,2 0,3 3,3 0,1 0,2 0,3 1,1 0,1 2,1 0,3 1,3 2,5l2 4c1,2 0,2 2,2 0,3 3,6 4,8 2,3 0,2 3,2 0,4 2,5 4,8 0,1 0,1 1,2l6 9c0,0 0,0 0,0l10 13c2,3 2,5 5,5 0,4 0,1 1,3 1,1 1,1 1,1l3 4c0,0 1,1 1,1 1,1 0,2 2,2l0 2c3,0 2,1 3,2l5 7c2,1 1,1 3,2 0,2 0,2 2,2 0,2 0,1 2,2l3 4c0,0 0,0 1,1 0,0 0,0 0,0 1,1 0,2 3,2 0,2 0,2 2,2 0,2 0,2 2,2 0,2 1,3 2,4 2,1 0,0 4,0 2,0 2,0 3,-2 3,0 2,0 4,-2 2,-1 2,1 2,-2 5,0 2,-2 6,-3l0 -1c6,-1 3,-3 7,-3l0 -1c3,-1 3,-1 5,-3l8 -5c0,0 0,0 1,0 0,0 0,0 0,0 0,0 0,0 0,0l13 -8c0,0 0,0 0,0 1,-1 1,-1 1,-1l13 -7c1,-1 1,0 3,-1 0,0 1,-1 1,-1l0 0c0,0 1,0 1,-1 0,0 0,0 0,0l4 -2c0,0 0,0 0,0 0,0 1,0 1,0l7 -4c0,0 0,0 0,0l14 -6c2,-1 2,-2 5,-3 2,0 2,1 2,-2 6,0 4,-1 6,-1 1,-1 2,-1 3,-1 2,-1 1,-1 2,-2 2,0 2,0 3,0 2,-1 1,-1 2,-2 3,-1 6,0 6,-3 0,-3 0,-1 -1,-3l-1 -1c0,-1 0,-1 -1,-2 0,-2 -1,-2 -1,-4 0,-1 0,-1 -1,-2l-1 -4c-1,0 -1,-1 -1,-2 -1,0 0,0 -1,0 -1,-2 0,-3 -1,-5l-3 -8c-1,-1 -1,-3 -2,-4l-1 -2c0,0 0,-1 0,-2l-1 -2c-1,-3 -1,-4 -2,-6l0 -1c0,-1 0,0 -1,-1 0,-2 -1,-5 -1,-6l-2 -4c0,-4 0,-2 -1,-4 -1,-2 -1,-3 -1,-5 -1,-3 -1,0 -2,-3 0,-3 0,-3 0,-5 -1,-1 -2,-1 -2,-4 0,-2 0,-2 -1,-4 -1,-2 -1,-1 -1,-4 -1,-8 -2,-2 -2,-9 0,-7 -3,-3 -3,-9 0,-1 1,-2 0,-3 0,-3 0,0 -1,-3 -1,-2 0,-5 -1,-8 -1,-2 -1,0 -2,-3 0,-1 0,-4 0,-5 0,-3 0,-4 -2,-4 0,-3 0,-5 0,-8 0,-5 -2,-1 -2,-5 0,-3 0,-6 0,-8 0,-3 -2,-3 -2,-6 0,-2 0,-5 0,-7 0,-3 -1,-4 -2,-6 -1,-3 0,-12 -1,-15 -1,-6 -2,1 -2,-14 0,-7 1,-7 -1,-14 -1,-3 -1,-25 -1,-31 -1,0 -2,-1 -4,-1l-203 0c-2,0 -3,1 -3,2z"/>
    <path class="fil1" d="M904 673c0,5 1,28 0,31 -2,8 -2,1 -2,14 0,15 0,7 -1,13 -1,4 0,11 -1,15 -1,2 -2,2 -2,6 0,2 0,5 0,8 0,3 -2,2 -2,5 0,3 0,6 0,8 -1,6 -2,-3 -2,14 -4,1 -1,8 -3,11 -3,3 -1,6 -2,9 -1,3 0,0 -1,2 -1,2 0,5 -1,7 -1,3 -2,0 -2,5 0,1 0,2 0,3 0,2 -1,1 -1,2 -2,3 0,5 -1,7 -2,3 -2,0 -2,5 0,2 0,2 -1,3 0,2 0,1 -1,2 -1,3 0,3 -1,6 -2,2 -1,3 -2,6 -1,3 -1,0 -2,5 0,4 -1,4 -2,8 -1,3 0,1 -1,3 -1,2 -1,4 -1,6l-2 0c0,5 -1,5 -2,8l-3 8c0,2 -1,3 -2,5 0,4 0,1 -1,3l-1 2c0,1 0,1 0,2 -1,1 0,0 -1,1 -1,2 -1,3 -2,5l-2 5c-2,5 -1,5 4,6 1,0 1,1 2,2l3 0c2,1 1,1 2,2 2,1 3,0 4,1 2,1 3,1 5,1 1,3 2,2 4,3 1,0 2,1 3,2 3,0 1,-1 3,1l12 5c1,1 1,2 4,2 2,1 0,0 2,1 0,0 0,0 0,1l4 1c1,1 0,1 1,1 1,1 1,0 1,1l4 2c0,0 0,0 1,0l6 4c0,0 0,0 0,0 3,1 2,1 6,2l8 6c1,1 2,0 4,2 0,0 0,0 0,0l7 4c0,1 0,0 1,1l2 1c0,0 1,0 1,0 0,1 0,1 0,1 2,1 3,2 6,3l0 1c4,0 1,2 6,3l0 1c5,1 2,3 7,3 0,3 0,1 1,2 0,0 1,0 1,1 0,0 0,0 0,0 1,1 2,1 4,1 0,3 3,2 5,2 1,0 1,0 2,-1l1 -1c1,-1 0,1 1,-2 2,0 2,0 2,-2 2,0 2,0 2,-2 2,0 2,-1 4,-3l1 -1c1,-2 3,-3 4,-5 1,0 1,0 2,-2 3,-1 0,0 1,-1l7 -9c1,-1 0,-1 2,-1l0 -2c2,0 2,0 2,-1 0,0 1,0 1,0l4 -6c1,-2 2,0 2,-4 2,0 1,0 2,-1 0,0 0,0 0,0l21 -29c2,-3 3,-4 3,-7 2,0 2,-1 3,-3 0,0 0,0 0,0l3 -4c1,-1 0,-1 0,-3 3,0 2,-2 3,-4 2,-2 4,-4 4,-7 2,0 1,0 2,-1 0,-1 0,-2 0,-3 3,0 2,-1 2,-3l1 -2c1,0 1,0 1,-1l6 -10c1,-1 0,-1 1,-2 0,-2 3,-7 4,-9 1,-4 2,-2 2,-7 4,-2 1,-2 3,-5l3 -6c1,-1 0,-2 0,-4l3 -1c0,-3 -1,-3 0,-5 2,-3 1,-1 2,-4 1,-3 1,-1 2,-4 0,-1 0,-1 0,-2 1,-4 1,-1 2,-4 1,-5 1,-3 3,-9l0 -2c1,-2 1,-4 2,-6 1,-2 1,0 1,-2 1,-2 0,-3 1,-5 2,-2 2,-2 2,-6 0,-3 1,-1 2,-4 1,-3 0,-3 1,-7 1,-2 1,-3 1,-5l1 -3c1,-2 1,-4 1,-6 1,-5 2,-5 3,-9 0,-1 -1,-2 -1,-3 1,-4 2,0 3,-12 0,-2 1,-3 1,-4 1,-4 1,-8 1,-11 0,-5 2,-2 2,-15 0,-2 0,-3 0,-5 0,-6 1,-4 2,-7 0,-1 0,-2 0,-3 0,-4 0,-9 0,-14 0,-1 -1,-2 -3,-2l-203 0c-2,0 -3,1 -5,1z"/>
    <path class="fil1" d="M988 352c-3,0 -7,4 -7,4l-2 2c0,0 0,0 0,0l-4 2c0,0 0,1 0,1l-5 3c-2,1 -4,4 -7,5l-11 7c0,0 0,0 0,0l-9 6c-1,1 -2,0 -2,2 -3,0 -3,1 -6,2 0,1 0,1 0,1l-1 1c-3,1 -5,3 -8,3l0 2c-3,0 -4,1 -6,3l-4 2c-1,0 0,0 -1,0l-16 8c-1,1 0,1 -2,2l-2 0c-2,1 0,1 -3,2l-6 3c0,0 -1,0 -1,0l-5 3c-1,0 0,0 -2,1 -3,0 -3,1 -6,2 -1,0 -1,0 -2,1 -3,2 -4,-1 -4,5 0,1 0,0 0,1 0,3 1,1 2,4 0,1 0,1 0,3l2 5c1,3 1,1 2,4 0,1 0,2 0,3 1,2 1,1 2,3 0,1 0,3 1,5 1,2 1,3 2,5 0,5 1,1 2,5 0,4 -1,2 1,6 2,3 0,3 1,6 1,3 2,0 2,5 0,5 -1,2 1,5 2,2 1,4 1,6 1,4 2,1 2,5 1,3 0,4 1,6 2,4 1,6 2,9 0,4 1,0 2,9 0,4 0,2 2,4 0,3 0,6 0,8 0,4 1,2 2,6 0,2 0,5 0,7 0,4 2,3 2,6 0,3 -1,8 0,11 1,2 1,1 2,3 1,3 -1,12 0,15 1,3 2,2 2,6 0,6 -1,13 1,19 0,2 1,2 1,3 1,3 0,26 0,31 2,1 3,1 5,1l203 0c5,0 3,-5 3,-10 0,-3 0,-4 0,-6l-2 -6c-2,-5 2,-14 -2,-20l0 -4c0,-3 0,-6 -1,-9 0,-3 0,-2 -1,-3 -1,-2 0,-8 -1,-12 -2,-2 -1,1 -1,-5 0,-1 0,-2 -1,-3l-1 -3c-1,-1 0,2 -1,-2 0,-9 0,-4 -2,-8 0,-2 0,-4 0,-6 -1,-4 -2,-1 -2,-6 0,-1 0,-1 0,-2 -1,-2 -1,-1 -2,-2 0,-2 0,-5 -1,-6 0,-3 -1,-1 -1,-5 -1,-1 -1,-2 -1,-3 0,-1 0,0 0,-1l-2 -4c0,0 0,-1 0,-1 -1,-3 -1,0 -1,-3 -1,-1 -1,-3 -1,-4 -1,-2 -2,-2 -2,-5 0,-2 0,0 -1,-2 0,-1 -1,0 -1,-2 0,-2 0,-2 0,-3 -1,-3 -1,0 -2,-2 -1,-2 0,-1 0,-3 -1,-2 -2,-2 -2,-5 -1,-2 -2,-2 -2,-4 -1,-1 -1,-2 -1,-3 -1,-1 -1,1 -2,-2 0,-1 0,-1 0,-3 -1,-2 -1,0 -2,-3 -1,-3 -1,-2 -1,-3l-1 -3c-2,-3 -2,1 -2,-5l-2 -1c0,-3 0,-2 -2,-5l-2 -4c-1,-1 0,-2 -1,-3 -1,-1 0,0 -1,-1l-1 -1c0,-2 1,-3 -2,-3 0,-2 1,-4 -2,-4 0,-4 -1,-3 -2,-5l-1 -3c-1,-1 0,0 -1,-1l-7 -12c-1,-2 0,-1 -1,-2 0,0 0,0 0,0l-14 -22c-1,0 -1,0 -1,0l-2 -4c0,0 0,0 -1,-1l-13 -17c-1,-2 1,-2 -2,-2l0 -2c-3,0 -2,-1 -4,-4 0,0 0,0 0,0 -2,-2 -2,-4 -5,-5 0,-2 0,0 -1,-1l-6 -9 -5 0c0,2 1,0 0,1l-2 2c0,0 0,0 0,0l-1 0c0,1 0,1 0,1l-2 1c0,1 0,0 0,1z"/>
    <path class="fil1" d="M294 356c-3,1 -2,0 -3,2l-3 4c-1,2 0,3 -3,3l0 2c-1,0 -2,1 -2,2l-11 15c0,0 -1,0 -1,0l-2 3c-1,1 0,-1 -1,2 0,0 -1,1 -1,1 0,0 0,0 0,0 -1,2 -3,3 -4,5 0,0 0,1 0,1l-4 6c-1,2 -3,4 -4,6l-2 3c0,1 0,1 -1,1l-11 20c-1,1 -1,1 -1,4 -2,0 -2,0 -2,1 -1,1 0,2 0,3 -4,0 -1,1 -4,5 -1,1 0,0 -1,1l-3 7c-1,1 0,0 -1,1 0,1 0,2 0,3l-2 1c0,5 -1,3 -2,5l-3 7c0,2 0,0 -1,2 -1,2 0,2 -2,5 -1,1 -1,3 -2,4 -1,2 0,0 -1,2 -1,4 -1,4 -2,5 0,2 0,2 0,4 -1,2 -1,-1 -2,1 0,2 0,2 0,4 -1,3 -2,1 -2,4l-1 4c-1,1 -1,4 -3,6 -1,2 0,-1 -1,2 -1,6 -1,5 -2,8 0,1 0,2 0,3 -1,1 -1,1 -2,2 -1,4 1,2 -2,8 -1,2 0,5 -1,7 -1,2 -1,5 -2,7 0,4 -2,2 -2,8 0,5 -1,2 -2,11 0,3 -2,4 -2,9 0,3 0,5 -1,7l-1 4c0,2 0,5 0,7 0,5 -2,5 -2,11 0,3 0,11 -1,13 0,3 -1,2 -1,6l0 14c0,2 1,2 3,2l203 0c2,0 3,0 4,-1 0,-5 0,-27 1,-31 0,-1 0,0 1,-2 1,-4 0,-7 0,-11 0,-3 0,-9 1,-12 0,-1 0,0 0,-1 3,-4 1,-11 2,-16 0,-3 2,-2 2,-6 0,-3 0,-6 0,-8 0,-4 1,-2 2,-6 0,-2 0,-5 0,-8 0,-4 2,-1 2,-5 0,-3 0,-6 0,-9 1,-1 2,0 2,-4 0,-2 0,-5 1,-6 0,-2 1,-2 1,-5 0,-7 2,-5 2,-9 1,-1 0,-2 0,-3 1,-5 2,-2 2,-5 1,-2 0,-5 1,-7 2,-3 2,1 2,-5 0,-3 1,-3 2,-5 0,-2 -1,-3 1,-6 1,-2 1,-2 1,-5 0,-2 2,-3 2,-5l2 -5c0,-2 0,-4 1,-6 1,-1 1,0 1,-2 1,-1 1,-2 1,-3 0,-4 1,-1 2,-5l3 -10c1,-1 1,-4 1,-5 -1,-3 -3,-2 -4,-3 -1,0 -1,0 -1,-1l-4 -1c-3,-2 -8,-3 -11,-5 -3,-2 -5,-2 -8,-4l-13 -6c-2,-2 -7,-3 -9,-5l-6 -4c-2,-1 -2,-1 -5,-1l0 -2c-1,0 -1,0 -2,0 -2,-1 -4,-3 -7,-5l-1 0c-2,-2 -1,-2 -4,-2 -1,-2 -2,-2 -4,-3l-6 -4c-3,-1 -4,-2 -6,-4l-3 -2c0,0 0,0 0,0l-3 -2c0,0 0,0 -1,0 0,0 0,0 0,0 -2,-1 -4,-3 -5,-4l-12 -9c0,0 -1,0 -1,0l-3 -2c-2,-2 0,-2 -3,-2 -1,-3 -2,-2 -4,-4 -2,-1 -1,1 -2,-2l-4 0 -1 2c0,0 0,1 0,1 0,0 -1,0 -1,0l-2 2c0,1 0,1 -1,1 -1,2 -2,2 -2,4z"/>
    <path class="fil1" d="M425 673l0 23c0,3 1,4 1,6 2,5 0,19 1,23 1,3 2,1 2,6 0,2 0,5 0,7 0,9 2,4 2,10 0,4 0,8 1,11 1,2 1,0 1,2 1,3 -1,8 1,11 2,2 2,0 1,7 0,6 2,4 3,6 0,2 -1,6 0,8 1,4 1,-2 2,7 0,5 2,4 2,7 0,3 -1,6 2,7 0,13 2,4 2,12 0,4 1,3 2,5 0,0 1,6 1,7l1 0c0,8 1,5 2,8 1,1 0,0 0,1 1,1 0,2 1,3l1 2c2,3 0,3 1,5 0,1 0,1 1,1 1,2 0,0 1,3 0,2 -1,2 1,4 1,2 0,0 1,2 0,1 0,1 0,3 1,3 1,0 2,4 1,3 3,9 4,11 1,2 0,1 2,4 1,2 0,-1 1,2 0,5 0,2 1,5 1,2 1,2 2,4 1,2 0,-1 1,2 0,0 0,1 0,2 1,3 2,2 2,5 8,0 3,-1 11,-2l3 -1c2,-2 0,-1 4,-1 3,-1 3,-1 4,-2 1,0 4,-1 5,-1 4,0 1,-1 4,-1 2,-1 4,-1 5,-1 3,-1 1,-1 4,-2 1,0 5,0 6,0 0,0 0,0 0,0 2,-1 0,-1 4,-2 1,0 4,0 5,-1 2,0 2,-1 4,-1 2,-1 4,0 6,0 2,-1 0,0 2,-1 2,-1 -1,0 2,-1 2,0 3,0 6,0 3,0 2,0 4,-2 0,0 0,0 1,0 2,-1 6,0 9,-1 3,0 3,0 5,-1 3,-1 7,-1 11,-1 1,0 1,0 2,0 3,-1 2,-2 8,-2 3,0 7,0 11,0 2,0 4,0 5,0 2,-1 1,-2 4,-2 8,0 16,0 24,0 0,-2 0,-2 0,-4l0 -205c0,-1 -1,-2 -2,-2l-204 0c0,0 -2,1 -2,1z"/>
    <path class="fil1" d="M665 674l0 205c0,2 1,2 1,4 7,0 15,0 23,0 4,0 3,2 9,2 8,0 13,-1 18,2 4,1 9,-1 14,1 5,1 -1,1 10,1 2,0 4,0 5,1 0,0 0,0 1,0 0,1 0,1 4,2 8,0 6,1 9,1 3,1 4,-1 10,2 2,1 5,1 7,1 4,1 0,0 3,2 2,1 2,-1 9,2 1,0 4,0 5,0 3,1 1,1 4,2 3,1 4,0 7,2 2,1 0,0 4,1 6,1 -1,1 7,2 5,1 1,2 9,2 1,-4 1,0 3,-7 1,-3 1,0 2,-4 1,-5 1,-2 2,-6 1,-4 1,-1 2,-4 1,-3 0,-1 1,-5 2,-2 1,-2 2,-5l2 -4c0,-4 1,0 2,-6 0,-5 1,0 2,-7 1,-5 1,1 2,-6 1,-4 0,-1 1,-3 1,-1 0,1 1,-1 0,-2 0,-2 0,-3 1,-4 1,-1 2,-4 1,-2 0,-4 0,-6l2 0c1,-13 2,-6 3,-12 0,-5 0,-2 1,-5 1,-2 1,-5 1,-7 3,-1 2,-3 2,-7 0,-4 2,-2 2,-7 0,-1 0,-3 0,-4 0,-2 1,-1 2,-3 0,-1 0,-6 0,-8 2,-2 2,-1 2,-5 0,-6 0,-5 1,-8 1,-1 0,1 1,-1 1,-2 0,-6 0,-9 1,-3 0,-1 2,-3 2,-4 -1,-11 1,-14 1,-1 1,0 1,-2 1,-2 1,-10 1,-12 0,-5 0,-3 1,-6 1,-2 1,-5 1,-7 0,-5 -1,-12 0,-15 3,-7 2,-5 2,-14 0,-6 0,-11 0,-16 -1,0 -1,-1 -3,-1l-204 0c-1,0 -2,1 -2,2z"/>
    <path class="fil1" d="M817 438c0,1 0,1 -1,2 -3,0 -6,-1 -7,2 -1,0 -3,0 -4,0 -4,1 -2,1 -4,2 -1,1 -3,0 -4,1 -3,0 -2,1 -4,1 -1,1 -3,0 -4,1 -3,0 -2,1 -4,1 -1,1 -3,1 -5,1 -3,0 -2,1 -4,1 -2,2 -5,0 -8,2 -2,1 -1,1 -4,1 -9,0 -6,1 -9,2 -2,1 -6,-1 -9,1 -3,1 -1,1 -4,1 -4,1 -7,0 -10,1 -3,2 2,1 -8,1l-7 1c-6,1 1,2 -12,2 -4,0 -6,0 -10,0 -5,1 0,2 -9,2 -6,0 -15,-1 -20,0 0,2 -1,2 -1,4l0 170c0,1 1,2 2,2l204 0c2,0 2,0 3,0 0,-9 1,-23 -1,-29 -2,-5 -1,-16 -1,-22 0,-3 -1,-3 -2,-4 0,0 0,0 0,0l0 -2c-1,-4 1,-11 -1,-14 -1,-3 -1,-1 -1,-6 -1,-16 -2,-8 -3,-13 0,-3 1,-6 0,-8 0,-3 -1,-2 -2,-6 0,-2 1,-5 0,-7 -1,-4 -2,0 -2,-6 0,-1 0,-3 0,-4 0,-5 -2,0 -2,-5 0,-1 0,-3 0,-4 0,-4 -2,-2 -2,-6 0,-3 1,-3 -1,-6 -1,-2 -1,0 -1,-3 0,-1 0,-2 0,-4 -1,-3 -2,-1 -2,-5 -1,-7 -1,-3 -2,-6 -1,-2 0,-4 -1,-6 -2,-3 -1,1 -2,-3 0,-1 1,-2 0,-3 -1,-4 -1,0 -2,-6 0,-4 -1,-2 -2,-6 0,-1 0,-2 0,-3 -2,-3 -1,2 -2,-6 -1,-3 -1,-1 -2,-2 -1,-2 0,-3 -2,-6 -2,-5 2,-5 -6,-5 -3,0 -2,1 -3,2 -2,0 -2,0 -4,0 -4,1 2,2 -8,2z"/>
    <path class="fil1" d="M453 466c-3,0 -3,1 -3,4 0,5 0,1 -1,4 -1,2 0,4 -1,6 -1,2 -2,1 -2,4 0,10 -1,0 -2,11 0,4 -1,1 -2,4 -1,2 0,4 0,6 -1,2 -2,1 -2,4 -1,3 1,5 -1,7 -3,4 0,6 -2,10 0,2 -1,1 -2,4 0,2 1,5 0,7 0,5 -2,-2 -2,10 0,7 -2,3 -2,11 0,19 -2,-1 -2,23 0,0 0,2 0,3 -1,3 -2,0 -2,7 0,3 0,16 -1,18 -3,11 -1,18 -1,31 1,0 1,0 2,0l204 0c1,0 2,-1 2,-2l0 -170c0,-2 0,-2 0,-4 -7,-1 -22,0 -25,0 -2,-1 -1,-1 -4,-2 -3,0 -6,0 -10,0 -4,0 -7,0 -10,-1 -1,-1 0,-1 -1,-1 0,0 -2,0 -2,0 -3,-1 -7,-1 -10,-1 -1,0 -2,0 -3,0l-1 0c0,0 0,-1 0,-1 -3,-2 -6,0 -10,-1 -4,0 -2,-2 -8,-2 -10,0 -4,0 -8,-2 -3,-1 -7,1 -9,-1 -2,-1 -1,-1 -4,-1 -10,-1 -4,-1 -8,-2 -2,0 -4,0 -6,0 -2,-1 -1,-1 -3,-2 -2,-1 -3,0 -5,-1 -2,0 -1,-1 -3,-1 -2,-1 -3,0 -5,-1 -2,0 0,-1 -3,-2 -2,0 -4,0 -6,0 0,-3 -3,-2 -7,-2 0,-1 0,-1 -1,-2l-5 0c0,-2 0,-1 -1,-2 -11,0 -1,-2 -12,-2 -2,0 -1,1 -2,3 -1,4 -1,0 -2,6 0,1 0,0 0,1 -1,3 -1,0 -2,5 -1,3 -1,3 -1,3 -1,2 -1,3 -2,5 0,2 -1,1 -1,4 -1,1 0,3 0,5z"/>
    <path class="fil1" d="M665 194l0 237c0,1 1,1 1,2 2,0 2,1 5,1 5,-1 13,0 17,-2 3,-1 7,0 10,0 3,0 3,-1 6,-1 1,0 4,0 6,0 3,-1 0,-1 9,-2 2,0 4,0 6,0 3,0 2,-1 4,-2 3,0 9,0 11,0 3,-1 1,-1 5,-2 2,0 5,0 7,-1 3,-1 -2,1 1,0l7 -1c6,0 1,-2 9,-3 4,0 2,0 5,-1 2,-1 3,-1 5,-1 4,0 2,0 4,-1 2,-1 4,0 5,-1 2,0 2,-2 4,-2 3,0 3,1 5,-1 3,-1 0,-1 5,-1 5,0 2,-1 4,-2 2,-1 3,0 5,-1 2,-1 0,-1 4,-1 4,-1 3,-1 5,-2l4 -2 -5 -13c-1,-1 -1,-3 -2,-4 0,0 -1,-1 -1,-1 0,0 0,1 0,-1 -1,-3 0,-1 -1,-3 -1,-1 -1,-2 -1,-4 -1,0 -1,0 -2,0 0,-5 -1,-3 -2,-5l-3 -5c0,0 0,0 0,0 -1,-3 -1,-3 -2,-4l0 -1c-1,-2 -1,-1 -2,-3 0,-1 0,-2 -1,-3l0 -1c0,0 0,0 0,0 -2,-2 -1,-4 -3,-4 0,-3 -3,-5 -4,-9l-4 -6c0,0 0,0 0,0 -1,-1 -1,-3 -1,-4l-2 0c0,-4 -4,-6 -5,-11l-1 0c0,-2 -1,-2 -2,-4l-3 -6c-2,-1 -2,0 -2,-3l-2 0c0,-5 -2,-2 -3,-6l-1 0c0,-3 -1,-4 -3,-6l-8 -12c-1,-1 0,0 -1,-1l-1 -1c0,0 0,0 0,0l-7 -9c0,0 0,0 0,0 0,-1 0,-1 0,-1l-5 -5c-1,-3 -1,-4 -3,-4 -1,-2 -1,-1 -1,-1l-2 -3c-1,-1 1,0 -2,-1 0,-2 -1,-3 -4,-6 0,0 0,0 0,-1l-1 0c0,-1 0,-1 -1,-1 0,-1 -1,-1 -1,-2 0,0 0,0 -1,0 -1,-2 0,-2 -2,-2 -1,-2 -1,-2 -2,-3 -1,-2 -1,-2 -3,-2 0,-3 0,-1 -1,-3 -1,0 -1,0 -1,-1 -1,-1 -2,-3 -3,-4l-6 -5c-1,-2 1,-1 -2,-2 0,-2 0,-1 -1,-2l-3 -3c-1,-1 0,-1 -2,-1 -1,-2 -1,-2 -2,-2 -1,-2 -1,-2 -3,-2 0,-2 0,-2 -2,-2 0,-3 0,-2 -1,-3l-8 -7c-3,-2 -3,-4 -6,-4 0,-4 -1,1 -2,-4 -2,0 -1,0 -3,-1 -2,-2 -10,-9 -10,-2z"/>
    <path class="fil1" d="M621 197c-1,5 -2,0 -3,4 -2,0 -1,0 -2,2 0,0 0,0 -1,0l-2 2c0,0 0,0 0,1 -1,0 -1,0 -2,1l-5 4c0,0 0,1 0,1 -2,1 -2,0 -3,3 -1,0 -1,0 -2,2 -2,0 -2,0 -2,2 -2,0 -2,0 -2,2 -2,0 -1,0 -2,1l-3 3c-1,1 -1,0 -1,2 -3,1 -2,0 -3,2l-10 11c-1,1 -1,-1 -1,2 -2,0 -2,0 -2,2 -2,1 -2,1 -2,3 -2,0 -2,1 -4,4l-1 1c-1,0 -1,0 -1,0l-1 2c-2,2 -4,3 -4,5 -2,1 -2,2 -3,3 -1,1 -1,0 -1,2 -3,0 0,-1 -2,2l-21 27c0,1 0,0 0,2l-5 8 -2 0c0,4 -2,1 -2,6l-2 0c0,3 -1,2 -2,3 0,0 0,0 0,0 0,1 0,1 0,1l-3 6c-1,1 -2,1 -2,3l-2 0c0,3 -1,4 -3,6 -1,2 -1,2 -1,5l-2 0c0,4 -1,3 -2,5l-6 10c0,0 0,0 0,1 -1,1 -1,1 -1,3 -3,0 -1,2 -3,5l-1 2c-1,2 -2,2 -2,3 -1,4 -1,1 -2,4 -1,1 -1,2 -1,3l-2 3c-1,2 -1,1 -2,3 0,1 0,2 0,3l-2 0 0 4c-1,1 -1,1 -2,3 -1,2 -1,1 -2,3 0,1 0,0 0,1 -1,2 -1,1 -1,2 -2,3 -3,8 -4,10l0 1c0,0 -1,0 -1,0 0,0 0,1 0,1l0 1 4 2c2,1 1,1 4,2 4,0 3,0 5,1 2,1 3,0 5,1 2,1 -1,2 4,2 4,0 2,0 4,1 3,2 3,1 5,1 3,0 2,2 4,2 2,1 4,0 6,1 2,1 0,1 4,1 2,0 3,0 5,1 2,1 0,1 4,1 8,1 4,3 10,3 6,0 6,2 10,2 10,0 4,0 9,2 2,0 9,0 11,0 3,1 2,2 5,2l11 1c5,0 -1,1 10,1l11 1c8,0 -1,1 16,1 3,0 4,0 6,1 3,0 3,-1 5,-1 0,-1 0,-1 0,-2l0 -237c0,-7 -6,-1 -8,0l-1 2c-2,1 -1,1 -3,1z"/>
    <path class="fil1" d="M451 234c-1,1 -1,0 -1,2 -1,0 -2,0 -3,0 -2,1 1,1 -3,2l-5 2c-1,1 0,0 -1,1l-6 3c-2,1 -3,0 -3,3 -2,0 -2,-1 -3,0l-2 2c-2,0 -1,-1 -3,1 -1,0 0,0 -1,0 -1,1 0,1 -1,1 -3,2 -5,3 -7,4 -2,1 -2,0 -2,2 -3,0 -4,2 -7,3l-4 3c0,0 0,0 0,0 0,0 0,0 -1,0l-2 2c-1,1 -2,1 -3,1l0 2c-4,0 -3,2 -7,3l0 1c-2,0 -3,2 -5,3l-6 4c0,1 0,0 -1,1l-2 1c-1,1 -1,0 -1,2l-2 0 0 2c-2,0 -4,2 -6,3l-7 6c-2,1 -4,2 -4,4 -2,0 -2,0 -2,2l-3 0c0,3 -1,3 -2,4l-9 7c-2,2 -1,-1 -1,2 -2,0 -2,0 -3,2 -2,1 -3,2 -4,4 -1,1 -1,0 -1,1 -1,1 -1,1 -1,3 0,2 1,3 2,4l11 8c1,0 0,0 1,0 2,2 0,2 3,2 0,2 0,1 1,2l2 1c1,1 1,1 4,1 0,2 0,2 1,2 2,1 3,2 5,2 0,3 0,1 1,2 1,2 -2,-1 0,0l1 1c2,1 1,1 4,2 1,2 2,1 4,3 0,0 0,0 1,0l7 5c0,0 0,0 1,0 0,0 0,0 0,0 2,2 3,2 5,3l3 2c0,0 0,0 0,0 0,0 1,0 1,0l0 1c0,0 0,0 1,0 0,0 0,0 0,0l5 3c0,1 0,1 1,1l4 2c1,1 2,1 4,1l0 2c2,0 3,0 4,1 2,1 0,0 1,1 1,1 1,0 2,1l2 1c1,0 1,0 2,1l7 3c1,1 1,1 4,1 0,3 2,2 4,3l12 6c2,0 1,-1 2,0 3,2 0,2 6,2 2,0 1,-1 2,-2 1,-2 1,-2 1,-5l2 0c0,-3 1,-4 2,-6 0,-1 0,-2 1,-3 0,-2 1,-1 1,-3 1,-1 0,0 1,-1 1,-3 -1,1 0,-1l2 -3c0,-2 2,-3 2,-5 0,0 0,-1 0,-2 3,0 2,-2 2,-4 3,0 2,-2 2,-4 3,-1 2,-2 2,-4 2,-1 1,0 2,-1l0 -4c4,0 1,0 4,-4l1 -2c1,-3 3,-5 4,-8 0,0 0,0 0,0l2 -4c1,-1 0,0 1,-1 1,-1 0,1 1,-1 1,-2 0,-1 1,-2 1,-2 0,0 1,-2 0,0 0,0 0,0l6 -11c0,0 1,0 1,0l7 -13c1,-1 2,-1 2,-3l1 0c1,-4 3,-2 3,-7l2 0c0,-4 2,-1 2,-6 3,-1 2,0 3,-2 1,-2 2,-4 3,-5l1 -1c2,-3 4,-4 4,-7 3,-1 1,0 2,-2 0,0 0,0 0,0l2 -2c0,0 0,0 0,0 1,-1 2,-3 2,-5 3,0 2,0 3,-2l7 -9c1,-1 1,0 1,-2 3,0 2,-1 5,-6 2,-1 1,-2 4,-3 0,-4 1,0 2,-4 2,0 1,-1 3,-2l8 -10c1,-1 -1,-1 2,-1 0,-2 0,-2 2,-2 0,-2 0,-1 0,-2l3 -2c0,0 0,0 0,0 1,-1 1,0 1,-2 2,0 2,0 2,-2 2,-1 2,-1 2,-3 3,0 2,0 3,-1l2 -3c1,-2 1,-1 2,-2 -3,-2 -6,-2 -9,-2l-3 2c-4,1 -8,0 -10,1 -2,1 0,1 -2,1 -2,0 -3,0 -5,0 -3,1 -2,1 -3,2 -2,1 -6,0 -9,2 -1,1 0,0 -1,0l-4 1c-1,0 -1,0 -1,0 -3,1 -1,1 -5,2 -4,0 -5,2 -9,2 -3,1 -4,2 -6,2 -4,1 -2,1 -5,2 -1,0 -2,0 -3,0 -4,1 0,1 -3,2 -1,1 -2,0 -4,1 -2,0 -1,1 -3,2 -2,0 -2,-1 -4,0l-4 2c-1,0 -1,0 -1,0l-6 3c-2,1 1,1 -3,1 -1,0 0,0 -2,1 0,0 0,0 0,0 -3,2 -3,1 -5,2 -3,2 0,1 -3,2 -3,0 -2,1 -5,2 -1,0 -1,0 -2,1 -1,1 1,0 -1,1 -1,0 -2,0 -3,0z"/>
    <path class="fil1" d="M724 199c1,1 2,3 3,4 0,0 1,0 1,0 0,1 0,1 0,1 1,1 0,1 2,1 1,2 1,2 3,3 0,2 0,2 2,2 0,3 4,3 4,6 2,0 2,0 2,2 2,0 2,1 3,2l7 9c1,1 1,2 3,2 0,4 2,0 2,4 2,1 3,2 4,5 3,3 2,4 5,4 0,2 3,5 4,7 1,1 2,2 3,3 1,2 1,3 3,3 0,2 2,4 3,5l1 1c0,0 0,0 0,0 0,0 0,1 0,1 0,0 0,0 0,0 2,2 0,1 3,2 0,3 2,5 4,7l0 1c1,0 1,0 1,1 1,0 1,0 1,0l2 4c1,1 0,1 2,2 1,5 3,2 3,6l2 0c0,5 2,3 2,7l2 0c0,1 0,2 1,3 1,1 1,1 1,2l1 1c2,2 1,2 2,4l4 6c0,0 0,0 0,0 1,1 0,0 1,1l8 14c1,1 0,0 1,1 0,1 0,0 1,1l2 5c1,1 1,1 1,2 3,4 3,5 4,7 2,2 0,4 3,4l0 4c1,0 1,0 2,1 0,0 0,2 1,3 0,1 0,1 2,1 0,1 -1,2 0,3 0,1 0,1 2,1 0,1 -1,2 0,3 0,2 0,1 2,1 0,5 1,4 2,6 1,3 -1,1 1,3l1 3c1,2 2,2 2,4 2,5 3,4 3,8l1 0c0,3 1,4 3,6 1,1 -1,1 4,1 2,0 1,-1 6,-3 3,-1 2,-1 3,-2l10 -4c2,0 2,0 2,-2 4,0 3,-1 5,-2l5 -2c0,0 0,0 0,0 2,-1 -1,1 1,0 0,0 0,0 1,-1 0,0 0,0 0,0l6 -3c1,-1 2,-1 4,-1l0 -2c1,0 2,0 2,0l7 -4c0,0 0,0 0,0l3 -2c1,0 1,0 2,-1 1,0 1,-1 1,-1 0,0 0,0 0,0l10 -5c0,0 0,0 0,0l5 -4c0,0 0,0 0,0 6,-3 6,-1 6,-4 3,-1 5,-2 6,-3 1,-1 1,1 1,-2 2,0 4,-1 5,-2 1,-1 1,0 1,-2 3,0 2,-1 4,-2 2,-1 2,0 3,-2 3,0 1,0 2,-1l14 -10c2,-2 2,-4 0,-6 -3,-3 -4,-4 -6,-5 0,-2 0,-2 -2,-2 0,-2 -1,-2 -2,-3l-6 -5c-1,0 -1,0 -2,-1 0,0 -1,-1 -1,-1 -1,-1 -2,0 -2,-3l-2 0c0,-2 0,-2 -2,-2 0,-2 -1,-2 -3,-3l-5 -4c-1,0 0,0 -1,0l-3 -3c-2,-2 -3,-3 -5,-3l0 -2 -2 0c0,-2 -1,-1 -2,-2l-9 -6c-2,-1 -2,-3 -5,-3l0 -1c-4,-1 -2,-3 -6,-3l0 -2c-2,0 -3,0 -4,-1l-13 -8c0,-2 -2,-1 -3,-2 -1,0 -1,0 -1,0l-5 -4c-1,0 -1,0 -1,0l-4 -2c-1,-1 -1,-1 -2,-2 -1,-1 -1,0 -3,0 -1,-3 0,-2 -2,-3 -3,-1 -2,-1 -4,-2 -1,0 0,0 -1,0 -2,-1 0,0 -2,-1 -1,-1 0,0 -1,-1 -1,0 -1,0 -1,0l-5 -2c-3,-1 -1,-1 -3,-2l-3 0c0,-2 0,-1 0,-2 -4,0 -3,-1 -5,-2l-7 -3c-2,0 -1,0 -2,-1 -1,-1 -2,0 -4,-1 -3,-1 1,-1 -3,-2 -3,-1 0,1 -3,-1 -2,-1 0,0 -2,-1l-4 -1c-1,-1 0,0 -1,-1l-8 -2c-2,-1 -1,-1 -3,-2 -2,-1 -2,0 -4,-1 -2,0 -1,-1 -3,-1 -4,-2 1,0 -5,-2 -1,-1 -1,-1 -3,-1 -3,0 -4,-1 -7,-2 -3,0 -3,-1 -5,-2 0,0 -2,0 -2,0 -1,0 -2,0 -2,0 -3,-1 -3,-2 -8,-3l-2 0c-5,-3 -5,-1 -8,-2 -2,0 -1,-1 -3,-1 -2,-1 -3,-1 -5,-1 -5,0 -1,0 -3,-1 -3,-1 -6,0 -9,-1 -3,0 -7,-4 -13,0z"/>
    <path class="fil1" d="M489 938c0,6 0,3 2,6 1,1 0,2 1,3l6 12c1,1 0,1 2,1 0,2 0,2 0,4l9 14c0,1 -1,1 2,2 0,2 0,2 1,4l3 3c0,0 0,0 0,0 0,0 0,1 0,1 1,2 0,2 2,2 0,3 2,5 4,7l1 3c1,1 0,0 1,1 0,0 0,0 0,0l1 1c1,2 -1,1 2,2 0,5 2,2 2,6l2 0c0,5 2,2 3,6 2,1 1,1 2,3l6 9c1,1 1,0 1,1 1,1 1,-1 1,2 3,0 2,1 3,2l2 4c2,2 2,0 2,3 1,0 2,1 4,3 0,1 0,1 0,1 1,1 1,1 1,2 1,0 1,0 1,1 0,0 0,0 0,0l0 1c0,0 0,0 1,0l6 7c0,0 1,1 1,1 1,1 0,1 1,2l1 1c0,0 0,0 0,0l4 5c1,1 1,2 3,2 0,4 2,0 2,4 3,0 2,1 6,6l4 5c1,0 0,0 1,0l9 10c1,0 1,0 1,1 1,1 1,2 3,2 0,2 0,2 2,2 1,2 1,2 2,2 1,2 0,1 2,2 0,0 0,0 0,0l11 10c1,1 0,1 2,1 1,3 1,1 2,3 2,2 13,13 13,5l0 -203c0,-2 -1,-3 -2,-3 -5,0 -16,-1 -21,2 -6,3 -16,-2 -23,1 0,1 -1,1 -1,1 -5,2 -11,-1 -16,2 -2,1 1,1 -3,1 -4,0 -9,-1 -11,1 -3,2 -7,0 -11,1 -2,1 -1,2 -3,2 -1,0 -3,0 -5,0l-2 1c-1,0 -1,0 -1,0 -2,1 0,1 -4,1 -6,0 -5,2 -8,2 -1,1 -3,0 -4,0 -4,1 -2,1 -3,2 -2,1 -3,0 -5,1 -3,0 -2,1 -5,2 -2,0 -4,0 -6,1 -2,1 -1,0 -4,1 -1,0 -2,0 -3,1 -2,1 -3,1 -3,2z"/>
    <path class="fil1" d="M665 916l0 203c0,8 10,-2 13,-4l0 -1c2,-1 2,0 2,-3 2,0 3,-1 4,-3l10 -7c1,-2 1,0 1,-3 2,0 2,0 2,-2 2,0 2,0 3,-2 2,0 2,-1 3,-3l12 -12c1,-1 0,0 1,-1 0,-1 1,-1 1,-2l4 -4c0,0 0,0 0,0 1,-2 0,-2 3,-2 0,-4 1,0 2,-4 2,0 2,-1 3,-3l9 -10c0,0 0,0 0,0 0,0 0,-1 0,-1l1 -1c0,0 0,0 0,0l2 -2c0,0 1,-1 1,-1l4 -5c1,-1 1,-3 3,-3 0,-3 2,-3 4,-6 1,-2 0,-3 3,-3 0,-3 0,-1 2,-3 0,-1 0,-1 1,-2l2 -4c2,-1 3,-3 4,-6l1 0c1,-4 2,-1 3,-6l1 0c1,-4 3,-1 3,-6 3,-1 1,0 2,-1l5 -9c1,-1 2,-1 2,-4 2,0 2,-1 2,-4 2,0 1,0 2,-2 2,-2 2,-1 2,-4 2,-1 1,-1 2,-2l7 -13c1,-2 2,-2 2,-5 2,0 1,1 2,-1l1 -3c1,-1 1,-1 1,-1 0,0 0,-2 1,-3l1 -3c2,-3 1,0 2,-2l2 -4c0,-1 0,1 0,-5 0,-1 -1,-1 -2,-2 -1,-1 -1,-1 -3,-1 -6,-1 -5,-2 -10,-2l-2 -1c-3,-2 -5,-1 -8,-2 -2,-1 1,-1 -3,-1 -2,-1 -4,0 -6,-1 -3,-2 -5,-1 -8,-2 -3,0 0,0 -2,-1 -1,0 1,0 -1,0 0,-1 -2,-1 -2,-1 -2,0 -3,0 -5,0 -3,0 -1,0 -3,-1 -1,-1 -3,-1 -4,-1 -8,0 -3,1 -8,-2 -2,-1 -7,0 -9,0 -5,0 -4,-2 -8,-2 -5,-1 -10,1 -13,-1 -1,-1 -3,-1 -4,-1 -3,-1 -7,0 -10,0 -13,0 -7,-3 -17,-3l-14 0c-1,0 -2,1 -2,3z"/>
    <path class="fil1" d="M440 957c-6,0 -3,0 -6,1 -1,1 -2,1 -4,2l-10 5c-1,0 -1,0 -2,0 -1,1 -1,1 -1,1l-3 1c0,0 0,0 0,0l-21 11c-2,2 -2,2 -4,3 -1,0 0,0 -1,0l-4 2 0 1c-2,0 -2,1 -4,2l-11 7c-1,0 -1,0 -2,1 0,0 0,0 0,0 -1,1 0,0 -1,1 -1,0 -1,0 -2,1l-3 2c-1,1 0,-2 -1,1 -2,0 -2,1 -4,2 -2,1 -2,0 -2,3 -5,0 -3,2 -7,2l0 6 3 0c0,3 2,3 4,5 0,0 0,0 0,0 0,0 1,1 1,1l3 2c0,0 0,0 0,0 3,2 5,5 8,7 3,1 3,0 3,2 3,0 2,1 4,3 1,1 1,1 2,1l8 5c1,1 1,2 3,2l0 2c2,0 3,1 4,2 1,0 1,0 3,1l0 1c3,0 4,2 6,3l8 6c1,0 1,0 3,0 0,3 1,2 3,3l8 5c2,1 2,1 4,1 0,1 0,1 1,1 1,1 1,1 3,1 0,4 1,1 3,2 2,1 0,1 2,2l2 1c2,0 0,0 2,1l10 5c0,0 1,0 1,0 2,0 1,1 3,2l5 2c2,0 2,1 3,1 1,1 3,1 4,2 3,2 2,0 5,2 1,0 0,1 2,1l4 1c1,1 2,1 4,2 3,1 0,0 2,1 0,0 0,0 1,0 1,1 2,0 3,1 2,1 0,1 2,1 1,1 1,1 3,1 3,0 1,1 4,2 5,1 3,1 5,2 1,0 1,0 1,0 5,1 4,2 7,2 3,1 5,2 7,2 1,0 2,0 3,1 2,0 1,1 4,2l3 0c3,0 1,1 4,1l5 1c3,1 2,2 7,2 5,0 3,2 10,2 4,0 1,1 4,2 4,1 6,0 10,1 3,2 8,2 11,0 -1,-2 -1,-2 -2,-3 0,0 -1,-1 -1,-1l-4 -4c0,-1 1,1 0,0 -1,-1 1,-1 -2,-1 0,-2 0,-2 -2,-2 0,-2 -1,-2 -2,-3 -1,-2 -2,-2 -2,-4 -2,0 -2,0 -2,-2 -3,0 -1,0 -2,-1 -1,0 -1,0 -1,0l-2 -2c0,-1 0,-1 0,-1l-6 -7c-2,-2 1,-1 -2,-2 -1,-4 -2,1 -2,-4 -5,0 0,-2 -5,-3 0,-3 -2,-4 -4,-7l-2 -1c0,0 0,-1 0,-1l-2 -2c-1,-2 -3,-3 -3,-5l-1 0c-1,-2 -1,-1 -2,-3l0 0c0,0 -1,-1 -1,-1 0,0 0,0 0,0l-10 -14c-1,-1 0,-2 -2,-2 -1,-3 -4,-6 -6,-9 -1,-2 -1,-2 -2,-3 0,0 0,-1 0,-1l-4 -5c0,-1 0,-1 0,-1l-1 -1c-1,-2 -3,-3 -3,-5 -2,-1 -1,0 -2,-2 -1,-2 -3,-5 -4,-7 -1,-2 -1,-2 -2,-3l-1 -2c-1,-1 0,0 -1,-1l-5 -9c0,-1 0,0 0,-1l-4 -7c0,0 0,0 0,0 0,0 -1,0 -1,0 0,0 0,-1 0,-1 0,0 0,0 0,0 0,0 0,0 -1,-1l-2 -3c0,-1 0,-3 -1,-4 -1,-1 -1,0 -1,-1 0,-1 0,0 0,-1 0,0 0,0 0,-1 -1,-1 -2,-1 -2,-3l-5 -8c0,-1 0,-1 -1,-3 -1,-2 0,-4 -3,-5 -1,0 0,0 -1,0 -1,-1 0,-1 -2,-1 -2,1 -4,1 -5,2 -3,2 -2,0 -6,3 -4,2 -3,-2 -5,3z"/>
    <path class="fil1" d="M804 1013c-1,2 -2,3 -3,5l-11 16c0,0 0,0 0,0 0,0 0,0 0,0 0,0 0,0 0,0 -1,2 -2,2 -2,4 -3,1 -1,0 -2,2l-6 8c-1,0 0,0 -1,1 0,0 0,0 0,0l-4 6c-1,1 -2,0 -2,3l-1 0c-1,2 0,1 -1,2l-5 6c0,0 0,0 0,0l-1 1c0,0 0,1 0,1l-2 2c-2,2 -3,2 -3,4 -4,1 1,3 -4,3 0,5 -2,0 -2,4 -3,1 -1,0 -2,2l-6 7c0,0 0,0 0,0l-2 3c-1,1 -1,1 -3,1 0,2 0,2 -2,2 0,4 -4,4 -4,7 -2,0 -2,0 -2,2 -3,0 -2,1 -4,3l-1 0c0,0 0,0 0,1l-1 1c-1,1 -3,2 -3,4 6,4 9,0 12,0 4,-1 6,0 9,-1 3,-2 0,-1 4,-2 1,0 2,0 4,0 5,-1 -1,-1 8,-2 4,0 3,-2 7,-2 1,0 3,0 4,-1 2,-1 0,-1 3,-1 4,-1 4,-2 8,-2 0,-1 2,-1 4,-1 2,-1 0,-1 3,-2 4,0 3,-1 7,-2l4 -1c0,0 0,0 0,0 0,0 0,0 0,0 0,0 0,0 1,0l2 -1c4,-1 1,0 3,-2 3,-1 2,0 4,0 2,-1 2,-2 5,-2 2,-1 1,0 2,-1 1,0 2,-1 3,-1 3,-1 2,-2 5,-3 4,0 2,-1 5,-2l4 -1c1,-1 2,-1 3,-1 2,-1 2,-2 3,-2 3,-1 2,0 3,-2l4 0c1,-3 0,-2 2,-2 3,-1 1,0 3,-2 2,-1 3,-1 4,-2 1,-1 0,0 2,0l3 -2c1,-1 0,0 1,-1 2,0 3,-1 4,-2 2,0 2,1 3,-2 3,0 2,-1 5,-2l10 -5c2,-2 4,-1 4,-4 4,0 5,-3 8,-4l2 -1c2,-2 4,-4 7,-4l0 -1c4,-1 2,-3 6,-3l0 -2c3,0 2,-1 5,-2l9 -7c0,0 1,0 1,0 0,0 0,0 0,0 1,-2 0,-2 3,-2 0,-3 1,-2 4,-3l4 -4c0,0 0,0 0,0 0,0 0,0 0,0 0,0 0,0 0,0l7 -5c1,-1 1,-1 2,-2 1,-1 2,-1 2,-3l2 0 0 -6c-3,0 -1,-2 -6,-2 0,-3 -1,-2 -3,-3 -1,-1 -1,-2 -4,-2 0,-3 -3,-2 -6,-5l-6 -4c-1,0 1,1 -1,0l-2 -1c-2,-1 0,0 -2,-1 -1,-1 0,0 -1,-1l-1 -1c0,0 -1,0 -1,0 -1,-1 -1,-2 -4,-2l0 -1c-3,-1 -3,-2 -5,-3l-23 -12c-2,-1 -2,-1 -2,-1l-9 -4c0,0 -1,0 -1,0l-11 -5c-1,-1 -2,-1 -4,-1 -2,-4 -1,-1 -5,-3 -1,-1 0,-1 -2,-1 -2,-1 -2,0 -4,-1 -2,-2 -2,-2 -5,-3 -5,0 -5,4 -7,6l0 2c-1,1 0,1 -1,1l-6 12c0,2 0,1 -1,2l-1 3c0,0 -1,1 -1,1 -1,2 0,-1 -1,2 0,1 0,0 0,1 -1,1 -1,1 -2,3l-4 6c0,0 0,0 0,0 0,1 0,1 0,1l-1 1c-1,2 -1,1 -2,3 0,0 0,0 0,0l-6 10c-1,1 0,1 -1,3 -1,1 -3,3 -3,5 -1,1 0,1 -2,2z"/>
   </g>
  </g>
 </g>
</svg>
