<?xml version="1.0" encoding="UTF-8"?>
<!DOCTYPE svg PUBLIC "-//W3C//DTD SVG 1.1//EN" "http://www.w3.org/Graphics/SVG/1.1/DTD/svg11.dtd">
<!-- Creator: CorelDRAW X7 -->
<svg xmlns="http://www.w3.org/2000/svg" xml:space="preserve" width="20in" height="11.25in" version="1.1" style="shape-rendering:geometricPrecision; text-rendering:geometricPrecision; image-rendering:optimizeQuality; fill-rule:evenodd; clip-rule:evenodd"
viewBox="0 0 20000 11250"
 xmlns:xlink="http://www.w3.org/1999/xlink">
 <defs>
  <style type="text/css">
   <![CDATA[
    .fil0 {fill:none}
    .fil1 {fill:#FEFEFE;fill-opacity:0.501961}
    .fil2 {fill:#FEFEFE;fill-opacity:0.501961}
   ]]>
  </style>
   <clipPath id="id0">
    <path d="M28 11241l0 -11250 19958 0 0 11250 -19958 0z"/>
   </clipPath>
    <clipPath id="id1">
     <path d="M28 11241l0 -11250 19958 0 0 11250 -19958 0z"/>
    </clipPath>
    <clipPath id="id2">
     <path d="M28 11241l0 -11250 19958 0 0 11250 -19958 0z"/>
    </clipPath>
 </defs>
 <g id="Слой_x0020_1">
  <metadata id="CorelCorpID_0Corel-Layer"/>
  <g>
  </g>
  <g style="clip-path:url(#id0)">
   <g>
   </g>
   <g style="clip-path:url(#id1)">
    <image x="-1365" y="-2190" width="22745" height="15611" xlink:href="backgraund-_Images\backgraund-_ImgID1.png"/>
   </g>
   <g style="clip-path:url(#id2)">
   </g>
  </g>
  <polygon class="fil0" points="28,11241 28,-9 19986,-9 19986,11241 "/>
  <path class="fil1" d="M5671 9729c-166,0 -301,-129 -301,-287 0,-159 135,-287 301,-287 167,0 302,128 302,287 0,158 -135,287 -302,287z"/>
  <path class="fil1" d="M2314 5715c-161,0 -292,-124 -292,-277 0,-153 131,-277 292,-277 160,0 291,124 291,277 0,153 -131,277 -291,277z"/>
  <path class="fil1" d="M16061 4362c61,0 110,47 110,105 0,58 -49,106 -110,106 -61,0 -111,-48 -111,-106 0,-58 50,-105 111,-105z"/>
  <path class="fil1" d="M18010 6630c-72,0 -130,-55 -130,-124 0,-68 58,-124 130,-124 72,0 131,56 131,124 0,69 -59,124 -131,124z"/>
  <path class="fil1" d="M17479 6627c-167,0 -302,-129 -302,-287 0,-159 135,-287 302,-287 166,0 301,128 301,287 0,158 -135,287 -301,287z"/>
  <path class="fil1" d="M16553 8441c-155,0 -281,-120 -281,-268 0,-148 126,-268 281,-268 155,0 281,120 281,268 0,148 -126,268 -281,268z"/>
  <path class="fil1" d="M17325 8588c-161,0 -292,-124 -292,-277 0,-153 131,-277 292,-277 160,0 291,124 291,277 0,153 -131,277 -291,277z"/>
  <path class="fil1" d="M14914 6209c-161,0 -291,-124 -291,-277 0,-153 130,-277 291,-277 161,0 291,124 291,277 0,153 -130,277 -291,277z"/>
  <path class="fil1" d="M15933 7885c-174,0 -315,-134 -315,-300 0,-165 141,-299 315,-299 174,0 315,134 315,299 0,166 -141,300 -315,300z"/>
  <path class="fil1" d="M17044 5609c-164,0 -296,-126 -296,-282 0,-155 132,-281 296,-281 163,0 295,126 295,281 0,156 -132,282 -295,282z"/>
  <path class="fil1" d="M15515 5280c78,0 142,61 142,135 0,75 -64,135 -142,135 -79,0 -142,-60 -142,-135 0,-74 63,-135 142,-135z"/>
  <path class="fil1" d="M3890 7163c89,0 161,68 161,153 0,85 -72,154 -161,154 -89,0 -162,-69 -162,-154 0,-85 73,-153 162,-153z"/>
  <path class="fil1" d="M16483 5145c97,0 175,75 175,167 0,92 -78,166 -175,166 -96,0 -175,-74 -175,-166 0,-92 79,-167 175,-167z"/>
  <path class="fil1" d="M15656 6153c96,0 175,75 175,167 0,92 -79,166 -175,166 -97,0 -175,-74 -175,-166 0,-92 78,-167 175,-167z"/>
  <path class="fil1" d="M17754 7926c61,0 111,48 111,106 0,58 -50,105 -111,105 -61,0 -110,-47 -110,-105 0,-58 49,-106 110,-106z"/>
  <path class="fil1" d="M17985 5998c96,0 175,74 175,166 0,92 -79,167 -175,167 -97,0 -175,-75 -175,-167 0,-92 78,-166 175,-166z"/>
  <path class="fil1" d="M18124 5392c107,0 193,82 193,183 0,101 -86,183 -193,183 -106,0 -192,-82 -192,-183 0,-101 86,-183 192,-183z"/>
  <path class="fil1" d="M17552 5325c57,0 103,44 103,99 0,54 -46,98 -103,98 -58,0 -104,-44 -104,-98 0,-55 46,-99 104,-99z"/>
  <path class="fil1" d="M17339 5631c76,0 137,59 137,131 0,72 -61,130 -137,130 -76,0 -137,-58 -137,-130 0,-72 61,-131 137,-131z"/>
  <path class="fil1" d="M17829 5704c59,0 106,45 106,101 0,56 -47,102 -106,102 -59,0 -107,-46 -107,-102 0,-56 48,-101 107,-101z"/>
  <g>
   <path class="fil1" d="M17176 10317c-72,0 -130,-56 -130,-124 0,-69 58,-124 130,-124 72,0 131,55 131,124 0,68 -59,124 -131,124z"/>
   <path class="fil1" d="M16645 10313c-167,0 -302,-128 -302,-286 0,-159 135,-287 302,-287 166,0 301,128 301,287 0,158 -135,286 -301,286z"/>
   <path class="fil1" d="M14769 9788c-161,0 -291,-124 -291,-277 0,-153 130,-277 291,-277 161,0 291,124 291,277 0,153 -130,277 -291,277z"/>
   <path class="fil1" d="M17886 9410c-174,0 -315,-134 -315,-300 0,-165 141,-299 315,-299 174,0 315,134 315,299 0,166 -141,300 -315,300z"/>
   <path class="fil1" d="M16209 9367c-163,0 -295,-126 -295,-281 0,-156 132,-282 295,-282 164,0 296,126 296,282 0,155 -132,281 -296,281z"/>
   <path class="fil1" d="M14681 8931c78,0 141,60 141,135 0,74 -63,135 -141,135 -79,0 -142,-61 -142,-135 0,-75 63,-135 142,-135z"/>
   <path class="fil1" d="M15796 8458c89,0 162,69 162,154 0,84 -73,153 -162,153 -89,0 -161,-69 -161,-153 0,-85 72,-154 161,-154z"/>
   <path class="fil1" d="M15649 8904c97,0 175,74 175,166 0,92 -78,167 -175,167 -97,0 -175,-75 -175,-167 0,-92 78,-166 175,-166z"/>
   <path class="fil1" d="M15441 7900c97,0 175,75 175,167 0,92 -78,166 -175,166 -97,0 -175,-74 -175,-166 0,-92 78,-167 175,-167z"/>
   <path class="fil1" d="M14821 9840c97,0 175,74 175,166 0,92 -78,167 -175,167 -96,0 -174,-75 -174,-167 0,-92 78,-166 174,-166z"/>
   <path class="fil1" d="M17151 9685c96,0 175,74 175,166 0,92 -79,167 -175,167 -97,0 -175,-75 -175,-167 0,-92 78,-166 175,-166z"/>
   <path class="fil1" d="M17290 9150c107,0 193,82 193,184 0,101 -86,183 -193,183 -106,0 -192,-82 -192,-183 0,-102 86,-184 192,-184z"/>
   <path class="fil1" d="M16717 9084c58,0 104,44 104,98 0,55 -46,99 -104,99 -57,0 -103,-44 -103,-99 0,-54 46,-98 103,-98z"/>
   <path class="fil1" d="M16505 9390c76,0 137,58 137,130 0,72 -61,131 -137,131 -76,0 -137,-59 -137,-131 0,-72 61,-130 137,-130z"/>
   <path class="fil1" d="M16995 9463c59,0 106,45 106,101 0,56 -47,102 -106,102 -59,0 -107,-46 -107,-102 0,-56 48,-101 107,-101z"/>
  </g>
  <path class="fil1" d="M14389 10205c68,0 124,53 124,118 0,65 -56,117 -124,117 -68,0 -124,-52 -124,-117 0,-65 56,-118 124,-118z"/>
  <path class="fil1" d="M18157 2690c-72,0 -131,-56 -131,-124 0,-69 59,-124 131,-124 72,0 130,55 130,124 0,68 -58,124 -130,124z"/>
  <path class="fil1" d="M15879 3304c-167,0 -302,-129 -302,-287 0,-159 135,-287 302,-287 166,0 301,128 301,287 0,158 -135,287 -301,287z"/>
  <path class="fil1" d="M15674 2233c-161,0 -291,-124 -291,-277 0,-153 130,-278 291,-278 161,0 291,125 291,278 0,153 -130,277 -291,277z"/>
  <path class="fil1" d="M17190 1740c-163,0 -296,-126 -296,-281 0,-156 133,-282 296,-282 163,0 296,126 296,282 0,155 -133,281 -296,281z"/>
  <path class="fil1" d="M15585 1376c79,0 142,60 142,135 0,74 -63,135 -142,135 -78,0 -141,-61 -141,-135 0,-75 63,-135 141,-135z"/>
  <path class="fil1" d="M16630 1277c96,0 175,74 175,166 0,92 -79,167 -175,167 -97,0 -175,-75 -175,-167 0,-92 78,-166 175,-166z"/>
  <path class="fil1" d="M15726 2285c97,0 175,74 175,166 0,92 -78,167 -175,167 -96,0 -175,-75 -175,-167 0,-92 79,-166 175,-166z"/>
  <path class="fil1" d="M15576 3460c96,0 175,74 175,166 0,92 -79,167 -175,167 -97,0 -175,-75 -175,-167 0,-92 78,-166 175,-166z"/>
  <path class="fil1" d="M17893 3802c106,0 192,82 192,184 0,101 -86,183 -192,183 -107,0 -193,-82 -193,-183 0,-102 86,-184 193,-184z"/>
  <path class="fil1" d="M17698 1457c57,0 104,44 104,98 0,55 -47,99 -104,99 -57,0 -104,-44 -104,-99 0,-54 47,-98 104,-98z"/>
  <path class="fil1" d="M17975 1836c59,0 107,45 107,101 0,56 -48,101 -107,101 -59,0 -106,-45 -106,-101 0,-56 47,-101 106,-101z"/>
  <path class="fil1" d="M16693 3234c97,0 175,74 175,166 0,92 -78,167 -175,167 -96,0 -175,-75 -175,-167 0,-92 79,-166 175,-166z"/>
  <g>
   <path class="fil2" d="M2752 7547c53,0 96,41 96,91 0,50 -43,91 -96,91 -53,0 -96,-41 -96,-91 0,-50 43,-91 96,-91z"/>
   <path class="fil2" d="M2058 6209c70,0 127,54 127,121 0,67 -57,122 -127,122 -71,0 -128,-55 -128,-122 0,-67 57,-121 128,-121z"/>
   <path class="fil1" d="M2785 4469c-144,0 -261,-111 -261,-248 0,-138 117,-249 261,-249 145,0 262,111 262,249 0,137 -117,248 -262,248z"/>
   <path class="fil1" d="M3502 4606c-149,0 -270,-115 -270,-257 0,-143 121,-258 270,-258 150,0 271,115 271,258 0,142 -121,257 -271,257z"/>
   <path class="fil1" d="M3902 3991c56,0 102,44 102,98 0,54 -46,98 -102,98 -57,0 -103,-44 -103,-98 0,-54 46,-98 103,-98z"/>
   <path class="fil1" d="M4999 7145c-67,0 -121,-51 -121,-115 0,-64 54,-115 121,-115 67,0 121,51 121,115 0,64 -54,115 -121,115z"/>
   <path class="fil1" d="M4505 7142c-155,0 -281,-119 -281,-266 0,-148 126,-267 281,-267 154,0 280,119 280,267 0,147 -126,266 -280,266z"/>
   <path class="fil1" d="M2762 6654c-150,0 -271,-115 -271,-258 0,-142 121,-257 271,-257 149,0 270,115 270,257 0,143 -121,258 -270,258z"/>
   <path class="fil1" d="M5658 6303c-162,0 -292,-125 -292,-279 0,-153 130,-278 292,-278 162,0 292,125 292,278 0,154 -130,279 -292,279z"/>
   <path class="fil1" d="M4100 6263c-152,0 -275,-117 -275,-262 0,-144 123,-261 275,-261 152,0 275,117 275,261 0,145 -123,262 -275,262z"/>
   <path class="fil1" d="M2679 5857c73,0 132,57 132,126 0,69 -59,125 -132,125 -72,0 -131,-56 -131,-125 0,-69 59,-126 131,-126z"/>
   <path class="fil1" d="M3716 5418c83,0 150,64 150,143 0,78 -67,142 -150,142 -83,0 -150,-64 -150,-142 0,-79 67,-143 150,-143z"/>
   <path class="fil1" d="M3579 5832c90,0 163,69 163,155 0,85 -73,155 -163,155 -89,0 -162,-70 -162,-155 0,-86 73,-155 162,-155z"/>
   <path class="fil1" d="M3386 4899c90,0 163,70 163,155 0,86 -73,155 -163,155 -90,0 -162,-69 -162,-155 0,-85 72,-155 162,-155z"/>
   <path class="fil1" d="M2810 6702c90,0 163,69 163,155 0,85 -73,154 -163,154 -89,0 -162,-69 -162,-154 0,-86 73,-155 162,-155z"/>
   <path class="fil1" d="M4975 6558c90,0 162,69 162,154 0,86 -72,155 -162,155 -90,0 -163,-69 -163,-155 0,-85 73,-154 163,-154z"/>
   <path class="fil1" d="M5104 6061c99,0 180,77 180,171 0,94 -81,170 -180,170 -98,0 -179,-76 -179,-170 0,-94 81,-171 179,-171z"/>
   <path class="fil1" d="M4572 5999c54,0 97,41 97,92 0,51 -43,92 -97,92 -53,0 -96,-41 -96,-92 0,-51 43,-92 96,-92z"/>
   <path class="fil1" d="M4375 6284c70,0 127,54 127,121 0,67 -57,121 -127,121 -70,0 -127,-54 -127,-121 0,-67 57,-121 127,-121z"/>
   <path class="fil1" d="M4830 6352c55,0 99,42 99,94 0,52 -44,94 -99,94 -55,0 -99,-42 -99,-94 0,-52 44,-94 99,-94z"/>
  </g>
  <g>
   <path class="fil1" d="M4786 9790c-72,0 -131,-55 -131,-124 0,-68 59,-124 131,-124 72,0 130,56 130,124 0,69 -58,124 -130,124z"/>
   <path class="fil1" d="M4254 9787c-166,0 -301,-128 -301,-287 0,-158 135,-287 301,-287 167,0 302,129 302,287 0,159 -135,287 -302,287z"/>
   <path class="fil1" d="M2378 9262c-160,0 -291,-124 -291,-278 0,-153 131,-277 291,-277 161,0 292,124 292,277 0,154 -131,278 -292,278z"/>
   <path class="fil1" d="M5495 8884c-174,0 -314,-134 -314,-300 0,-165 140,-299 314,-299 174,0 315,134 315,299 0,166 -141,300 -315,300z"/>
   <path class="fil1" d="M3819 8841c-163,0 -296,-126 -296,-282 0,-155 133,-281 296,-281 163,0 296,126 296,281 0,156 -133,282 -296,282z"/>
   <path class="fil1" d="M2290 8405c78,0 142,60 142,135 0,74 -64,135 -142,135 -78,0 -142,-61 -142,-135 0,-75 64,-135 142,-135z"/>
   <path class="fil1" d="M3406 7932c89,0 161,68 161,153 0,85 -72,154 -161,154 -89,0 -162,-69 -162,-154 0,-85 73,-153 162,-153z"/>
   <path class="fil1" d="M3259 8377c96,0 175,75 175,167 0,92 -79,166 -175,166 -97,0 -175,-74 -175,-166 0,-92 78,-167 175,-167z"/>
   <path class="fil1" d="M3050 7374c97,0 175,74 175,166 0,92 -78,167 -175,167 -96,0 -175,-75 -175,-167 0,-92 79,-166 175,-166z"/>
   <path class="fil1" d="M2431 9313c97,0 175,75 175,167 0,92 -78,166 -175,166 -97,0 -175,-74 -175,-166 0,-92 78,-167 175,-167z"/>
   <path class="fil1" d="M4760 9158c97,0 175,75 175,167 0,92 -78,166 -175,166 -97,0 -175,-74 -175,-166 0,-92 78,-167 175,-167z"/>
   <path class="fil1" d="M4900 8624c106,0 192,82 192,183 0,102 -86,184 -192,184 -107,0 -193,-82 -193,-184 0,-101 86,-183 193,-183z"/>
   <path class="fil1" d="M4327 8557c57,0 104,44 104,99 0,54 -47,99 -104,99 -57,0 -104,-45 -104,-99 0,-55 47,-99 104,-99z"/>
   <path class="fil1" d="M4115 8863c75,0 137,59 137,131 0,72 -62,130 -137,130 -76,0 -138,-58 -138,-130 0,-72 62,-131 138,-131z"/>
   <path class="fil1" d="M4604 8936c59,0 107,46 107,102 0,56 -48,101 -107,101 -59,0 -106,-45 -106,-101 0,-56 47,-102 106,-102z"/>
  </g>
  <path class="fil1" d="M5742 10311c-86,-70 -96,-194 -22,-276 75,-82 205,-91 291,-21 86,71 96,195 21,277 -74,82 -204,91 -290,20z"/>
  <path class="fil1" d="M4424 1723c-72,0 -131,55 -131,124 0,68 59,124 131,124 72,0 130,-56 130,-124 0,-69 -58,-124 -130,-124z"/>
  <path class="fil1" d="M3892 1726c-166,0 -301,128 -301,287 0,158 135,287 301,287 167,0 302,-129 302,-287 0,-159 -135,-287 -302,-287z"/>
  <path class="fil1" d="M2016 2251c-160,0 -291,125 -291,278 0,153 131,277 291,277 161,0 292,-124 292,-277 0,-153 -131,-278 -292,-278z"/>
  <path class="fil1" d="M5133 2630c-174,0 -314,134 -314,299 0,165 140,300 314,300 174,0 315,-135 315,-300 0,-165 -141,-299 -315,-299z"/>
  <path class="fil1" d="M3063 1487c-163,0 -296,126 -296,281 0,156 133,282 296,282 163,0 296,-126 296,-282 0,-155 -133,-281 -296,-281z"/>
  <path class="fil1" d="M1928 3109c78,0 142,-61 142,-135 0,-75 -64,-135 -142,-135 -78,0 -142,60 -142,135 0,74 64,135 142,135z"/>
  <path class="fil1" d="M3044 3581c89,0 161,-68 161,-153 0,-85 -72,-154 -161,-154 -89,0 -162,69 -162,154 0,85 73,153 162,153z"/>
  <path class="fil1" d="M2631 3563c96,0 175,-74 175,-166 0,-92 -79,-167 -175,-167 -97,0 -175,75 -175,167 0,92 78,166 175,166z"/>
  <path class="fil1" d="M2069 2200c97,0 175,-75 175,-167 0,-92 -78,-166 -175,-166 -97,0 -175,74 -175,166 0,92 78,167 175,167z"/>
  <path class="fil1" d="M4398 2355c97,0 175,-75 175,-167 0,-92 -78,-166 -175,-166 -97,0 -175,74 -175,166 0,92 78,167 175,167z"/>
  <path class="fil1" d="M4538 2889c106,0 192,-82 192,-183 0,-101 -86,-183 -192,-183 -107,0 -193,82 -193,183 0,101 86,183 193,183z"/>
  <path class="fil1" d="M3965 2956c57,0 104,-44 104,-99 0,-54 -47,-98 -104,-98 -57,0 -104,44 -104,98 0,55 47,99 104,99z"/>
  <path class="fil1" d="M3753 2650c75,0 137,-59 137,-131 0,-72 -62,-130 -137,-130 -76,0 -138,58 -138,130 0,72 62,131 138,131z"/>
  <path class="fil1" d="M4242 2577c59,0 107,-46 107,-102 0,-56 -48,-101 -107,-101 -59,0 -106,45 -106,101 0,56 47,102 106,102z"/>
  <path class="fil1" d="M6282 9274c-86,-71 -96,-194 -22,-277 75,-82 205,-91 291,-20 86,71 96,194 22,276 -75,82 -205,92 -291,21z"/>
  <path class="fil1" d="M17514 3501c-155,0 -281,-120 -281,-268 0,-148 126,-267 281,-267 156,0 282,119 282,267 0,148 -126,268 -282,268z"/>
 </g>
</svg>
