<?xml version="1.0" encoding="UTF-8"?>
<!DOCTYPE svg PUBLIC "-//W3C//DTD SVG 1.1//EN" "http://www.w3.org/Graphics/SVG/1.1/DTD/svg11.dtd">
<!-- Creator: CorelDRAW X7 -->
<svg xmlns="http://www.w3.org/2000/svg" xml:space="preserve"  version="1.1" style="shape-rendering:geometricPrecision; text-rendering:geometricPrecision; image-rendering:optimizeQuality; fill-rule:evenodd; clip-rule:evenodd"
viewBox="0 0 2083 729"
 xmlns:xlink="http://www.w3.org/1999/xlink">
 <defs>
  <style type="text/css">
   <![CDATA[
    .fil5 {fill:#FFED00}
    .fil0 {fill:#FFED00}
    .fil2 {fill:#FEFEFE;fill-rule:nonzero}
    .fil3 {fill:#FFED00;fill-rule:nonzero}
    .fil1 {fill:#612C75;fill-rule:nonzero}
    .fil4 {fill:#FFED00;fill-rule:nonzero}
   ]]>
  </style>
 </defs>
 <g id="Слой_x0020_1">
  <metadata id="CorelCorpID_0Corel-Layer"/>
  <g id="_1107513040">
   <rect class="fil0" x="1547" y="117" width="112" height="519"/>
   <rect class="fil0" x="1359" y="117" width="112" height="519"/>
   <rect class="fil0" x="1148" y="117" width="159" height="519"/>
   <rect class="fil0" x="440" y="260" width="124" height="350"/>
   <path class="fil1" d="M1999 274l-126 0 0 -38c0,-18 -1,-29 -4,-34 -4,-5 -9,-8 -16,-8 -8,0 -15,4 -19,10 -4,7 -6,17 -6,30 0,18 2,31 7,39 5,9 17,20 38,32 60,36 98,65 113,88 16,23 24,60 24,110 0,37 -5,65 -13,82 -9,18 -25,32 -50,44 -25,12 -54,18 -87,18 -36,0 -66,-7 -92,-20 -26,-14 -42,-32 -50,-53 -8,-21 -12,-51 -12,-90l0 -34 125 0 0 63c0,20 2,32 6,38 3,5 9,8 18,8 9,0 16,-3 20,-10 5,-7 7,-18 7,-32 0,-30 -4,-50 -13,-60 -8,-9 -29,-25 -63,-47 -33,-22 -55,-38 -66,-48 -11,-10 -20,-24 -27,-42 -7,-18 -11,-40 -11,-68 0,-40 5,-69 15,-87 10,-18 27,-33 49,-43 23,-10 50,-16 82,-16 35,0 65,6 90,17 24,12 41,26 49,43 8,17 12,47 12,88l0 20z"/>
   <path class="fil1" d="M1659 117l0 133 -87 0 0 246 87 0 0 140 -118 0 -70 -236 0 40 -32 0 0 -189 -62 0 0 245 94 0 0 140 -113 0 0 -519 113 0 75 234 0 -234 113 0zm0 193l0 45 -31 0 0 -45 31 0zm0 90l0 52 -31 0 0 -52 31 0z"/>
   <path class="fil1" d="M1307 117l0 298 -25 -165 -95 0 -33 246 68 0 3 -45 24 0 3 45 55 0 0 140 -159 0 0 -519 159 0zm-60 289c-3,-28 -6,-63 -10,-105 -6,48 -10,83 -12,105l22 0z"/>
   <polygon class="fil1" points="1050,117 1127,636 989,636 982,543 933,543 926,636 786,636 854,117 "/>
   <path class="fil1" d="M440 117l119 0c64,0 107,2 129,7 23,5 41,18 55,38 15,20 22,52 22,97 0,40 -5,67 -15,81 -10,14 -30,22 -60,25 27,6 45,15 54,26 9,12 15,22 17,31 3,9 4,35 4,77l0 137 -126 0 0 -173c0,-28 -2,-45 -6,-51 -5,-7 -16,-10 -34,-10l0 234 -159 0 0 -33 48 0 0 -95c8,0 12,2 14,5 2,2 3,9 3,20l0 70 50 0 0 -55c0,-17 0,-28 -1,-31 -1,-4 -3,-8 -7,-13 -4,-4 -11,-8 -22,-10 12,-1 20,-5 24,-10 4,-6 6,-17 6,-33 0,-18 -3,-31 -8,-39 -6,-8 -14,-13 -23,-15 -9,-2 -26,-3 -52,-3l-32 0 0 -277zm159 88l0 116c15,0 25,-2 31,-6 6,-4 9,-18 9,-41l0 -28c0,-17 -3,-28 -8,-33 -6,-5 -17,-8 -32,-8z"/>
   <path class="fil1" d="M488 428l0 47c6,0 11,-1 13,-3 2,-2 4,-7 4,-16l0 -12c0,-6 -2,-11 -4,-13 -2,-2 -7,-3 -13,-3z"/>
   <path class="fil2" d="M390 516c0,21 0,36 -1,45 -1,9 -5,17 -10,24 -5,7 -12,13 -21,17 -9,4 -19,5 -31,5 -11,0 -21,-1 -30,-5 -9,-4 -16,-9 -21,-16 -6,-8 -9,-16 -10,-24 -1,-9 -2,-24 -2,-46l0 -35c0,-21 1,-36 2,-45 1,-9 4,-17 9,-24 5,-7 12,-13 21,-17 9,-3 19,-5 31,-5 11,0 21,1 30,5 9,4 16,9 22,17 5,7 8,15 9,23 1,9 2,24 2,46l0 35z"/>
   <path class="fil2" d="M336 448c0,-10 -1,-16 -2,-19 -1,-3 -3,-4 -7,-4 -2,0 -4,1 -6,3 -1,2 -2,9 -2,20l0 97c0,12 0,20 1,23 1,3 4,4 7,4 4,0 6,-2 7,-5 1,-3 2,-11 2,-23l0 -96z"/>
   <polygon class="fil3" points="130,390 327,390 312,431 184,431 184,471 221,471 221,511 184,511 184,599 130,599 "/>
   <path class="fil3" d="M390 516c0,21 0,36 -1,45 -1,9 -5,17 -10,24 -5,7 -12,13 -21,17 -9,4 -19,5 -31,5 -11,0 -21,-1 -30,-5 -9,-4 -16,-9 -21,-17 -6,-7 -9,-15 -10,-23 -1,-9 -2,-24 -2,-46l0 -35c0,-21 1,-36 2,-45 1,-9 4,-17 9,-24 5,-7 12,-13 21,-17 9,-3 19,-5 31,-5 11,0 21,1 30,5 9,4 16,9 22,17 5,7 8,15 9,23 1,9 2,24 2,46l0 35z"/>
   <path class="fil3" d="M336 448c0,-10 -1,-16 -2,-19 -1,-3 -3,-4 -7,-4 -2,0 -4,1 -6,3 -1,2 -2,9 -2,20l0 97c0,12 0,20 1,23 1,3 4,4 7,4 4,0 6,-2 7,-5 1,-3 2,-11 2,-23l0 -96z"/>
   <path class="fil1" d="M101 117l134 0c43,0 75,3 97,10 22,6 39,20 53,40 13,20 20,53 20,98 0,30 -5,51 -14,63 -10,12 -29,21 -57,27 32,8 53,19 64,36 11,16 17,41 17,75l0 48c0,35 -4,61 -12,78 -8,17 -21,28 -38,35 -18,6 -54,9 -108,9l-156 0 0 -519zm135 88l0 116c6,0 10,0 14,0 12,0 21,-4 24,-10 4,-7 6,-25 6,-56 0,-16 -2,-28 -5,-34 -3,-7 -7,-11 -11,-13 -5,-1 -14,-2 -28,-3z"/>
   <path class="fil4" d="M336 448c0,-10 -1,-16 -2,-19 -1,-3 -3,-4 -7,-4 -2,0 -4,1 -6,3 -1,2 -2,9 -2,20l0 97c0,12 0,20 1,23 1,3 4,4 7,4 4,0 6,-2 7,-5 1,-3 2,-11 2,-23l0 -96zm54 68c0,21 0,36 -1,45 -1,9 -5,17 -10,24 -5,7 -12,13 -21,17 -9,4 -19,5 -31,5 -11,0 -21,-1 -30,-5 -9,-4 -16,-9 -21,-17 -6,-7 -9,-15 -10,-23 -1,-9 -2,-24 -2,-46l0 -35c0,-21 1,-36 2,-45 1,-9 4,-17 9,-24 5,-7 12,-13 21,-17 9,-3 19,-5 31,-5 11,0 21,1 30,5 9,4 16,9 22,17 5,7 8,15 9,23 1,9 2,24 2,46l0 35zm-260 -126l197 0 -15 41 -128 0 0 40 37 0 0 40 -37 0 0 88 -54 0 0 -209z"/>
   <path class="fil4" d="M1021 327l-57 0 0 -17c0,-8 0,-13 -2,-16 -1,-2 -4,-3 -7,-3 -4,0 -6,2 -8,5 -2,3 -3,7 -3,13 0,8 1,14 3,18 2,4 8,9 17,14 27,16 44,30 51,40 7,10 11,27 11,50 0,17 -2,29 -6,37 -4,8 -11,14 -23,20 -11,5 -24,8 -39,8 -16,0 -30,-3 -41,-9 -12,-7 -19,-14 -23,-24 -4,-10 -5,-23 -5,-41l0 -15 56 0 0 28c0,9 1,15 3,17 1,3 4,4 8,4 4,0 7,-1 9,-5 2,-3 3,-8 3,-14 0,-14 -2,-23 -5,-27 -4,-4 -14,-11 -29,-21 -15,-10 -25,-18 -30,-22 -5,-5 -9,-11 -12,-19 -3,-8 -5,-18 -5,-31 0,-18 2,-31 7,-39 4,-8 12,-15 22,-20 10,-4 22,-7 37,-7 16,0 29,3 40,8 12,5 19,12 23,19 3,8 5,21 5,40l0 9z"/>
   <g>
    <rect class="fil5" x="1873" y="49" width="24.7728" height="655.367"/>
    <rect class="fil5" x="1811" y="49" width="24.7728" height="655.367"/>
   </g>
  </g>
 </g>
</svg>
