<?xml version="1.0" encoding="UTF-8"?>
<!DOCTYPE svg PUBLIC "-//W3C//DTD SVG 1.1//EN" "http://www.w3.org/Graphics/SVG/1.1/DTD/svg11.dtd">
<!-- Creator: CorelDRAW X7 -->
<svg xmlns="http://www.w3.org/2000/svg" xml:space="preserve" width="3.74999in" height="1.28124in" version="1.1" style="shape-rendering:geometricPrecision; text-rendering:geometricPrecision; image-rendering:optimizeQuality; fill-rule:evenodd; clip-rule:evenodd"
viewBox="0 0 3750 1281"
 xmlns:xlink="http://www.w3.org/1999/xlink">
 <defs>
  <style type="text/css">
   <![CDATA[
    .fil5 {fill:#FFED00}
    .fil0 {fill:#FFED00}
    .fil2 {fill:#FEFEFE;fill-rule:nonzero}
    .fil3 {fill:#FFED00;fill-rule:nonzero}
    .fil1 {fill:#612C75;fill-rule:nonzero}
    .fil4 {fill:#FFED00;fill-rule:nonzero}
   ]]>
  </style>
 </defs>
 <g id="Слой_x0020_1">
  <metadata id="CorelCorpID_0Corel-Layer"/>
  <g id="_996641424">
   <rect class="fil0" x="2838" y="132" width="219" height="1011"/>
   <rect class="fil0" x="2470" y="132" width="219" height="1011"/>
   <rect class="fil0" x="2057" y="132" width="311" height="1011"/>
   <rect class="fil0" x="674" y="412" width="243" height="683"/>
   <path class="fil1" d="M3720 439l-245 0 0 -74c0,-35 -3,-58 -9,-67 -7,-10 -17,-15 -31,-15 -16,0 -28,7 -36,20 -8,13 -12,32 -12,58 0,34 4,59 13,76 9,17 34,38 75,62 117,70 191,127 221,172 30,44 46,116 46,215 0,72 -9,125 -26,159 -17,34 -49,63 -98,86 -48,23 -104,35 -168,35 -71,0 -131,-14 -181,-40 -50,-27 -82,-61 -98,-102 -15,-41 -23,-100 -23,-176l0 -66 245 0 0 123c0,38 3,62 10,73 7,11 19,16 37,16 17,0 30,-7 39,-20 8,-14 13,-34 13,-61 0,-60 -8,-99 -25,-117 -17,-18 -58,-49 -123,-92 -65,-43 -109,-75 -130,-94 -21,-20 -39,-47 -53,-82 -14,-34 -21,-78 -21,-132 0,-77 10,-134 30,-170 20,-36 52,-63 96,-84 44,-20 97,-30 160,-30 68,0 127,11 175,33 48,22 80,50 95,84 16,33 24,90 24,170l0 40z"/>
   <path class="fil1" d="M3056 132l0 260 -169 0 0 480 169 0 0 272 -230 0 -138 -460 0 79 -62 0 0 -369 -121 0 0 476 183 0 0 274 -220 0 0 -1012 220 0 148 456 0 -456 220 0zm0 377l0 88 -60 0 0 -88 60 0zm0 175l0 102 -60 0 0 -102 60 0z"/>
   <path class="fil1" d="M2368 132l0 581 -49 -321 -184 0 -65 479 132 0 7 -88 46 0 7 88 106 0 0 273 -311 0 0 -1012 311 0zm-117 565c-6,-56 -12,-124 -19,-206 -12,94 -20,162 -24,206l43 0z"/>
   <polygon class="fil1" points="1866,132 2016,1144 1747,1144 1733,962 1638,962 1623,1144 1350,1144 1484,132 "/>
   <path class="fil1" d="M674 132l233 0c124,0 208,5 252,15 44,9 80,34 108,73 28,39 42,102 42,188 0,79 -10,132 -30,159 -19,27 -58,43 -115,49 52,13 87,30 105,52 18,21 29,41 33,59 5,18 7,68 7,150l0 267 -245 0 0 -337c0,-54 -4,-87 -13,-100 -8,-13 -30,-20 -67,-20l0 457 -310 0 0 -64 95 0 0 -184c14,0 23,2 27,7 3,6 5,19 5,41l0 136 98 0 0 -108c0,-33 0,-53 -2,-60 -2,-8 -6,-16 -14,-24 -7,-9 -21,-16 -42,-21 23,-2 39,-9 47,-20 7,-11 11,-32 11,-64 0,-34 -5,-60 -16,-76 -12,-15 -26,-25 -44,-29 -17,-4 -51,-6 -101,-6l-64 0 0 -540zm310 173l0 225c30,0 50,-4 62,-12 12,-8 18,-35 18,-79l0 -56c0,-32 -6,-53 -17,-63 -11,-10 -32,-15 -63,-15z"/>
   <path class="fil1" d="M769 739l0 91c12,0 20,-2 25,-5 4,-4 7,-14 7,-32l0 -23c0,-13 -3,-21 -7,-25 -5,-4 -13,-6 -25,-6z"/>
   <path class="fil2" d="M577 911c0,41 -1,70 -3,87 -2,17 -8,33 -18,47 -10,14 -24,25 -41,32 -18,8 -38,11 -61,11 -22,0 -41,-3 -59,-10 -17,-7 -31,-18 -42,-32 -10,-15 -16,-30 -18,-47 -2,-17 -4,-46 -4,-88l0 -70c0,-41 1,-70 3,-87 2,-17 8,-32 18,-46 11,-14 24,-25 42,-33 17,-7 37,-11 60,-11 22,0 42,4 59,11 17,7 31,17 42,32 10,14 17,29 19,46 2,17 3,46 3,88l0 70z"/>
   <path class="fil2" d="M470 777c0,-19 -1,-31 -3,-36 -2,-5 -6,-8 -12,-8 -6,0 -10,2 -13,6 -3,5 -4,17 -4,38l0 190c0,24 1,39 3,44 2,6 6,8 13,8 7,0 12,-3 14,-9 1,-6 2,-22 2,-46l0 -187z"/>
   <polygon class="fil3" points="68,664 454,664 425,745 174,745 174,823 247,823 247,900 174,900 174,1071 68,1071 "/>
   <path class="fil3" d="M577 911c0,41 -1,70 -3,87 -2,17 -8,33 -18,47 -10,14 -24,25 -41,32 -18,8 -38,11 -61,11 -22,0 -41,-3 -59,-10 -17,-7 -31,-18 -42,-32 -10,-15 -16,-30 -18,-47 -2,-17 -4,-46 -4,-88l0 -70c0,-41 1,-70 3,-87 2,-17 8,-32 18,-46 11,-14 24,-25 42,-33 17,-7 37,-11 60,-11 22,0 42,4 59,11 17,7 31,17 42,32 10,14 17,29 19,46 2,17 3,46 3,88l0 70z"/>
   <path class="fil3" d="M470 777c0,-19 -1,-31 -3,-36 -2,-5 -6,-8 -12,-8 -6,0 -10,2 -13,6 -3,5 -4,17 -4,38l0 190c0,24 1,39 3,44 2,6 6,8 13,8 7,0 12,-3 14,-9 1,-6 2,-22 2,-46l0 -187z"/>
   <path class="fil1" d="M12 132l263 0c83,0 146,7 188,20 43,13 77,39 104,78 26,39 39,103 39,190 0,59 -9,100 -28,124 -18,23 -55,41 -110,53 61,14 103,37 125,69 21,32 32,80 32,146l0 94c0,69 -8,119 -23,152 -16,33 -41,56 -75,68 -34,12 -104,18 -210,18l-305 0 0 -1012zm265 173l0 225c11,0 19,-1 25,-1 26,0 42,-6 49,-18 7,-13 10,-50 10,-110 0,-31 -3,-54 -8,-66 -6,-13 -14,-21 -23,-24 -9,-4 -27,-5 -53,-6z"/>
   <path class="fil4" d="M470 777c0,-19 -1,-31 -3,-36 -2,-5 -6,-8 -12,-8 -6,0 -10,2 -13,6 -3,5 -4,17 -4,38l0 190c0,24 1,39 3,44 2,6 6,8 13,8 7,0 12,-3 14,-9 1,-6 2,-22 2,-46l0 -187zm107 134c0,41 -1,70 -3,87 -2,17 -8,33 -18,47 -10,14 -24,25 -41,32 -18,8 -38,11 -61,11 -22,0 -41,-3 -59,-10 -17,-7 -31,-18 -42,-32 -10,-15 -16,-30 -18,-47 -2,-17 -4,-46 -4,-88l0 -70c0,-41 1,-70 3,-87 2,-17 8,-32 18,-46 11,-14 24,-25 42,-33 17,-7 37,-11 60,-11 22,0 42,4 59,11 17,7 31,17 42,32 10,14 17,29 19,46 2,17 3,46 3,88l0 70zm-509 -247l386 0 -29 81 -251 0 0 78 73 0 0 77 -73 0 0 171 -106 0 0 -407z"/>
   <path class="fil4" d="M1810 543l-111 0 0 -34c0,-16 -2,-26 -4,-30 -3,-5 -8,-7 -14,-7 -8,0 -13,3 -17,9 -3,6 -5,14 -5,26 0,16 2,27 6,35 4,7 15,17 34,28 53,31 86,57 100,77 14,20 20,53 20,97 0,33 -3,57 -11,73 -8,15 -22,28 -44,38 -22,11 -48,16 -77,16 -32,0 -59,-6 -81,-18 -23,-12 -37,-28 -44,-46 -7,-19 -11,-45 -11,-79l0 -30 111 0 0 55c0,17 1,28 4,33 4,5 9,7 17,7 8,0 14,-3 18,-9 3,-6 5,-15 5,-27 0,-27 -3,-45 -11,-53 -7,-8 -26,-22 -55,-42 -30,-19 -49,-34 -59,-42 -10,-9 -18,-21 -24,-37 -6,-16 -9,-36 -9,-60 0,-35 4,-61 13,-77 9,-16 23,-28 43,-38 20,-9 44,-13 73,-13 31,0 57,5 79,15 21,10 36,22 43,37 7,15 11,41 11,78l0 18z"/>
   <g>
    <rect class="fil5" x="3475" width="48.4007" height="1277.12"/>
    <rect class="fil5" x="3354" width="48.4007" height="1277.12"/>
   </g>
  </g>
 </g>
</svg>
