<?xml version="1.0" encoding="UTF-8"?>
<!DOCTYPE svg PUBLIC "-//W3C//DTD SVG 1.1//EN" "http://www.w3.org/Graphics/SVG/1.1/DTD/svg11.dtd">
<!-- Creator: CorelDRAW X7 -->
<svg xmlns="http://www.w3.org/2000/svg" xml:space="preserve" width="0.885409in" height="0.885409in" version="1.1" style="shape-rendering:geometricPrecision; text-rendering:geometricPrecision; image-rendering:optimizeQuality; fill-rule:evenodd; clip-rule:evenodd"
viewBox="0 0 885 885"
 xmlns:xlink="http://www.w3.org/1999/xlink">
 <defs>
  <style type="text/css">
   <![CDATA[
    .fil2 {fill:#FEFEFE}
    .fil0 {fill:#612C75}
    .fil1 {fill:#FEFEFE;fill-rule:nonzero}
   ]]>
  </style>
 </defs>
 <g id="Слой_x0020_1">
  <metadata id="CorelCorpID_0Corel-Layer"/>
  <g id="_1108311408">
   <rect class="fil0" x="11" y="8" width="866" height="872" rx="179" ry="177"/>
   <g>
    <g>
     <path class="fil1" d="M582 176l-276 0 0 -56 276 0 0 0 0 56zm187 131l-57 0 0 0 0 -7 0 -6 -1 -7 -1 -6 -2 -6 -2 -7 -2 -6 -2 -6 -3 -5 -2 -6 -4 -5 -3 -6 -4 -5 -4 -5 -4 -5 -4 -4 -5 -4 -4 -5 -5 -4 -5 -3 -6 -4 -5 -3 -6 -3 -6 -2 -6 -3 -6 -2 -6 -1 -6 -2 -6 -1 -7 -1 -7 0 -6 -1 0 -56 9 0 10 1 9 1 9 1 10 3 8 2 9 3 9 3 8 4 8 4 8 5 8 5 7 5 7 6 7 6 6 6 7 6 5 7 6 7 5 7 5 8 5 8 4 8 4 8 3 9 3 9 2 8 3 10 1 9 1 9 1 10 0 9 0 0zm-57 274l0 -274 57 0 0 274 0 0 -57 0zm-130 188l0 -57 0 0 6 0 7 -1 7 -1 6 -1 6 -1 6 -2 6 -2 6 -3 6 -2 6 -3 5 -3 6 -4 5 -3 5 -4 4 -4 5 -5 4 -4 4 -5 4 -5 4 -5 3 -5 4 -6 2 -5 3 -6 2 -6 2 -6 2 -6 2 -7 1 -6 1 -7 0 -6 0 -7 57 0 0 10 -1 9 -1 9 -1 10 -3 9 -2 9 -3 8 -3 9 -4 8 -4 8 -5 8 -5 8 -5 7 -6 7 -5 7 -7 6 -6 7 -7 6 -7 5 -7 5 -8 5 -8 5 -8 4 -8 4 -9 3 -9 3 -8 3 -10 2 -9 1 -9 2 -10 0 -9 1 0 0zm-276 -57l276 0 0 57 -276 0 0 0 0 -57zm-188 -131l57 0 0 0 0 7 1 6 0 7 2 6 1 7 2 6 2 6 2 6 3 6 3 5 3 6 3 5 4 5 4 5 4 5 4 4 5 5 5 4 5 4 5 3 5 4 6 3 5 3 6 2 6 3 6 2 6 2 6 1 7 1 6 1 7 1 7 0 0 57 -10 -1 -10 0 -9 -2 -9 -1 -9 -2 -9 -3 -9 -3 -8 -3 -9 -4 -8 -4 -8 -5 -7 -5 -8 -5 -7 -5 -7 -6 -6 -7 -6 -6 -6 -7 -6 -7 -5 -7 -5 -8 -4 -8 -5 -8 -3 -8 -4 -9 -3 -8 -2 -9 -2 -9 -2 -10 -1 -9 -1 -9 0 -10 0 0zm57 -274l0 274 -57 0 0 -274 0 0 57 0zm131 -187l0 56 0 0 -7 1 -7 0 -6 1 -7 1 -6 2 -6 1 -6 2 -6 3 -6 2 -5 3 -6 3 -5 4 -5 3 -5 4 -5 5 -5 4 -4 4 -4 5 -4 5 -4 5 -3 6 -3 5 -3 6 -3 5 -2 6 -2 6 -2 7 -1 6 -2 6 0 7 -1 6 0 7 -57 0 0 -9 1 -10 1 -9 2 -9 2 -10 2 -8 3 -9 4 -9 3 -8 5 -8 4 -8 5 -8 5 -7 6 -7 6 -7 6 -6 6 -6 7 -6 7 -6 8 -5 7 -5 8 -5 8 -4 9 -4 8 -3 9 -3 9 -2 9 -3 9 -1 9 -1 10 -1 10 0 0 0z"/>
    </g>
    <g>
     <path class="fil1" d="M611 443l-57 0 0 0 0 -5 -1 -6 0 -5 -1 -5 -2 -5 -1 -5 -2 -5 -2 -5 -2 -5 -2 -5 -3 -4 -3 -4 -2 -5 -4 -4 -3 -4 -4 -3 -3 -4 -4 -3 -4 -3 -4 -3 -5 -3 -4 -3 -5 -2 -5 -2 -4 -2 -5 -2 -5 -1 -6 -1 -5 -1 -5 -1 -6 0 -5 -1 0 -56 8 0 9 0 8 1 8 2 8 2 8 2 7 3 8 2 7 4 7 3 7 4 6 5 7 4 6 5 6 5 6 6 5 5 5 6 5 6 5 7 4 6 4 7 3 7 4 8 3 7 2 8 2 7 2 8 2 8 1 9 0 8 1 8 0 0zm-164 164l0 -57 0 0 5 0 6 0 5 -1 5 -1 6 -1 5 -2 5 -1 4 -2 5 -2 5 -3 4 -2 5 -3 4 -3 4 -3 4 -3 3 -4 4 -4 3 -4 4 -4 2 -4 3 -4 3 -5 2 -4 2 -5 2 -5 2 -5 1 -5 2 -5 1 -5 0 -6 1 -5 0 -6 57 0 -1 9 0 8 -1 8 -2 8 -2 8 -2 8 -2 8 -3 7 -4 7 -3 7 -4 7 -4 7 -5 6 -5 7 -5 5 -5 6 -6 6 -6 5 -6 5 -7 4 -6 4 -7 4 -7 4 -7 3 -8 3 -7 3 -8 2 -8 2 -8 1 -8 1 -9 1 -8 0 0 0zm-164 -164l57 0 0 0 0 6 0 5 1 6 1 5 1 5 2 5 1 5 2 5 2 5 3 4 2 5 3 4 3 4 3 4 4 4 3 4 4 4 4 3 4 3 4 3 4 3 5 2 4 3 5 2 5 2 5 1 5 2 5 1 6 1 5 1 5 0 6 0 0 57 -9 0 -8 -1 -8 -1 -8 -1 -8 -2 -8 -2 -7 -3 -8 -3 -7 -3 -7 -4 -7 -4 -7 -4 -6 -4 -6 -5 -6 -5 -6 -6 -5 -6 -6 -5 -4 -7 -5 -6 -4 -7 -4 -7 -4 -7 -3 -7 -3 -7 -3 -8 -2 -8 -2 -8 -1 -8 -1 -8 -1 -8 0 -9 0 0zm164 -163l0 56 0 0 -6 1 -5 0 -5 1 -6 1 -5 1 -5 1 -5 2 -5 2 -5 2 -4 2 -5 3 -4 3 -4 3 -4 3 -4 3 -4 4 -3 3 -4 4 -3 4 -3 5 -3 4 -2 4 -3 5 -2 5 -2 5 -1 5 -2 5 -1 5 -1 5 -1 5 0 6 0 5 -57 0 0 -8 1 -8 1 -9 1 -8 2 -8 2 -7 3 -8 3 -7 3 -8 4 -7 4 -7 4 -6 5 -7 4 -6 6 -6 5 -5 6 -6 6 -5 6 -5 6 -4 7 -5 7 -4 7 -3 7 -4 8 -2 7 -3 8 -2 8 -2 8 -2 8 -1 8 0 9 0 0 0z"/>
    </g>
    <g>
     <path class="fil1" d="M658 273l0 0 0 0 0 -2 0 -2 0 -2 -1 -2 0 -2 -1 -2 0 -1 -1 -2 -1 -2 -1 -2 -1 -1 -1 -2 -1 -2 -1 -1 -1 -1 -2 -2 -1 -1 -1 -1 -2 -2 -1 -1 -2 -1 -2 -1 -1 0 -2 -1 -2 -1 -2 -1 -2 0 -2 -1 -1 0 -2 0 -2 0 -3 0 0 -1 3 0 2 0 2 1 2 0 1 0 2 1 2 1 2 0 2 1 2 1 1 1 2 1 1 1 2 1 1 2 2 1 1 1 1 2 1 1 2 2 1 1 1 2 0 2 1 2 1 1 1 2 0 2 1 2 0 2 0 2 0 2 0 2 0 0zm-40 40l0 0 0 0 3 0 2 -1 2 0 1 0 2 -1 2 0 2 -1 2 0 2 -1 1 -1 2 -1 2 -1 1 -1 2 -1 1 -2 1 -1 2 -1 1 -2 1 -1 1 -2 1 -1 1 -2 1 -2 1 -1 1 -2 0 -2 1 -2 0 -2 1 -2 0 -2 0 -2 0 -2 0 0 0 2 0 2 0 2 0 2 -1 2 0 2 -1 2 -1 2 -1 1 0 2 -1 2 -1 1 -2 2 -1 2 -1 1 -1 1 -2 2 -1 1 -2 1 -1 1 -2 1 -1 1 -2 1 -2 1 -2 1 -2 0 -2 1 -1 0 -2 1 -2 0 -2 0 -3 0 0 0zm-39 -40l0 0 0 0 0 2 0 2 0 2 1 2 0 2 1 2 0 2 1 2 1 1 1 2 1 2 1 1 1 2 1 1 1 2 2 1 1 1 1 2 2 1 1 1 2 1 2 1 1 1 2 1 2 0 2 1 2 0 2 1 1 0 2 0 2 1 2 0 0 0 -2 0 -2 0 -2 0 -2 -1 -1 0 -2 -1 -2 0 -2 -1 -2 -1 -2 -1 -1 -1 -2 -1 -1 -1 -2 -1 -1 -1 -2 -2 -1 -1 -1 -1 -2 -2 -1 -2 -1 -1 -1 -2 0 -2 -1 -1 -1 -2 -1 -2 0 -2 -1 -2 0 -2 0 -2 0 -2 0 -2 0 0zm39 -40l0 1 0 0 -2 0 -2 0 -2 0 -1 0 -2 1 -2 0 -2 1 -2 1 -2 1 -1 0 -2 1 -2 1 -1 1 -2 2 -1 1 -1 1 -2 2 -1 1 -1 1 -1 2 -1 2 -1 1 -1 2 -1 2 -1 2 0 1 -1 2 0 2 -1 2 0 2 0 2 0 2 0 0 0 -2 0 -2 0 -2 0 -2 1 -2 0 -2 1 -2 1 -1 1 -2 0 -2 1 -2 1 -1 1 -2 2 -1 1 -2 1 -1 2 -1 1 -2 2 -1 1 -1 2 -1 1 -1 2 -1 2 -1 2 0 2 -1 2 -1 1 0 2 0 2 -1 2 0 2 0 0 0z"/>
     <path id="1" class="fil2" d="M618 233c22,0 40,18 40,40 0,22 -18,40 -40,40 -21,0 -39,-18 -39,-40 0,-22 18,-40 39,-40z"/>
    </g>
   </g>
  </g>
 </g>
</svg>
