<?xml version="1.0" encoding="UTF-8"?>
<!DOCTYPE svg PUBLIC "-//W3C//DTD SVG 1.1//EN" "http://www.w3.org/Graphics/SVG/1.1/DTD/svg11.dtd">
<!-- Creator: CorelDRAW X7 -->
<svg xmlns="http://www.w3.org/2000/svg" xml:space="preserve" width="0.885409in" height="0.885409in" version="1.1" style="shape-rendering:geometricPrecision; text-rendering:geometricPrecision; image-rendering:optimizeQuality; fill-rule:evenodd; clip-rule:evenodd"
viewBox="0 0 885 885"
 xmlns:xlink="http://www.w3.org/1999/xlink">
 <defs>
  <style type="text/css">
   <![CDATA[
    .fil0 {fill:#FEFEFE}
    .fil2 {fill:#612C75}
    .fil1 {fill:#2B2A29;fill-rule:nonzero}
   ]]>
  </style>
 </defs>
 <g id="Слой_x0020_1">
  <metadata id="CorelCorpID_0Corel-Layer"/>
  <g>
   <path class="fil0" d="M436 76c198,0 359,161 359,360 0,198 -161,359 -359,359 -199,0 -360,-161 -360,-359 0,-199 161,-360 360,-360z"/>
   <path id="1" class="fil1" d="M799 436l-8 0 0 0 0 -18 -2 -19 -2 -17 -3 -18 -4 -17 -5 -17 -5 -16 -7 -17 -7 -15 -8 -16 -8 -14 -10 -15 -10 -14 -10 -13 -11 -13 -12 -13 -12 -11 -13 -11 -14 -11 -14 -10 -14 -9 -15 -9 -15 -8 -16 -7 -16 -6 -17 -6 -17 -4 -17 -4 -17 -4 -18 -2 -18 -1 -18 -1 0 -7 18 0 19 1 18 3 18 3 17 4 18 5 17 6 16 6 16 7 16 8 15 9 15 10 14 10 14 10 13 12 13 12 12 13 11 13 11 13 10 15 9 14 9 16 8 15 7 16 7 17 6 17 5 17 4 18 3 17 2 19 1 18 1 19 0 0zm-363 363l0 -8 0 0 18 0 18 -2 18 -2 17 -3 17 -4 17 -5 17 -5 16 -7 16 -7 15 -8 15 -8 14 -9 14 -10 14 -11 13 -11 12 -12 12 -12 11 -13 10 -14 10 -13 10 -15 8 -15 8 -15 7 -16 7 -16 5 -16 5 -17 4 -18 3 -17 2 -18 2 -18 0 -18 8 0 -1 19 -1 18 -2 18 -3 18 -4 18 -5 17 -6 17 -7 16 -7 16 -8 16 -9 15 -9 15 -10 14 -11 14 -11 13 -12 13 -13 12 -13 11 -14 11 -14 10 -15 10 -15 8 -16 8 -16 8 -16 6 -17 6 -18 5 -17 4 -18 3 -18 2 -19 2 -18 0 0 0zm-364 -363l8 0 0 0 1 18 1 18 2 18 3 17 4 18 5 17 6 16 6 16 7 16 8 15 9 15 9 15 10 13 10 14 12 13 11 12 13 12 13 11 13 11 14 10 14 9 15 8 16 8 15 7 16 7 17 5 17 5 17 4 18 3 17 2 18 2 19 0 0 8 -19 0 -19 -2 -18 -2 -18 -3 -17 -4 -17 -5 -17 -6 -17 -6 -16 -8 -16 -8 -15 -8 -14 -10 -15 -10 -13 -11 -14 -11 -12 -12 -12 -13 -12 -13 -10 -14 -11 -14 -9 -15 -9 -15 -8 -16 -7 -16 -7 -16 -5 -17 -5 -17 -4 -18 -3 -18 -3 -18 -1 -18 -1 -19 0 0zm364 -363l0 7 0 0 -19 1 -18 1 -17 2 -18 4 -17 4 -17 4 -17 6 -16 6 -15 7 -16 8 -15 9 -14 9 -14 10 -13 11 -13 11 -13 11 -11 13 -12 13 -10 13 -10 14 -9 15 -9 14 -8 16 -7 15 -6 17 -6 16 -5 17 -4 17 -3 18 -2 17 -1 19 -1 18 -8 0 1 -19 1 -18 3 -19 3 -17 4 -18 5 -17 5 -17 7 -17 7 -16 8 -15 9 -16 9 -14 11 -15 10 -13 12 -13 12 -13 12 -12 14 -12 13 -10 15 -10 14 -10 15 -9 16 -8 16 -7 17 -6 17 -6 17 -5 17 -4 18 -3 18 -3 19 -1 19 0 0 0z"/>
  </g>
  <path class="fil2" d="M444 8c-239,0 -433,194 -433,433 0,240 194,434 433,434 239,0 433,-194 433,-434 0,-239 -194,-433 -433,-433zm-116 643l-95 0 0 -307 95 0 0 307 0 0zm-48 -348c-31,0 -56,-25 -56,-56 0,-32 25,-57 56,-57 31,0 57,25 57,57 0,31 -26,56 -57,56zm405 348l-95 0 0 -161c0,-45 -17,-69 -52,-69 -38,0 -58,25 -58,69l0 161 -91 0 0 -307 91 0 0 41c0,0 28,-51 93,-51 65,0 112,40 112,122l0 195 0 0z"/>
 </g>
</svg>
