<?xml version="1.0" encoding="UTF-8"?>
<!DOCTYPE svg PUBLIC "-//W3C//DTD SVG 1.1//EN" "http://www.w3.org/Graphics/SVG/1.1/DTD/svg11.dtd">
<!-- Creator: CorelDRAW X7 -->
<svg xmlns="http://www.w3.org/2000/svg" xml:space="preserve" width="0.885409in" height="0.885409in" version="1.1" style="shape-rendering:geometricPrecision; text-rendering:geometricPrecision; image-rendering:optimizeQuality; fill-rule:evenodd; clip-rule:evenodd"
viewBox="0 0 885 885"
 xmlns:xlink="http://www.w3.org/1999/xlink">
 <defs>
  <style type="text/css">
   <![CDATA[
    .fil0 {fill:#FEFEFE}
    .fil2 {fill:#612C75}
    .fil1 {fill:#2B2A29;fill-rule:nonzero}
   ]]>
  </style>
 </defs>
 <g id="Слой_x0020_1">
  <metadata id="CorelCorpID_0Corel-Layer"/>
  <g id="_1060156720">
   <g>
    <path class="fil0" d="M-3617 -102c199,0 360,161 360,360 0,198 -161,359 -360,359 -198,0 -359,-161 -359,-359 0,-199 161,-360 359,-360z"/>
    <path id="1" class="fil1" d="M-3254 258l-7 0 0 0 -1 -18 -1 -19 -3 -17 -3 -18 -4 -17 -4 -17 -6 -16 -6 -17 -7 -15 -8 -16 -9 -14 -9 -15 -10 -14 -11 -13 -11 -13 -12 -12 -12 -12 -13 -11 -13 -11 -14 -10 -15 -9 -14 -9 -16 -8 -15 -7 -17 -6 -16 -6 -17 -4 -17 -4 -18 -3 -17 -3 -19 -1 -18 -1 0 -7 19 0 18 1 18 3 18 3 18 4 17 5 17 6 17 6 16 7 15 8 16 9 14 10 15 10 13 10 13 12 13 12 12 13 12 13 10 13 10 15 10 14 9 16 8 15 7 16 6 17 6 17 5 17 4 18 3 18 3 18 1 18 0 19 0 0zm-363 363l0 -8 0 0 18 0 19 -2 17 -2 18 -3 17 -4 17 -5 16 -5 17 -7 15 -7 16 -8 14 -8 15 -9 14 -10 13 -11 13 -11 12 -12 12 -12 11 -13 11 -13 10 -14 9 -15 9 -15 8 -15 7 -16 6 -16 6 -16 4 -17 4 -18 3 -17 3 -18 1 -18 1 -18 7 0 0 19 -1 18 -3 18 -3 18 -4 18 -5 17 -6 17 -6 16 -7 16 -8 16 -9 15 -10 15 -10 14 -10 14 -12 13 -12 13 -13 12 -13 11 -13 11 -15 10 -14 10 -16 8 -15 8 -16 8 -17 6 -17 6 -17 5 -18 4 -18 3 -18 2 -18 2 -19 0 0 0zm-363 -363l8 0 0 0 0 18 2 18 2 18 3 17 4 18 5 17 5 16 7 16 7 16 8 15 8 15 9 15 10 14 11 13 11 13 12 12 12 12 13 11 14 11 13 10 15 9 15 8 15 8 16 7 16 7 16 5 17 5 18 4 17 3 18 2 18 2 18 0 0 8 -19 0 -18 -2 -18 -2 -18 -3 -18 -4 -17 -5 -17 -6 -16 -6 -16 -8 -16 -8 -15 -8 -15 -10 -14 -10 -14 -11 -13 -11 -13 -12 -12 -13 -11 -13 -11 -14 -10 -14 -10 -15 -8 -15 -8 -16 -8 -16 -6 -16 -6 -17 -5 -17 -4 -18 -3 -18 -2 -18 -2 -18 0 -19 0 0zm363 -363l0 7 0 0 -18 1 -18 1 -18 3 -17 3 -18 4 -17 4 -16 6 -16 6 -16 7 -15 8 -15 9 -15 9 -13 10 -14 11 -13 11 -12 12 -12 12 -11 13 -11 13 -10 14 -9 15 -8 14 -8 16 -7 15 -7 17 -5 16 -5 17 -4 17 -3 18 -2 17 -2 19 0 18 -8 0 0 -19 2 -18 2 -18 3 -18 4 -18 5 -17 6 -17 6 -17 8 -16 8 -15 8 -16 10 -14 10 -15 11 -13 11 -13 12 -13 13 -12 13 -12 14 -10 14 -10 15 -10 15 -9 16 -8 16 -7 16 -6 17 -6 17 -5 18 -4 18 -3 18 -3 18 -1 19 0 0 0z"/>
   </g>
   <path class="fil2" d="M-3184 258c0,-239 -194,-433 -433,-433 -239,0 -433,194 -433,433 0,239 194,433 433,433 239,0 433,-194 433,-433zm-155 -172c-21,9 -43,15 -66,18 24,-15 42,-37 50,-64 -22,14 -46,23 -72,28 -21,-22 -50,-36 -83,-36 -63,0 -114,51 -114,114 0,9 1,18 3,26 -95,-5 -179,-50 -235,-119 -10,17 -15,36 -15,57 0,40 20,75 50,95 -18,0 -35,-5 -51,-14l0 1c0,56 39,102 91,112 -9,3 -19,4 -30,4 -7,0 -14,-1 -21,-2 14,45 56,78 106,79 -39,31 -88,49 -141,49 -10,0 -19,-1 -28,-2 51,33 111,52 175,52 210,0 324,-174 324,-325 0,-5 0,-9 0,-14 22,-16 42,-37 57,-59l0 0z"/>
  </g>
  <g>
   <g>
    <path class="fil0" d="M443 78c199,0 360,161 360,360 0,198 -161,359 -360,359 -198,0 -359,-161 -359,-359 0,-199 161,-360 359,-360z"/>
    <path id="1" class="fil1" d="M807 438l-8 0 0 0 -1 -19 -1 -18 -2 -17 -3 -18 -4 -17 -5 -17 -6 -17 -6 -16 -7 -15 -8 -16 -9 -15 -9 -14 -10 -14 -10 -13 -12 -13 -11 -13 -13 -11 -13 -12 -13 -10 -14 -10 -14 -9 -15 -9 -16 -8 -15 -7 -16 -6 -17 -6 -17 -5 -17 -4 -18 -3 -17 -2 -18 -1 -19 -1 0 -8 19 1 18 1 19 3 18 3 17 4 17 5 17 5 17 7 16 7 15 8 16 9 14 9 15 11 13 10 14 12 12 12 12 12 12 14 10 13 11 15 9 14 9 15 8 16 7 16 7 17 5 17 5 17 4 17 3 18 3 19 1 18 1 19 0 0zm-364 363l0 -8 0 0 19 0 18 -2 17 -2 18 -3 17 -4 17 -5 17 -5 16 -7 15 -7 16 -8 15 -8 14 -10 14 -10 13 -10 13 -11 13 -12 11 -12 12 -13 10 -14 10 -14 9 -14 9 -15 8 -15 7 -16 6 -16 6 -17 5 -17 4 -17 3 -17 2 -18 1 -18 1 -18 8 0 -1 18 -1 19 -3 18 -3 18 -4 17 -5 18 -5 17 -7 16 -7 16 -8 16 -9 15 -9 15 -11 14 -10 14 -12 13 -12 13 -12 12 -14 11 -13 11 -15 10 -14 9 -16 9 -15 8 -16 7 -17 7 -17 6 -17 5 -17 4 -18 3 -19 2 -18 1 -19 1 0 0zm-363 -363l8 0 0 0 0 18 2 18 2 18 3 17 4 17 5 17 5 17 7 16 7 16 8 15 8 15 10 14 9 14 11 14 11 13 12 12 12 12 13 11 14 10 14 10 14 10 15 8 15 8 16 7 16 7 17 5 16 5 18 4 17 3 18 2 18 2 18 0 0 8 -18 -1 -19 -1 -18 -2 -18 -3 -17 -4 -18 -5 -17 -6 -16 -7 -16 -7 -16 -8 -15 -9 -15 -9 -14 -10 -14 -11 -13 -11 -13 -12 -12 -13 -11 -13 -11 -14 -10 -14 -9 -15 -9 -15 -8 -16 -7 -16 -7 -16 -6 -17 -5 -18 -4 -17 -3 -18 -2 -18 -2 -19 0 -18 0 0zm363 -364l0 8 0 0 -18 1 -18 1 -18 2 -17 3 -18 4 -16 5 -17 6 -16 6 -16 7 -15 8 -15 9 -14 9 -14 10 -14 10 -13 12 -12 11 -12 13 -11 13 -11 13 -9 14 -10 14 -8 15 -8 16 -7 15 -7 16 -5 17 -5 17 -4 17 -3 18 -2 17 -2 18 0 19 -8 0 0 -19 2 -18 2 -19 3 -18 4 -17 5 -17 6 -17 7 -17 7 -16 8 -16 9 -15 9 -14 10 -15 11 -13 11 -14 12 -12 13 -12 13 -12 14 -10 14 -11 15 -9 15 -9 16 -8 16 -7 16 -7 17 -5 18 -5 17 -4 18 -3 18 -3 19 -1 18 -1 0 0z"/>
   </g>
   <path class="fil2" d="M876 438c0,-240 -194,-433 -433,-433 -239,0 -433,193 -433,433 0,239 194,433 433,433 239,0 433,-194 433,-433zm-155 -173c-20,9 -42,16 -65,18 23,-14 41,-36 50,-63 -23,14 -47,23 -73,28 -20,-22 -50,-36 -83,-36 -63,0 -114,51 -114,114 0,9 1,18 3,26 -95,-5 -178,-50 -235,-119 -9,17 -15,36 -15,57 0,40 20,75 51,95 -19,-1 -36,-6 -52,-14l0 1c0,55 39,101 91,112 -9,2 -19,4 -30,4 -7,0 -14,-1 -21,-2 14,45 56,78 106,79 -39,31 -88,49 -141,49 -9,0 -18,-1 -27,-2 50,32 110,51 174,51 210,0 324,-173 324,-324 0,-5 0,-10 0,-15 22,-16 42,-36 57,-59l0 0z"/>
  </g>
 </g>
</svg>
