<?xml version="1.0" encoding="UTF-8"?>
<!DOCTYPE svg PUBLIC "-//W3C//DTD SVG 1.1//EN" "http://www.w3.org/Graphics/SVG/1.1/DTD/svg11.dtd">
<!-- Creator: CorelDRAW X7 -->
<svg xmlns="http://www.w3.org/2000/svg" xml:space="preserve" width="0.885409in" height="0.885409in" version="1.1" style="shape-rendering:geometricPrecision; text-rendering:geometricPrecision; image-rendering:optimizeQuality; fill-rule:evenodd; clip-rule:evenodd"
viewBox="0 0 885 885"
 xmlns:xlink="http://www.w3.org/1999/xlink">
 <defs>
  <style type="text/css">
   <![CDATA[
    .fil0 {fill:#FEFEFE}
    .fil1 {fill:#612C75}
   ]]>
  </style>
 </defs>
 <g id="Слой_x0020_1">
  <metadata id="CorelCorpID_0Corel-Layer"/>
  <g id="_1060194384">
   <path class="fil0" d="M348 287c-28,14 1,19 8,24 34,24 29,244 -63,52 -31,-64 -15,-70 -86,-70 -84,0 -73,-1 -41,69 27,60 77,143 123,189 25,25 63,49 98,57 27,6 44,6 72,6 36,-1 26,-22 31,-46 16,-68 53,-10 78,16 38,42 73,30 125,30 74,0 28,-49 3,-78 -24,-26 -75,-54 -51,-90 21,-30 45,-57 66,-89 47,-72 16,-64 -48,-64 -82,1 -59,-8 -93,62 -9,20 -47,86 -70,86 -29,-14 -1,-118 -16,-147 -13,-26 -113,-18 -136,-7z"/>
   <path class="fil1" d="M348 287c23,-11 123,-19 136,7 15,29 -13,133 16,147 23,0 61,-66 70,-86 34,-70 11,-61 93,-62 64,0 95,-8 48,64 -21,32 -45,59 -66,89 -24,36 27,64 51,90 25,29 71,78 -3,78 -52,0 -87,12 -125,-30 -25,-26 -62,-84 -78,-16 -5,24 5,45 -31,46 -28,0 -45,0 -72,-6 -35,-8 -73,-32 -98,-57 -46,-46 -96,-129 -123,-189 -32,-70 -43,-69 41,-69 71,0 55,6 86,70 92,192 97,-26 66,-54 -1,-1 -20,-7 -21,-7 -2,-7 5,-13 10,-15zm-224 -278l206 0c72,0 144,0 216,0l202 0c4,0 8,1 12,1 55,7 100,53 109,107 2,12 3,25 4,41l0 102c-1,26 -2,51 -2,71 0,72 0,144 0,216 0,20 1,45 2,71l0 105c-1,14 -2,27 -3,38 -8,54 -52,101 -106,109 -5,1 -11,2 -17,2l-199 0c-72,0 -144,0 -216,0l-202 0c-4,0 -8,-1 -12,-1 -55,-7 -101,-52 -110,-107 0,-4 -1,-10 -1,-15l0 -199c0,-72 0,-144 0,-216l0 -201c0,-5 0,-9 1,-13 7,-54 52,-102 106,-110 3,0 7,-1 10,-1z"/>
  </g>
 </g>
</svg>
