<?xml version="1.0" encoding="UTF-8"?>
<!DOCTYPE svg PUBLIC "-//W3C//DTD SVG 1.1//EN" "http://www.w3.org/Graphics/SVG/1.1/DTD/svg11.dtd">
<!-- Creator: CorelDRAW X7 -->
<svg xmlns="http://www.w3.org/2000/svg" xml:space="preserve" width="0.885409in" height="0.885409in" version="1.1" style="shape-rendering:geometricPrecision; text-rendering:geometricPrecision; image-rendering:optimizeQuality; fill-rule:evenodd; clip-rule:evenodd"
viewBox="0 0 885 885"
 xmlns:xlink="http://www.w3.org/1999/xlink">
 <defs>
  <style type="text/css">
   <![CDATA[
    .fil1 {fill:#612C75}
    .fil0 {fill:white}
   ]]>
  </style>
 </defs>
 <g id="Слой_x0020_1">
  <metadata id="CorelCorpID_0Corel-Layer"/>
  <g id="_1068426464">
   <g>
    <path class="fil0" d="M441 879l0 0c-242,0 -437,-196 -437,-437l0 0c0,-242 195,-438 437,-438l0 0c242,0 437,196 437,438l0 0c0,241 -195,437 -437,437z"/>
    <path class="fil1" d="M439 354c2,0 4,0 5,-1 7,-2 7,-8 7,-51 0,-29 -1,-44 -2,-46 -4,-9 -17,-9 -21,0 -1,2 -2,17 -2,46 2,49 2,52 13,52zm-44 282l-7 7c-6,6 -9,7 -14,4 -2,-2 -2,-10 -2,-64l0 -62 -28 0 0 66c0,72 1,78 8,84 6,5 19,5 26,1 2,-1 7,-5 10,-8l7 -7 0 15 28 0 0 -152 -28 0 0 116zm-47 -167l-95 0 0 28 32 0 0 174 30 0 0 -173 33 0 0 -29zm154 49c-6,0 -15,4 -22,10l-7 7 0 -66 -28 0 0 202 28 0 0 -14 6 5c4,4 9,7 11,8 7,3 19,2 24,-1l0 0c2,-1 7,-7 9,-10 3,-8 3,-8 4,-57 0,-53 0,-63 -6,-74 -4,-6 -12,-10 -19,-10zm-3 82l0 42 -4 3c-6,4 -8,4 -16,0l-5 -3 0 -93 6 -4c6,-3 8,-3 11,-2 7,4 8,10 8,57zm100 27c0,11 -2,16 -6,19 -6,3 -13,1 -16,-5 -3,-5 -3,-9 -3,-23l0 -18 55 0 0 -22c0,-28 -2,-37 -12,-47 -9,-9 -18,-13 -31,-13 -11,0 -18,3 -26,10 -13,11 -14,21 -14,72 0,33 1,42 3,47 3,10 10,18 20,22 10,5 27,5 37,1 14,-6 21,-17 22,-38l1 -13 -30 0 0 8zm-8 -83c6,1 8,8 8,23l0 11 -25 0 0 -11 0 0c0,-19 5,-26 17,-23zm-150 -540l0 0c-242,0 -437,196 -437,438l0 0c0,241 195,437 437,437l0 0c242,0 437,-196 437,-437l0 0c0,-242 -195,-438 -437,-438zm90 221l0 64c0,53 0,63 2,64 3,3 9,1 15,-5l6 -6 0 -117 28 0 0 152 -28 0 0 -15 -8 6c-4,4 -10,8 -12,9 -7,2 -17,2 -22,0 -2,-1 -5,-4 -7,-8 -2,-5 -3,-10 -3,-74l0 -69 29 0 0 -1zm-62 11c9,11 10,16 10,66 0,39 0,46 -2,52 -3,11 -14,21 -25,24 -10,3 -15,3 -25,-1l0 0c-7,-2 -10,-4 -16,-10 -10,-12 -10,-15 -10,-65 0,-50 1,-54 10,-66 14,-16 45,-16 58,0zm-154 -62c9,0 16,0 17,1 0,1 5,18 11,38 5,21 9,37 11,37 0,0 4,-14 8,-30 5,-17 9,-34 10,-39l2 -7 17 0c13,0 15,0 15,2 0,1 -9,28 -19,60l-19 58 0 83 -31 0 0 -41 0 -42 -18 -60 -19 -60 15 0zm313 546c-12,6 -20,8 -54,9 -36,2 -184,3 -234,1 -73,-2 -94,-7 -107,-28 -5,-9 -12,-28 -13,-41 -6,-49 -5,-153 3,-189 8,-33 26,-48 57,-51 32,-3 114,-6 194,-5 86,2 127,4 142,7 28,8 42,28 48,72 1,9 2,37 2,65 1,110 -6,144 -38,160z"/>
   </g>
  </g>
 </g>
</svg>
