<?xml version="1.0" encoding="UTF-8"?>
<!DOCTYPE svg PUBLIC "-//W3C//DTD SVG 1.1//EN" "http://www.w3.org/Graphics/SVG/1.1/DTD/svg11.dtd">
<!-- Creator: CorelDRAW X7 -->
<svg xmlns="http://www.w3.org/2000/svg" xml:space="preserve" width="1.30208in" height="1.30208in" version="1.1" style="shape-rendering:geometricPrecision; text-rendering:geometricPrecision; image-rendering:optimizeQuality; fill-rule:evenodd; clip-rule:evenodd"
viewBox="0 0 1302 1302"
 xmlns:xlink="http://www.w3.org/1999/xlink">
 <defs>
  <style type="text/css">
   <![CDATA[
    .fil0 {fill:#612C75}
    .fil1 {fill:#FFED00}
   ]]>
  </style>
 </defs>
 <g id="Слой_x0020_1">
  <metadata id="CorelCorpID_0Corel-Layer"/>
  <g id="_778041456">
   <rect class="fil0" x="3" y="1" width="1305" height="1305"/>
   <path class="fil1" d="M145 632c-1,60 8,130 29,186 11,31 23,57 36,83 133,253 500,342 735,179 150,-116 225,-275 219,-467 -2,-52 -17,-228 -99,-179 -58,35 -55,146 -68,223 -18,107 -60,192 -122,280 -23,34 -53,64 -85,90 -242,197 -759,-160 -434,-549 86,-103 252,-141 378,-174 44,-12 129,-32 154,-57 70,-70 -293,-189 -531,-9 -126,94 -207,235 -212,394z"/>
   <path class="fil1" d="M438 438c-11,7 -45,32 -49,43 -40,101 11,246 75,327 70,83 166,133 281,134 23,0 82,-4 102,-14 22,-10 77,-117 89,-149 57,-102 43,-302 84,-334 28,-37 42,-34 55,-43 -13,-47 -116,-147 -157,-157 -22,35 -51,46 -100,62 -135,45 -252,57 -380,131z"/>
  </g>
 </g>
</svg>
