<?xml version="1.0" encoding="UTF-8"?>
<!DOCTYPE svg PUBLIC "-//W3C//DTD SVG 1.1//EN" "http://www.w3.org/Graphics/SVG/1.1/DTD/svg11.dtd">
<!-- Creator: CorelDRAW X7 -->
<svg xmlns="http://www.w3.org/2000/svg" xml:space="preserve" width="1.30208in" height="1.30208in" version="1.1" style="shape-rendering:geometricPrecision; text-rendering:geometricPrecision; image-rendering:optimizeQuality; fill-rule:evenodd; clip-rule:evenodd"
viewBox="0 0 1302 1302"
 xmlns:xlink="http://www.w3.org/1999/xlink">
 <defs>
  <style type="text/css">
   <![CDATA[
    .fil2 {fill:#612C75}
    .fil0 {fill:#FFED00}
    .fil1 {fill:#612C75;fill-rule:nonzero}
   ]]>
  </style>
 </defs>
 <g id="Слой_x0020_1">
  <metadata id="CorelCorpID_0Corel-Layer"/>
  <g id="_1020098240">
   <ellipse class="fil0" cx="649" cy="641" rx="640" ry="634"/>
   <g>
    <path class="fil1" d="M311 337l99 0 0 72 -99 0c-30,0 -52,63 -65,143 -5,37 -8,76 -8,115 0,39 3,78 8,115 12,79 35,141 65,141l130 0c36,41 101,68 176,68 75,0 141,-27 177,-68l206 0c11,0 20,-4 27,-10 9,-9 14,-22 16,-36 12,-82 17,-144 16,-207 0,-62 -6,-127 -16,-216 -1,-14 -7,-26 -16,-34 -7,-7 -16,-11 -27,-11l-244 0 0 -72 244 0c32,0 59,12 79,32 20,20 33,47 36,77 11,90 16,157 17,224 0,66 -5,131 -17,216 -4,30 -17,57 -37,77 -20,20 -46,32 -78,32l-689 0c-75,0 -119,-89 -136,-203 -6,-39 -9,-82 -9,-125 0,-43 3,-86 9,-125 17,-115 62,-205 136,-205z"/>
    <path class="fil1" d="M428 467c-5,19 -25,31 -44,26 -20,-5 -31,-25 -26,-44 8,-30 18,-68 28,-101 11,-36 21,-66 29,-76 10,-14 23,-24 37,-31 15,-7 31,-10 47,-10l168 0 1 0c0,0 78,1 97,38 4,8 10,29 18,56 10,34 23,83 33,120 5,19 -7,38 -26,43 -19,5 -39,-6 -44,-25 -9,-34 -22,-81 -33,-118 -6,-24 -12,-41 -13,-44 -1,-1 -28,1 -33,1l0 0 -168 0c-5,0 -11,1 -15,3 -4,2 -8,5 -11,9 -2,2 -9,25 -17,54 -10,32 -20,70 -28,99z"/>
    <path class="fil2" d="M891 454l86 0c9,0 17,7 17,16l0 53c0,9 -8,17 -17,17l-86 0c-9,0 -16,-8 -16,-17l0 -53c0,-9 7,-16 16,-16z"/>
    <path class="fil2" d="M603 511c152,0 275,121 275,270 0,149 -123,270 -275,270 -151,0 -274,-121 -274,-270 0,-149 123,-270 274,-270zm0 78c108,0 195,86 195,192 0,106 -87,192 -195,192 -107,0 -195,-86 -195,-192 0,-106 88,-192 195,-192z"/>
    <path class="fil2" d="M603 650c74,0 134,59 134,131 0,72 -60,131 -134,131 -73,0 -133,-59 -133,-131 0,-72 60,-131 133,-131z"/>
   </g>
  </g>
 </g>
</svg>
