<?xml version="1.0" encoding="UTF-8"?>
<!DOCTYPE svg PUBLIC "-//W3C//DTD SVG 1.1//EN" "http://www.w3.org/Graphics/SVG/1.1/DTD/svg11.dtd">
<!-- Creator: CorelDRAW X7 -->
<svg xmlns="http://www.w3.org/2000/svg" xml:space="preserve" width="1.30208in" height="1.30208in" version="1.1" style="shape-rendering:geometricPrecision; text-rendering:geometricPrecision; image-rendering:optimizeQuality; fill-rule:evenodd; clip-rule:evenodd"
viewBox="0 0 1302 1302"
 xmlns:xlink="http://www.w3.org/1999/xlink">
 <defs>
  <style type="text/css">
   <![CDATA[
    .fil1 {fill:#612C75}
    .fil0 {fill:#FFED00}
    .fil2 {fill:#FFED00;fill-rule:nonzero}
   ]]>
  </style>
 </defs>
 <g id="Слой_x0020_1">
  <metadata id="CorelCorpID_0Corel-Layer"/>
  <g id="_1020100416">
   <rect class="fil0" x="21" y="18" width="1264" height="1257"/>
   <rect class="fil1" x="100" y="117" width="1091" height="1056"/>
   <g>
    <path class="fil2" d="M299 882l0 -563 160 0c110,0 209,66 210,179 1,125 -77,210 -206,210l-52 0 0 174 -112 0zm112 -480l0 211 42 0c136,0 138,-211 -6,-211l-36 0z"/>
    <path class="fil2" d="M706 847l-3 -99c1,5 100,60 159,44 23,-6 25,-34 11,-47 -33,-32 -168,-51 -168,-168 0,-163 230,-155 268,-103l0 101c-5,-11 -110,-66 -147,-34 -7,6 -10,14 -10,23 0,8 3,15 8,21 47,44 169,40 168,166 0,39 -12,72 -38,100 -25,28 -62,43 -111,43 -34,0 -134,-31 -137,-47z"/>
   </g>
  </g>
 </g>
</svg>
