<?xml version="1.0" encoding="UTF-8"?>
<!DOCTYPE svg PUBLIC "-//W3C//DTD SVG 1.1//EN" "http://www.w3.org/Graphics/SVG/1.1/DTD/svg11.dtd">
<!-- Creator: CorelDRAW X7 -->
<svg xmlns="http://www.w3.org/2000/svg" xml:space="preserve" width="1.30208in" height="1.30208in" version="1.1" style="shape-rendering:geometricPrecision; text-rendering:geometricPrecision; image-rendering:optimizeQuality; fill-rule:evenodd; clip-rule:evenodd"
viewBox="0 0 1302 1302"
 xmlns:xlink="http://www.w3.org/1999/xlink">
 <defs>
  <style type="text/css">
   <![CDATA[
    .fil1 {fill:#612C75}
    .fil0 {fill:#FFED00}
   ]]>
  </style>
 </defs>
 <g id="Слой_x0020_1">
  <metadata id="CorelCorpID_0Corel-Layer"/>
  <g id="_1004798592">
   <rect class="fil0" x="61" y="188" width="1203" height="954"/>
   <path class="fil1" d="M113 99c-46,5 -76,28 -93,56 -25,40 -20,78 -20,129l0 745c0,51 -2,88 27,122 22,27 49,46 101,48 49,1 100,0 150,0 248,0 496,0 745,0 91,0 196,19 242,-57 24,-39 20,-78 20,-130l0 -745c0,-52 0,-89 -27,-123 -22,-27 -56,-45 -103,-46 -142,-2 -304,0 -447,0 -52,0 -558,-3 -595,1zm377 732l181 -90c29,-14 169,-80 183,-93l-363 -182 -1 365zm246 -611c-1,1 -1,1 -2,2l-1 28c0,23 -3,78 2,93l116 1c6,-2 1,0 5,-3l1 -117 0 -4 -121 0zm0 734c-5,9 -3,19 -3,30 0,23 -3,78 2,93l116 0c6,-1 1,1 5,-2l1 -117 0 -4 -121 0zm-613 121c5,6 107,3 122,2 3,-13 2,-85 2,-108l-3 -15 -121 0 0 4 0 117zm917 0c5,6 107,3 122,2 2,-6 6,-111 -1,-123l-121 0 0 4 0 117zm0 -734c5,7 107,3 122,2 2,-6 5,-100 2,-116 -1,-5 -2,-5 -3,-7l-121 0 0 4 0 117zm-917 0c5,7 107,3 122,2 2,-6 4,-100 1,-116 0,-5 -1,-5 -2,-7l-121 0 0 4 0 117zm306 735l121 0 1 -122 -122 0 0 122zm0 -733l122 0 0 -123 -122 0 0 123z"/>
  </g>
 </g>
</svg>
