<?xml version="1.0" encoding="UTF-8"?>
<!DOCTYPE svg PUBLIC "-//W3C//DTD SVG 1.1//EN" "http://www.w3.org/Graphics/SVG/1.1/DTD/svg11.dtd">
<!-- Creator: CorelDRAW X7 -->
<svg xmlns="http://www.w3.org/2000/svg" xml:space="preserve" width="3.8in" height="1.9in" version="1.1" style="shape-rendering:geometricPrecision; text-rendering:geometricPrecision; image-rendering:optimizeQuality; fill-rule:evenodd; clip-rule:evenodd"
viewBox="0 0 3800 1900"
 xmlns:xlink="http://www.w3.org/1999/xlink">
 <defs>
  <style type="text/css">
   <![CDATA[
    .str0 {stroke:#612C75;stroke-width:3}
    .fil2 {fill:none;fill-rule:nonzero}
    .fil5 {fill:#FEFBFD}
    .fil4 {fill:#612C75}
    .fil3 {fill:#FFED00}
    .fil1 {fill:#612C75;fill-rule:nonzero}
    .fil9 {fill:url(#id0);fill-rule:nonzero}
    .fil8 {fill:url(#id1);fill-rule:nonzero}
    .fil0 {fill:url(#id2);fill-rule:nonzero}
    .fil6 {fill:url(#id3);fill-rule:nonzero}
    .fil7 {fill:url(#id4);fill-rule:nonzero}
   ]]>
  </style>
  <linearGradient id="id0" gradientUnits="userSpaceOnUse" x1="56.3465" y1="467.693" x2="546.622" y2="462.417">
   <stop offset="0" style="stop-opacity:1; stop-color:#FFED00"/>
   <stop offset="0.419608" style="stop-opacity:1; stop-color:#BFA347"/>
   <stop offset="1" style="stop-opacity:1; stop-color:#7E598E"/>
  </linearGradient>
  <linearGradient id="id1" gradientUnits="userSpaceOnUse" xlink:href="#id0" x1="3738.09" y1="467.693" x2="3247.81" y2="462.417">
  </linearGradient>
  <linearGradient id="id2" gradientUnits="userSpaceOnUse" xlink:href="#id0" x1="1894.58" y1="1829.99" x2="1899.85" y2="1339.71">
  </linearGradient>
  <linearGradient id="id3" gradientUnits="userSpaceOnUse" xlink:href="#id0" x1="3477.13" y1="1269.49" x2="3178.33" y2="971.142">
  </linearGradient>
  <linearGradient id="id4" gradientUnits="userSpaceOnUse" xlink:href="#id0" x1="370.488" y1="1269.49" x2="669.283" y2="971.142">
  </linearGradient>
 </defs>
 <g id="Слой_x0020_1">
  <metadata id="CorelCorpID_0Corel-Layer"/>
  <path class="fil0" d="M1803 1443l0 142 -94 0 188 283 188 -283 -94 0 0 -142 -188 0zm0 -85l0 57 188 0 0 -57 -188 0zm0 -56l0 28 188 0 0 -28 -188 0zm0 212m-47 71m47 141m188 0m47 -141m-47 -71m-94 -71m-94 -56m94 28m94 -28m-94 -29m-94 -42m94 14m94 -14m-94 -14"/>
  <path class="fil1" d="M638 818l24 -18 -37 -39 12 -8 106 -8 8 9 -66 49 11 12 -11 9 -12 -13 -25 18 -10 -11zm36 -26l46 -34 -73 6 27 28zm126 51l-13 -9c3,-5 5,-9 5,-13 -1,-5 -3,-10 -8,-14 -4,-3 -8,-5 -13,-5 -7,-1 -13,0 -20,3 -8,3 -16,9 -25,17 7,-1 14,-1 20,0 6,2 12,4 16,8 8,6 13,15 13,24 0,10 -4,19 -13,27 -6,6 -12,10 -20,12 -7,3 -15,4 -22,2 -7,-1 -14,-4 -20,-9 -10,-8 -15,-18 -14,-29 0,-12 8,-25 24,-40 17,-17 34,-26 49,-28 13,-2 24,1 35,10 8,6 12,13 13,21 1,8 -1,15 -7,23zm-89 -3c-4,4 -7,8 -9,13 -1,5 -2,9 0,14 1,4 3,7 7,10 5,4 12,6 19,6 7,-1 14,-5 21,-11 6,-6 9,-12 9,-18 0,-7 -2,-12 -8,-17 -6,-4 -12,-6 -19,-6 -8,1 -15,4 -20,9zm128 33l23 10 -16 71 63 -48 21 10 -48 75 -14 -7 38 -60 -63 47 -13 -6 16 -74 -40 63 -14 -7 47 -74zm115 52l69 28 -40 77 -15 -6 35 -66 -40 -16 -20 39c-5,9 -8,15 -10,17 -2,3 -5,5 -10,5 -4,1 -9,1 -14,-1 -4,-2 -8,-4 -12,-6l6 -11 6 3c3,1 6,2 7,2 2,0 3,-1 4,-2 1,-1 4,-5 7,-12l27 -51zm87 33l16 5 -15 33 43 14 14 -33 16 5 -35 80 -15 -6 15 -35 -43 -14 -15 35 -16 -5 35 -79zm135 56l74 17 -24 83 -16 -4 21 -71 -43 -9 -21 70 -16 -3 25 -83zm77 64c4,-15 12,-26 23,-31 10,-5 21,-6 33,-4 13,2 22,8 29,17 6,9 8,20 5,33 -3,11 -7,19 -12,25 -5,5 -12,9 -19,11 -8,2 -16,2 -25,1 -13,-3 -23,-9 -29,-18 -7,-9 -8,-20 -5,-34zm17 3c-3,11 -2,19 2,25 4,7 10,11 18,12 8,2 15,0 22,-4 7,-4 11,-12 14,-23 3,-10 2,-18 -2,-25 -4,-6 -10,-10 -18,-11 -8,-2 -16,-1 -22,4 -7,4 -12,11 -14,22zm101 -23l76 11 -16 84 -16 -2 13 -72 -43 -6 -8 41c-1,10 -3,16 -4,19 -2,3 -4,6 -8,8 -3,2 -8,2 -14,1 -4,0 -9,-1 -13,-2l2 -12 7 1c3,0 6,0 7,0 2,0 3,-1 4,-2 0,-2 1,-6 3,-13l10 -56zm94 13l17 2 -4 33 20 2c14,1 24,4 31,9 7,6 9,12 8,20 0,7 -4,13 -11,18 -7,4 -17,6 -30,4l-41 -4 10 -84zm8 74l17 2c10,1 18,0 23,-1 4,-2 7,-5 8,-10 0,-4 -1,-7 -4,-10 -3,-4 -10,-6 -21,-7l-20 -2 -3 28zm106 -16l1 -11c7,0 12,0 14,0 3,0 5,-1 8,-3 2,-2 4,-5 4,-8 0,-4 -1,-7 -3,-9 -3,-3 -7,-4 -11,-5 -10,-1 -17,4 -21,13l-16 -4c7,-15 19,-22 38,-21 10,1 18,5 24,10 5,5 7,11 6,18 0,7 -5,12 -13,16 5,2 8,6 10,9 2,4 3,8 2,13 -1,8 -4,14 -11,18 -7,4 -16,6 -28,5 -22,-2 -34,-12 -35,-29l16 -2c0,6 3,10 7,13 4,4 8,6 14,6 5,1 10,0 14,-3 4,-2 6,-6 7,-10 0,-3 -1,-6 -3,-9 -2,-2 -4,-4 -6,-5 -3,-1 -8,-1 -15,-2 0,0 -1,0 -3,0zm53 1c1,-15 7,-27 17,-34 9,-6 19,-8 31,-8 14,1 24,5 32,14 8,8 12,18 11,32 -1,11 -3,19 -8,25 -4,6 -10,11 -17,14 -7,3 -15,4 -24,4 -13,-1 -24,-5 -32,-13 -8,-8 -11,-19 -10,-34zm17 1c-1,11 1,19 6,25 5,6 12,9 20,9 8,0 15,-2 21,-7 6,-5 9,-13 10,-24 1,-11 -2,-19 -7,-25 -5,-5 -11,-8 -20,-9 -8,0 -15,2 -21,7 -5,5 -9,13 -9,24zm93 -37l38 1c9,0 16,1 21,3 4,1 8,4 11,8 3,3 5,8 5,13 0,4 -1,7 -3,10 -3,3 -5,6 -9,8 4,1 8,4 11,7 3,4 4,9 4,14 -1,8 -5,13 -11,17 -6,4 -15,6 -26,5l-44 -1 3 -85zm15 37l18 0c7,0 12,0 14,-1 3,0 5,-1 7,-3 3,-2 4,-5 4,-7 0,-5 -2,-8 -5,-10 -4,-2 -10,-3 -19,-3l-18 0 -1 24zm-1 37l22 0c9,1 16,0 19,-2 4,-2 6,-5 6,-10 0,-2 -1,-5 -3,-7 -2,-3 -4,-4 -8,-5 -3,-1 -8,-1 -15,-1l-20 -1 -1 26zm144 1c-6,4 -12,8 -17,10 -6,2 -12,3 -18,3 -11,0 -19,-2 -25,-7 -6,-4 -9,-10 -9,-17 0,-4 1,-8 3,-11 2,-4 5,-7 8,-9 4,-2 7,-4 12,-5 3,-1 8,-1 14,-2 14,-2 24,-4 30,-6 0,-2 0,-3 0,-3 0,-6 -2,-10 -5,-13 -4,-3 -11,-4 -19,-4 -8,0 -14,1 -17,4 -4,2 -7,6 -8,13l-16 -2c1,-6 3,-11 7,-15 3,-4 8,-7 14,-9 6,-2 14,-3 22,-3 8,0 15,0 20,2 6,2 10,4 12,6 3,3 4,6 5,10 1,3 1,7 2,13l0 19c0,14 1,22 2,26 0,3 2,7 4,10l-17 0c-2,-3 -3,-6 -4,-10zm-2 -32c-6,2 -15,4 -27,6 -7,1 -11,2 -14,3 -3,1 -5,2 -7,4 -1,3 -2,5 -2,7 0,4 2,7 6,10 3,2 8,3 14,3 7,0 12,-1 17,-4 5,-2 9,-5 11,-10 2,-3 2,-8 2,-14l0 -5zm28 -43l78 -2 1 12 -31 1 2 73 -17 0 -2 -73 -31 1 0 -12zm158 50l18 1c-2,9 -7,16 -13,21 -7,6 -16,9 -27,9 -15,1 -26,-2 -35,-9 -9,-7 -14,-17 -15,-31 -2,-14 2,-25 9,-34 8,-8 18,-13 32,-14 13,-1 24,2 32,10 9,7 14,17 16,31 0,1 0,2 0,4l-72 5c1,9 5,16 11,21 5,4 12,6 21,6 6,-1 11,-2 15,-6 4,-3 7,-7 8,-14zm-55 -19l54 -4c-2,-7 -4,-12 -8,-15 -6,-5 -13,-8 -21,-7 -8,0 -14,3 -19,8 -4,5 -7,11 -6,18zm86 -41l77 -8 11 85 -16 1 -10 -72 -44 4 6 42c1,10 2,17 2,20 -1,3 -2,6 -5,9 -3,2 -8,4 -14,5 -4,0 -8,0 -13,0l-2 -12 7 0c4,-1 6,-1 7,-2 2,-1 3,-2 3,-3 0,-2 0,-6 -1,-13l-8 -56zm175 39l17 0c-1,9 -5,16 -12,22 -6,5 -15,9 -26,10 -14,2 -26,-1 -35,-7 -10,-7 -15,-17 -17,-31 -2,-14 0,-26 7,-34 8,-9 18,-14 31,-16 13,-1 24,2 33,8 10,7 15,17 17,31 0,1 1,2 1,4l-72 8c2,9 6,16 12,20 6,5 13,6 21,5 6,0 11,-2 15,-5 4,-4 6,-8 8,-15zm-57 -17l54 -6c-2,-7 -5,-12 -9,-15 -6,-5 -13,-7 -21,-6 -8,1 -14,4 -18,9 -4,5 -6,11 -6,18zm80 -45l17 -3 13 64 32 -71 17 -3 17 84 -16 2 -13 -63 -32 70 -17 3 -18 -83zm50 -40l11 -2c1,7 -1,12 -5,17 -4,4 -10,7 -17,8 -8,1 -15,0 -20,-2 -5,-3 -9,-8 -11,-15l11 -1c1,3 4,6 6,7 3,1 7,2 11,1 5,-1 9,-2 11,-4 2,-2 3,-5 3,-9zm97 12l37 -8c9,-2 16,-3 20,-2 5,0 10,2 14,5 4,2 7,6 8,11 1,4 1,8 0,11 -1,3 -3,7 -6,9 5,1 9,2 13,5 4,3 7,7 8,12 2,8 0,14 -4,19 -5,5 -13,9 -24,11l-43 10 -23 -83zm26 32l17 -4c7,-2 11,-3 13,-4 3,-1 5,-3 6,-5 2,-3 2,-5 1,-8 -1,-4 -4,-7 -8,-8 -4,-1 -10,0 -18,2l-18 3 7 24zm10 36l21 -5c9,-2 15,-4 18,-7 3,-2 4,-6 3,-10 -1,-3 -3,-5 -5,-7 -3,-2 -6,-3 -9,-3 -4,0 -9,1 -16,3l-19 4 7 25zm137 -18l-41 -111 48 -14c8,-2 15,-4 20,-4 6,-1 12,-1 17,0 6,2 10,4 15,8 4,4 7,9 9,14 4,10 3,19 -1,27 -5,9 -16,16 -34,21l-33 9 17 45 -17 5zm-5 -63l33 -9c11,-4 18,-8 22,-12 3,-5 3,-11 1,-17 -2,-5 -5,-9 -9,-11 -4,-3 -8,-4 -13,-4 -3,0 -8,2 -16,4l-33 9 15 40zm77 -76l81 -28 6 13 -65 22 15 34 30 -11c11,-3 20,-5 27,-6 8,0 14,2 21,5 6,4 10,9 13,16 3,6 4,11 3,17 -1,6 -3,11 -7,16 -5,5 -13,10 -27,14l-49 17 -48 -109zm59 91l33 -11c9,-3 15,-7 18,-12 3,-4 4,-10 1,-16 -2,-5 -5,-8 -9,-10 -4,-3 -8,-3 -13,-3 -5,1 -13,3 -24,7l-23 7 17 38zm103 -108l15 -7 35 57 5 -76 16 -7 46 74 -14 7 -36 -56 -5 75 -15 8 -47 -75zm182 2l-80 -94 41 -26c7,-5 12,-8 17,-10 6,-3 11,-4 17,-4 5,-1 11,1 16,3 6,2 10,6 14,11 7,8 10,16 9,26 -1,9 -10,19 -25,28l-27 18 32 39 -14 9zm-28 -59l28 -18c9,-6 14,-11 16,-17 1,-5 -1,-11 -5,-16 -3,-4 -7,-7 -12,-8 -5,-2 -9,-2 -14,0 -3,1 -7,4 -14,8l-27 18 28 33zm72 -94l-13 -10 10 -11 13 10c12,-11 25,-18 38,-19 14,-1 26,2 37,10 10,7 16,17 17,29 1,12 -3,24 -14,36l13 10 -10 11 -14 -10c-10,11 -22,17 -36,19 -14,2 -26,-1 -38,-10 -11,-8 -17,-18 -17,-31 -1,-12 4,-23 14,-34zm22 -3l54 40c7,-8 11,-16 10,-24 0,-8 -5,-15 -13,-21 -8,-6 -17,-8 -26,-8 -8,1 -17,6 -25,13zm-10 11c-7,8 -10,16 -10,24 0,8 5,15 13,21 8,6 17,8 26,7 9,-1 17,-5 25,-12l-54 -40z"/>
  <path id="1" class="fil2 str0" d="M638 818l24 -18 -37 -39 12 -8 106 -8 8 9 -66 49 11 12 -11 9 -12 -13 -25 18 -10 -11zm36 -26l46 -34 -73 6 27 28zm126 51l-13 -9c3,-5 5,-9 5,-13 -1,-5 -3,-10 -8,-14 -4,-3 -8,-5 -13,-5 -7,-1 -13,0 -20,3 -8,3 -16,9 -25,17 7,-1 14,-1 20,0 6,2 12,4 16,8 8,6 13,15 13,24 0,10 -4,19 -13,27 -6,6 -12,10 -20,12 -7,3 -15,4 -22,2 -7,-1 -14,-4 -20,-9 -10,-8 -15,-18 -14,-29 0,-12 8,-25 24,-40 17,-17 34,-26 49,-28 13,-2 24,1 35,10 8,6 12,13 13,21 1,8 -1,15 -7,23zm-89 -3c-4,4 -7,8 -9,13 -1,5 -2,9 0,14 1,4 3,7 7,10 5,4 12,6 19,6 7,-1 14,-5 21,-11 6,-6 9,-12 9,-18 0,-7 -2,-12 -8,-17 -6,-4 -12,-6 -19,-6 -8,1 -15,4 -20,9zm128 33l23 10 -16 71 63 -48 21 10 -48 75 -14 -7 38 -60 -63 47 -13 -6 16 -74 -40 63 -14 -7 47 -74zm115 52l69 28 -40 77 -15 -6 35 -66 -40 -16 -20 39c-5,9 -8,15 -10,17 -2,3 -5,5 -10,5 -4,1 -9,1 -14,-1 -4,-2 -8,-4 -12,-6l6 -11 6 3c3,1 6,2 7,2 2,0 3,-1 4,-2 1,-1 4,-5 7,-12l27 -51zm87 33l16 5 -15 33 43 14 14 -33 16 5 -35 80 -15 -6 15 -35 -43 -14 -15 35 -16 -5 35 -79zm135 56l74 17 -24 83 -16 -4 21 -71 -43 -9 -21 70 -16 -3 25 -83zm77 64c4,-15 12,-26 23,-31 10,-5 21,-6 33,-4 13,2 22,8 29,17 6,9 8,20 5,33 -3,11 -7,19 -12,25 -5,5 -12,9 -19,11 -8,2 -16,2 -25,1 -13,-3 -23,-9 -29,-18 -7,-9 -8,-20 -5,-34zm17 3c-3,11 -2,19 2,25 4,7 10,11 18,12 8,2 15,0 22,-4 7,-4 11,-12 14,-23 3,-10 2,-18 -2,-25 -4,-6 -10,-10 -18,-11 -8,-2 -16,-1 -22,4 -7,4 -12,11 -14,22zm101 -23l76 11 -16 84 -16 -2 13 -72 -43 -6 -8 41c-1,10 -3,16 -4,19 -2,3 -4,6 -8,8 -3,2 -8,2 -14,1 -4,0 -9,-1 -13,-2l2 -12 7 1c3,0 6,0 7,0 2,0 3,-1 4,-2 0,-2 1,-6 3,-13l10 -56zm94 13l17 2 -4 33 20 2c14,1 24,4 31,9 7,6 9,12 8,20 0,7 -4,13 -11,18 -7,4 -17,6 -30,4l-41 -4 10 -84zm8 74l17 2c10,1 18,0 23,-1 4,-2 7,-5 8,-10 0,-4 -1,-7 -4,-10 -3,-4 -10,-6 -21,-7l-20 -2 -3 28zm106 -16l1 -11c7,0 12,0 14,0 3,0 5,-1 8,-3 2,-2 4,-5 4,-8 0,-4 -1,-7 -3,-9 -3,-3 -7,-4 -11,-5 -10,-1 -17,4 -21,13l-16 -4c7,-15 19,-22 38,-21 10,1 18,5 24,10 5,5 7,11 6,18 0,7 -5,12 -13,16 5,2 8,6 10,9 2,4 3,8 2,13 -1,8 -4,14 -11,18 -7,4 -16,6 -28,5 -22,-2 -34,-12 -35,-29l16 -2c0,6 3,10 7,13 4,4 8,6 14,6 5,1 10,0 14,-3 4,-2 6,-6 7,-10 0,-3 -1,-6 -3,-9 -2,-2 -4,-4 -6,-5 -3,-1 -8,-1 -15,-2 0,0 -1,0 -3,0zm53 1c1,-15 7,-27 17,-34 9,-6 19,-8 31,-8 14,1 24,5 32,14 8,8 12,18 11,32 -1,11 -3,19 -8,25 -4,6 -10,11 -17,14 -7,3 -15,4 -24,4 -13,-1 -24,-5 -32,-13 -8,-8 -11,-19 -10,-34zm17 1c-1,11 1,19 6,25 5,6 12,9 20,9 8,0 15,-2 21,-7 6,-5 9,-13 10,-24 1,-11 -2,-19 -7,-25 -5,-5 -11,-8 -20,-9 -8,0 -15,2 -21,7 -5,5 -9,13 -9,24zm93 -37l38 1c9,0 16,1 21,3 4,1 8,4 11,8 3,3 5,8 5,13 0,4 -1,7 -3,10 -3,3 -5,6 -9,8 4,1 8,4 11,7 3,4 4,9 4,14 -1,8 -5,13 -11,17 -6,4 -15,6 -26,5l-44 -1 3 -85zm15 37l18 0c7,0 12,0 14,-1 3,0 5,-1 7,-3 3,-2 4,-5 4,-7 0,-5 -2,-8 -5,-10 -4,-2 -10,-3 -19,-3l-18 0 -1 24zm-1 37l22 0c9,1 16,0 19,-2 4,-2 6,-5 6,-10 0,-2 -1,-5 -3,-7 -2,-3 -4,-4 -8,-5 -3,-1 -8,-1 -15,-1l-20 -1 -1 26zm144 1c-6,4 -12,8 -17,10 -6,2 -12,3 -18,3 -11,0 -19,-2 -25,-7 -6,-4 -9,-10 -9,-17 0,-4 1,-8 3,-11 2,-4 5,-7 8,-9 4,-2 7,-4 12,-5 3,-1 8,-1 14,-2 14,-2 24,-4 30,-6 0,-2 0,-3 0,-3 0,-6 -2,-10 -5,-13 -4,-3 -11,-4 -19,-4 -8,0 -14,1 -17,4 -4,2 -7,6 -8,13l-16 -2c1,-6 3,-11 7,-15 3,-4 8,-7 14,-9 6,-2 14,-3 22,-3 8,0 15,0 20,2 6,2 10,4 12,6 3,3 4,6 5,10 1,3 1,7 2,13l0 19c0,14 1,22 2,26 0,3 2,7 4,10l-17 0c-2,-3 -3,-6 -4,-10zm-2 -32c-6,2 -15,4 -27,6 -7,1 -11,2 -14,3 -3,1 -5,2 -7,4 -1,3 -2,5 -2,7 0,4 2,7 6,10 3,2 8,3 14,3 7,0 12,-1 17,-4 5,-2 9,-5 11,-10 2,-3 2,-8 2,-14l0 -5zm28 -43l78 -2 1 12 -31 1 2 73 -17 0 -2 -73 -31 1 0 -12zm158 50l18 1c-2,9 -7,16 -13,21 -7,6 -16,9 -27,9 -15,1 -26,-2 -35,-9 -9,-7 -14,-17 -15,-31 -2,-14 2,-25 9,-34 8,-8 18,-13 32,-14 13,-1 24,2 32,10 9,7 14,17 16,31 0,1 0,2 0,4l-72 5c1,9 5,16 11,21 5,4 12,6 21,6 6,-1 11,-2 15,-6 4,-3 7,-7 8,-14zm-55 -19l54 -4c-2,-7 -4,-12 -8,-15 -6,-5 -13,-8 -21,-7 -8,0 -14,3 -19,8 -4,5 -7,11 -6,18zm86 -41l77 -8 11 85 -16 1 -10 -72 -44 4 6 42c1,10 2,17 2,20 -1,3 -2,6 -5,9 -3,2 -8,4 -14,5 -4,0 -8,0 -13,0l-2 -12 7 0c4,-1 6,-1 7,-2 2,-1 3,-2 3,-3 0,-2 0,-6 -1,-13l-8 -56zm175 39l17 0c-1,9 -5,16 -12,22 -6,5 -15,9 -26,10 -14,2 -26,-1 -35,-7 -10,-7 -15,-17 -17,-31 -2,-14 0,-26 7,-34 8,-9 18,-14 31,-16 13,-1 24,2 33,8 10,7 15,17 17,31 0,1 1,2 1,4l-72 8c2,9 6,16 12,20 6,5 13,6 21,5 6,0 11,-2 15,-5 4,-4 6,-8 8,-15zm-57 -17l54 -6c-2,-7 -5,-12 -9,-15 -6,-5 -13,-7 -21,-6 -8,1 -14,4 -18,9 -4,5 -6,11 -6,18zm80 -45l17 -3 13 64 32 -71 17 -3 17 84 -16 2 -13 -63 -32 70 -17 3 -18 -83zm50 -40l11 -2c1,7 -1,12 -5,17 -4,4 -10,7 -17,8 -8,1 -15,0 -20,-2 -5,-3 -9,-8 -11,-15l11 -1c1,3 4,6 6,7 3,1 7,2 11,1 5,-1 9,-2 11,-4 2,-2 3,-5 3,-9zm97 12l37 -8c9,-2 16,-3 20,-2 5,0 10,2 14,5 4,2 7,6 8,11 1,4 1,8 0,11 -1,3 -3,7 -6,9 5,1 9,2 13,5 4,3 7,7 8,12 2,8 0,14 -4,19 -5,5 -13,9 -24,11l-43 10 -23 -83zm26 32l17 -4c7,-2 11,-3 13,-4 3,-1 5,-3 6,-5 2,-3 2,-5 1,-8 -1,-4 -4,-7 -8,-8 -4,-1 -10,0 -18,2l-18 3 7 24zm10 36l21 -5c9,-2 15,-4 18,-7 3,-2 4,-6 3,-10 -1,-3 -3,-5 -5,-7 -3,-2 -6,-3 -9,-3 -4,0 -9,1 -16,3l-19 4 7 25zm137 -18l-41 -111 48 -14c8,-2 15,-4 20,-4 6,-1 12,-1 17,0 6,2 10,4 15,8 4,4 7,9 9,14 4,10 3,19 -1,27 -5,9 -16,16 -34,21l-33 9 17 45 -17 5zm-5 -63l33 -9c11,-4 18,-8 22,-12 3,-5 3,-11 1,-17 -2,-5 -5,-9 -9,-11 -4,-3 -8,-4 -13,-4 -3,0 -8,2 -16,4l-33 9 15 40zm77 -76l81 -28 6 13 -65 22 15 34 30 -11c11,-3 20,-5 27,-6 8,0 14,2 21,5 6,4 10,9 13,16 3,6 4,11 3,17 -1,6 -3,11 -7,16 -5,5 -13,10 -27,14l-49 17 -48 -109zm59 91l33 -11c9,-3 15,-7 18,-12 3,-4 4,-10 1,-16 -2,-5 -5,-8 -9,-10 -4,-3 -8,-3 -13,-3 -5,1 -13,3 -24,7l-23 7 17 38zm103 -108l15 -7 35 57 5 -76 16 -7 46 74 -14 7 -36 -56 -5 75 -15 8 -47 -75zm182 2l-80 -94 41 -26c7,-5 12,-8 17,-10 6,-3 11,-4 17,-4 5,-1 11,1 16,3 6,2 10,6 14,11 7,8 10,16 9,26 -1,9 -10,19 -25,28l-27 18 32 39 -14 9zm-28 -59l28 -18c9,-6 14,-11 16,-17 1,-5 -1,-11 -5,-16 -3,-4 -7,-7 -12,-8 -5,-2 -9,-2 -14,0 -3,1 -7,4 -14,8l-27 18 28 33zm72 -94l-13 -10 10 -11 13 10c12,-11 25,-18 38,-19 14,-1 26,2 37,10 10,7 16,17 17,29 1,12 -3,24 -14,36l13 10 -10 11 -14 -10c-10,11 -22,17 -36,19 -14,2 -26,-1 -38,-10 -11,-8 -17,-18 -17,-31 -1,-12 4,-23 14,-34zm22 -3l54 40c7,-8 11,-16 10,-24 0,-8 -5,-15 -13,-21 -8,-6 -17,-8 -26,-8 -8,1 -17,6 -25,13zm-10 11c-7,8 -10,16 -10,24 0,8 5,15 13,21 8,6 17,8 26,7 9,-1 17,-5 25,-12l-54 -40z"/>
  <g>
   <path class="fil3" d="M1897 36c661,0 1197,215 1197,480 0,265 -536,480 -1197,480 -661,0 -1197,-215 -1197,-480 0,-265 536,-480 1197,-480z"/>
   <path id="1" class="fil1" d="M3114 516l-39 0 0 0 -2 -22 -4 -22 -7 -22 -10 -22 -12 -21 -15 -21 -18 -22 -20 -20 -23 -21 -26 -20 -28 -19 -30 -19 -33 -19 -35 -17 -37 -18 -39 -16 -41 -16 -43 -15 -44 -14 -47 -13 -48 -12 -49 -12 -52 -10 -52 -10 -54 -8 -55 -8 -57 -6 -57 -5 -59 -5 -59 -3 -61 -2 -61 0 0 -40 62 1 61 2 61 3 59 4 58 6 58 6 56 8 54 8 54 10 52 11 51 12 49 12 47 14 46 14 44 15 42 17 40 16 39 18 36 19 34 19 32 20 29 21 28 21 25 22 22 23 20 23 17 25 14 25 12 25 8 26 5 27 2 27 0 0zm-1217 500l0 -39 0 0 61 -1 61 -2 59 -3 59 -4 57 -5 57 -7 55 -7 54 -9 52 -9 52 -11 49 -11 48 -13 47 -13 44 -14 43 -15 41 -15 39 -17 37 -17 35 -18 33 -18 30 -19 28 -20 26 -20 23 -20 20 -21 18 -21 15 -21 12 -22 10 -22 7 -21 4 -22 2 -23 39 0 -2 27 -5 27 -8 26 -12 26 -14 25 -17 24 -20 24 -22 22 -25 23 -28 21 -29 21 -32 20 -34 19 -36 18 -39 18 -40 17 -42 16 -44 15 -46 15 -47 13 -49 13 -51 12 -52 10 -54 10 -54 9 -56 7 -58 7 -58 5 -59 5 -61 3 -61 1 -62 1 0 0zm-1217 -500l40 0 0 0 1 23 4 22 7 21 10 22 12 22 16 21 17 21 21 21 23 20 25 20 28 20 31 19 32 18 35 18 37 17 39 17 41 15 43 15 45 14 46 13 48 13 50 11 51 11 53 9 53 9 56 7 56 7 58 5 58 4 60 3 60 2 61 1 0 39 -62 -1 -61 -1 -60 -3 -60 -5 -58 -5 -57 -7 -56 -7 -55 -9 -53 -10 -53 -10 -50 -12 -49 -13 -48 -13 -45 -15 -44 -15 -43 -16 -40 -17 -38 -18 -36 -18 -34 -19 -32 -20 -30 -21 -27 -21 -25 -23 -23 -22 -20 -24 -17 -24 -14 -25 -11 -26 -9 -26 -5 -27 -2 -27 0 0zm1217 -500l0 40 0 0 -61 0 -60 2 -60 3 -58 5 -58 5 -56 6 -56 8 -53 8 -53 10 -51 10 -50 12 -48 12 -46 13 -45 14 -43 15 -41 16 -39 16 -37 18 -35 17 -32 19 -31 19 -28 19 -25 20 -23 21 -21 20 -17 22 -16 21 -12 21 -10 22 -7 22 -4 22 -1 22 -40 0 2 -27 5 -27 9 -26 11 -25 14 -25 17 -25 20 -23 23 -23 25 -22 27 -21 30 -21 32 -20 34 -19 36 -19 38 -18 40 -16 43 -17 44 -15 45 -14 48 -14 49 -12 50 -12 53 -11 53 -10 55 -8 56 -8 57 -6 58 -6 60 -4 60 -3 61 -2 62 -1 0 0z"/>
  </g>
  <g>
   <path class="fil4" d="M1901 182l654 0c88,0 145,42 149,157l11 351c3,88 -72,160 -160,160l-654 0c-88,0 -160,-72 -160,-160l0 -347c0,-89 72,-161 160,-161z"/>
   <path class="fil5" d="M2236 729l58 0 1 -27c9,2 24,26 49,30 61,10 67,-45 67,-90l0 -159c0,-42 -16,-98 -70,-83 -9,2 -20,8 -27,14 -4,3 -17,17 -20,18l0 -139 -58 0c-3,21 -1,281 -1,327 0,18 -2,98 1,109z"/>
   <path class="fil4" d="M1292 494l0 148c0,15 5,31 9,42 1,1 1,1 1,1 7,19 24,34 41,43 49,24 113,-4 124,-58 1,-4 1,-5 2,-8 5,-18 2,-152 2,-180 0,-8 -2,-10 -3,-16 -5,-26 -19,-49 -43,-61 -37,-18 -86,-11 -112,22 -11,14 -21,42 -21,67zm90 -43l0 0c16,0 28,13 28,29l0 172c0,15 -12,28 -28,28l0 0c-16,0 -28,-13 -28,-28l0 -172c0,-16 12,-29 28,-29z"/>
   <path class="fil5" d="M2625 675c2,-21 4,-36 3,-59l-60 0c0,10 0,19 0,28 -1,47 -46,43 -53,13 -3,-15 -4,-65 -2,-81l117 0c2,-24 1,-90 -4,-109 -21,-80 -105,-82 -144,-48 -22,19 -32,49 -32,83 0,39 0,77 0,116 0,40 5,66 27,90 30,33 118,47 148,-33z"/>
   <path class="fil4" d="M1515 688c0,6 6,26 12,33 11,12 21,14 37,14 16,0 25,-7 35,-13 7,-5 8,-7 13,-12l13 -12c0,41 -12,32 59,32 4,0 6,-1 6,-5l0 -320c0,-5 -2,-6 -6,-6 -71,0 -59,-9 -59,34 0,28 1,211 -1,217 -2,4 -31,42 -43,22 -1,-2 -3,-9 -3,-12l0 -261 -63 0 0 289z"/>
   <path class="fil4" d="M1165 730l61 0 0 -173 76 -246c3,-7 6,-14 6,-22l-68 0c-6,0 -4,3 -8,17l-35 134c-2,8 2,6 -6,8 0,-8 -2,-12 -4,-20 -2,-5 -2,-3 -3,-9l-8 -31c-2,-7 -4,-14 -6,-21l-13 -49c-1,-5 -2,-5 -3,-11 -6,-24 6,-18 -75,-18 0,12 3,16 6,25l5 16c0,1 0,1 1,2l41 133c3,10 6,17 8,25l15 50c7,22 4,35 4,62l0 116c0,6 -1,12 6,12z"/>
   <path class="fil5" d="M2124 697l1 32 61 0 0 -325 -61 -1 0 225c0,16 2,19 -7,30 -5,7 -13,15 -20,19 -29,14 -22,-29 -22,-49 0,-30 1,-210 -1,-224l-61 -1c-2,14 0,218 0,238 0,36 -3,79 28,90 45,15 73,-33 82,-34z"/>
   <path class="fil5" d="M1818 353c13,4 52,0 68,2l1 374 65 0 0 -374 71 0 1 -62c-19,-2 -194,-2 -206,1l0 59z"/>
   <path class="fil4" d="M2294 475c0,58 -2,136 0,190 66,48 55,-38 55,-93l0 -68c0,-17 1,-43 -14,-49 -15,-6 -41,3 -41,20z"/>
   <path class="fil4" d="M2512 497l0 29 55 1c2,-33 5,-73 -25,-74 -29,-1 -30,20 -30,44z"/>
  </g>
  <path class="fil6" d="M3193 1125l102 98 -64 68 335 58 -77 -331 -64 68 -103 -97 -129 136zm-62 -58l41 39 129 -137 -41 -38 -129 136zm-41 -39l20 20 129 -137 -20 -19 -129 136zm154 146m19 83m135 63m129 -137m-70 -131m-84 -14m-116 19m-105 29m85 -48m44 -88m-86 49m-95 39m75 -59m54 -78m-75 59"/>
  <path class="fil7" d="M655 1125l-103 98 65 68 -335 58 77 -331 64 68 103 -97 129 136zm62 -58l-41 39 -130 -137 42 -38 129 136zm41 -39l-21 20 -129 -137 21 -19 129 136zm-154 146m-20 83m-135 63m-129 -137m71 -131m84 -14m115 19m106 29m-85 -48m-44 -88m85 49m95 39m-74 -59m-55 -78m75 59"/>
  <g>
   <path class="fil8" d="M3351 559l142 0 0 94 283 -188 -283 -188 0 94 -142 0 0 188zm-84 0l56 0 0 -188 -56 0 0 188zm-57 0l28 0 0 -188 -28 0 0 188zm212 0m71 47m141 -47m0 -188m-141 -47m-71 47m-71 94m-56 94m28 -94m-28 -94m-28 94m-43 94m14 -94m-14 -94m-14 94"/>
   <path class="fil9" d="M443 559l-142 0 0 94 -283 -188 283 -188 0 94 142 0 0 188zm85 0l-57 0 0 -188 57 0 0 188zm57 0l-29 0 0 -188 29 0 0 188zm-213 0m-71 47m-141 -47m0 -188m141 -47m71 47m71 94m57 94m-29 -94m29 -94m28 94m42 94m-14 -94m14 -94m15 94"/>
  </g>
 </g>
</svg>
