<?xml version="1.0" encoding="UTF-8"?>
<!DOCTYPE svg PUBLIC "-//W3C//DTD SVG 1.1//EN" "http://www.w3.org/Graphics/SVG/1.1/DTD/svg11.dtd">
<!-- Creator: CorelDRAW X7 -->
<svg xmlns="http://www.w3.org/2000/svg" xml:space="preserve" width="1.45833in" height="0.312425in" version="1.1" style="shape-rendering:geometricPrecision; text-rendering:geometricPrecision; image-rendering:optimizeQuality; fill-rule:evenodd; clip-rule:evenodd"
viewBox="0 0 1458 312"
 xmlns:xlink="http://www.w3.org/1999/xlink">
 <defs>
  <style type="text/css">
   <![CDATA[
    .fil0 {fill:#612C75;fill-rule:nonzero}
   ]]>
  </style>
 </defs>
 <g id="Слой_x0020_1">
  <metadata id="CorelCorpID_0Corel-Layer"/>
  <path class="fil0" d="M375 192c12,15 16,31 12,48 -4,15 -14,30 -31,43l-44 35 -130 -165 35 -28c35,-27 63,-28 83,-2 7,9 11,18 12,28 1,10 -1,18 -6,26l1 0c27,-13 50,-8 68,15zm-88 -56c-6,-7 -14,-12 -22,-13 -11,-1 -23,3 -35,13l-23 18 45 58 23 -18c13,-10 20,-20 22,-30 1,-8 -2,-18 -10,-28zm73 68c-19,-23 -41,-24 -69,-2l-29 23 54 69 30 -24c27,-21 32,-43 14,-66zm201 -27l-16 6 -39 -101 -57 145 -54 -141 18 -7 38 101 56 -144 54 141zm171 -27l-25 3 -89 -64 9 73 -17 2 -18 -143 18 -2 8 68 62 -77 24 -2 -65 77 93 65zm126 -119l-49 -3 -10 128 -17 -1 9 -129 -49 -3 2 -16 115 9 -1 15zm130 13c22,8 37,21 47,40 10,18 11,38 4,59 -8,22 -21,37 -40,46 -18,9 -39,10 -61,2 -22,-7 -37,-20 -47,-39 -10,-18 -11,-38 -4,-60 8,-21 21,-36 40,-45 18,-9 39,-10 61,-3zm-5 15c-16,-5 -31,-4 -46,2 -16,7 -27,20 -32,37 -6,17 -5,34 3,49 8,14 20,24 35,30 16,5 31,4 46,-3 16,-7 27,-19 32,-36 6,-18 5,-34 -3,-49 -8,-15 -19,-25 -35,-30zm221 194c-13,19 -30,29 -49,33 -21,4 -40,-1 -58,-14 -19,-14 -28,-34 -25,-58 -6,8 -10,14 -13,19l-53 73 -14 -10 135 -187 14 9 -15 21c24,-8 45,-6 63,7 18,13 28,30 31,51 2,19 -3,38 -16,56zm-97 7c13,9 27,13 43,9 16,-3 29,-12 39,-26 11,-14 15,-29 13,-46 -2,-16 -9,-29 -22,-38 -14,-11 -29,-14 -44,-10 -15,3 -27,13 -38,27 -10,15 -15,30 -13,46 1,16 9,28 22,38z"/>
 </g>
</svg>
