<?xml version="1.0" encoding="UTF-8"?>
<!DOCTYPE svg PUBLIC "-//W3C//DTD SVG 1.1//EN" "http://www.w3.org/Graphics/SVG/1.1/DTD/svg11.dtd">
<!-- Creator: CorelDRAW X7 -->
<svg xmlns="http://www.w3.org/2000/svg" width="0.872913in" height="0.520835in" xml:space="preserve"  version="1.1" style="shape-rendering:geometricPrecision; text-rendering:geometricPrecision; image-rendering:optimizeQuality; fill-rule:evenodd; clip-rule:evenodd"
viewBox="0 0 873 521"
 xmlns:xlink="http://www.w3.org/1999/xlink">
 <defs>
  <style type="text/css">
   <![CDATA[
    .fil0 {fill:#FFED00}
   ]]>
  </style>
 </defs>
 <g id="Слой_x0020_1">
  <metadata id="CorelCorpID_0Corel-Layer"/>
  <g id="_1117666304">
   <path class="fil0" d="M405 248l0 2c1,-1 2,-2 2,-1 1,-1 1,-1 1,-1 -1,0 -2,0 -3,0zm413 -90c1,0 -6,2 -11,3 0,1 -1,1 -1,1 -50,12 -80,-53 -29,-73 4,-1 7,-2 11,-3 1,0 2,0 3,-1 0,0 -1,1 -1,1 0,0 1,0 1,0 2,0 4,-1 6,-1 7,0 13,2 19,4 0,0 0,0 0,0 0,0 0,0 0,0 13,6 22,16 22,28 0,18 -18,33 -41,33 -4,0 -9,-1 -13,-2 9,6 20,10 32,10 27,-14 37,-48 25,-78 -17,-42 -57,-50 -98,-44 -35,13 -61,47 -84,74 -30,34 -60,70 -98,95 -14,10 -29,18 -44,24 0,0 0,0 0,0 -1,2 -2,2 -4,2 -32,13 -72,23 -108,21l0 29c36,-1 78,8 109,20 2,0 4,0 5,2 0,0 0,0 0,0 15,6 30,14 44,23 38,25 69,60 99,94 24,26 51,60 86,72 41,6 80,-2 97,-45 12,-30 1,-64 -27,-77 -12,0 -23,4 -31,10 4,-1 8,-2 13,-2 22,0 41,14 41,32 0,12 -9,23 -21,28 0,0 0,0 0,0 0,0 0,0 0,0 -6,3 -12,4 -19,4 -2,0 -4,0 -7,0 0,0 0,0 0,0 0,0 1,0 1,0 -1,0 -2,0 -3,0 -4,-1 -8,-2 -12,-3 -51,-19 -22,-84 29,-73 0,0 0,0 1,0 4,1 12,3 11,3 50,20 60,86 8,120 -26,17 -57,14 -86,3 0,0 0,0 -1,0 1,0 1,0 1,0 -25,-10 -47,-26 -63,-42 -16,-15 -31,-31 -46,-47 8,17 13,35 13,54 -1,27 -19,51 -47,50 -24,-1 -41,-16 -46,-37 -1,-2 -2,-4 -2,-6 -1,-6 -1,-11 0,-15 0,0 0,0 0,0l0 0c3,-9 8,-16 15,-20 22,-14 45,20 26,27 -19,8 -16,31 -14,39 2,3 6,5 10,8 26,0 40,-24 43,-50 4,-30 -14,-61 -32,-85 -23,-23 -48,-44 -76,-58 18,24 30,51 30,82 -1,27 -20,51 -47,50 -7,-1 -14,-2 -20,-5 0,0 -1,0 -1,0 0,0 1,0 1,0 -12,-6 -20,-17 -16,-33 0,0 0,0 0,0 1,-3 2,-6 4,-9 12,-18 40,0 29,11 -10,11 -4,24 0,31 21,-5 32,-26 35,-49 4,-31 -15,-63 -33,-87 -25,-9 -52,-14 -83,-12 22,11 40,26 49,49 9,24 -5,48 -28,55 -12,3 -25,-2 -34,-11 -3,-2 -5,-4 -6,-6 -2,-4 -3,-7 -4,-10 0,-1 0,-1 0,-1 0,0 0,0 0,0 0,-6 2,-11 6,-16 11,-14 34,3 23,12 -10,10 -4,23 -1,28 13,-1 23,-12 28,-22 17,-31 -14,-62 -40,-77 -1,0 -3,0 -4,0 -2,0 -4,0 -6,-1l0 24 -26 1 -1 -24c-29,-1 -55,15 -68,42 -13,26 -3,56 22,69 38,2 67,-51 33,-70 -3,1 -6,1 -9,2 -4,4 -14,15 -7,27 7,12 -19,22 -26,5 -3,-8 -3,-18 6,-26 0,-1 0,-1 1,-1 7,-7 16,-10 26,-10 0,0 0,0 0,0 0,0 0,0 0,0 7,0 13,2 19,5 42,21 8,81 -33,71 -1,0 -3,-1 -5,-1 0,0 1,0 1,0 -5,-1 -9,-2 -13,-3 1,0 2,0 3,0 -8,-2 -15,-6 -21,-10 -2,13 -10,25 -22,32 -13,9 -29,4 -43,-1 -25,-9 -22,-43 0,-53 7,-3 18,-1 27,3 0,0 0,0 0,0 0,0 0,0 0,0 0,0 0,0 1,0 2,1 5,2 6,3 8,5 9,13 7,19 -3,13 -24,8 -20,-1 5,-10 -4,-17 -8,-19 -8,3 -14,12 -16,21 -3,12 5,23 15,29 29,0 47,-36 35,-62 0,0 1,1 1,1 -10,-43 34,-78 88,-79l0 -31c-57,-1 -99,-37 -90,-78 -1,0 -1,0 -1,1 11,-27 -7,-62 -36,-62 -10,6 -18,17 -15,29 2,10 8,18 17,22 4,-3 12,-10 8,-20 -5,-9 16,-15 19,-1 2,6 1,13 -6,19 -2,1 -4,2 -7,3 0,0 0,0 -1,0 0,0 1,0 1,0 -1,0 -1,0 -1,0 -9,4 -20,7 -27,3 -22,-10 -25,-44 0,-53 13,-5 30,-10 43,-2 12,8 20,19 23,32 5,-4 12,-8 20,-10 -1,0 -2,0 -3,0 4,-1 8,-2 13,-3 -1,0 -1,0 -1,0 2,-1 4,-1 5,-2 40,-10 76,50 34,71 -6,3 -12,5 -19,5 0,0 0,1 0,1 0,0 0,-1 0,-1 -10,1 -19,-2 -26,-9 -1,0 -1,-1 -1,-1 -9,-8 -9,-18 -7,-26 7,-17 34,-7 27,4 -8,13 2,23 7,27 3,1 6,2 9,2 33,-19 4,-71 -34,-69 -25,13 -35,43 -21,70 12,23 42,38 70,41l0 -23 26 0 0 23c2,-1 4,-2 5,-2 2,1 4,1 5,1 25,-16 56,-47 39,-78 -6,-10 -16,-20 -28,-22 -3,5 -10,19 1,28 10,9 -12,27 -24,12 -3,-4 -5,-9 -5,-15 0,0 0,0 0,0 0,0 0,-1 0,-1 0,-3 1,-6 3,-10 1,-2 4,-5 6,-7 9,-8 22,-14 34,-10 24,6 38,30 29,54 -8,23 -27,38 -48,49 31,2 58,-3 82,-13 18,-24 36,-56 32,-87 -3,-23 -15,-44 -36,-49 -4,7 -10,20 1,31 11,11 -17,29 -29,11 -2,-2 -3,-5 -4,-8 0,0 0,0 0,0 -4,-16 4,-27 15,-33 0,0 0,0 -1,0 1,0 1,0 2,0 5,-3 12,-5 19,-6 28,-1 47,23 48,50 0,31 -11,58 -29,82 28,-15 52,-36 76,-60 17,-24 34,-54 30,-85 -3,-25 -18,-50 -44,-49 -4,3 -7,5 -10,8 -1,8 -4,31 15,38 19,8 -3,42 -25,28 -7,-4 -13,-10 -16,-19l0 0c0,0 0,0 0,0 -1,-5 -1,-10 0,-15 0,-3 1,-5 2,-7 5,-21 21,-36 45,-37 28,-1 47,22 48,49 0,19 -4,37 -12,54 15,-16 30,-33 45,-48 16,-16 38,-32 62,-42 0,0 0,0 0,0 0,0 1,0 1,0 28,-12 59,-15 85,1 53,33 45,99 -6,120z"/>
   <path class="fil0" d="M738 247c-11,-3 -28,-5 -37,-10 -37,-22 -35,-76 14,-77 10,-1 20,7 29,7 -45,1 -50,51 -20,73 64,-8 64,-87 13,-118 -61,3 -116,86 -161,119 -17,12 -32,19 -48,22 67,26 118,111 181,141 58,0 86,-82 38,-117 -40,4 -63,50 -29,73 8,1 16,6 24,6 -5,0 -10,0 -14,-1 1,0 1,1 2,1 -3,-1 -5,-1 -8,-2 -6,-1 -13,-3 -19,-5 -1,0 -1,0 -1,0l-1 -1c0,0 0,0 0,0 -40,-12 -34,-58 -2,-77 17,-10 41,1 59,5 0,0 1,1 1,1 2,0 4,1 5,1 0,0 -1,0 -2,0 32,11 44,40 38,73 -7,45 -47,53 -83,47 1,0 3,1 5,2 -5,-2 -10,-3 -15,-4 -4,-1 -8,-2 -13,-3 0,0 0,0 0,0 0,0 0,0 0,0 -3,-1 -6,-2 -9,-3 -69,-25 -104,-105 -171,-136 -4,0 -8,0 -13,0 0,0 0,0 -1,0l0 -8c1,0 1,0 2,0 54,-13 99,-71 138,-105 33,-30 57,-37 92,-32 -1,0 -2,-1 -2,-1 3,1 5,1 8,2 2,1 4,1 5,1 4,1 8,2 12,3 71,19 61,142 -17,123z"/>
   <path class="fil0" d="M182 312c1,0 1,0 2,1 0,-1 -1,-1 -1,-1 10,6 18,16 18,27 0,-2 -15,-3 -15,-4 0,-11 -3,-18 -11,-24 -34,0 -37,48 -8,65 27,1 48,-19 50,-46 2,-20 -9,-38 -25,-50l0 17 -187 -32 188 -22 0 12c31,-23 39,-72 -2,-91 -35,-3 -58,44 -27,63 14,0 24,-9 25,-25 0,1 15,3 14,4 -1,23 -17,27 -34,24 0,0 0,0 1,1 -2,-1 -4,-1 -6,-2 -3,-1 -6,-1 -8,-2 -18,-6 -24,-22 -21,-39 3,-19 23,-28 41,-28 19,0 41,11 51,26 22,32 -3,69 -34,81l0 9c14,6 26,16 34,31 19,38 -14,80 -55,71 1,1 1,1 1,1 -1,0 -1,-1 -2,-1 0,0 0,0 0,0 -3,-1 -6,-1 -9,-2 -1,-1 -2,-1 -4,-1 1,0 1,0 1,0 -4,-1 -7,-3 -11,-5 -20,-11 -22,-39 -7,-55 10,-11 28,-10 41,-3z"/>
   <path class="fil0" d="M236 263c0,19 16,35 35,35 19,0 34,-16 34,-35 0,-18 -15,-34 -34,-34 -19,0 -35,16 -35,34z"/>
  </g>
 </g>
</svg>
