<?xml version="1.0" encoding="UTF-8"?>
<!DOCTYPE svg PUBLIC "-//W3C//DTD SVG 1.1//EN" "http://www.w3.org/Graphics/SVG/1.1/DTD/svg11.dtd">
<!-- Creator: CorelDRAW X7 -->
<svg xmlns="http://www.w3.org/2000/svg" xml:space="preserve" width="0.88in" height="0.470835in" version="1.1" style="shape-rendering:geometricPrecision; text-rendering:geometricPrecision; image-rendering:optimizeQuality; fill-rule:evenodd; clip-rule:evenodd"
viewBox="0 0 880 471"
 xmlns:xlink="http://www.w3.org/1999/xlink">
 <defs>
  <style type="text/css">
   <![CDATA[
    
 
    .fil1 {fill:#612c75}
   ]]>
  </style>
 </defs>
 <g id="Слой_x0020_1">
  <metadata id="CorelCorpID_0Corel-Layer"/>
  <g>
   <path class="fil0 str0" d="M44 145c24,14 52,8 76,-2 39,-15 73,-48 105,-73 31,-25 72,-38 111,-38 23,-1 45,5 66,14 -62,-13 -129,8 -172,60 -48,59 -46,146 9,199 25,25 58,33 89,29 -1,1 -1,2 -2,2 62,-16 157,-55 190,27 15,38 -5,75 -45,81 -38,5 -66,-30 -56,-64 22,-27 71,-16 64,22 -15,17 -45,7 -39,-18 -1,4 -5,7 -6,11 -4,19 10,30 28,26 10,-2 14,-11 18,-19 0,0 0,-1 1,-1 0,-2 1,-3 2,-4 -1,0 -1,1 -1,1 8,-21 -3,-42 -27,-45 -18,-3 -30,9 -38,22 0,-1 1,-2 1,-3 -1,2 -2,5 -3,7 -1,1 -2,2 -2,4 0,0 0,0 0,0 -1,0 -1,0 -1,0 0,0 0,0 0,0 -14,32 4,64 37,71 56,13 87,-58 73,-102 -20,-61 -83,-55 -137,-42 16,-12 28,-29 36,-49 17,-45 -3,-98 -50,-115 -33,-12 -66,6 -83,34 0,0 1,-1 1,-2 -1,2 -2,4 -3,6 0,1 -1,1 -1,2 0,0 0,1 -1,1 0,1 0,1 0,2 0,0 0,-1 0,-1 -18,41 9,95 59,79 14,-5 24,-17 29,-32 0,0 0,0 0,0 0,0 0,0 0,0 4,-15 1,-32 -10,-43 1,1 -6,10 -5,11 11,11 14,24 11,38 -15,19 -40,23 -61,11 -23,-13 -29,-44 -21,-67 22,-31 62,-39 95,-21 34,19 46,62 38,98 -6,26 -30,44 -56,54 -9,3 -18,5 -26,7 -2,1 -4,1 -7,1 -38,4 -72,-14 -97,-42 -24,-27 -34,-64 -32,-100 2,-43 27,-76 61,-100 64,-45 151,-37 211,11 5,5 10,10 14,15 0,0 0,0 0,0 52,60 113,166 204,157 73,-7 125,-93 102,-161 0,-1 0,-1 0,-2 -12,-29 -20,-58 14,-78 32,-18 69,12 60,44 -18,20 -53,10 -49,-17 14,-11 36,-3 29,17 1,-4 4,-7 5,-11 8,-21 -21,-31 -31,-13 0,0 0,0 0,0 0,0 -1,0 -1,1 0,0 0,0 0,0 -1,3 -3,5 -4,8 0,1 -1,1 -1,2 0,0 0,0 0,0 -2,5 -3,10 -3,16 2,29 41,22 53,5 3,-5 6,-11 8,-16 7,-26 -8,-46 -34,-51 -21,-4 -40,11 -49,29 -4,7 -8,14 -11,21 -2,5 -3,10 -3,15 -26,-30 -73,-40 -110,-21 -23,13 -39,44 -42,70 -6,50 56,88 95,52 21,-19 26,-57 4,-76 -20,-16 -41,-6 -52,11 0,0 0,-1 1,-1 -1,1 -1,2 -2,3 -1,2 -2,4 -3,6 0,1 -1,1 -1,2 0,0 0,-1 0,-1 -2,6 -3,11 -3,17 0,-4 6,-8 6,-12 0,-3 0,-6 1,-9 12,-15 31,-15 47,-5 16,11 18,31 12,48 -19,29 -62,24 -85,0 -26,-27 -16,-70 12,-91 28,-21 68,-15 96,3 32,20 44,58 41,94 -8,75 -97,108 -159,77 -59,-30 -97,-92 -139,-141 0,-1 0,-1 0,-1 -5,-6 -10,-11 -16,-16 0,0 0,0 0,0 0,-1 0,-1 -1,-1 -36,-33 -79,-58 -129,-61 -35,-2 -69,8 -99,25 -34,19 -62,48 -95,70 -31,21 -69,35 -105,18 -32,-14 -49,-53 -38,-86 14,-19 36,-30 60,-26 26,5 41,33 34,57 -9,12 -23,18 -38,14 -15,-4 -23,-19 -20,-33 11,-12 29,-11 36,7 -1,-3 7,-8 6,-11 -10,-27 -31,-16 -42,2 0,-2 1,-3 1,-4 -2,4 -4,7 -6,11 1,-1 2,-2 3,-3 -4,6 -5,13 -5,19 3,27 35,28 52,17 8,-5 12,-14 16,-23 0,0 0,0 0,0 0,0 0,0 1,0 0,0 -1,0 -1,0 9,-18 5,-36 -8,-51 -18,-19 -46,-17 -66,-4 -23,14 -35,49 -31,74 4,23 21,41 40,51z"/>
   <path id="1" class="fil1" d="M44 145c24,14 52,8 76,-2 39,-15 73,-48 105,-73 31,-25 72,-38 111,-38 23,-1 45,5 66,14 -62,-13 -129,8 -172,60 -48,59 -46,146 9,199 25,25 58,33 89,29 -1,1 -1,2 -2,2 62,-16 157,-55 190,27 15,38 -5,75 -45,81 -38,5 -66,-30 -56,-64 22,-27 71,-16 64,22 -15,17 -45,7 -39,-18 -1,4 -5,7 -6,11 -4,19 10,30 28,26 10,-2 14,-11 18,-19 0,0 0,-1 1,-1 0,-2 1,-3 2,-4 -1,0 -1,1 -1,1 8,-21 -3,-42 -27,-45 -18,-3 -30,9 -38,22 0,-1 1,-2 1,-3 -1,2 -2,5 -3,7 -1,1 -2,2 -2,4 0,0 0,0 0,0 -1,0 -1,0 -1,0 0,0 0,0 0,0 -14,32 4,64 37,71 56,13 87,-58 73,-102 -20,-61 -83,-55 -137,-42 16,-12 28,-29 36,-49 17,-45 -3,-98 -50,-115 -33,-12 -66,6 -83,34 0,0 1,-1 1,-2 -1,2 -2,4 -3,6 0,1 -1,1 -1,2 0,0 0,1 -1,1 0,1 0,1 0,2 0,0 0,-1 0,-1 -18,41 9,95 59,79 14,-5 24,-17 29,-32 0,0 0,0 0,0 0,0 0,0 0,0 4,-15 1,-32 -10,-43 1,1 -6,10 -5,11 11,11 14,24 11,38 -15,19 -40,23 -61,11 -23,-13 -29,-44 -21,-67 22,-31 62,-39 95,-21 34,19 46,62 38,98 -6,26 -30,44 -56,54 -9,3 -18,5 -26,7 -2,1 -4,1 -7,1 -38,4 -72,-14 -97,-42 -24,-27 -34,-64 -32,-100 2,-43 27,-76 61,-100 64,-45 151,-37 211,11 5,5 10,10 14,15 0,0 0,0 0,0 52,60 113,166 204,157 73,-7 125,-93 102,-161 0,-1 0,-1 0,-2 -12,-29 -20,-58 14,-78 32,-18 69,12 60,44 -18,20 -53,10 -49,-17 14,-11 36,-3 29,17 1,-4 4,-7 5,-11 8,-21 -21,-31 -31,-13 0,0 0,0 0,0 0,0 -1,0 -1,1 0,0 0,0 0,0 -1,3 -3,5 -4,8 0,1 -1,1 -1,2 0,0 0,0 0,0 -2,5 -3,10 -3,16 2,29 41,22 53,5 3,-5 6,-11 8,-16 7,-26 -8,-46 -34,-51 -21,-4 -40,11 -49,29 -4,7 -8,14 -11,21 -2,5 -3,10 -3,15 -26,-30 -73,-40 -110,-21 -23,13 -39,44 -42,70 -6,50 56,88 95,52 21,-19 26,-57 4,-76 -20,-16 -41,-6 -52,11 0,0 0,-1 1,-1 -1,1 -1,2 -2,3 -1,2 -2,4 -3,6 0,1 -1,1 -1,2 0,0 0,-1 0,-1 -2,6 -3,11 -3,17 0,-4 6,-8 6,-12 0,-3 0,-6 1,-9 12,-15 31,-15 47,-5 16,11 18,31 12,48 -19,29 -62,24 -85,0 -26,-27 -16,-70 12,-91 28,-21 68,-15 96,3 32,20 44,58 41,94 -8,75 -97,108 -159,77 -59,-30 -97,-92 -139,-141 0,-1 0,-1 0,-1 -5,-6 -10,-11 -16,-16 0,0 0,0 0,0 0,-1 0,-1 -1,-1 -36,-33 -79,-58 -129,-61 -35,-2 -69,8 -99,25 -34,19 -62,48 -95,70 -31,21 -69,35 -105,18 -32,-14 -49,-53 -38,-86 14,-19 36,-30 60,-26 26,5 41,33 34,57 -9,12 -23,18 -38,14 -15,-4 -23,-19 -20,-33 11,-12 29,-11 36,7 -1,-3 7,-8 6,-11 -10,-27 -31,-16 -42,2 0,-2 1,-3 1,-4 -2,4 -4,7 -6,11 1,-1 2,-2 3,-3 -4,6 -5,13 -5,19 3,27 35,28 52,17 8,-5 12,-14 16,-23 0,0 0,0 0,0 0,0 0,0 1,0 0,0 -1,0 -1,0 9,-18 5,-36 -8,-51 -18,-19 -46,-17 -66,-4 -23,14 -35,49 -31,74 4,23 21,41 40,51z"/>
  </g>
 </g>
</svg>
