<?xml version="1.0" encoding="UTF-8"?>
<!DOCTYPE svg PUBLIC "-//W3C//DTD SVG 1.1//EN" "http://www.w3.org/Graphics/SVG/1.1/DTD/svg11.dtd">
<!-- Creator: CorelDRAW X7 -->
<svg xmlns="http://www.w3.org/2000/svg" xml:space="preserve" width="0.872913in" height="0.520835in" version="1.1" style="shape-rendering:geometricPrecision; text-rendering:geometricPrecision; image-rendering:optimizeQuality; fill-rule:evenodd; clip-rule:evenodd"
viewBox="0 0 873 521"
 xmlns:xlink="http://www.w3.org/1999/xlink">
 <defs>
  <style type="text/css">
   <![CDATA[
    .fil0 {fill:#FFED00}
   ]]>
  </style>
 </defs>
 <g id="Слой_x0020_1">
  <metadata id="CorelCorpID_0Corel-Layer"/>
  <g id="_1117289056">
   <path class="fil0" d="M469 256l0 2c-1,-1 -2,-1 -2,-1 0,0 0,0 0,0 1,0 1,0 2,-1zm-413 -90c0,0 7,3 11,4 1,0 1,0 1,0 51,12 81,-52 30,-72 -4,-2 -8,-3 -12,-4 -1,0 -2,0 -3,0 1,0 1,0 1,0 0,0 0,0 0,0 -2,0 -4,0 -6,0 -7,0 -14,1 -20,4 0,0 0,0 0,0 0,0 0,0 0,0 -12,5 -21,15 -21,28 0,17 18,32 40,32 5,0 9,-1 13,-2 -8,6 -19,10 -31,10 -28,-14 -38,-47 -26,-78 18,-42 57,-50 98,-44 35,14 61,48 85,74 29,34 59,70 97,96 14,9 29,17 44,24 0,0 0,0 0,0 1,1 3,1 5,2 31,12 72,22 107,21l0 29c-35,-2 -77,7 -109,19 -2,0 -3,1 -4,2 0,0 0,0 0,0 -15,6 -30,14 -45,23 -38,25 -69,61 -99,94 -24,27 -50,60 -85,73 -41,6 -81,-3 -98,-46 -11,-30 0,-64 27,-77 12,0 23,4 32,10 -4,-1 -9,-2 -13,-2 -23,0 -41,14 -42,32 0,12 9,23 22,29 0,-1 0,0 0,-1 0,1 0,1 0,1 5,2 12,4 19,4 2,0 4,-1 6,-1 0,0 0,0 1,0 -1,0 -1,1 -2,1 2,0 3,-1 4,-1 3,-1 7,-1 11,-3 51,-19 22,-84 -28,-73 0,0 -1,0 -1,0 -5,2 -12,4 -11,4 -51,20 -60,86 -8,119 26,17 57,14 85,3 0,0 1,0 1,0 0,0 0,0 -1,0 25,-10 48,-26 64,-41 15,-15 30,-31 45,-47 -8,16 -12,34 -12,53 0,27 19,51 47,50 23,-1 40,-16 46,-36 1,-2 1,-5 2,-7 1,-6 0,-10 -1,-15 0,0 0,0 0,0l0 0c-2,-9 -8,-15 -15,-19 -22,-15 -44,19 -26,27 20,8 16,30 15,38 -3,3 -6,6 -10,8 -26,0 -40,-24 -43,-50 -4,-30 13,-61 31,-84 24,-24 49,-44 77,-59 -18,24 -30,51 -30,82 0,27 19,51 47,50 7,0 13,-2 19,-5 1,0 1,0 2,0 -1,0 -1,0 -1,0 11,-6 19,-17 15,-32 0,0 0,0 0,0 -1,-4 -2,-7 -4,-9 -11,-18 -39,-1 -28,11 10,10 4,23 0,30 -21,-4 -33,-26 -35,-49 -4,-31 14,-62 33,-86 24,-10 51,-15 82,-13 -21,12 -40,27 -49,50 -9,23 5,47 28,54 12,3 26,-2 35,-10 2,-2 4,-4 6,-7 2,-4 3,-7 3,-10 0,0 0,0 0,-1 0,0 0,1 0,1 0,-7 -2,-12 -5,-16 -12,-15 -34,2 -24,11 11,10 4,24 1,29 -12,-2 -23,-13 -28,-23 -17,-31 15,-61 40,-77 2,0 3,0 5,1 2,0 4,-1 6,-2l0 25 26 0 0 -24c30,-1 55,15 69,42 13,26 2,57 -23,69 -37,2 -66,-51 -32,-69 3,0 6,1 8,2 5,4 15,15 7,27 -7,11 20,21 27,4 2,-8 3,-18 -6,-26 0,0 -1,0 -1,-1 -7,-7 -17,-10 -27,-10 0,0 0,0 1,0 -1,0 -1,0 -1,0 -6,1 -13,2 -19,5 -42,21 -7,81 33,72 2,-1 3,-1 5,-2 0,0 0,0 0,1 4,-2 8,-3 12,-4 -1,0 -2,0 -2,1 7,-3 14,-6 20,-11 2,13 10,25 22,33 13,8 30,3 43,-2 26,-8 23,-42 1,-53 -7,-3 -18,-1 -27,3 0,0 -1,0 -1,0 0,0 0,0 1,0 -1,0 -1,1 -1,1 -3,0 -5,1 -7,2 -7,6 -8,13 -7,19 3,14 24,9 20,-1 -4,-9 4,-17 8,-19 8,4 15,12 17,22 2,12 -5,23 -15,28 -30,0 -47,-36 -36,-62 0,1 0,1 -1,1 10,-43 -33,-78 -88,-79l1 -31c56,-1 99,-37 90,-78 0,0 0,1 1,1 -12,-26 7,-62 36,-61 10,5 17,16 14,28 -2,10 -8,18 -16,22 -4,-3 -13,-10 -8,-20 4,-9 -16,-14 -20,-1 -1,6 -1,14 7,19 1,2 4,2 6,3 1,0 1,0 1,0 0,0 0,0 0,0 0,0 0,0 0,0 9,5 20,7 27,4 22,-10 26,-44 0,-53 -13,-5 -29,-10 -42,-2 -13,7 -21,19 -23,32 -6,-5 -13,-8 -20,-11 0,0 1,0 2,0 -4,-1 -8,-2 -12,-3 0,0 0,0 0,0 -1,0 -3,-1 -5,-1 -40,-10 -75,49 -34,71 6,3 13,4 19,5 0,0 0,0 0,0 0,0 0,0 0,0 10,0 20,-3 27,-10 0,0 1,0 1,0 9,-9 9,-19 6,-26 -6,-18 -33,-8 -26,4 7,12 -3,23 -8,27 -2,1 -5,1 -8,1 -34,-18 -4,-71 33,-69 25,13 35,44 22,70 -12,23 -42,39 -70,41l0 -23 -26 0 -1 23c-1,-1 -3,-1 -5,-1 -1,0 -3,0 -5,0 -25,-16 -56,-47 -38,-78 5,-10 16,-20 28,-21 3,5 9,18 -1,28 -11,9 11,26 23,12 3,-4 6,-10 6,-16 0,0 0,0 0,0 0,0 0,0 0,0 -1,-4 -2,-7 -3,-11 -2,-2 -4,-4 -7,-6 -8,-9 -22,-14 -34,-11 -23,6 -37,30 -29,54 9,23 27,38 48,50 -31,2 -57,-4 -82,-14 -18,-24 -36,-56 -32,-87 4,-23 15,-44 36,-48 4,7 10,20 0,30 -11,12 16,30 28,12 2,-3 3,-6 4,-9 0,0 1,0 1,0 3,-15 -4,-27 -16,-33 1,0 1,0 1,0 0,0 -1,0 -1,0 -6,-3 -13,-5 -20,-5 -27,-2 -47,22 -47,49 -1,31 11,58 28,83 -28,-15 -52,-37 -75,-60 -18,-24 -35,-55 -31,-85 4,-26 18,-50 45,-49 3,2 7,5 9,8 2,7 5,30 -15,38 -18,7 3,41 26,27 7,-4 13,-10 15,-19l0 0c0,0 0,0 0,0 1,-4 2,-9 1,-15 0,-2 -1,-4 -2,-7 -5,-20 -22,-35 -46,-37 -27,-1 -47,23 -47,50 -1,19 4,37 11,53 -14,-16 -29,-32 -45,-48 -15,-15 -38,-32 -62,-42 0,0 0,0 0,0 0,0 0,0 0,0 -29,-12 -59,-15 -86,2 -53,33 -44,99 6,119z"/>
   <path class="fil0" d="M137 255c10,-2 27,-4 36,-10 37,-22 36,-76 -13,-77 -10,0 -20,8 -30,8 46,1 51,50 20,72 -63,-7 -63,-86 -13,-118 61,4 117,86 161,119 17,12 33,19 49,22 -68,26 -119,111 -182,142 -58,0 -85,-83 -37,-117 39,4 62,50 29,72 -8,2 -16,6 -24,7 5,0 9,-1 14,-2 -1,1 -2,1 -3,1 3,0 6,-1 9,-2 6,-1 12,-3 19,-5 0,0 0,0 1,0l1 0c0,0 0,0 0,0 40,-13 34,-58 2,-77 -17,-10 -42,0 -59,4 -1,1 -1,1 -2,1 -1,1 -3,1 -5,1 1,0 2,0 2,0 -32,11 -44,40 -38,73 8,46 47,53 84,47 -2,1 -4,2 -5,2 5,-1 10,-2 14,-4 5,-1 9,-2 13,-3 0,0 0,0 0,0 0,0 0,0 0,0 4,-1 7,-2 10,-3 68,-25 104,-104 171,-135 4,0 8,0 12,-1 0,0 1,0 1,0l0 -8c0,0 -1,0 -1,0 -55,-13 -100,-71 -138,-105 -34,-29 -58,-37 -93,-31 1,-1 2,-1 3,-2 -3,1 -6,2 -9,3 -2,0 -3,0 -5,1 -4,1 -7,1 -11,3 -72,19 -62,141 17,122z"/>
   <path class="fil0" d="M692 320c0,1 -1,1 -2,1 1,0 1,0 2,0 -11,5 -18,15 -18,26 0,-1 15,-3 15,-4 -1,-11 3,-18 11,-23 33,-1 36,48 8,64 -27,2 -48,-18 -51,-46 -1,-20 9,-38 25,-49l0 17 188 -33 -189 -22 0 12c-30,-22 -38,-72 3,-91 35,-2 58,45 26,64 -13,0 -23,-9 -24,-25 0,1 -15,3 -15,4 1,23 18,26 35,23 -1,0 -1,1 -2,1 2,-1 4,-1 6,-2 3,0 6,-1 9,-2 17,-5 23,-22 20,-38 -3,-20 -23,-29 -40,-29 -20,0 -41,11 -52,27 -22,31 4,69 35,80l0 10c-14,6 -26,15 -34,30 -20,38 13,81 54,72 0,0 0,0 0,0 0,0 1,0 1,0 0,0 1,0 1,0 3,-1 6,-2 9,-3 1,0 2,-1 3,-1 0,0 0,0 -1,0 4,-1 8,-2 11,-4 21,-11 22,-40 8,-56 -11,-11 -28,-10 -42,-3z"/>
   <path class="fil0" d="M638 272c0,19 -15,34 -34,34 -19,0 -35,-15 -35,-34 0,-19 16,-34 35,-34 19,0 34,15 34,34z"/>
  </g>
 </g>
</svg>
