<?xml version="1.0" encoding="UTF-8"?>
<!DOCTYPE svg PUBLIC "-//W3C//DTD SVG 1.1//EN" "http://www.w3.org/Graphics/SVG/1.1/DTD/svg11.dtd">
<!-- Creator: CorelDRAW X7 -->
<svg xmlns="http://www.w3.org/2000/svg" xml:space="preserve" width="0.88in" height="0.470835in" version="1.1" style="shape-rendering:geometricPrecision; text-rendering:geometricPrecision; image-rendering:optimizeQuality; fill-rule:evenodd; clip-rule:evenodd"
viewBox="0 0 880 471"
 xmlns:xlink="http://www.w3.org/1999/xlink">
 <defs>
  <style type="text/css">
   <![CDATA[

    .fil0 {fill:#612c75}
   ]]>
  </style>
 </defs>
 <g id="Слой_x0020_1">
  <metadata id="CorelCorpID_0Corel-Layer"/>
  <path class="fil0 str0" d="M836 151c-24,13 -52,8 -76,-2 -39,-16 -73,-48 -105,-74 -31,-24 -72,-38 -111,-38 -23,0 -45,5 -66,14 62,-13 129,8 172,61 48,59 46,145 -9,199 -25,24 -58,33 -89,29 1,1 1,1 2,1 -62,-15 -157,-54 -190,28 -16,37 5,74 45,80 37,6 66,-29 56,-64 -23,-26 -71,-15 -64,23 15,16 45,7 39,-19 1,4 5,8 6,12 4,18 -10,29 -28,26 -10,-2 -14,-11 -18,-19 0,-1 0,-1 -1,-2 0,-1 -1,-2 -2,-4 1,1 1,1 1,2 -8,-22 3,-42 27,-46 18,-2 30,9 38,23 0,-1 -1,-2 -1,-3 1,2 2,4 3,6 1,1 1,3 2,4 0,0 0,0 0,1 0,0 0,0 1,0 -1,0 -1,0 -1,0 15,31 -3,63 -36,71 -56,13 -87,-58 -73,-102 20,-62 82,-55 137,-42 -16,-12 -29,-29 -36,-49 -17,-45 3,-98 49,-115 34,-12 67,6 84,34 0,-1 -1,-2 -1,-2 1,2 2,4 3,6 0,0 1,1 1,1 0,1 0,1 1,2 0,0 0,1 0,1 0,0 0,0 0,0 18,40 -9,95 -59,79 -14,-5 -25,-18 -29,-32 0,0 0,0 0,-1 0,1 0,1 0,1 -4,-16 -2,-33 10,-44 -1,1 6,11 5,12 -11,10 -14,23 -11,38 15,19 40,22 61,10 23,-13 29,-43 21,-67 -22,-30 -62,-38 -95,-20 -34,19 -46,62 -38,97 6,26 30,45 55,55 10,2 19,5 26,7 3,0 5,1 8,1 38,4 72,-15 97,-43 24,-27 34,-64 32,-100 -2,-42 -27,-75 -61,-99 -64,-45 -152,-38 -211,11 -5,5 -10,9 -14,14 0,1 0,1 -1,1 -51,60 -112,166 -203,156 -73,-7 -126,-93 -102,-161 0,0 0,-1 0,-1 12,-30 20,-58 -14,-78 -32,-18 -69,11 -60,44 18,19 53,10 48,-17 -13,-11 -35,-3 -28,17 -1,-4 -4,-7 -5,-11 -8,-22 21,-32 31,-13 0,0 0,0 0,0 0,0 0,0 1,0 0,0 0,0 0,0 1,3 3,6 4,8 0,1 1,2 1,3 0,0 0,-1 0,-1 2,5 3,10 3,16 -2,29 -41,22 -53,5 -3,-4 -6,-11 -8,-16 -7,-25 8,-46 33,-51 22,-4 41,11 50,29 4,7 8,14 11,22 2,5 3,10 3,15 26,-31 73,-41 109,-22 24,13 40,44 43,70 6,51 -56,88 -95,53 -21,-20 -26,-57 -4,-76 20,-17 40,-7 52,10 0,0 -1,0 -1,-1 1,1 1,2 2,3 1,2 2,5 3,7 0,0 1,1 1,1 0,0 0,0 0,0 2,5 3,11 3,16 0,-4 -6,-7 -6,-11 0,-4 0,-7 -1,-10 -12,-14 -31,-15 -47,-4 -16,10 -18,31 -12,47 19,30 61,24 84,1 27,-28 17,-71 -11,-91 -28,-21 -68,-15 -96,2 -32,21 -44,58 -41,95 8,75 97,108 159,77 59,-30 97,-93 139,-142 0,0 0,0 0,-1 5,-5 10,-11 16,-16 0,0 0,0 0,0 0,0 0,0 1,0 36,-34 79,-59 129,-62 35,-2 69,8 99,25 34,20 62,48 95,70 31,21 69,35 105,19 32,-15 48,-53 37,-86 -13,-20 -35,-31 -59,-26 -26,5 -41,33 -34,57 9,11 23,17 38,14 15,-4 22,-20 20,-34 -11,-11 -29,-11 -36,8 1,-3 -7,-9 -6,-12 10,-26 31,-15 42,2 0,-1 -1,-2 -1,-4 2,4 4,8 6,12 -1,-2 -2,-3 -3,-4 3,7 5,14 5,20 -3,26 -35,28 -52,17 -8,-6 -12,-15 -16,-23 0,0 0,0 0,0 -1,-1 -1,-1 -1,-1 0,0 0,0 0,0 -8,-18 -4,-36 9,-50 17,-20 46,-17 66,-5 23,14 35,49 31,74 -4,23 -21,41 -40,52z"/>
 </g>
</svg>
