<?xml version="1.0" encoding="UTF-8"?>
<!DOCTYPE svg PUBLIC "-//W3C//DTD SVG 1.1//EN" "http://www.w3.org/Graphics/SVG/1.1/DTD/svg11.dtd">
<!-- Creator: CorelDRAW X7 -->
<svg xmlns="http://www.w3.org/2000/svg" xml:space="preserve" width="0.752079in" height="0.752079in" version="1.1" style="shape-rendering:geometricPrecision; text-rendering:geometricPrecision; image-rendering:optimizeQuality; fill-rule:evenodd; clip-rule:evenodd"
viewBox="0 0 752 752"
 xmlns:xlink="http://www.w3.org/1999/xlink">
 <defs>
  <style type="text/css">
   <![CDATA[
    .fil2 {fill:#612C75}
    .fil0 {fill:#FFED00}
    .fil1 {fill:#612C75;fill-rule:nonzero}
   ]]>
  </style>
 </defs>
 <g id="Слой_x0020_1">
  <metadata id="CorelCorpID_0Corel-Layer"/>
  <g id="_1115064336">
   <g>
    <path class="fil0" d="M376 35c191,0 345,154 345,345 0,190 -154,344 -345,344 -190,0 -345,-154 -345,-344 0,-191 155,-345 345,-345z"/>
    <path id="1" class="fil1" d="M741 380l-40 0 0 0 0 -17 -1 -17 -2 -16 -3 -16 -4 -16 -4 -15 -5 -15 -6 -15 -7 -14 -7 -14 -8 -14 -8 -13 -9 -13 -10 -12 -10 -12 -11 -11 -11 -11 -12 -10 -12 -10 -13 -9 -13 -9 -14 -7 -14 -8 -14 -6 -15 -6 -15 -5 -15 -4 -16 -4 -16 -3 -16 -2 -17 -1 -17 -1 0 -39 19 0 19 2 18 2 18 3 17 4 18 5 17 6 16 7 16 7 16 8 15 9 15 9 14 10 14 11 13 12 13 12 12 12 12 14 10 13 11 15 9 14 9 16 8 15 7 17 7 16 5 17 5 17 4 18 4 18 2 18 1 19 1 19 0 0zm-365 364l0 -39 0 0 17 -1 17 -1 16 -2 16 -3 16 -4 15 -4 15 -5 15 -6 14 -6 14 -8 14 -7 13 -9 13 -9 12 -10 12 -10 11 -11 11 -11 10 -12 10 -12 9 -13 8 -13 8 -13 7 -15 7 -14 6 -15 5 -15 4 -15 4 -16 3 -16 2 -16 1 -17 0 -16 40 0 -1 18 -1 19 -2 18 -4 18 -4 18 -5 17 -5 17 -7 16 -7 17 -8 15 -9 16 -9 14 -11 15 -10 13 -12 14 -12 12 -13 12 -13 12 -14 11 -14 10 -15 9 -15 9 -16 8 -16 7 -16 7 -17 6 -18 5 -17 4 -18 3 -18 2 -19 2 -19 0 0 0zm-364 -364l39 0 0 0 1 16 1 17 2 16 3 16 3 16 5 15 5 15 6 15 6 14 7 15 8 13 9 13 9 13 9 12 11 12 10 11 12 11 11 10 13 10 12 9 14 9 13 7 14 8 15 6 14 6 16 5 15 4 16 4 16 3 16 2 17 1 16 1 0 39 -18 0 -19 -2 -18 -2 -18 -3 -18 -4 -17 -5 -17 -6 -17 -7 -16 -7 -15 -8 -16 -9 -15 -9 -14 -10 -14 -11 -13 -12 -12 -12 -13 -12 -11 -14 -11 -13 -10 -15 -9 -14 -9 -16 -8 -15 -8 -17 -6 -16 -6 -17 -5 -17 -4 -18 -3 -18 -2 -18 -2 -19 0 -18 0 0zm364 -365l0 39 0 0 -16 1 -17 1 -16 2 -16 3 -16 4 -15 4 -16 5 -14 6 -15 6 -14 8 -13 7 -14 9 -12 9 -13 10 -11 10 -12 11 -10 11 -11 12 -9 12 -9 13 -9 13 -8 14 -7 14 -6 14 -6 15 -5 15 -5 15 -3 16 -3 16 -2 16 -1 17 -1 17 -39 0 0 -19 2 -19 2 -18 3 -18 4 -18 5 -17 6 -17 6 -16 8 -17 8 -15 9 -16 9 -14 10 -15 11 -13 11 -14 13 -12 12 -12 13 -12 14 -11 14 -10 15 -9 16 -9 15 -8 16 -7 17 -7 17 -6 17 -5 18 -4 18 -3 18 -2 19 -2 18 0 0 0z"/>
   </g>
   <path class="fil2" d="M378 227c89,3 170,63 236,162 -163,188 -324,179 -479,-6 0,-1 -1,0 -1,-2 71,-86 156,-157 244,-154zm-303 150c141,255 463,267 602,0 -186,-285 -473,-221 -602,0z"/>
   <path class="fil2" d="M371 252c66,0 119,53 119,119 0,65 -53,119 -119,119 -66,0 -119,-54 -119,-119 0,-66 53,-119 119,-119zm41 22c28,0 51,22 51,50 0,28 -23,51 -51,51 -28,0 -51,-23 -51,-51 0,-28 23,-50 51,-50z"/>
  </g>
 </g>
</svg>
