<?xml version="1.0" encoding="UTF-8"?>
<!DOCTYPE svg PUBLIC "-//W3C//DTD SVG 1.1//EN" "http://www.w3.org/Graphics/SVG/1.1/DTD/svg11.dtd">
<!-- Creator: CorelDRAW X7 -->
<svg xmlns="http://www.w3.org/2000/svg" xml:space="preserve" width="0.752079in" height="0.752079in" version="1.1" style="shape-rendering:geometricPrecision; text-rendering:geometricPrecision; image-rendering:optimizeQuality; fill-rule:evenodd; clip-rule:evenodd"
viewBox="0 0 752 752"
 xmlns:xlink="http://www.w3.org/1999/xlink">
 <defs>
  <style type="text/css">
   <![CDATA[
    .fil2 {fill:#612C75}
    .fil0 {fill:#FFED00}
    .fil1 {fill:#612C75;fill-rule:nonzero}
   ]]>
  </style>
 </defs>
 <g id="Слой_x0020_1">
  <metadata id="CorelCorpID_0Corel-Layer"/>
  <g id="_1101826096">
   <g>
    <path class="fil0" d="M376 38c-186,0 -337,151 -337,337 0,186 151,336 337,336 186,0 337,-150 337,-336 0,-186 -151,-337 -337,-337z"/>
    <path id="1" class="fil1" d="M59 375l-39 0 0 0 0 -19 2 -18 2 -18 3 -17 4 -17 5 -17 5 -17 7 -16 7 -16 8 -15 8 -15 10 -14 9 -14 11 -14 11 -13 12 -12 12 -12 13 -11 14 -11 14 -10 14 -9 15 -9 15 -7 16 -8 16 -6 17 -6 17 -4 17 -4 18 -3 18 -3 18 -1 18 -1 0 40 -16 0 -16 1 -16 2 -16 3 -15 4 -15 4 -15 5 -14 6 -14 6 -14 7 -13 8 -13 8 -13 9 -12 9 -11 10 -11 11 -11 11 -10 11 -9 12 -9 13 -8 12 -8 14 -7 13 -6 14 -6 15 -5 14 -4 15 -3 16 -3 15 -2 16 -2 16 0 17 0 0zm317 317l0 39 0 0 -18 -1 -18 -1 -18 -2 -18 -3 -17 -4 -17 -5 -17 -6 -16 -6 -16 -7 -15 -8 -15 -9 -14 -9 -14 -10 -14 -10 -13 -12 -12 -11 -12 -13 -11 -13 -11 -13 -9 -14 -10 -15 -8 -14 -8 -16 -7 -16 -7 -16 -5 -16 -5 -17 -4 -18 -3 -17 -2 -18 -2 -18 0 -18 39 0 0 16 2 16 2 16 3 16 3 15 4 15 5 15 6 14 6 14 7 14 8 13 8 13 9 12 9 12 10 12 11 11 11 10 11 10 12 10 13 8 13 9 13 7 14 7 14 7 14 5 15 5 15 5 15 3 16 3 16 2 16 1 16 1 0 0zm317 -317l39 0 0 0 0 18 -2 18 -2 18 -3 17 -4 18 -5 17 -5 16 -7 16 -7 16 -8 16 -8 14 -10 15 -10 14 -10 13 -11 13 -12 13 -13 11 -12 12 -14 10 -14 10 -14 9 -15 9 -16 8 -15 7 -17 6 -16 6 -17 5 -17 4 -18 3 -18 2 -18 1 -18 1 0 -39 16 -1 16 -1 16 -2 16 -3 15 -3 15 -5 15 -5 14 -5 14 -7 14 -7 13 -7 13 -9 13 -8 12 -10 11 -10 11 -10 11 -11 9 -12 10 -12 9 -12 8 -13 8 -13 7 -14 6 -14 6 -14 5 -15 4 -15 3 -15 3 -16 2 -16 1 -16 1 -16 0 0zm-317 -317l0 -40 0 0 18 1 18 1 18 3 18 3 17 4 17 4 16 6 17 6 15 8 16 7 15 9 14 9 14 10 14 11 12 11 13 12 12 12 11 13 10 14 10 14 10 14 8 15 8 15 7 16 7 16 5 17 5 17 4 17 3 17 2 18 2 18 0 19 -39 0 -1 -17 -1 -16 -2 -16 -3 -15 -3 -16 -4 -15 -5 -14 -6 -15 -6 -14 -7 -13 -8 -14 -8 -12 -9 -13 -10 -12 -9 -11 -11 -11 -11 -11 -11 -10 -12 -9 -13 -9 -13 -8 -13 -8 -14 -7 -14 -6 -14 -6 -15 -5 -15 -4 -15 -4 -16 -3 -16 -2 -16 -1 -16 0 0 0z"/>
   </g>
   <g id="_1101826864">
    <path class="fil2" d="M276 163c32,93 16,177 -49,254l271 -60 10 -52c-78,-47 -155,-94 -232,-142zm195 150l-146 -85 -4 24 150 61z"/>
    <ellipse class="fil2" transform="matrix(-0.510178 -0.0632771 -0.0877986 0.514399 526.823 337.707)" rx="78" ry="109"/>
    <path class="fil2" d="M524 331l0 0c-46,0 -81,169 -94,218 -5,20 8,40 27,45l0 0c20,5 41,-7 46,-27 12,-49 67,-236 21,-236zm-32 61l-52 161 13 0 39 -161z"/>
    <g>
     <path class="fil1" d="M290 296l-8 -2 0 0 2 -6 1 -7 0 -7 1 -6 1 -6 0 -7 1 -6 0 -6 0 -6 0 -6 0 -5 -1 -6 0 -5 -1 -5 0 -5 -1 -5 -1 -5 -1 -4 -1 -4 -1 -4 -1 -3 -2 -4 -1 -3 -2 -3 -1 -2 -2 -2 -2 -2 -2 -2 -1 -1 -2 -1 -2 -1 -2 -1 1 -7 3 0 3 2 3 1 2 2 3 2 2 3 2 2 2 3 2 3 1 4 2 4 1 4 2 4 1 4 1 5 1 5 1 5 0 5 1 5 0 6 1 5 0 6 0 6 0 6 -1 6 0 7 0 6 -1 7 -1 6 -1 7 -1 7 -1 7 0 0zm-77 126l2 -7 0 0 2 0 2 0 2 -1 2 0 2 -1 3 -1 2 -2 2 -2 3 -2 2 -2 3 -3 2 -3 3 -3 2 -3 2 -4 3 -4 2 -4 3 -5 2 -4 2 -5 2 -5 2 -5 2 -6 2 -5 2 -6 2 -6 2 -6 2 -6 1 -7 2 -6 1 -7 1 -7 8 2 -1 7 -2 6 -1 7 -2 7 -1 6 -2 6 -2 6 -2 6 -2 6 -2 5 -2 6 -3 5 -2 5 -2 5 -3 5 -2 4 -3 4 -2 4 -3 4 -3 3 -2 3 -3 3 -3 3 -3 2 -3 3 -2 1 -3 2 -3 1 -3 1 -3 1 -4 0 -3 -1 0 0zm-27 -145l7 1 0 0 -1 7 -1 7 -1 6 0 7 -1 6 0 7 -1 6 0 6 0 6 0 6 0 5 0 6 1 5 0 5 1 5 1 5 1 4 1 5 1 4 1 4 1 3 2 4 1 3 2 3 1 2 2 2 2 2 1 2 2 1 2 1 2 1 2 1 -2 7 -3 0 -2 -2 -3 -1 -3 -2 -2 -2 -2 -3 -2 -2 -2 -3 -2 -4 -2 -3 -1 -4 -2 -4 -1 -4 -1 -4 -1 -5 -1 -5 -1 -5 0 -5 -1 -5 0 -6 -1 -5 0 -6 0 -6 0 -6 0 -7 1 -6 0 -6 1 -7 1 -7 1 -6 1 -7 1 -7 0 0zm76 -126l-1 7 0 0 -2 0 -2 0 -2 1 -2 0 -2 1 -3 1 -2 2 -2 2 -3 2 -2 2 -3 3 -2 3 -3 3 -2 3 -3 4 -2 4 -2 4 -3 5 -2 4 -2 5 -2 5 -3 5 -2 6 -2 5 -2 6 -1 6 -2 6 -2 6 -1 7 -2 6 -1 7 -2 6 -7 -1 1 -7 1 -7 2 -6 2 -7 1 -6 2 -6 2 -6 2 -6 2 -6 2 -6 2 -5 3 -5 2 -5 2 -5 3 -5 2 -4 3 -4 2 -4 3 -4 3 -3 2 -4 3 -2 3 -3 3 -3 2 -2 3 -2 3 -1 3 -1 3 -1 3 -1 3 0 3 1 0 0z"/>
    </g>
   </g>
  </g>
 </g>
</svg>
