<?xml version="1.0" encoding="UTF-8"?>
<!DOCTYPE svg PUBLIC "-//W3C//DTD SVG 1.1//EN" "http://www.w3.org/Graphics/SVG/1.1/DTD/svg11.dtd">
<!-- Creator: CorelDRAW X7 -->
<svg xmlns="http://www.w3.org/2000/svg" xml:space="preserve" width="0.452079in" height="0.452079in" version="1.1" style="shape-rendering:geometricPrecision; text-rendering:geometricPrecision; image-rendering:optimizeQuality; fill-rule:evenodd; clip-rule:evenodd"
viewBox="0 0 452 452"
 xmlns:xlink="http://www.w3.org/1999/xlink">
 <defs>
  <style type="text/css">
   <![CDATA[
    .fil2 {fill:#FEFEFE}
    .fil0 {fill:#612C75}
    .fil1 {fill:#FEFEFE;fill-rule:nonzero}
   ]]>
  </style>
 </defs>
 <g id="Слой_x0020_1">
  <metadata id="CorelCorpID_0Corel-Layer"/>
  <g id="_1154503792">
   <rect class="fil0" x="15" y="19" width="417" height="420" rx="86" ry="85"/>
   <g>
    <g>
     <path class="fil1" d="M289 100l-132 0 0 -28 132 0 0 0 0 28zm91 63l-28 0 0 0 0 -4 0 -3 0 -3 -1 -3 -1 -3 -1 -3 -1 -3 -1 -3 -1 -3 -1 -2 -2 -3 -1 -3 -2 -2 -2 -2 -2 -3 -2 -2 -2 -2 -3 -2 -2 -2 -3 -2 -2 -1 -3 -2 -2 -1 -3 -1 -3 -2 -3 0 -3 -1 -3 -1 -3 -1 -3 0 -3 0 -4 0 0 -28 5 0 5 1 4 0 5 1 4 1 4 1 4 2 5 1 4 2 3 2 4 2 4 3 3 2 4 3 3 3 3 3 3 3 3 3 3 4 2 3 3 4 2 4 2 4 2 4 1 4 2 4 1 4 1 4 1 5 0 4 1 5 0 5 0 0zm-28 131l0 -131 28 0 0 131 0 0 -28 0zm-63 91l0 -28 0 0 4 0 3 0 3 -1 3 0 3 -1 3 -1 3 -1 3 -1 3 -1 2 -1 3 -2 2 -2 3 -1 2 -2 3 -2 2 -2 2 -2 2 -3 2 -2 2 -3 1 -2 2 -3 1 -3 1 -2 1 -3 1 -3 1 -3 1 -3 1 -3 0 -3 0 -3 0 -4 28 0 0 5 -1 4 0 5 -1 4 -1 5 -1 4 -2 4 -1 4 -2 4 -2 4 -2 4 -3 4 -2 3 -3 4 -3 3 -3 3 -3 3 -3 3 -4 3 -3 2 -4 2 -4 3 -3 2 -4 1 -5 2 -4 1 -4 2 -4 1 -5 0 -4 1 -5 0 -5 1 0 0zm-132 -28l132 0 0 28 -132 0 0 0 0 -28zm-91 -63l28 0 0 0 0 4 0 3 0 3 1 3 1 3 1 3 1 3 1 3 1 2 1 3 2 3 1 2 2 3 2 2 2 3 2 2 2 2 3 2 2 2 3 1 2 2 3 2 2 1 3 1 3 1 3 1 3 1 3 1 3 0 3 1 3 0 4 0 0 28 -5 -1 -5 0 -4 -1 -5 0 -4 -1 -4 -2 -4 -1 -5 -2 -4 -1 -3 -2 -4 -3 -4 -2 -3 -2 -4 -3 -3 -3 -3 -3 -3 -3 -3 -3 -3 -4 -2 -3 -3 -4 -2 -4 -2 -4 -2 -4 -1 -4 -2 -4 -1 -4 -1 -5 -1 -4 0 -5 -1 -4 0 -5 0 0zm28 -131l0 131 -28 0 0 -131 0 0 28 0zm63 -91l0 28 0 0 -4 0 -3 0 -3 0 -3 1 -3 1 -3 1 -3 0 -3 2 -3 1 -2 1 -3 2 -2 1 -3 2 -2 2 -3 2 -2 2 -2 2 -2 3 -2 2 -2 2 -1 3 -2 3 -1 2 -1 3 -1 3 -1 3 -1 3 -1 3 -1 3 0 3 0 3 0 4 -28 0 0 -5 1 -5 0 -4 1 -5 1 -4 1 -4 2 -4 1 -4 2 -4 2 -4 2 -4 3 -4 2 -3 3 -4 3 -3 3 -3 3 -3 3 -3 4 -3 3 -2 4 -3 4 -2 3 -2 4 -2 5 -1 4 -2 4 -1 4 -1 5 -1 4 0 5 -1 5 0 0 0z"/>
    </g>
    <g>
     <path class="fil1" d="M303 228l-27 0 0 0 0 -3 0 -2 -1 -3 0 -2 -1 -3 0 -2 -1 -3 -1 -2 -1 -2 -1 -2 -1 -3 -2 -2 -1 -2 -2 -2 -1 -2 -2 -1 -2 -2 -2 -2 -2 -1 -2 -2 -2 -1 -2 -1 -2 -1 -2 -1 -3 -1 -2 -1 -3 -1 -2 0 -3 -1 -2 0 -3 0 -2 0 0 -28 4 0 4 1 4 0 3 1 4 1 4 1 4 1 3 1 4 2 3 2 3 2 4 2 3 2 3 2 3 3 2 2 3 3 2 3 3 3 2 3 2 3 2 4 2 3 1 3 2 4 1 4 1 3 1 4 0 4 1 4 0 4 0 4 0 0zm-78 79l0 -27 0 0 2 -1 3 0 2 0 3 -1 2 0 3 -1 2 -1 3 -1 2 -1 2 -1 2 -1 2 -1 2 -2 2 -1 2 -2 2 -2 2 -1 1 -2 2 -2 1 -2 2 -2 1 -2 1 -3 1 -2 1 -2 1 -3 0 -2 1 -3 0 -2 1 -3 0 -2 0 -3 27 0 0 4 0 4 -1 4 0 4 -1 4 -1 3 -1 4 -2 4 -1 3 -2 4 -2 3 -2 3 -2 3 -3 3 -2 3 -3 3 -2 2 -3 3 -3 2 -3 2 -4 2 -3 2 -3 2 -4 2 -3 1 -4 1 -4 1 -4 1 -3 1 -4 0 -4 1 -4 0 0 0zm-79 -79l27 0 0 0 0 3 0 2 1 3 0 2 1 3 0 2 1 3 1 2 1 2 1 3 2 2 1 2 1 2 2 2 1 2 2 1 2 2 2 2 2 1 2 2 2 1 2 1 2 1 3 1 2 1 2 1 3 1 2 0 3 1 2 0 3 0 3 1 0 27 -5 0 -4 -1 -3 0 -4 -1 -4 -1 -4 -1 -4 -1 -3 -1 -4 -2 -3 -2 -3 -2 -4 -2 -3 -2 -3 -2 -2 -3 -3 -2 -3 -3 -2 -3 -3 -3 -2 -3 -2 -3 -2 -3 -1 -4 -2 -3 -1 -4 -2 -3 -1 -4 -1 -4 0 -4 -1 -4 0 -4 0 -4 0 0zm79 -79l0 28 0 0 -3 0 -3 0 -2 0 -3 1 -2 0 -3 1 -2 1 -2 1 -3 1 -2 1 -2 1 -2 1 -2 2 -2 1 -2 2 -2 2 -2 1 -1 2 -2 2 -1 2 -1 2 -2 3 -1 2 -1 2 -1 2 -1 3 0 2 -1 3 0 2 -1 3 0 2 0 3 -27 0 0 -4 0 -4 1 -4 0 -4 1 -4 1 -3 2 -4 1 -4 2 -3 1 -3 2 -4 2 -3 2 -3 3 -3 2 -3 3 -3 3 -2 2 -3 3 -2 3 -2 4 -2 3 -2 3 -2 4 -2 3 -1 4 -1 4 -1 4 -1 4 -1 3 0 4 -1 5 0 0 0z"/>
    </g>
    <g>
     <path class="fil1" d="M326 146l0 0 0 0 0 -1 0 -1 0 -1 0 -1 0 -1 -1 0 0 -1 0 -1 -1 -1 0 -1 -1 -1 0 0 -1 -1 0 -1 -1 -1 0 0 -1 -1 -1 0 -1 -1 0 -1 -1 0 -1 -1 -1 0 0 0 -1 -1 -1 0 -1 0 -1 0 -1 -1 -1 0 -1 0 -1 0 0 0 1 0 1 0 1 0 1 0 1 1 1 0 1 0 1 0 0 1 1 0 1 1 1 0 1 1 0 0 1 1 1 1 0 0 1 1 1 1 0 0 1 1 0 1 0 1 1 1 0 1 0 0 1 1 0 1 0 1 0 1 0 1 0 1 0 0zm-19 19l0 0 0 0 1 0 1 0 1 0 1 0 1 0 1 -1 1 0 1 0 0 -1 1 0 1 -1 1 0 0 -1 1 0 1 -1 1 0 0 -1 1 -1 0 0 1 -1 0 -1 1 -1 0 -1 1 0 0 -1 0 -1 1 -1 0 -1 0 -1 0 -1 0 -1 0 -1 0 0 0 1 0 1 0 1 0 1 0 1 -1 1 0 1 0 1 -1 1 0 0 0 1 -1 1 0 1 -1 0 -1 1 0 1 -1 0 -1 1 0 1 -1 0 -1 1 -1 0 -1 0 0 1 -1 0 -1 1 -1 0 -1 0 -1 0 -1 0 -1 0 -1 0 0 0zm-19 -19l0 0 0 0 0 1 0 1 0 1 1 1 0 1 0 1 0 1 1 1 0 0 0 1 1 1 0 1 1 1 0 0 1 1 1 1 0 0 1 1 1 0 0 1 1 0 1 1 1 0 1 1 1 0 0 0 1 1 1 0 1 0 1 0 1 0 1 0 0 0 -1 0 -1 0 -1 0 -1 0 -1 0 -1 0 0 -1 -1 0 -1 -1 -1 0 -1 0 -1 -1 0 0 -1 -1 -1 -1 0 0 -1 -1 -1 -1 0 0 -1 -1 0 -1 -1 -1 0 0 -1 -1 0 -1 0 -1 0 -1 -1 -1 0 -1 0 -1 0 -1 0 -1 0 0zm19 -19l0 0 0 0 -1 0 -1 0 -1 0 -1 1 -1 0 -1 0 0 0 -1 1 -1 0 -1 0 -1 1 -1 0 0 1 -1 1 -1 0 0 1 -1 0 -1 1 0 1 -1 1 0 0 -1 1 0 1 0 1 -1 1 0 1 0 0 0 1 -1 1 0 1 0 1 0 1 0 0 0 -1 0 -1 0 -1 0 -1 1 -1 0 -1 0 0 0 -1 1 -1 0 -1 1 -1 0 -1 1 0 0 -1 1 -1 1 0 0 -1 1 -1 1 0 0 -1 1 0 1 -1 1 0 1 -1 1 0 0 0 1 0 1 -1 1 0 1 0 1 0 1 0 0 0z"/>
     <path id="1" class="fil2" d="M307 127c11,0 19,9 19,19 0,11 -8,19 -19,19 -10,0 -19,-8 -19,-19 0,-10 9,-19 19,-19z"/>
    </g>
   </g>
  </g>
 </g>
</svg>
