<?xml version="1.0" encoding="UTF-8"?>
<!DOCTYPE svg PUBLIC "-//W3C//DTD SVG 1.1//EN" "http://www.w3.org/Graphics/SVG/1.1/DTD/svg11.dtd">
<!-- Creator: CorelDRAW X7 -->
<svg xmlns="http://www.w3.org/2000/svg" xml:space="preserve" width="0.452079in" height="0.452079in" version="1.1" style="shape-rendering:geometricPrecision; text-rendering:geometricPrecision; image-rendering:optimizeQuality; fill-rule:evenodd; clip-rule:evenodd"
viewBox="0 0 452 452"
 xmlns:xlink="http://www.w3.org/1999/xlink">
 <defs>
  <style type="text/css">
   <![CDATA[
    .fil0 {fill:#612C75}
   ]]>
  </style>
 </defs>
 <g id="Слой_x0020_1">
  <metadata id="CorelCorpID_0Corel-Layer"/>
  <g id="_1157252272">
   <path class="fil0" d="M291 224c-3,0 -6,0 -9,0l-46 0c0,-5 2,-9 3,-13 1,-2 2,-3 3,-5 5,-10 14,-14 26,-14 15,0 24,11 24,26 0,3 0,4 -1,6zm-91 14c0,10 0,15 3,25 3,9 9,18 17,23 4,4 8,6 13,8 8,3 17,5 26,5 3,0 6,0 10,0l9 -1c7,0 21,-2 27,-3 0,-2 1,-5 1,-7 1,-2 1,-4 2,-6 0,-3 2,-11 2,-13 -10,5 -31,8 -42,8 -9,0 -18,-1 -25,-7 -7,-5 -10,-17 -9,-27 0,-1 1,-2 1,-3l89 0c1,0 1,-3 1,-4 0,-2 1,-3 1,-5 0,-13 -3,-24 -9,-34 -10,-15 -27,-24 -46,-24 -13,0 -22,0 -34,6l-7 4c-7,4 -14,11 -19,18 -2,3 -4,7 -5,10 -4,9 -6,18 -6,27z"/>
   <path class="fil0" d="M150 169l0 5 -15 0 -4 25 17 0 -1 24c0,4 0,8 0,12 0,2 0,4 0,6 0,2 0,5 -1,7l0 9c0,1 0,1 0,3 0,2 0,4 0,6 0,5 -1,13 -1,18 0,3 0,4 0,6 0,3 0,5 0,7l34 0 1 -37c0,-4 0,-8 0,-12 0,-17 0,-32 0,-49l23 0 4 -19c0,-2 1,-5 1,-6l-28 0c0,-5 0,-11 1,-16 0,-4 1,-6 5,-8 7,-2 19,-2 27,-2 0,-1 3,-14 3,-17 1,-2 2,-4 2,-6 -18,0 -40,-3 -55,7 -6,5 -9,10 -11,17 -1,6 -2,14 -2,20z"/>
   <path class="fil0" d="M412 214l0 10c0,3 0,7 0,10 -1,17 -4,36 -9,52 -2,8 -6,21 -10,29 -1,3 -2,5 -3,7 -1,1 -1,2 -2,4l-7 13c0,1 -1,3 -1,3l25 0c2,-5 8,-13 11,-19l8 -15c7,-16 14,-39 16,-56 1,-7 2,-17 2,-25l0 0c0,-8 -1,-18 -1,-25 -2,-21 -8,-38 -16,-57l-4 -9c0,-1 -1,-2 -1,-3l-6 -12 -23 0c0,1 1,1 1,2 10,18 15,37 18,57 1,2 1,5 1,7 0,2 1,4 1,6l0 21z"/>
   <path class="fil0" d="M18 297l33 0c0,-2 0,-4 0,-5 0,-2 0,-3 0,-6l0 -15c0,-2 0,-3 0,-5 0,-4 1,-7 1,-11 0,-2 0,-3 0,-5l1 -26c0,-7 1,-14 1,-21l4 -72 -35 0c0,7 0,14 0,21 0,10 -1,22 -1,32l-1 36c0,4 -1,10 -1,16l-1 10c0,4 0,7 0,11l-2 38c0,1 0,2 1,2z"/>
   <path class="fil0" d="M78 297l36 0c0,-5 0,-22 0,-25 0,-4 0,-9 0,-14l1 -24c0,-2 0,-2 0,-3 0,-3 0,-5 0,-8 0,-2 0,-4 0,-6 0,-6 1,-9 1,-15 0,-2 0,-4 0,-6 0,-3 0,-5 0,-8 0,-1 0,-1 0,-3l1 -11 -34 0c0,11 -1,21 -1,31l-1 16c0,2 0,5 0,8l-1 34c0,1 0,2 0,4l-2 30z"/>
   <path class="fil0" d="M340 298l39 0c0,-12 1,-22 1,-33l-39 0c0,11 -1,22 -1,33z"/>
   <path class="fil0" d="M345 208l39 0c0,-12 0,-22 0,-33l-38 0c-1,5 -1,7 -1,12 0,2 0,2 0,4 0,3 0,6 0,9 0,2 0,4 0,8z"/>
   <path class="fil0" d="M83 156l35 0 1 -25 -35 0 -1 12c0,2 0,5 0,7 0,2 0,4 0,6z"/>
  </g>
 </g>
</svg>
