<?xml version="1.0" encoding="UTF-8"?>
<!DOCTYPE svg PUBLIC "-//W3C//DTD SVG 1.1//EN" "http://www.w3.org/Graphics/SVG/1.1/DTD/svg11.dtd">
<!-- Creator: CorelDRAW X7 -->
<svg xmlns="http://www.w3.org/2000/svg" xml:space="preserve" width="0.452079in" height="0.452079in" version="1.1" style="shape-rendering:geometricPrecision; text-rendering:geometricPrecision; image-rendering:optimizeQuality; fill-rule:evenodd; clip-rule:evenodd"
viewBox="0 0 452 452"
 xmlns:xlink="http://www.w3.org/1999/xlink">
 <defs>
  <style type="text/css">
   <![CDATA[
    .fil0 {fill:#612C75}
    .fil1 {fill:#FFED00}
   ]]>
  </style>
 </defs>
 <g id="Слой_x0020_1">
  <metadata id="CorelCorpID_0Corel-Layer"/>
  <g id="_1154533904">
   <path class="fil0" d="M114 305c0,-2 53,-54 62,-62 6,-7 13,-20 20,-11 14,19 31,30 52,12 18,-18 13,-18 22,-10 7,6 14,13 21,20 13,12 29,29 41,42 14,14 11,10 -12,10 -28,0 -205,2 -206,-1zm-10 -9l-1 -155 1 0c6,4 77,76 77,77 0,1 -71,74 -77,78zm170 -77c0,-3 50,-51 56,-58 5,-5 10,-9 15,-14 9,-11 5,9 5,14 1,19 1,38 1,57 0,19 0,38 0,57 -1,27 -1,22 -20,2 -5,-5 -57,-57 -57,-58zm-78 -3c-14,-14 -28,-28 -41,-43 -11,-11 -34,-30 -41,-42 53,-3 113,0 167,0 14,0 29,0 43,0 22,-1 17,2 5,13 -14,13 -28,28 -41,42 -14,14 -29,27 -43,42 -22,23 -31,5 -49,-12zm15 -175c-99,9 -169,97 -161,195 8,98 97,169 194,160 99,-8 170,-96 161,-194 -8,-98 -97,-170 -194,-161z"/>
   <path class="fil0" d="M423 223c-1,106 -91,194 -198,192 -108,-2 -194,-91 -192,-199 2,-108 91,-194 199,-192 107,2 193,91 191,199zm-196 210l2 0c117,0 213,-97 213,-214 0,-118 -96,-213 -215,-214l-3 0c-115,0 -210,101 -210,215 1,117 96,213 213,213z"/>
   <path class="fil1" d="M114 131c7,12 30,31 41,42 13,15 27,29 41,43 18,17 27,35 49,12 14,-15 29,-28 43,-42 13,-14 27,-29 41,-42 12,-11 17,-14 -5,-13 -14,0 -29,0 -43,0 -54,0 -114,-3 -167,0z"/>
   <path class="fil1" d="M114 305c1,3 178,1 206,1 23,0 26,4 12,-10 -12,-13 -28,-30 -41,-42 -7,-7 -14,-14 -21,-20 -9,-8 -4,-8 -22,10 -21,18 -38,7 -52,-12 -7,-9 -14,4 -20,11 -9,8 -62,60 -62,62z"/>
   <path class="fil1" d="M104 296c6,-4 77,-77 77,-78 0,-1 -71,-73 -77,-77l-1 0 1 155z"/>
   <path class="fil1" d="M274 219c0,1 52,53 57,58 19,20 19,25 20,-2 0,-19 0,-38 0,-57 0,-19 0,-38 -1,-57 0,-5 4,-25 -5,-14 -5,5 -10,9 -15,14 -6,7 -56,55 -56,58z"/>
  </g>
 </g>
</svg>
