<?xml version="1.0" encoding="UTF-8"?>
<!DOCTYPE svg PUBLIC "-//W3C//DTD SVG 1.1//EN" "http://www.w3.org/Graphics/SVG/1.1/DTD/svg11.dtd">
<!-- Creator: CorelDRAW X7 -->
<svg xmlns="http://www.w3.org/2000/svg" xml:space="preserve" width="0.452079in" height="0.452079in" version="1.1" style="shape-rendering:geometricPrecision; text-rendering:geometricPrecision; image-rendering:optimizeQuality; fill-rule:evenodd; clip-rule:evenodd"
viewBox="0 0 452 452"
 xmlns:xlink="http://www.w3.org/1999/xlink">
 <defs>
  <style type="text/css">
   <![CDATA[
    .fil1 {fill:#FEFEFE}
    .fil0 {fill:#612C75}
   ]]>
  </style>
 </defs>
 <g id="Слой_x0020_1">
  <metadata id="CorelCorpID_0Corel-Layer"/>
  <g id="_1157251216">
   <path class="fil0" d="M159 95c10,-2 20,0 29,3 21,6 9,8 25,6 54,-5 106,25 127,73 7,16 11,35 11,56 -1,5 -1,10 -2,15 -2,9 -1,6 2,13 16,43 -14,95 -60,98 -28,2 -37,-8 -43,-8 -8,-1 -31,8 -71,-8 -48,-20 -79,-70 -75,-125 1,-23 4,-5 -4,-26 -3,-9 -5,-19 -4,-29 2,-37 29,-64 65,-68zm-157 123l0 3c0,24 0,35 7,60 4,18 7,24 14,40 13,31 46,69 74,88 42,28 80,40 132,40 76,0 147,-44 187,-109 2,-3 3,-6 5,-9 1,-3 3,-6 4,-9 17,-40 22,-60 22,-104 0,-33 -10,-57 -21,-86l-14 -25c-2,-3 -4,-6 -6,-8 -12,-19 -35,-42 -53,-54 -6,-4 -11,-7 -17,-11 -31,-17 -67,-30 -104,-30 -34,0 -51,2 -83,13 -41,14 -82,46 -106,81 -4,6 -7,10 -11,16 -6,11 -13,25 -17,37 -7,20 -13,45 -13,67z"/>
   <path class="fil1" d="M219 141c24,-1 42,3 57,15l5 5c14,14 12,38 -8,38 -21,1 -15,-28 -42,-31 -34,-4 -47,18 -31,29 21,14 87,9 97,50 6,24 -6,43 -19,52 -15,11 -36,15 -59,14 -11,0 -22,-2 -31,-6 -16,-6 -32,-21 -35,-39 -2,-11 4,-19 14,-20 24,-4 19,25 39,35 18,7 48,2 53,-14 7,-23 -25,-27 -43,-31 -21,-5 -38,-10 -50,-23 -17,-18 -19,-70 53,-74zm-60 -46c-36,4 -63,31 -65,68 -1,10 1,20 4,29 8,21 5,3 4,26 -4,55 27,105 75,125 40,16 63,7 71,8 6,0 15,10 43,8 46,-3 76,-55 60,-98 -3,-7 -4,-4 -2,-13 1,-5 1,-10 2,-15 0,-21 -4,-40 -11,-56 -21,-48 -73,-78 -127,-73 -16,2 -4,0 -25,-6 -9,-3 -19,-5 -29,-3z"/>
   <path class="fil0" d="M219 141c-72,4 -70,56 -53,74 12,13 29,18 50,23 18,4 50,8 43,31 -5,16 -35,21 -53,14 -20,-10 -15,-39 -39,-35 -10,1 -16,9 -14,20 3,18 19,33 35,39 9,4 20,6 31,6 23,1 44,-3 59,-14 13,-9 25,-28 19,-52 -10,-41 -76,-36 -97,-50 -16,-11 -3,-33 31,-29 27,3 21,32 42,31 20,0 22,-24 8,-38l-5 -5c-15,-12 -33,-16 -57,-15z"/>
  </g>
 </g>
</svg>
