<?xml version="1.0" encoding="UTF-8"?>
<!DOCTYPE svg PUBLIC "-//W3C//DTD SVG 1.1//EN" "http://www.w3.org/Graphics/SVG/1.1/DTD/svg11.dtd">
<!-- Creator: CorelDRAW X7 -->
<svg xmlns="http://www.w3.org/2000/svg" xml:space="preserve" width="0.429992in" height="0.429992in" version="1.1" style="shape-rendering:geometricPrecision; text-rendering:geometricPrecision; image-rendering:optimizeQuality; fill-rule:evenodd; clip-rule:evenodd"
viewBox="0 0 430 430"
 xmlns:xlink="http://www.w3.org/1999/xlink">
 <defs>
  <style type="text/css">
   <![CDATA[
    .fil2 {fill:#FEFEFE}
    .fil1 {fill:#FCFDFB}
    .fil0 {fill:#612C75}
   ]]>
  </style>
 </defs>
 <g id="Слой_x0020_1">
  <metadata id="CorelCorpID_0Corel-Layer"/>
  <g id="_613676896">
   <rect class="fil0" x="7" y="6" width="417" height="417" rx="72" ry="68"/>
   <path class="fil1" d="M141 320c0,16 -1,30 0,50 24,-9 41,-26 49,-39 90,0 160,-6 170,-96 10,-84 0,-153 -90,-171 -37,-7 -85,-6 -121,3 -39,11 -59,28 -70,64 -23,70 -8,178 62,189z"/>
   <path class="fil0" d="M149 302l-2 59c14,-5 27,-25 36,-35 16,-21 11,-16 43,-17 95,-3 121,-40 114,-136 -3,-41 -16,-66 -46,-78 -46,-19 -161,-26 -189,32 -15,29 -22,116 8,151 14,17 18,12 36,24z"/>
   <path class="fil2" d="M182 231c0,0 5,4 5,5 9,8 18,15 29,22 9,6 16,9 26,14 2,1 5,2 7,3 3,1 5,2 9,1 8,-1 16,-9 20,-15l2 -3c1,-1 5,-6 3,-12 -1,-4 -4,-6 -7,-8 -3,-2 -6,-5 -8,-7 -4,-3 -15,-10 -20,-11 -4,-1 -9,0 -11,3 -7,6 -7,13 -19,9 -15,-5 -33,-22 -38,-38 -2,-4 -3,-8 -1,-12 3,-5 15,-8 14,-17 -1,-8 -12,-22 -18,-29 -2,-2 -5,-5 -8,-7 -3,-2 -8,-2 -12,0 -3,2 -6,4 -9,6 -5,4 -12,10 -10,20 3,13 12,30 19,42 8,12 16,21 25,32l2 1c0,1 0,0 0,1z"/>
   <path class="fil2" d="M207 129c0,3 2,5 5,5 9,0 16,1 24,5 9,3 17,10 23,16 10,11 15,27 15,43 0,2 0,3 0,4 3,3 9,3 8,-4 0,-21 -7,-40 -19,-52 -14,-14 -31,-21 -51,-21 -3,0 -5,2 -5,4z"/>
   <path class="fil2" d="M216 143c-4,1 -4,6 -1,8 1,1 4,1 6,1 15,2 28,11 33,26 1,4 1,7 2,11 0,3 -1,4 1,6 1,1 3,2 5,2 3,-2 3,-7 3,-10 -2,-12 -5,-20 -12,-29 -7,-7 -15,-12 -25,-14 -2,-1 -10,-2 -12,-1z"/>
   <path class="fil2" d="M218 165c0,3 1,4 3,5 2,0 11,-1 15,7 3,6 2,10 3,12 2,4 8,2 8,-3 0,-7 -3,-16 -9,-20 -3,-2 -6,-4 -10,-5 -2,0 -5,0 -7,0 -1,1 -3,2 -3,4z"/>
  </g>
 </g>
</svg>
