<?xml version="1.0" encoding="UTF-8"?>
<!DOCTYPE svg PUBLIC "-//W3C//DTD SVG 1.1//EN" "http://www.w3.org/Graphics/SVG/1.1/DTD/svg11.dtd">
<!-- Creator: CorelDRAW X7 -->
<svg xmlns="http://www.w3.org/2000/svg" xml:space="preserve" width="0.452079in" height="0.452079in" version="1.1" style="shape-rendering:geometricPrecision; text-rendering:geometricPrecision; image-rendering:optimizeQuality; fill-rule:evenodd; clip-rule:evenodd"
viewBox="0 0 452 452"
 xmlns:xlink="http://www.w3.org/1999/xlink">
 <defs>
  <style type="text/css">
   <![CDATA[
    .fil0 {fill:#FEFEFE}
    .fil1 {fill:#612C75}
   ]]>
  </style>
 </defs>
 <g id="Слой_x0020_1">
  <metadata id="CorelCorpID_0Corel-Layer"/>
  <g id="_1154495120">
   <path class="fil0" d="M182 154c-14,7 0,9 4,12 16,12 14,117 -31,25 -14,-31 -7,-34 -41,-34 -41,0 -35,0 -20,34 13,28 37,68 59,90 12,12 31,24 48,28 13,2 21,3 34,2 17,0 13,-10 15,-22 8,-32 26,-4 37,8 19,20 36,14 61,14 35,0 14,-23 1,-37 -11,-12 -36,-26 -24,-43 10,-15 22,-28 32,-43 22,-35 7,-31 -23,-31 -40,0 -29,-4 -45,30 -5,10 -23,42 -34,41 -14,-6 -1,-57 -8,-70 -6,-13 -54,-9 -65,-4z"/>
   <path class="fil1" d="M182 154c11,-5 59,-9 65,4 7,13 -6,64 8,70 11,1 29,-31 34,-41 16,-34 5,-30 45,-30 30,0 45,-4 23,31 -10,15 -22,28 -32,43 -12,17 13,31 24,43 13,14 34,37 -1,37 -25,0 -42,6 -61,-14 -11,-12 -29,-40 -37,-8 -2,12 2,22 -15,22 -13,1 -21,0 -34,-2 -17,-4 -36,-16 -48,-28 -22,-22 -46,-62 -59,-90 -15,-34 -21,-34 20,-34 34,0 27,3 41,34 45,92 47,-13 32,-26 0,0 -10,-4 -10,-4 -1,-3 2,-6 5,-7zm-108 -134l99 0c35,0 69,0 104,0l97 0c2,1 4,1 6,1 27,3 48,25 53,52 0,5 1,12 1,19l0 49c0,13 0,25 0,34 0,35 0,69 0,104 0,10 0,22 0,35l0 50c0,7 -1,13 -1,18 -4,26 -25,49 -51,53 -3,0 -5,1 -8,1l-96 0c-34,0 -69,0 -104,0l-97 0c-2,0 -4,-1 -6,-1 -26,-3 -49,-25 -53,-51 0,-2 0,-5 0,-8l0 -95c0,-35 0,-69 0,-104l0 -97c0,-2 0,-4 0,-6 3,-26 25,-49 51,-53 2,0 3,0 5,-1z"/>
  </g>
 </g>
</svg>
