<?xml version="1.0" encoding="UTF-8"?>
<!DOCTYPE svg PUBLIC "-//W3C//DTD SVG 1.1//EN" "http://www.w3.org/Graphics/SVG/1.1/DTD/svg11.dtd">
<!-- Creator: CorelDRAW X7 -->
<svg xmlns="http://www.w3.org/2000/svg" xml:space="preserve" width="0.452079in" height="0.452079in" version="1.1" style="shape-rendering:geometricPrecision; text-rendering:geometricPrecision; image-rendering:optimizeQuality; fill-rule:evenodd; clip-rule:evenodd"
viewBox="0 0 452 452"
 xmlns:xlink="http://www.w3.org/1999/xlink">
 <defs>
  <style type="text/css">
   <![CDATA[
    .fil2 {fill:#FEFEFE}
    .fil1 {fill:#FCFDFB}
    .fil0 {fill:#612C75}
   ]]>
  </style>
 </defs>
 <g id="Слой_x0020_1">
  <metadata id="CorelCorpID_0Corel-Layer"/>
  <g id="_1096256976">
   <rect class="fil0" x="16" y="15" width="417" height="417" rx="72" ry="68"/>
   <path class="fil1" d="M150 329c0,16 -1,30 -1,50 25,-9 42,-26 49,-39 90,0 160,-6 171,-96 9,-84 0,-153 -90,-171 -37,-7 -85,-6 -121,3 -39,11 -59,28 -71,64 -23,70 -7,178 63,189z"/>
   <path class="fil0" d="M158 311l-2 59c13,-5 27,-25 35,-35 17,-21 11,-16 43,-17 96,-3 121,-40 114,-136 -3,-41 -16,-66 -46,-78 -46,-19 -161,-26 -189,32 -14,29 -22,116 8,151 15,17 18,12 37,24z"/>
   <path class="fil2" d="M191 240c0,0 4,4 5,5 8,8 18,15 28,22 10,6 16,9 26,14 3,1 5,2 8,3 2,1 4,2 8,1 8,-1 16,-9 20,-15l3 -3c0,-1 4,-6 2,-12 -1,-4 -4,-6 -7,-8 -2,-2 -5,-5 -8,-7 -4,-3 -15,-10 -19,-11 -5,-1 -9,0 -12,3 -6,6 -6,13 -18,9 -16,-5 -34,-22 -39,-38 -1,-4 -2,-8 0,-12 2,-5 14,-8 13,-17 -1,-8 -12,-22 -17,-29 -2,-2 -5,-5 -8,-7 -4,-2 -9,-2 -12,0 -3,2 -7,4 -9,6 -5,4 -13,10 -11,20 3,13 12,30 19,42 8,12 16,21 26,32l1 1c0,1 0,0 1,1z"/>
   <path class="fil2" d="M215 138c0,3 2,5 5,5 10,0 16,1 25,5 9,3 17,10 22,16 10,11 15,27 15,43 0,2 0,3 1,4 2,3 8,3 8,-4 0,-21 -8,-40 -20,-52 -13,-14 -30,-21 -51,-21 -3,0 -5,2 -5,4z"/>
   <path class="fil2" d="M224 152c-3,1 -4,6 -1,8 2,1 4,1 6,1 16,2 29,11 33,26 2,4 2,7 2,11 0,3 0,4 1,6 1,1 3,2 5,2 4,-2 3,-7 3,-10 -1,-12 -4,-20 -12,-29 -6,-7 -15,-12 -25,-14 -2,-1 -10,-2 -12,-1z"/>
   <path class="fil2" d="M227 174c0,3 1,4 3,5 1,0 11,-1 14,7 3,6 2,10 3,12 3,4 9,2 9,-3 0,-7 -3,-16 -9,-20 -3,-2 -6,-4 -11,-5 -1,0 -5,0 -6,0 -2,1 -3,2 -3,4z"/>
  </g>
 </g>
</svg>
