<?xml version="1.0" encoding="UTF-8"?>
<!DOCTYPE svg PUBLIC "-//W3C//DTD SVG 1.1//EN" "http://www.w3.org/Graphics/SVG/1.1/DTD/svg11.dtd">
<!-- Creator: CorelDRAW X7 -->
<svg xmlns="http://www.w3.org/2000/svg" xml:space="preserve" width="1.30208in" height="1.30208in" version="1.1" style="shape-rendering:geometricPrecision; text-rendering:geometricPrecision; image-rendering:optimizeQuality; fill-rule:evenodd; clip-rule:evenodd"
viewBox="0 0 1302 1302"
 xmlns:xlink="http://www.w3.org/1999/xlink">
 <defs>
  <style type="text/css">
   <![CDATA[
    .fil1 {fill:#612C75}
    .fil2 {fill:#FFED00}
    .fil0 {fill:#FEFEFE;fill-opacity:0.501961}
   ]]>
  </style>
 </defs>
 <g id="Слой_x0020_1">
  <metadata id="CorelCorpID_0Corel-Layer"/>
  <g id="_629424816">
   <path class="fil0" d="M987 260c86,0 157,71 157,157 0,87 -71,157 -157,157 -87,0 -157,-70 -157,-157 0,-86 70,-157 157,-157z"/>
   <ellipse class="fil1" cx="644" cy="649" rx="623" ry="618"/>
   <path class="fil2" d="M644 1276c-347,0 -628,-281 -628,-628 0,-347 281,-629 628,-629 347,0 629,282 629,629 0,286 -193,528 -455,604 1,-60 1,-73 1,-183 0,-111 -3,-302 -8,-424 -14,1 -28,2 -42,2 -14,0 -29,-1 -42,-2 -6,122 -9,310 -9,424 0,114 1,136 2,202 -25,3 -50,5 -76,5zm136 -1135c-17,-58 72,105 68,187 -3,59 -28,90 -52,103l15 178c-14,1 -28,2 -42,2 -14,0 -28,-1 -42,-2l16 -178c-21,-12 -41,-40 -39,-96 4,-83 92,-136 76,-194zm32 484l0 3 0 0 0 -3zm-86 3l0 0 0 -2 0 2zm-236 -178l59 -214 59 216c-17,5 -36,7 -56,7 -22,0 -43,-3 -62,-9zm120 825c-42,-2 -83,-8 -123,-19l0 -769c20,6 42,9 65,9 21,0 40,-2 58,-7l0 786z"/>
  </g>
 </g>
</svg>
