<?xml version="1.0" encoding="UTF-8"?>
<!DOCTYPE svg PUBLIC "-//W3C//DTD SVG 1.1//EN" "http://www.w3.org/Graphics/SVG/1.1/DTD/svg11.dtd">
<!-- Creator: CorelDRAW X7 -->
<svg xmlns="http://www.w3.org/2000/svg" xml:space="preserve" width="1.30208in" height="1.30208in" version="1.1" style="shape-rendering:geometricPrecision; text-rendering:geometricPrecision; image-rendering:optimizeQuality; fill-rule:evenodd; clip-rule:evenodd"
viewBox="0 0 1302 1302"
 xmlns:xlink="http://www.w3.org/1999/xlink">
 <defs>
  <style type="text/css">
   <![CDATA[
    .fil2 {fill:none}
    .fil3 {fill:#612C75}
    .fil0 {fill:#FFED00}
    .fil1 {fill:#5B5B5B;fill-rule:nonzero}
    .fil4 {fill:#FFED00;fill-rule:nonzero}
   ]]>
  </style>
 </defs>
 <g id="Слой_x0020_1">
  <metadata id="CorelCorpID_0Corel-Layer"/>
  <g id="_629429616">
   <ellipse class="fil0" cx="655" cy="658" rx="644" ry="639"/>
   <g>
    <g>
     <path class="fil1" d="M798 653c-5,6 -10,11 -16,17 -5,4 -11,9 -17,12 -2,2 -4,2 -6,3 -1,0 -2,1 -3,0 -3,0 -5,-1 -7,-3 -2,-2 -4,-5 -6,-7 -6,-9 -9,-16 -16,-24 -5,-4 -9,-7 -15,-10 -7,-2 -13,-2 -21,-1 -20,4 -38,17 -54,30 -9,7 -18,14 -29,17 -3,1 -5,2 -8,2 -1,0 -3,0 -4,-1 0,0 0,0 0,-1 0,0 -2,-2 -2,-2 -1,-4 -2,-8 -3,-13 -1,-14 -1,-27 1,-41 0,-7 1,-14 1,-20 0,-2 -1,-6 -1,-8 -1,-2 -1,-4 -2,-6 -2,-4 -4,-7 -7,-10 -6,-5 -11,-8 -18,-9 -6,-1 -10,-1 -15,0 -2,1 -4,2 -6,2 -3,1 -5,2 -8,3 -6,3 -10,5 -16,9 -14,8 -25,18 -36,29 -10,10 -55,53 -38,70 28,23 49,4 79,-15 13,-8 24,-17 35,-27 4,-3 7,-5 11,-8 1,-2 0,-1 0,-1 0,0 -3,1 -3,1 -5,1 -8,1 -13,0 -6,-1 -11,-3 -16,-8 -2,-2 -4,-4 -5,-7 -1,-2 -2,-5 -1,-4 0,0 0,1 0,1 2,3 3,9 4,12 4,17 6,32 12,48 4,10 7,17 13,25 4,4 7,7 12,10 5,3 9,4 15,5 6,1 10,1 16,0 6,-2 10,-4 16,-7 12,-8 22,-17 32,-27 12,-11 27,-25 42,-31 4,-1 7,-2 12,-1 3,1 6,3 9,5 6,6 11,13 16,20 3,4 6,7 10,10 4,3 7,4 12,5 3,0 5,-1 8,-2 3,-1 6,-2 8,-4 7,-4 13,-9 18,-15 5,-5 10,-11 15,-17 8,-10 16,-20 24,-31 11,-16 22,-32 32,-49 4,-5 8,-11 11,-17 2,-2 6,-8 8,-9 -3,2 -6,6 -8,9 -4,5 -8,11 -12,16 -12,16 -24,32 -36,47 -7,9 -15,19 -24,28z"/>
    </g>
    <path class="fil2" d="M447 693c8,-8 106,-85 113,-84 15,2 -13,157 86,72 84,-73 74,9 108,14 36,4 120,-133 127,-137"/>
    <path class="fil3" d="M362 377l552 0c48,0 88,39 88,88l0 397c0,48 -40,87 -88,87l-552 0c-48,0 -88,-39 -88,-87l0 -397c0,-49 40,-88 88,-88zm2 82l548 0 0 302 -548 0 0 -302zm274 347c21,0 38,17 38,37 0,21 -17,38 -38,38 -21,0 -38,-17 -38,-38 0,-20 17,-37 38,-37zm-115 -4l49 0 0 115 -49 0 0 -115zm-76 0l48 0 0 115 -48 0 0 -115zm-84 0l67 0 0 115 -67 0 0 -115zm388 0l-48 0 0 115 48 0 0 -115zm77 0l-49 0 0 115 49 0 0 -115zm84 0l-68 0 0 115 68 0 0 -115z"/>
    <g>
     <path class="fil4" d="M1082 267l-546 344 -31 -48 546 -344 31 48 0 0zm61 -28l-49 31 0 0 0 0 -1 -1 0 0 0 0 0 -1 -1 0 0 0 0 0 -1 -1 0 0 0 0 -1 0 0 0 -1 -1 0 0 -1 0 0 0 0 0 -1 0 0 0 -1 0 0 0 -1 0 0 0 0 0 -1 0 0 0 -1 0 0 1 0 0 -1 0 0 0 -31 -48 3 -2 3 -2 3 -1 3 -1 3 -1 4 -1 3 -1 3 -1 3 0 3 0 3 0 4 0 3 0 3 0 3 1 3 0 3 1 3 1 3 1 3 1 3 2 3 1 3 2 2 1 3 2 3 2 2 3 2 2 3 2 2 3 2 3 2 2 0 0zm-25 16l0 0 0 0 0 0 25 -16 -25 16zm4 76l-31 -49 0 0 1 0 0 0 0 -1 1 0 0 0 0 0 0 -1 1 0 0 0 0 -1 0 0 1 -1 0 0 0 0 0 -1 0 0 0 -1 0 0 0 -1 0 0 0 0 0 -1 0 0 0 -1 0 0 0 -1 0 0 0 0 0 -1 -1 0 0 -1 0 0 49 -31 1 3 2 3 1 3 2 3 1 4 1 3 0 3 1 3 0 3 1 4 0 3 0 3 0 3 -1 3 0 3 -1 4 -1 3 -1 3 -1 3 -1 3 -1 2 -2 3 -1 3 -2 3 -2 2 -2 3 -2 2 -3 3 -2 2 -3 2 -2 2 -3 2 0 0zm-577 295l546 -344 31 49 -546 344 -31 -49 0 0zm-137 76l49 -31 0 0 -5 -5 -4 -3 -3 -1 -1 0 0 0 1 0 3 0 2 -1 3 0 4 -1 4 -1 4 -1 5 -1 5 -2 5 -1 5 -2 5 -2 5 -2 5 -1 4 -2 5 -2 5 -2 5 -2 4 -2 4 -2 4 -2 3 -1 3 -2 3 -1 2 -1 2 -1 1 -1 31 49 -3 1 -3 2 -4 2 -3 2 -4 1 -4 2 -4 2 -5 2 -5 3 -5 2 -5 2 -5 2 -6 2 -5 2 -6 2 -6 2 -5 2 -6 2 -6 2 -5 1 -6 2 -5 1 -6 1 -5 1 -5 1 -6 0 -5 0 -6 0 -7 -1 -7 -3 -8 -5 -7 -8 0 0zm97 -139l31 48 0 0 -1 1 -2 1 -2 1 -2 2 -3 2 -3 3 -3 2 -4 3 -3 3 -4 4 -4 3 -4 4 -4 3 -3 4 -4 4 -4 3 -4 4 -3 4 -3 3 -4 4 -2 3 -3 4 -2 3 -2 2 -2 3 -1 1 0 1 0 1 0 -2 0 -3 -1 -5 -2 -6 -49 31 -4 -10 -1 -9 0 -8 2 -6 2 -6 3 -5 2 -5 3 -4 3 -5 4 -4 3 -4 4 -5 4 -4 4 -4 4 -5 4 -4 4 -4 5 -4 4 -5 4 -4 5 -3 4 -4 4 -4 4 -3 4 -4 3 -3 4 -2 3 -3 3 -2 3 -3 3 -2 3 -1 0 0z"/>
     <path id="1" class="fil3" d="M520 587l546 -344c18,-11 41,-6 52,12l0 0c11,17 6,41 -11,52l-547 343c-17,11 -117,54 -128,36 -11,-17 71,-88 88,-99z"/>
    </g>
   </g>
  </g>
 </g>
</svg>
