<?xml version="1.0" encoding="UTF-8"?>
<!DOCTYPE svg PUBLIC "-//W3C//DTD SVG 1.1//EN" "http://www.w3.org/Graphics/SVG/1.1/DTD/svg11.dtd">
<!-- Creator: CorelDRAW X7 -->
<svg xmlns="http://www.w3.org/2000/svg" xml:space="preserve" width="1.30208in" height="1.30208in" version="1.1" style="shape-rendering:geometricPrecision; text-rendering:geometricPrecision; image-rendering:optimizeQuality; fill-rule:evenodd; clip-rule:evenodd"
viewBox="0 0 1302 1302"
 xmlns:xlink="http://www.w3.org/1999/xlink">
 <defs>
  <style type="text/css">
   <![CDATA[
    .fil1 {fill:#612C75}
    .fil0 {fill:#FFED00}
   ]]>
  </style>
 </defs>
 <g id="Слой_x0020_1">
  <metadata id="CorelCorpID_0Corel-Layer"/>
  <g id="_1020095360">
   <rect class="fil0" x="11" y="11" width="1289" height="1281"/>
   <rect class="fil1" x="92" y="111" width="1112" height="1076"/>
   <path class="fil0" d="M483 881c3,13 60,102 72,122 18,30 55,98 79,115 48,35 115,19 137,-24 28,-57 -35,-99 -44,-138 34,-22 215,-88 272,-125 80,-53 141,-127 157,-239 24,-164 -85,-307 -215,-375 -52,-27 -86,-36 -150,-49 -130,-26 -229,21 -324,63 -69,31 -217,87 -265,130 -83,74 -83,197 -15,282 55,68 173,124 291,90 32,-9 243,-102 277,-119 50,-25 56,-91 11,-126 -52,-41 -94,-18 -145,4 -48,21 -89,38 -138,61 -45,20 -99,53 -145,10 -16,-15 -31,-43 -16,-72 11,-23 33,-30 58,-41 48,-21 93,-40 140,-61 97,-43 186,-99 307,-51 98,39 175,141 149,241 -30,116 -114,135 -215,180 -47,21 -92,40 -138,61l-140 61z"/>
  </g>
 </g>
</svg>
