<?xml version="1.0" encoding="UTF-8"?>
<!DOCTYPE svg PUBLIC "-//W3C//DTD SVG 1.1//EN" "http://www.w3.org/Graphics/SVG/1.1/DTD/svg11.dtd">
<!-- Creator: CorelDRAW X7 -->
<svg xmlns="http://www.w3.org/2000/svg" xml:space="preserve" width="0.752079in" height="0.752079in" version="1.1" style="shape-rendering:geometricPrecision; text-rendering:geometricPrecision; image-rendering:optimizeQuality; fill-rule:evenodd; clip-rule:evenodd"
viewBox="0 0 752 752"
 xmlns:xlink="http://www.w3.org/1999/xlink">
 <defs>
  <style type="text/css">
   <![CDATA[
    .str0 {stroke:#612C75;stroke-width:3}
    .fil3 {fill:none;fill-rule:nonzero}
    .fil2 {fill:#612C75}
    .fil0 {fill:#FFED00}
    .fil1 {fill:#612C75;fill-rule:nonzero}
   ]]>
  </style>
 </defs>
 <g id="Слой_x0020_1">
  <metadata id="CorelCorpID_0Corel-Layer"/>
  <g id="_1045072336">
   <g>
    <path class="fil0" d="M56 354c0,57 6,103 29,149 28,56 56,92 105,129 43,33 113,63 172,63 71,0 103,0 170,-33 39,-20 63,-39 92,-68 119,-118 125,-330 -4,-460 -99,-99 -235,-124 -367,-70 -39,16 -67,38 -97,65 -26,23 -53,62 -68,94 -17,35 -32,81 -32,131z"/>
    <path id="1" class="fil1" d="M103 494l-36 18 0 0 -2 -5 -2 -4 -2 -5 -2 -5 -2 -5 -2 -4 -2 -5 -1 -5 -2 -4 -1 -5 -1 -5 -2 -5 -1 -5 -1 -4 -1 -5 -1 -5 -1 -5 0 -5 -1 -5 -1 -5 0 -5 -1 -5 0 -5 -1 -5 0 -5 0 -5 0 -5 -1 -6 0 -5 0 -5 0 -6 0 -5 40 0 0 5 0 5 0 5 0 5 0 5 0 5 0 5 1 4 0 5 0 4 1 5 0 4 1 5 1 4 0 5 1 4 1 4 1 4 1 5 1 4 1 4 1 4 1 4 1 4 2 4 1 4 2 4 1 4 2 4 2 4 2 4 2 4 0 0zm99 123l-24 31 0 0 -4 -4 -5 -3 -4 -4 -5 -3 -4 -4 -4 -4 -4 -4 -4 -3 -4 -4 -4 -4 -4 -4 -4 -4 -3 -4 -4 -4 -3 -4 -3 -4 -4 -4 -3 -4 -3 -4 -3 -5 -3 -4 -3 -5 -3 -4 -3 -5 -3 -5 -3 -4 -3 -5 -3 -5 -2 -5 -3 -5 -3 -6 -3 -5 36 -18 2 5 3 5 2 5 3 5 2 4 3 5 3 4 2 4 3 4 2 5 3 4 3 3 3 4 2 4 3 4 3 3 3 4 3 4 3 3 3 4 4 3 3 3 3 4 4 3 3 4 4 3 4 3 4 3 4 4 4 3 4 3 4 4 0 0zm160 58l0 40 0 0 -6 0 -6 -1 -6 0 -7 -1 -6 -1 -6 -1 -6 -1 -7 -1 -6 -1 -6 -2 -6 -2 -6 -1 -7 -2 -6 -2 -6 -3 -6 -2 -6 -2 -6 -3 -5 -2 -6 -3 -6 -2 -6 -3 -5 -3 -5 -3 -6 -3 -5 -3 -5 -3 -5 -3 -5 -3 -5 -3 -4 -4 -5 -3 24 -31 4 3 4 2 4 3 4 3 5 3 4 2 5 3 4 3 5 2 5 3 5 2 5 3 5 2 6 2 5 2 5 2 6 2 5 2 6 2 5 2 5 1 6 2 5 1 6 1 5 2 5 1 6 0 5 1 5 1 5 0 5 0 5 0 0 0zm161 -31l18 35 0 0 -6 3 -7 3 -6 3 -6 3 -5 2 -6 2 -6 3 -5 2 -6 1 -5 2 -5 2 -5 1 -6 1 -5 1 -5 1 -5 1 -5 1 -5 1 -6 0 -5 1 -5 0 -5 1 -6 0 -5 0 -6 0 -5 0 -6 1 -6 0 -6 0 -6 0 -6 0 -7 0 0 -40 7 0 6 0 6 0 6 0 6 0 5 0 5 0 6 0 5 0 4 -1 5 0 5 0 4 -1 5 0 4 -1 5 -1 4 0 4 -1 5 -1 4 -1 4 -1 5 -2 4 -1 5 -2 5 -1 5 -2 5 -2 5 -2 5 -3 6 -2 5 -3 6 -3 0 0zm87 -64l28 28 0 0 -3 3 -2 3 -3 2 -3 3 -3 2 -2 3 -3 2 -3 3 -3 2 -2 3 -3 2 -3 2 -3 2 -3 3 -2 2 -3 2 -3 2 -3 2 -3 3 -3 2 -3 2 -3 2 -4 2 -3 2 -3 2 -3 2 -4 2 -3 2 -4 1 -3 2 -4 2 -4 2 -18 -35 4 -2 3 -1 3 -2 4 -2 3 -2 3 -1 3 -2 3 -2 2 -2 3 -1 3 -2 3 -2 2 -2 3 -2 3 -2 2 -1 3 -2 2 -2 3 -2 2 -2 3 -2 2 -2 3 -3 2 -2 3 -2 2 -2 3 -2 2 -3 3 -2 2 -3 3 -2 2 -3 0 0zm-4 -432l27 -28 0 0 13 14 12 13 10 14 10 15 10 15 8 15 7 15 7 16 6 16 5 16 4 17 4 16 2 17 2 16 1 17 1 17 -1 16 -1 17 -2 16 -2 17 -4 16 -4 16 -5 16 -6 15 -6 15 -7 15 -8 15 -9 14 -9 13 -10 13 -11 13 -12 12 -28 -28 11 -10 9 -11 9 -12 8 -12 8 -12 7 -13 6 -13 6 -13 5 -14 4 -14 4 -14 3 -15 2 -14 2 -15 1 -15 0 -14 0 -15 -1 -15 -2 -15 -2 -15 -3 -14 -4 -15 -4 -14 -6 -14 -6 -14 -6 -14 -8 -14 -8 -13 -8 -13 -10 -12 -10 -12 -11 -12 0 0zm-345 -66l-15 -37 0 0 13 -5 13 -4 13 -4 13 -4 13 -3 13 -3 13 -2 13 -1 13 -2 13 0 13 -1 13 1 12 0 13 2 13 1 12 3 13 2 12 3 12 4 12 4 12 4 12 5 12 6 11 6 12 6 11 7 11 7 11 8 10 8 10 9 11 9 9 9 -27 28 -9 -8 -9 -8 -10 -8 -9 -7 -10 -7 -9 -7 -10 -6 -10 -6 -10 -5 -11 -5 -10 -4 -11 -4 -10 -4 -11 -3 -11 -3 -11 -2 -11 -2 -11 -1 -12 -1 -11 -1 -11 0 -12 0 -11 1 -12 1 -11 1 -12 2 -12 3 -11 2 -12 4 -12 3 -12 4 -11 5 0 0zm-92 62l-26 -30 0 0 3 -2 3 -3 3 -2 2 -3 3 -2 3 -3 3 -2 3 -2 3 -3 3 -2 3 -2 3 -3 3 -2 3 -2 3 -2 3 -3 3 -2 3 -2 3 -2 4 -2 3 -2 3 -2 4 -2 3 -2 4 -2 3 -2 4 -2 3 -2 4 -2 4 -1 4 -2 4 -2 15 37 -4 1 -3 2 -3 1 -3 2 -4 1 -3 2 -3 1 -3 2 -3 2 -3 1 -2 2 -3 2 -3 2 -3 2 -3 2 -2 1 -3 2 -3 2 -3 2 -2 2 -3 3 -3 2 -2 2 -3 2 -3 2 -3 3 -2 2 -3 2 -3 3 -3 2 -2 2 -3 3 0 0zm-64 88l-35 -17 0 0 2 -3 1 -4 2 -3 2 -3 1 -4 2 -3 2 -3 2 -4 2 -3 2 -4 2 -3 3 -3 2 -4 2 -3 2 -3 3 -4 2 -3 2 -3 3 -4 2 -3 3 -3 2 -3 3 -3 3 -3 2 -3 3 -3 2 -3 3 -3 3 -2 3 -3 2 -2 3 -3 26 30 -2 2 -2 2 -3 2 -2 2 -2 2 -2 3 -3 2 -2 3 -2 2 -2 3 -2 3 -3 2 -2 3 -2 3 -2 3 -2 3 -2 3 -2 3 -2 3 -2 3 -2 3 -2 3 -2 3 -2 3 -2 3 -1 3 -2 3 -2 3 -1 3 -2 3 -1 3 -2 3 0 0zm-29 122l-40 0 0 0 0 -5 0 -5 1 -5 0 -5 0 -5 1 -5 0 -5 1 -4 1 -5 0 -5 1 -5 1 -4 1 -5 1 -4 1 -5 2 -4 1 -5 1 -4 1 -4 2 -4 1 -5 1 -4 2 -4 1 -4 2 -4 1 -3 2 -4 1 -4 2 -4 2 -3 1 -4 2 -3 35 17 -1 3 -1 3 -2 3 -1 4 -2 3 -1 3 -2 4 -1 3 -1 4 -1 3 -2 4 -1 4 -1 3 -1 4 -1 4 -1 4 -1 4 -1 4 -1 4 -1 4 -1 4 -1 4 0 4 -1 4 -1 4 0 4 0 5 -1 4 0 4 0 4 0 5 0 4 0 0z"/>
   </g>
   <polygon class="fil2" points="212,479 314,479 314,536 328,536 328,449 439,449 439,536 450,536 450,503 556,503 556,536 556,555 573,555 573,569 439,569 328,569 195,569 195,555 212,555 212,536 "/>
   <circle class="fil2" cx="384" cy="218" r="41"/>
   <path class="fil2" d="M397 271l21 0 0 152c0,9 -7,16 -16,16l0 0c-9,0 -15,-7 -16,-16l-2 -61 0 -17 -11 -14 4 -54 -5 -6 -22 0 0 152c0,9 7,16 16,16l0 0c9,0 16,-7 16,-16l2 -61 0 -17 11 -14 -4 -54 6 -6z"/>
   <g>
    <path class="fil2" d="M417 320l0 -49 54 -53c6,-6 17,-7 23,0l0 0c6,6 6,16 0,22l-77 80z"/>
    <path id="1" class="fil3 str0" d="M417 320l0 -49 54 -53c6,-6 17,-7 23,0l0 0c6,6 6,16 0,22l-77 80z"/>
   </g>
   <g>
    <path class="fil2" d="M351 320l0 -49 -54 -53c-6,-6 -17,-7 -23,0l0 0c-6,6 -6,16 0,22l77 80z"/>
    <path id="1" class="fil3 str0" d="M351 320l0 -49 -54 -53c-6,-6 -17,-7 -23,0l0 0c-6,6 -6,16 0,22l77 80z"/>
   </g>
   <rect class="fil2" transform="matrix(-0.251339 -0.254787 0.284603 -0.280751 532.594 250.103)" width="273" height="164"/>
  </g>
 </g>
</svg>
