<?xml version="1.0" encoding="UTF-8"?>
<!DOCTYPE svg PUBLIC "-//W3C//DTD SVG 1.1//EN" "http://www.w3.org/Graphics/SVG/1.1/DTD/svg11.dtd">
<!-- Creator: CorelDRAW X7 -->
<svg xmlns="http://www.w3.org/2000/svg" xml:space="preserve" width="0.752079in" height="0.752079in" version="1.1" style="shape-rendering:geometricPrecision; text-rendering:geometricPrecision; image-rendering:optimizeQuality; fill-rule:evenodd; clip-rule:evenodd"
viewBox="0 0 752 752"
 xmlns:xlink="http://www.w3.org/1999/xlink">
 <defs>
  <style type="text/css">
   <![CDATA[
    .str1 {stroke:#612C75;stroke-width:3}
    .str2 {stroke:#FFED00;stroke-width:3}
    .str0 {stroke:#612C75;stroke-width:43.2362}
    .fil2 {fill:none;fill-rule:nonzero}
    .fil1 {fill:#612C75}
    .fil0 {fill:#FFED00}
   ]]>
  </style>
 </defs>
 <g id="Слой_x0020_1">
  <metadata id="CorelCorpID_0Corel-Layer"/>
  <g id="_1108701312">
   <circle class="fil0 str0" cx="373" cy="362" r="330"/>
   <g>
    <polygon class="fil1" points="346,624 393,624 393,685 346,685 "/>
    <polygon id="1" class="fil2 str1" points="346,624 393,624 393,685 346,685 "/>
   </g>
   <g>
    <polygon class="fil1" points="45,384 45,337 106,337 106,384 "/>
    <polygon id="1" class="fil2 str1" points="45,384 45,337 106,337 106,384 "/>
   </g>
   <g>
    <g>
     <path class="fil1" d="M204 531l338 0c11,0 9,1 9,-10 -1,-26 -8,-47 -23,-68 -29,-24 -102,-43 -111,-52 -2,-4 -4,-9 -5,-14 -4,-22 82,-151 -8,-182 -37,-12 -86,-4 -99,38 -19,65 33,136 31,144 -1,6 -3,10 -6,13 -21,24 -95,17 -120,68 -9,16 -15,43 -13,61 0,3 1,2 7,2z"/>
     <path id="1" class="fil2 str2" d="M204 531l338 0c11,0 9,1 9,-10 -1,-26 -8,-47 -23,-68 -29,-24 -102,-43 -111,-52 -2,-4 -4,-9 -5,-14 -4,-22 82,-151 -8,-182 -37,-12 -86,-4 -99,38 -19,65 33,136 31,144 -1,6 -3,10 -6,13 -21,24 -95,17 -120,68 -9,16 -15,43 -13,61 0,3 1,2 7,2z"/>
    </g>
    <g>
     <path class="fil1" d="M231 248c0,13 3,25 5,36 4,13 10,31 19,43 2,2 4,7 3,11 -1,5 -5,6 -9,9 -22,10 -43,14 -66,26 -13,7 -23,20 -26,35 -1,5 -9,34 -1,34l49 0c4,0 4,-2 6,-4 13,-18 82,-34 107,-50 0,-3 -1,-4 -2,-6 -21,-32 -36,-89 -31,-125 1,-14 6,-28 14,-40 5,-9 13,-15 14,-17 -9,-7 -34,-7 -46,-4 -27,6 -36,26 -36,52z"/>
     <path id="1" class="fil2 str2" d="M231 248c0,13 3,25 5,36 4,13 10,31 19,43 2,2 4,7 3,11 -1,5 -5,6 -9,9 -22,10 -43,14 -66,26 -13,7 -23,20 -26,35 -1,5 -9,34 -1,34l49 0c4,0 4,-2 6,-4 13,-18 82,-34 107,-50 0,-3 -1,-4 -2,-6 -21,-32 -36,-89 -31,-125 1,-14 6,-28 14,-40 5,-9 13,-15 14,-17 -9,-7 -34,-7 -46,-4 -27,6 -36,26 -36,52z"/>
    </g>
    <g>
     <path class="fil1" d="M514 248c0,13 -3,25 -5,36 -4,13 -10,31 -19,43 -2,2 -4,7 -3,11 1,5 5,6 9,9 22,10 43,14 66,26 13,7 23,20 26,35 1,5 9,34 1,34l-49 0c-4,0 -4,-2 -6,-4 -13,-18 -82,-34 -106,-50 -1,-3 0,-4 1,-6 21,-32 36,-89 31,-125 -1,-14 -6,-28 -14,-40 -5,-9 -13,-15 -14,-17 9,-7 34,-7 46,-4 27,6 36,26 36,52z"/>
     <path id="1" class="fil2 str2" d="M514 248c0,13 -3,25 -5,36 -4,13 -10,31 -19,43 -2,2 -4,7 -3,11 1,5 5,6 9,9 22,10 43,14 66,26 13,7 23,20 26,35 1,5 9,34 1,34l-49 0c-4,0 -4,-2 -6,-4 -13,-18 -82,-34 -106,-50 -1,-3 0,-4 1,-6 21,-32 36,-89 31,-125 -1,-14 -6,-28 -14,-40 -5,-9 -13,-15 -14,-17 9,-7 34,-7 46,-4 27,6 36,26 36,52z"/>
    </g>
   </g>
   <g>
    <polygon class="fil1" points="346,38 393,38 393,99 346,99 "/>
    <polygon id="1" class="fil2 str1" points="346,38 393,38 393,99 346,99 "/>
   </g>
   <g>
    <polygon class="fil1" points="636,384 636,337 697,337 697,384 "/>
    <polygon id="1" class="fil2 str1" points="636,384 636,337 697,337 697,384 "/>
   </g>
  </g>
 </g>
</svg>
