<?xml version="1.0" encoding="UTF-8"?>
<!DOCTYPE svg PUBLIC "-//W3C//DTD SVG 1.1//EN" "http://www.w3.org/Graphics/SVG/1.1/DTD/svg11.dtd">
<!-- Creator: CorelDRAW X7 -->
<svg xmlns="http://www.w3.org/2000/svg" xml:space="preserve" width="0.75in" height="0.75in" version="1.1" style="shape-rendering:geometricPrecision; text-rendering:geometricPrecision; image-rendering:optimizeQuality; fill-rule:evenodd; clip-rule:evenodd"
viewBox="0 0 750 750"
 xmlns:xlink="http://www.w3.org/1999/xlink">
 <defs>
  <style type="text/css">
   <![CDATA[
    .str0 {stroke:#FFED00;stroke-width:45.7598}
    .fil3 {fill:none}
    .fil0 {fill:#612C75}
    .fil2 {fill:#FFED00}
    .fil1 {fill:#612C75;fill-rule:nonzero}
   ]]>
  </style>
   <clipPath id="id0">
    <path d="M374 26c193,0 349,157 349,349 0,193 -156,349 -349,349 -193,0 -349,-156 -349,-349 0,-192 156,-349 349,-349z"/>
   </clipPath>
 </defs>
 <g id="Слой_x0020_1">
  <metadata id="CorelCorpID_0Corel-Layer"/>
  <path class="fil0" d="M374 26c193,0 349,157 349,349 0,193 -156,349 -349,349 -193,0 -349,-156 -349,-349 0,-192 156,-349 349,-349z"/>
  <g style="clip-path:url(#id0)">
   <g id="_1077566144">
    <g>
     <g>
      <g>
       <path id="1" class="fil1" d="M191 399l-13 0 6 7 -1 0 -2 0 -1 0 -2 -1 -2 0 -1 0 -2 0 -1 -1 -2 0 -1 -1 -1 0 -2 -1 -1 0 -1 -1 -2 -1 -1 0 -1 -1 -1 -1 -2 -1 -1 -1 -1 -1 -1 -2 0 -1 -1 -1 -1 -1 -1 -2 0 -1 -1 -2 0 -1 0 -2 0 -2 0 -1 12 0 0 1 1 0 0 1 0 1 0 1 0 0 1 1 0 1 0 0 1 1 0 0 1 1 0 0 1 1 0 0 1 1 1 0 1 1 0 0 1 1 1 0 1 0 1 1 1 0 1 0 1 0 1 0 2 1 1 0 1 0 1 0 1 0 7 6zm-7 -6c4,0 7,3 7,6 0,4 -3,7 -7,7l0 -13zm21 129l-13 1 0 0 0 -2 0 -2 -1 -2 0 -3 0 -4 -1 -3 0 -4 -1 -4 0 -5 -1 -4 -1 -5 0 -5 -1 -5 0 -5 -1 -5 -1 -5 0 -6 -1 -5 0 -5 -1 -5 -1 -4 0 -5 -1 -4 0 -5 -1 -4 0 -3 0 -4 -1 -3 0 -2 0 -2 0 -2 0 -2 13 0 0 1 0 2 0 2 0 2 1 3 0 3 0 4 1 4 0 4 1 5 0 4 1 5 0 5 1 5 1 5 0 5 1 5 0 5 1 5 1 6 0 4 1 5 0 5 1 4 0 4 1 4 0 4 1 3 0 3 0 3 1 2 0 2 0 0zm0 0c0,3 -2,6 -6,7 -3,0 -6,-2 -7,-6l13 -1zm25 21l0 13 0 0 -3 0 -2 0 -2 0 -3 0 -2 0 -2 0 -2 0 -1 0 -2 -1 -2 0 -1 0 -2 -1 -2 0 -1 -1 -2 -1 -1 -1 -1 -1 -1 -1 -1 -2 -1 -1 0 -2 -1 -1 0 -2 -1 -2 0 -1 0 -2 -1 -2 0 -2 0 -2 0 -2 -1 -2 0 -3 13 -1 0 2 0 2 1 3 0 2 0 1 0 2 1 2 0 1 0 1 0 1 1 1 0 0 0 1 0 0 1 0 0 0 0 1 0 0 0 0 1 0 1 0 1 0 1 1 1 0 1 0 2 0 2 0 2 0 2 0 2 0 2 0 3 0 0 0zm0 0c4,0 7,3 7,7 0,3 -3,6 -7,6l0 -13zm8 -3l12 4 0 0 0 1 0 1 -1 1 0 0 -1 1 0 1 -1 0 0 1 -1 0 0 1 -1 0 -1 1 0 0 -1 1 0 0 -1 0 -1 1 -1 0 0 0 -1 0 -1 1 0 0 -1 0 -1 0 -1 0 0 1 -1 0 -1 0 -1 0 0 0 -1 0 -1 0 0 -13 1 0 0 0 0 0 1 0 0 0 1 0 0 0 0 0 1 0 0 0 0 -1 1 0 0 0 0 0 1 0 0 0 0 0 0 0 1 -1 0 0 0 0 0 0 0 0 1 0 0 0 0 -1 0 0 0 0 0 0 0 0 0 0 0 0 0 0zm0 0c2,-4 5,-5 9,-4 3,1 5,5 3,8l-12 -4zm8 -60l13 2 0 0 -1 1 0 1 0 1 0 2 0 1 0 2 -1 2 0 2 0 3 0 2 -1 2 0 3 0 2 -1 3 0 2 0 3 0 2 -1 3 0 2 0 3 -1 2 0 2 0 3 0 2 -1 2 0 1 0 2 -1 2 0 1 0 1 0 1 -1 1 -12 -4 0 0 0 -1 1 -1 0 -1 0 -1 0 -2 1 -1 0 -2 0 -2 0 -2 1 -2 0 -3 0 -2 1 -3 0 -2 0 -3 0 -2 1 -3 0 -2 0 -3 1 -2 0 -3 0 -2 0 -2 1 -2 0 -2 0 -2 0 -2 0 -1 1 -2 0 -1 0 -1 0 0zm0 0c0,-3 4,-6 7,-5 4,0 6,4 6,7l-13 -2zm5 -40l12 1 0 0 0 1 0 2 0 1 0 1 0 1 0 2 -1 1 0 1 0 2 0 1 0 1 0 1 0 2 -1 1 0 1 0 2 0 1 0 1 0 2 -1 1 0 1 0 2 0 1 0 1 0 1 0 2 -1 1 0 1 0 1 0 2 0 1 0 1 -13 -2 0 -1 0 -1 0 -1 0 -1 1 -2 0 -1 0 -1 0 -1 0 -2 0 -1 1 -1 0 -2 0 -1 0 -1 0 -1 0 -2 0 -1 1 -1 0 -2 0 -1 0 -1 0 -2 0 -1 0 -1 1 -2 0 -1 0 -1 0 -1 0 -2 0 -1 1 -1 0 -1 0 0zm0 0c0,-4 3,-6 7,-6 3,1 6,4 5,7l-12 -1zm2 -21l13 2 0 0 0 0 0 1 0 1 0 0 0 1 0 1 -1 0 0 1 0 1 0 0 0 1 0 0 0 1 0 1 0 0 0 1 0 1 0 0 0 1 -1 0 0 1 0 1 0 0 0 1 0 1 0 0 0 1 0 1 0 0 0 1 0 1 -1 0 -12 -1 0 -1 0 -1 0 0 0 -1 0 -1 0 0 0 -1 0 -1 0 0 1 -1 0 -1 0 0 0 -1 0 0 0 -1 0 -1 0 0 0 -1 0 0 0 -1 0 -1 0 0 1 -1 0 0 0 -1 0 -1 0 0 0 -1 0 -1 0 0 0 -1 0 -1 0 0zm0 0c0,-3 4,-6 7,-5 4,0 6,3 6,7l-13 -2zm9 -26l0 13 6 -7 0 1 0 1 0 1 0 0 0 1 0 1 0 1 0 0 0 1 0 1 0 0 0 1 -1 1 0 0 0 1 0 1 0 0 0 1 0 1 0 0 0 1 0 1 0 0 -1 1 0 0 0 1 0 1 0 0 0 1 0 0 0 1 0 1 -13 -2 0 0 0 -1 0 -1 0 0 0 -1 1 -1 0 0 0 -1 0 -1 0 0 0 -1 0 -1 0 0 0 -1 0 0 0 -1 1 -1 0 0 0 -1 0 0 0 -1 0 -1 0 0 0 -1 0 0 0 -1 0 -1 0 0 0 -1 0 0 0 -1 0 -1 7 -6zm-7 6c0,-3 3,-6 7,-6 3,0 6,3 6,6l-13 0zm23 -10l8 9 0 0 0 1 -1 1 -1 0 0 1 -1 0 -1 1 -1 0 0 1 -1 0 -1 0 -1 1 -1 0 0 0 -1 0 -1 1 -1 0 -1 0 0 0 -1 0 -1 0 -1 0 -1 1 0 0 -1 0 -1 0 -1 0 0 0 -1 0 -1 0 -1 0 -1 0 0 0 0 -13 0 0 1 0 1 0 1 0 0 0 1 0 1 0 0 0 1 0 0 0 1 0 1 0 0 0 1 -1 0 0 0 0 1 0 0 0 1 0 0 0 0 0 1 0 0 -1 1 0 0 0 0 0 1 0 0 -1 1 0 0 0 0 -1 1 0 0 0zm0 0c2,-3 6,-2 9,0 2,3 2,7 -1,9l-8 -9zm4 -28l13 -1 0 0 0 1 0 1 0 2 0 1 1 1 0 2 0 1 0 1 0 1 0 1 0 2 0 1 0 1 0 1 0 1 0 2 0 1 0 1 0 1 -1 1 0 2 0 1 -1 1 0 1 -1 1 -1 2 -1 1 0 1 -1 1 -1 1 -1 1 -2 1 -8 -9 1 -1 0 -1 1 0 0 -1 1 -1 0 0 1 -1 0 -1 0 0 1 -1 0 0 0 -1 0 -1 0 0 0 -1 1 -1 0 0 0 -1 0 -1 0 -1 0 -1 -1 -1 0 -1 0 -1 0 -1 0 -1 0 -1 0 -1 -1 -1 0 -2 0 -1 0 -1 0 -1zm0 1c-1,-4 2,-7 5,-8 4,0 7,2 8,6l-13 2zm2 -95l11 93 -13 1 -10 -93 0 0 12 -1zm-12 1c-1,-3 2,-6 5,-7 4,0 7,2 7,6l-12 1zm-17 -14l0 -12 0 0 2 0 1 0 1 0 2 0 1 0 1 1 2 0 1 0 1 1 2 0 1 1 1 1 1 0 1 1 1 1 1 1 1 0 1 1 1 1 1 1 1 1 0 1 1 2 0 1 1 1 1 1 0 1 0 2 1 1 0 1 0 2 0 1 -12 1 -1 -1 0 0 0 -1 0 -1 0 -1 0 0 -1 -1 0 -1 0 0 -1 -1 0 0 0 -1 -1 0 0 -1 -1 0 0 -1 -1 0 0 -1 -1 0 -1 0 0 -1 -1 0 0 0 -1 -1 -1 0 -1 0 0 0 -1 0 -1 0 -1 -1 -1 0 -1 0 0 0zm0 0c-3,0 -6,-3 -6,-6 0,-4 3,-6 6,-6l0 12zm-64 -12l64 0 0 12 -64 0 0 0 0 -12zm0 12c-4,0 -7,-3 -7,-6 0,-4 3,-6 7,-6l0 12zm-21 50l-13 -1 0 0 1 -3 0 -2 0 -3 0 -2 1 -3 0 -2 0 -3 0 -3 1 -2 0 -3 0 -2 0 -2 1 -3 0 -2 1 -2 0 -3 1 -2 1 -2 1 -2 1 -2 1 -2 1 -2 2 -2 2 -1 2 -2 2 -1 2 -1 2 -1 3 -1 2 0 3 0 3 0 0 12 -2 0 -2 1 -1 0 -2 0 -1 1 -1 0 -1 1 -1 1 -1 0 -1 1 0 1 -1 1 -1 2 0 1 -1 1 0 2 -1 2 0 2 -1 2 0 2 0 2 0 2 -1 2 0 3 0 2 0 3 -1 2 0 3 0 2 0 3 0 3 -1 2 0 0zm0 0c0,4 -3,6 -7,6 -3,0 -6,-4 -6,-7l13 1zm-4 38l-13 -2 0 0 1 -1 0 -1 0 -1 0 -2 0 -1 0 -1 0 -1 1 -1 0 -1 0 -1 0 -2 0 -1 0 -1 0 -1 0 -1 1 -1 0 -1 0 -2 0 -1 0 -1 0 -1 0 -1 0 -1 0 -2 1 -1 0 -1 0 -1 0 -1 0 -1 0 -2 0 -1 0 -1 13 1 0 2 0 1 0 1 0 1 0 1 -1 1 0 2 0 1 0 1 0 1 0 1 0 1 0 2 0 1 -1 1 0 1 0 1 0 1 0 1 0 2 0 1 0 1 -1 1 0 1 0 1 0 2 0 1 0 1 0 1 -1 1 0 2 0 1 0 0zm0 0c0,3 -4,6 -7,5 -4,0 -6,-3 -6,-7l13 2zm-2 18l-13 -1 0 0 0 -1 0 -1 0 0 1 -1 0 0 0 -1 0 0 0 -1 0 -1 0 0 0 -1 0 0 0 -1 0 0 0 -1 0 0 0 -1 0 -1 0 0 1 -1 0 0 0 -1 0 0 0 -1 0 -1 0 0 0 -1 0 0 0 -1 0 -1 0 0 0 -1 13 2 0 0 0 1 0 1 0 0 0 1 0 0 0 1 0 0 -1 1 0 1 0 0 0 1 0 0 0 1 0 0 0 1 0 0 0 1 0 1 0 0 0 1 0 0 0 1 0 0 0 1 -1 1 0 0 0 1 0 0 0 1 0 1 0 0 0 0zm0 0c-1,4 -4,6 -7,6 -4,-1 -6,-4 -6,-7l13 1zm-2 19l-12 0 0 0 0 -1 0 -1 0 0 0 -1 0 -1 0 0 0 -1 0 -1 0 0 0 -1 0 -1 0 0 0 -1 0 0 0 -1 0 -1 0 0 0 -1 0 0 0 -1 0 -1 0 0 0 -1 1 0 0 -1 0 -1 0 0 0 -1 0 0 0 -1 0 -1 0 0 13 1 0 1 0 1 0 0 0 1 0 0 -1 1 0 1 0 0 0 1 0 0 0 1 0 0 0 1 0 0 0 1 0 1 0 0 0 1 0 0 0 1 0 0 0 1 0 0 0 1 0 0 0 1 0 1 -1 0 0 1 0 0 0 1 0 1 0 0zm0 0c0,3 -2,6 -6,6 -4,0 -6,-3 -6,-6l12 0z"/>
       <path id="2" class="fil2" d="M156 379c0,14 13,20 28,20 0,11 13,108 15,123 3,28 2,28 31,28 7,0 12,-3 14,-8 2,-4 7,-53 8,-61 2,-12 3,-28 5,-41 1,-7 2,-13 3,-20 0,-7 2,-13 2,-21 8,0 14,0 20,-5 11,-10 8,-19 6,-33l-10 -93c-1,-12 -10,-20 -23,-20l-64 0c-27,0 -24,27 -27,56 -2,13 -2,24 -4,37 -1,7 -1,12 -2,18 -1,7 -2,12 -2,20z"/>
      </g>
      <g>
       <path class="fil1" d="M93 393l-13 3 6 5 -1 0 -1 0 -2 0 -1 0 -1 0 -2 0 -1 0 -1 -1 -1 0 -2 0 -1 -1 -1 0 -2 -1 -1 0 -1 -1 -1 -1 -2 0 -1 -1 -1 -1 -1 -1 -1 -1 -1 -1 -1 -1 -1 -1 -1 -2 0 -1 -1 -2 0 -1 -1 -2 0 -1 0 -2 0 -2 13 0 0 1 0 1 0 1 0 0 0 1 0 1 1 0 0 1 0 0 1 1 0 0 1 1 0 0 1 0 0 1 1 0 1 1 0 0 1 0 1 1 1 0 1 0 1 0 1 1 1 0 1 0 1 0 0 0 1 0 1 0 1 0 1 1 7 4zm-7 -4c4,0 7,2 7,6 0,3 -3,6 -7,6l0 -12zm23 137l-13 4 0 0 0 -2 0 -1 0 -2 -1 -3 0 -3 -1 -3 0 -4 -1 -4 0 -5 -1 -5 0 -5 -1 -5 0 -6 -1 -5 -1 -6 0 -6 -1 -5 -1 -6 0 -6 -1 -6 -1 -5 0 -5 -1 -6 0 -4 -1 -5 0 -4 -1 -4 0 -4 -1 -3 0 -2 -1 -2 0 -2 13 -3 0 2 0 3 1 2 0 4 1 3 0 4 1 4 0 5 1 5 1 5 0 5 1 6 0 6 1 5 1 6 0 6 1 6 1 5 0 6 1 6 1 5 0 5 1 5 0 4 1 4 0 4 1 4 0 2 0 3 1 2 0 1 0 0 0 0zm0 0c1,3 -1,7 -4,8 -4,1 -7,-1 -9,-4l13 -4zm22 4l0 13 0 0 -1 0 -1 0 -1 0 -2 0 -1 0 -1 0 -1 0 -1 0 -1 0 -1 0 -2 0 -1 0 -1 0 -1 0 -1 0 -2 0 -1 -1 -1 0 -1 0 -1 -1 -1 0 -2 -1 -1 0 -1 -1 -1 -1 -1 -1 -1 -1 -1 -1 -1 -1 0 -1 -1 -2 -1 -1 13 -4 0 0 0 1 0 0 1 1 0 0 0 0 0 0 1 1 0 0 0 0 1 0 0 0 1 0 0 1 1 0 0 0 1 0 1 0 1 0 1 0 1 0 1 0 1 0 1 0 1 0 1 0 1 0 1 0 1 0 2 0 1 0 1 0 0 0zm0 0c4,0 6,3 6,6 0,4 -2,7 -6,7l0 -13zm9 -21l13 1 0 1 0 1 0 1 0 1 0 2 -1 1 0 1 0 1 0 2 0 1 0 1 0 1 -1 2 0 1 0 1 0 1 -1 2 0 1 -1 1 0 1 -1 1 -1 2 -1 1 -1 1 -1 1 -2 0 -1 1 -2 1 -1 0 -2 1 -1 0 -2 0 -2 0 0 -13 1 0 1 0 1 0 1 0 0 0 1 -1 0 0 0 0 1 0 0 0 0 -1 0 0 0 0 1 -1 0 0 0 -1 0 0 0 -1 1 -1 0 -1 0 -1 0 -1 0 -1 0 -1 0 -1 1 -1 0 -1 0 -2 0 -1 0 -1 0 -2 0 -1 0 0zm0 0c1,-4 4,-6 8,-6 3,1 6,4 5,8l-13 -2zm26 -103l-13 104 -13 -1 13 -104 0 0 13 1zm-13 -1c0,-4 4,-6 7,-6 4,1 6,4 6,7l-13 -1zm-9 -17l12 -5 0 0 0 1 1 1 0 1 1 1 0 1 0 0 1 1 0 0 0 0 1 1 0 0 0 0 1 1 0 0 0 0 1 1 0 0 1 0 0 1 1 1 0 1 1 1 0 1 1 1 0 1 0 1 0 1 0 1 0 1 0 1 0 1 0 1 -13 -1 0 -1 0 -1 0 -1 0 0 0 -1 0 0 0 0 0 0 0 0 0 0 0 0 0 0 1 0 0 0 0 0 -1 0 0 0 0 0 -1 -1 0 0 -1 0 0 -1 -1 -1 -1 0 0 -1 -1 -1 -1 -1 0 -1 -1 -1 -1 -2 0 -1 -1 -2 0 0zm0 0c-2,-3 0,-7 3,-8 3,-1 7,0 9,3l-12 5zm-2 -21l13 2 0 0 0 0 0 1 0 1 0 0 0 1 0 0 -1 1 0 0 0 1 0 0 0 1 0 0 0 1 0 0 0 1 0 0 0 1 0 0 0 0 0 1 0 0 0 0 1 1 0 0 0 0 0 1 0 0 0 1 0 0 0 0 1 1 0 0 -12 5 0 0 -1 -1 0 -1 0 0 0 -1 -1 -1 0 0 0 -1 0 -1 0 0 0 -1 0 -1 0 -1 -1 0 0 -1 0 -1 0 0 0 -1 0 0 0 -1 0 -1 1 0 0 -1 0 -1 0 0 0 -1 0 -1 0 0 0 -1 0 -1 0 0 0 -1 0 0zm0 0c1,-3 4,-6 7,-5 4,0 6,3 6,7l-13 -2zm22 -75l-9 77 -13 -2 9 -76 13 1 0 0zm-13 -1c0,-4 3,-6 7,-6 3,1 6,4 6,7l-13 -1zm10 -31l5 -11 3 8 0 1 0 1 0 0 -1 1 0 1 0 1 0 1 -1 1 0 1 0 1 0 1 -1 1 0 1 0 2 0 1 0 1 -1 1 0 2 0 1 0 1 0 1 0 2 0 1 -1 1 0 1 0 2 0 1 0 1 0 1 0 1 0 1 0 1 -13 -1 0 -1 0 -1 0 -1 0 -1 0 -1 0 -2 1 -1 0 -1 0 -1 0 -2 0 -1 0 -1 0 -2 1 -1 0 -1 0 -2 0 -1 0 -1 0 -2 1 -1 0 -1 0 -2 0 -1 1 -1 0 -2 0 -1 1 -1 0 -1 1 -1 0 -1 0 -1 1 -2 3 9zm-3 -9c2,-3 6,-4 9,-2 3,1 4,5 2,8l-11 -6zm-66 8l0 -13 0 0 1 0 2 0 1 0 2 0 2 0 2 0 3 0 2 0 3 0 2 0 3 -1 3 0 3 0 3 0 2 0 3 0 3 0 3 0 3 0 3 0 2 1 3 0 2 0 3 0 2 0 2 0 3 1 2 0 1 0 2 1 2 0 1 1 -5 11 0 0 -1 0 -1 0 -1 -1 -2 0 -2 0 -2 0 -2 0 -2 0 -3 -1 -2 0 -3 0 -2 0 -3 0 -3 0 -3 0 -3 0 -2 0 -3 0 -3 0 -3 0 -2 0 -3 0 -3 0 -2 1 -2 0 -3 0 -2 0 -2 0 -1 0 -2 0 -1 0 0 0zm0 0c-4,0 -7,-3 -7,-7 0,-3 3,-6 7,-6l0 13zm-16 30l-12 -1 0 0 0 -2 0 -1 0 -1 0 -1 0 -2 0 -1 0 -2 0 -1 1 -2 0 -2 0 -1 0 -2 1 -2 0 -1 1 -2 0 -2 1 -1 0 -2 1 -2 1 -1 1 -2 2 -1 1 -2 1 -1 2 -1 2 -1 2 -1 2 -1 2 0 2 -1 2 0 3 0 0 13 -2 0 -1 0 -1 0 -1 0 -1 1 -1 0 -1 1 -1 0 0 1 -1 0 0 1 -1 1 0 1 -1 1 0 1 -1 1 0 1 0 1 -1 1 0 1 0 2 0 1 -1 2 0 1 0 1 0 2 0 1 0 1 0 2 0 1 -1 1 0 2 0 0zm0 0c0,3 -3,6 -7,6 -3,-1 -6,-4 -5,-7l12 1zm-9 87l-13 0 0 0 0 -1 0 -1 0 -2 0 -2 0 -2 1 -3 0 -2 0 -3 0 -3 1 -3 0 -3 1 -4 0 -3 0 -4 1 -3 0 -4 1 -3 0 -4 0 -3 1 -4 0 -3 1 -3 0 -4 0 -3 1 -3 0 -3 0 -2 1 -3 0 -2 0 -2 0 -2 1 -1 12 1 0 1 0 2 0 2 -1 3 0 2 0 3 0 3 -1 3 0 3 -1 3 0 3 0 4 -1 3 0 4 -1 3 0 4 -1 3 0 4 0 3 -1 4 0 3 0 3 -1 3 0 3 0 3 -1 2 0 3 0 2 0 2 0 1 0 2 0 0 0 0zm0 0c0,4 -3,7 -7,7 -3,0 -6,-3 -6,-7l13 0z"/>
       <path id="1" class="fil2" d="M60 376c0,14 14,19 26,19 4,14 15,128 17,133 3,11 15,8 28,8 16,0 14,-12 16,-26l12 -104c2,-13 -3,-5 -9,-20 -3,-6 -2,-11 -1,-18l8 -76c1,-11 2,-30 7,-38 -9,-4 -59,-2 -72,-2 -22,0 -21,24 -22,36 -2,15 -10,78 -10,88z"/>
      </g>
      <g>
       <path class="fil1" d="M297 473l-13 2 0 0 0 -2 0 -1 -1 -2 0 -2 0 -2 0 -2 -1 -3 0 -2 0 -3 -1 -2 0 -3 0 -3 -1 -3 0 -3 0 -2 -1 -3 0 -3 0 -3 -1 -3 0 -2 0 -3 -1 -3 0 -2 0 -3 0 -2 0 -2 -1 -2 0 -2 0 -2 0 -2 0 -1 0 -2 13 0 0 1 0 2 0 1 0 2 0 2 0 2 1 2 0 2 0 3 0 2 0 3 1 2 0 3 0 3 1 2 0 3 0 3 1 3 0 3 0 3 1 2 0 3 0 3 1 2 0 3 0 2 1 2 0 2 0 2 0 2 1 2 0 1 0 0zm0 0c0,4 -2,7 -6,7 -3,1 -6,-2 -7,-5l13 -2zm4 37l-12 2 0 0 -1 -2 0 -1 0 -1 0 -1 0 -1 0 -1 0 -2 -1 -1 0 -1 0 -1 0 -1 0 -1 0 -1 0 -2 -1 -1 0 -1 0 -1 0 -1 0 -1 0 -1 0 -2 0 -1 -1 -1 0 -1 0 -1 0 -1 0 -1 0 -2 0 -1 -1 -1 0 -1 0 -1 13 -2 0 1 0 1 0 2 0 1 1 1 0 1 0 1 0 2 0 1 0 1 0 1 1 1 0 1 0 1 0 2 0 1 0 1 0 1 0 1 1 1 0 1 0 1 0 2 0 1 0 1 0 1 1 1 0 1 0 1 0 2 0 1 0 1 0 0zm0 0c1,3 -2,7 -5,7 -4,1 -7,-2 -7,-5l12 -2zm25 20l0 13 0 0 -3 0 -3 0 -2 0 -2 0 -2 0 -2 0 -2 0 -2 0 -2 -1 -1 0 -2 0 -1 -1 -2 0 -1 -1 -2 -1 -1 -1 -1 -1 -1 -1 -1 -2 -1 -1 0 -1 -1 -2 0 -1 0 -2 -1 -1 0 -2 0 -2 0 -2 -1 -2 0 -2 0 -2 0 -2 12 -2 1 2 0 3 0 2 0 2 1 1 0 2 0 2 0 1 0 1 1 1 0 1 0 0 0 0 0 1 0 0 0 0 1 0 0 0 0 0 0 0 1 0 1 1 1 0 1 0 1 0 2 0 2 0 2 0 2 0 2 0 3 0 3 0 0 0zm0 0c3,0 6,3 6,6 0,4 -3,7 -6,7l0 -13zm10 -31l13 1 0 0 0 2 -1 2 0 1 0 2 0 2 0 2 0 1 0 2 -1 2 0 1 0 2 0 2 0 1 -1 2 0 1 0 2 -1 1 0 2 -1 1 -1 2 -1 1 -1 2 -1 1 -1 1 -1 1 -2 1 -1 1 -2 1 -2 0 -1 1 -2 0 -2 0 0 -13 1 0 1 0 0 0 1 0 0 -1 1 0 0 0 1 0 0 -1 0 0 1 -1 0 0 0 -1 1 -1 0 -1 0 -1 0 -1 1 -1 0 -1 0 -1 0 -2 1 -1 0 -2 0 -1 0 -2 0 -1 0 -2 0 -2 0 -2 1 -1 0 -2 0 -2 0 0zm0 0c0,-4 3,-6 7,-6 3,0 6,4 6,7l-13 -1zm3 -24l13 1 0 0 0 1 0 1 0 0 -1 1 0 1 0 1 0 0 0 1 0 1 0 1 0 1 0 0 0 1 -1 1 0 1 0 0 0 1 0 1 0 1 0 0 0 1 0 1 -1 1 0 0 0 1 0 1 0 1 0 0 0 1 0 1 0 0 0 1 -13 -1 0 -1 0 -1 0 0 0 -1 0 -1 0 -1 1 0 0 -1 0 -1 0 -1 0 -1 0 0 0 -1 0 -1 0 -1 0 0 1 -1 0 -1 0 -1 0 0 0 -1 0 -1 0 -1 0 0 0 -1 1 -1 0 -1 0 0 0 -1 0 -1 0 -1 0 0 0 0zm0 0c0,-4 3,-6 7,-6 4,0 6,3 6,7l-13 -1zm9 -72l12 1 0 0 0 2 0 2 0 2 0 2 -1 2 0 3 0 2 0 2 -1 2 0 3 0 2 -1 2 0 3 0 2 -1 2 0 3 0 2 0 3 -1 2 0 2 0 3 -1 2 0 2 0 3 -1 2 0 2 0 2 0 3 -1 2 0 2 0 2 0 2 -13 -1 0 -2 0 -2 1 -3 0 -2 0 -2 0 -2 1 -3 0 -2 0 -2 1 -3 0 -2 0 -2 0 -3 1 -2 0 -2 0 -3 1 -2 0 -3 0 -2 1 -2 0 -3 0 -2 1 -2 0 -2 0 -3 0 -2 1 -2 0 -2 0 -2 0 -2 0 -2 1 -2 0 0zm0 0c0,-4 3,-6 7,-6 3,0 6,3 5,7l-12 -1zm10 -15l1 13 0 0 0 0 -1 0 0 0 0 0 0 1 0 0 0 0 0 -1 0 0 1 0 0 0 0 -1 1 0 0 -1 0 0 0 -1 0 0 0 0 0 0 0 0 0 0 0 0 0 1 0 0 1 1 0 0 0 1 0 0 0 1 -1 0 0 1 0 1 -12 -1 0 -1 0 0 0 -1 0 0 0 0 0 -1 0 0 0 0 0 -1 0 0 0 -1 0 0 0 -1 0 0 0 -1 0 -1 0 0 0 -1 1 -1 1 -1 0 -1 1 0 1 -1 1 0 0 -1 1 0 1 0 0 0 1 0 0 0 1 0 1 -1 0 0zm0 0c3,0 6,2 7,6 0,4 -2,7 -6,7l-1 -13zm9 -1l6 11 0 0 0 0 -1 1 0 0 -1 0 0 0 -1 1 0 0 -1 0 0 0 -1 0 0 0 -1 0 0 0 -1 1 0 0 -1 0 0 0 0 0 -1 0 0 0 0 0 -1 0 0 0 0 0 -1 0 0 0 -1 0 0 0 0 0 -1 0 0 0 -1 0 -1 -13 0 0 1 0 0 0 1 0 0 0 1 0 0 0 0 0 1 0 0 0 1 0 0 0 0 0 0 0 1 0 0 0 0 0 0 0 0 0 1 0 0 0 0 0 0 0 0 0 0 -1 1 0 0 0 0 0 0 0 1 0 0 0 0 0 0 0zm0 0c4,-2 7,-1 9,3 2,3 0,7 -3,8l-6 -11zm6 -28l13 -1 0 0 0 1 0 1 0 1 1 1 0 1 0 1 0 1 0 1 0 2 0 1 1 1 0 2 0 1 0 1 0 2 0 1 -1 2 0 1 0 2 -1 1 0 2 -1 1 0 1 -1 2 -1 1 -1 2 -1 1 -2 1 -1 1 -2 1 -1 1 -2 1 -6 -11 1 -1 1 0 1 -1 1 -1 0 0 1 -1 0 0 1 -1 0 -1 1 0 0 -1 0 -1 0 0 0 -1 1 -1 0 -1 0 -1 0 -1 0 -1 0 -1 0 -1 0 -1 0 -1 -1 -1 0 -1 0 -1 0 -1 0 -1 0 -1 -1 -1 0 -1 0 -2 0 0zm0 0c0,-3 2,-6 6,-7 3,0 7,2 7,6l-13 1zm3 -89l10 88 -13 1 -10 -88 13 -2 0 1zm-13 1c0,-3 3,-7 6,-7 4,0 7,2 7,6l-13 1zm-4 -9l8 -9 0 0 1 0 0 0 1 1 0 0 0 1 1 0 0 1 1 0 0 1 0 0 1 1 0 0 0 1 1 0 0 1 0 0 0 1 1 0 0 1 0 0 0 1 1 0 0 1 0 1 0 0 0 1 0 0 1 1 0 0 0 1 0 1 0 0 -13 3 0 -1 0 0 0 -1 0 0 0 0 0 -1 0 0 0 -1 0 0 -1 0 0 -1 0 0 0 0 0 -1 0 0 0 0 -1 0 0 -1 0 0 0 0 0 0 0 -1 0 0 -1 0 0 0 0 0 0 -1 0 0 0 0 -1 0 0 0 0 -1 0 0zm0 0c-3,-2 -3,-6 -1,-9 2,-2 7,-3 9,0l-8 9zm-11 -3l0 -13 0 0 0 0 1 0 1 0 1 0 0 0 1 0 1 0 0 0 1 0 1 1 0 0 1 0 1 0 0 0 1 0 1 1 0 0 1 0 1 0 0 1 1 0 0 0 1 0 0 1 1 0 0 0 1 1 0 0 1 0 0 1 1 0 0 1 -8 9 0 0 -1 0 0 0 0 0 0 -1 -1 0 0 0 0 0 -1 0 0 0 0 -1 0 0 -1 0 0 0 0 0 -1 0 0 0 0 0 -1 -1 0 0 0 0 -1 0 0 0 -1 0 0 0 0 0 -1 0 0 0 -1 0 0 0 -1 0 0 0 0 0zm0 0c-4,0 -7,-3 -7,-7 0,-3 3,-6 7,-6l0 13zm-63 -13l63 0 0 13 -63 0 0 0 0 -13zm0 13c-4,0 -7,-3 -7,-7 0,-3 3,-6 7,-6l0 13zm7 8l-13 1 0 0 0 -1 0 -1 0 -1 0 0 0 -1 -1 -1 0 0 0 -1 0 -1 0 0 -1 -1 0 0 0 -1 0 0 0 -1 -1 0 0 -1 0 0 0 -1 -1 -1 0 -1 0 -1 1 -2 0 -1 1 -2 2 -1 1 0 1 -1 1 0 1 0 1 0 1 0 0 13 -1 0 0 0 0 0 0 0 1 0 0 -1 1 -1 1 -1 1 -1 0 -1 0 -1 0 0 0 -1 0 0 0 1 0 0 0 0 1 1 0 0 0 1 0 1 1 0 0 1 0 1 1 1 0 1 0 1 0 1 1 1 0 1 0 2 0 1 0 0zm0 0c0,4 -2,7 -6,7 -3,0 -7,-2 -7,-6l13 -1zm-6 63l-7 -62 13 -1 7 62 -13 1 0 0zm13 -1c0,3 -2,6 -6,7 -3,0 -7,-2 -7,-6l13 -1zm5 40l-13 2 0 0 0 -1 -1 -1 0 -2 0 -1 0 -1 0 -2 0 -1 -1 -1 0 -2 0 -1 0 -1 0 -2 0 -1 0 -1 -1 -2 0 -1 0 -1 0 -1 0 -2 0 -1 0 -1 -1 -2 0 -1 0 -1 0 -1 0 -2 0 -1 0 -1 0 -1 -1 -2 0 -1 0 -1 13 -2 0 2 0 1 0 1 0 1 1 2 0 1 0 1 0 2 0 1 0 1 0 1 1 2 0 1 0 1 0 2 0 1 0 1 0 1 0 2 1 1 0 1 0 2 0 1 0 1 0 2 0 1 1 1 0 1 0 2 0 1 0 1 1 1 0 0zm0 0c0,4 -2,7 -6,8 -3,0 -7,-2 -7,-6l13 -2zm-15 31l-13 0 5 -6 0 0 1 0 0 0 1 -1 0 0 1 0 0 -1 1 0 0 -1 1 -1 0 0 1 -1 0 -1 1 0 0 -1 0 -1 1 -1 0 -1 0 -1 1 -1 0 -1 0 -1 0 -1 1 -1 0 -1 0 -1 0 0 0 -1 0 -1 0 -1 0 -1 0 -1 13 -2 0 2 0 1 0 2 0 1 0 1 0 2 0 1 -1 1 0 2 0 1 -1 2 0 1 0 1 -1 2 0 1 -1 1 -1 1 0 2 -1 1 -1 1 0 1 -1 1 -1 2 -1 1 -1 1 -1 0 -1 1 -2 1 -1 1 -1 1 -2 0 -1 1 5 -7zm-5 7c-3,1 -7,-2 -8,-5 -1,-3 1,-7 5,-8l3 13z"/>
       <path id="1" class="fil2" d="M282 400c0,12 6,59 8,74 2,13 3,24 5,37 4,26 0,25 31,25 16,0 15,-17 16,-36 1,-8 3,-17 3,-25 2,-22 7,-51 9,-72 1,-6 -2,-7 4,-8 6,-1 8,0 12,-3 16,-7 11,-23 10,-33l-10 -89c-1,-5 -3,-10 -7,-12 -4,-4 -8,-6 -15,-6l-63 0c-7,0 0,3 1,16l6 61c2,13 3,28 5,41 2,11 -4,28 -15,30z"/>
      </g>
      <g>
       <path class="fil1" d="M222 228l0 13 0 0 -2 0 -2 0 -2 0 -2 -1 -1 0 -2 -1 -2 0 -2 -1 -2 -1 -2 -1 -2 -1 -1 -1 -2 -1 -2 -2 -1 -1 -2 -1 -1 -2 -1 -1 -2 -2 -1 -2 -1 -1 -1 -2 -1 -2 -1 -2 -1 -2 -1 -2 0 -2 -1 -2 0 -2 -1 -3 0 -2 0 -2 13 0 0 1 0 2 0 2 1 1 0 1 0 2 1 1 1 2 0 1 1 1 1 2 1 1 0 1 1 1 1 1 1 2 1 1 2 1 1 0 1 1 1 1 1 1 2 1 1 0 1 1 2 0 1 1 1 0 2 0 1 0 1 0 1 0 0 0zm0 0c4,0 7,3 7,7 0,3 -3,6 -7,6l0 -13zm22 -50l9 -9 0 0 2 2 3 3 1 3 2 3 2 3 1 3 1 3 0 3 0 3 1 3 -1 3 0 3 0 3 -1 3 -1 3 -1 3 -2 2 -1 3 -2 3 -2 2 -2 2 -2 2 -2 2 -3 2 -2 2 -3 1 -3 1 -3 1 -3 1 -3 1 -3 0 -4 0 0 -13 3 0 2 0 2 0 2 -1 2 -1 2 -1 2 -1 2 -1 2 -1 1 -1 2 -2 1 -1 2 -2 1 -2 1 -2 1 -2 1 -2 0 -2 1 -2 0 -2 1 -2 0 -2 0 -2 -1 -2 0 -2 -1 -2 0 -2 -1 -2 -1 -2 -2 -2 -1 -2 -2 -2 0 0zm0 0c-3,-3 -3,-7 0,-9 2,-3 6,-3 9,0l-9 9zm-51 20l-13 0 0 0 0 -3 1 -3 0 -3 1 -3 1 -3 1 -3 2 -3 1 -2 2 -3 2 -2 2 -2 2 -2 3 -2 2 -2 3 -1 2 -1 3 -2 3 -1 3 0 3 -1 3 0 3 0 3 0 3 0 3 1 3 0 3 2 3 1 3 2 3 2 3 2 3 3 -9 9 -2 -2 -2 -2 -2 -1 -3 -2 -2 -1 -2 0 -2 -1 -2 0 -2 -1 -2 0 -2 0 -2 1 -2 0 -2 1 -2 0 -2 1 -2 1 -2 1 -2 1 -1 2 -2 1 -1 2 -2 1 -1 2 -1 2 -1 2 -1 2 -1 2 0 2 -1 2 0 2 0 2 0 0zm0 0c0,3 -3,6 -6,6 -4,0 -7,-3 -7,-6l13 0z"/>
       <path id="1" class="fil2" d="M187 198c0,21 18,37 35,37 31,0 51,-38 26,-62 -25,-25 -61,-3 -61,25z"/>
      </g>
      <g>
       <path class="fil1" d="M346 210l12 0 0 0 0 2 0 1 0 2 0 2 -1 2 0 1 -1 2 -1 2 -1 1 -1 2 -1 2 -1 1 -1 2 -1 1 -1 1 -1 2 -2 1 -1 1 -2 1 -1 2 -2 1 -2 1 -1 1 -2 0 -2 1 -2 1 -2 0 -2 1 -2 0 -2 1 -2 0 -2 0 0 -13 2 0 1 0 1 0 2 -1 1 0 1 0 1 -1 2 0 1 -1 1 -1 1 0 1 -1 2 -1 1 -1 1 0 1 -1 1 -1 0 -1 1 -1 1 -1 1 -1 0 -2 1 -1 1 -1 0 -1 0 -1 1 -1 0 -1 0 -1 0 -1 1 -1 0 -1 0 0zm0 0c0,-4 2,-7 6,-7 4,0 6,3 6,7l-12 0zm-9 -23l9 -9 0 0 1 1 1 0 0 1 1 1 1 1 1 1 0 1 1 1 1 1 0 1 1 1 0 1 1 1 0 1 1 1 0 1 0 1 1 1 0 1 0 1 0 1 1 1 0 1 0 1 0 1 0 1 0 1 0 1 0 1 0 2 0 1 0 1 -12 0 0 -1 0 -1 0 -1 0 -1 -1 -1 0 -1 0 0 0 -1 0 -1 0 -1 0 -1 0 0 0 -1 -1 -1 0 0 0 -1 0 -1 -1 0 0 -1 0 0 -1 -1 0 -1 0 0 -1 -1 0 -1 -1 0 0 -1 -1 0 0 -1 -1 -1 0 0 -1 -1 0 0zm0 0c-3,-3 -3,-7 0,-9 2,-3 6,-3 9,0l-9 9zm-47 20l-13 -1 0 0 0 -3 1 -3 1 -3 0 -3 1 -3 2 -2 1 -3 2 -2 2 -3 1 -2 3 -2 2 -2 2 -1 2 -2 3 -1 2 -1 3 -1 3 -1 2 -1 3 0 3 -1 3 0 3 1 3 0 2 0 3 1 3 1 3 1 2 2 3 2 3 2 2 2 -9 9 -2 -2 -1 -1 -2 -1 -2 -1 -2 -1 -2 -1 -2 0 -1 0 -2 -1 -2 0 -2 0 -2 0 -2 1 -2 0 -2 1 -2 1 -1 0 -2 1 -2 1 -1 1 -2 2 -1 1 -2 2 -1 1 -1 2 -1 2 -1 1 0 2 -1 2 0 2 -1 3 0 2 0 0zm0 0c0,3 -3,6 -7,6 -3,0 -6,-3 -6,-7l13 1zm28 28l0 13 0 0 -2 0 -2 0 -2 -1 -2 0 -2 0 -2 -1 -2 -1 -2 0 -1 -1 -2 -1 -2 -1 -2 -1 -1 -1 -2 -2 -1 -1 -2 -1 -1 -2 -1 -1 -2 -2 -1 -2 -1 -1 -1 -2 -1 -2 -1 -2 0 -1 -1 -2 -1 -2 0 -2 0 -2 -1 -2 0 -2 0 -3 13 1 0 1 0 2 0 1 1 1 0 2 0 1 1 1 0 1 1 2 0 1 1 1 1 1 1 1 0 1 1 1 1 1 1 1 1 1 1 1 2 1 1 1 1 0 1 1 1 1 2 0 1 1 1 0 2 0 1 1 1 0 2 0 1 0 0 0zm0 0c4,0 7,3 7,6 0,4 -3,7 -7,7l0 -13z"/>
       <path id="1" class="fil2" d="M318 241c19,0 34,-16 34,-31 0,-12 -2,-19 -11,-28 -21,-20 -57,-5 -57,25 -1,18 16,34 34,34z"/>
      </g>
      <g>
       <path class="fil1" d="M151 207l13 1 0 0 0 4 -1 5 -1 4 -2 4 -2 3 -2 4 -2 3 -3 2 -3 3 -3 2 -4 2 -3 1 -4 1 -3 1 -4 0 -4 1 -3 -1 -4 0 -4 -1 -3 -1 -4 -2 -3 -1 -3 -3 -3 -2 -3 -3 -2 -3 -3 -4 -1 -3 -2 -4 -1 -5 -1 -5 0 -5 13 0 0 4 1 4 0 3 1 3 2 2 1 3 2 2 2 2 1 1 3 2 2 1 2 1 3 1 2 0 3 1 2 0 3 0 3 -1 2 0 3 -1 2 -1 2 -1 2 -2 2 -1 2 -2 2 -2 1 -2 2 -3 1 -2 1 -3 0 -3 0 -4 0 0zm0 0c0,-3 3,-6 7,-6 3,0 6,3 6,7l-13 -1zm-28 -28l0 -13 0 0 2 0 3 1 2 0 2 0 2 1 2 0 2 1 1 1 2 1 2 0 2 1 1 2 2 1 2 1 1 1 1 2 2 1 1 2 1 1 1 2 2 1 1 2 0 2 1 2 1 2 1 2 0 1 1 2 0 3 0 2 0 2 0 2 -13 -1 0 -1 0 -1 0 -2 0 -1 0 -1 -1 -2 0 -1 -1 -1 0 -2 -1 -1 0 -1 -1 -1 -1 -1 -1 -1 -1 -1 -1 -1 -1 -1 -1 -1 -1 -1 -1 -1 -1 -1 -1 0 -1 -1 -2 0 -1 -1 -1 0 -2 -1 -1 0 -1 0 -2 -1 -1 0 -2 0 0 0zm0 0c-3,0 -6,-3 -6,-6 0,-4 3,-7 6,-7l0 13zm-27 26l-13 0 0 0 0 -2 0 -2 1 -1 0 -2 1 -2 0 -2 1 -2 1 -2 0 -1 1 -2 1 -2 1 -1 2 -2 1 -1 1 -2 1 -1 2 -1 1 -2 2 -1 1 -1 2 -1 2 -1 1 -1 2 0 2 -1 2 -1 2 0 2 -1 1 0 2 0 2 -1 2 0 0 13 -1 0 -1 0 -2 1 -1 0 -1 0 -1 0 -2 1 -1 0 -1 1 -1 0 -1 1 -2 1 -1 1 -1 0 -1 1 -1 1 -1 1 -1 1 0 1 -1 1 -1 1 -1 1 0 1 -1 2 0 1 -1 1 0 1 0 1 -1 2 0 1 0 1 0 1 0 0zm0 0c0,4 -3,7 -6,7 -4,0 -7,-3 -7,-7l13 0z"/>
       <path id="1" class="fil2" d="M90 205c0,49 67,47 68,3 0,-19 -16,-35 -35,-35 -17,0 -33,15 -33,32z"/>
      </g>
     </g>
     <g>
      <g>
       <path class="fil1" d="M499 399l-13 0 6 7 -1 0 -2 0 -1 0 -2 -1 -2 0 -1 0 -2 0 -1 -1 -2 0 -1 -1 -1 0 -2 -1 -1 0 -2 -1 -1 -1 -1 0 -1 -1 -1 -1 -2 -1 -1 -1 -1 -1 -1 -2 -1 -1 0 -1 -1 -1 -1 -2 0 -1 -1 -2 0 -1 0 -2 0 -2 0 -1 12 0 0 1 1 0 0 1 0 1 0 1 0 0 1 1 0 1 0 0 1 1 0 0 1 1 0 0 1 1 0 0 1 1 1 0 1 1 0 0 1 1 1 0 1 0 1 1 1 0 1 0 1 0 1 0 1 1 2 0 1 0 1 0 1 0 7 6zm-7 -6c4,0 7,3 7,6 0,4 -3,7 -7,7l0 -13zm21 129l-13 1 0 0 0 -2 0 -2 -1 -2 0 -3 0 -4 -1 -3 0 -4 -1 -4 0 -5 -1 -4 -1 -5 0 -5 -1 -5 0 -5 -1 -5 -1 -5 0 -6 -1 -5 -1 -5 0 -5 -1 -4 0 -5 -1 -4 0 -5 -1 -4 0 -3 0 -4 -1 -3 0 -2 0 -2 0 -2 0 -2 13 0 0 1 0 2 0 2 0 2 1 3 0 3 0 4 1 4 0 4 1 5 0 4 1 5 0 5 1 5 0 5 1 5 1 5 0 5 1 5 1 6 0 4 1 5 0 5 1 4 0 4 1 4 0 4 1 3 0 3 0 3 1 2 0 2 0 0zm0 0c0,3 -2,6 -6,7 -3,0 -7,-2 -7,-6l13 -1zm25 21l0 13 0 0 -3 0 -2 0 -3 0 -2 0 -2 0 -2 0 -2 0 -2 0 -1 -1 -2 0 -2 0 -1 -1 -2 0 -1 -1 -2 -1 -1 -1 -1 -1 -1 -1 -1 -2 -1 -1 0 -2 -1 -1 0 -2 -1 -2 0 -1 0 -2 -1 -2 0 -2 0 -2 0 -2 -1 -2 0 -3 13 -1 0 2 0 2 1 3 0 2 0 1 0 2 1 2 0 1 0 1 0 1 1 1 0 0 0 1 0 0 0 0 1 0 0 1 0 0 0 0 1 0 1 0 0 0 2 1 1 0 1 0 2 0 2 0 1 0 3 0 2 0 2 0 3 0 0 0zm0 0c4,0 6,3 6,7 0,3 -2,6 -6,6l0 -13zm8 -3l12 4 0 0 0 1 0 1 -1 1 0 0 -1 1 0 1 -1 0 0 1 -1 0 0 1 -1 0 -1 1 0 0 -1 1 -1 0 0 0 -1 1 -1 0 0 0 -1 0 -1 1 0 0 -1 0 -1 0 -1 0 0 1 -1 0 -1 0 -1 0 0 0 -1 0 -1 0 0 -13 0 0 1 0 0 0 1 0 0 0 0 0 1 0 0 0 1 0 0 0 0 -1 1 0 0 0 0 0 1 0 0 0 0 0 0 0 1 -1 0 0 0 0 0 0 0 0 1 0 0 0 0 -1 0 0 0 0 0 0 0 0 0 0 0 0 0 0zm0 0c2,-4 5,-5 9,-4 3,1 5,5 3,8l-12 -4zm8 -60l12 2 0 0 0 1 0 1 0 1 0 2 0 1 0 2 -1 2 0 2 0 3 0 2 -1 2 0 3 0 2 -1 3 0 2 0 3 0 2 -1 3 0 2 0 3 -1 2 0 2 0 3 -1 2 0 2 0 1 0 2 -1 2 0 1 0 1 0 1 -1 1 -12 -4 0 0 0 -1 1 -1 0 -1 0 -1 0 -2 0 -1 1 -2 0 -2 0 -2 1 -2 0 -3 0 -2 0 -3 1 -2 0 -3 0 -2 1 -3 0 -2 0 -3 1 -2 0 -3 0 -2 0 -2 1 -2 0 -2 0 -2 0 -2 0 -1 0 -2 1 -1 0 -1 0 0zm0 0c0,-3 3,-6 7,-5 3,0 6,4 5,7l-12 -2zm5 -40l12 1 0 0 0 1 0 2 0 1 0 1 0 1 0 2 -1 1 0 1 0 2 0 1 0 1 0 1 -1 2 0 1 0 1 0 2 0 1 0 1 0 2 -1 1 0 1 0 2 0 1 0 1 0 1 -1 2 0 1 0 1 0 1 0 2 0 1 -1 1 -12 -2 0 -1 0 -1 0 -1 0 -1 1 -2 0 -1 0 -1 0 -1 0 -2 0 -1 0 -1 1 -2 0 -1 0 -1 0 -1 0 -2 0 -1 1 -1 0 -2 0 -1 0 -1 0 -2 0 -1 0 -1 1 -2 0 -1 0 -1 0 -1 0 -2 0 -1 1 -1 0 -1 0 0zm0 0c0,-4 3,-6 7,-6 3,1 6,4 5,7l-12 -1zm2 -21l13 2 0 0 0 0 0 1 0 1 0 0 0 1 -1 1 0 0 0 1 0 1 0 0 0 1 0 0 0 1 0 1 0 0 0 1 0 1 0 0 -1 1 0 0 0 1 0 1 0 0 0 1 0 1 0 0 0 1 0 1 0 0 0 1 0 1 -1 0 -12 -1 0 -1 0 -1 0 0 0 -1 0 -1 0 0 0 -1 0 -1 0 0 0 -1 1 -1 0 0 0 -1 0 0 0 -1 0 -1 0 0 0 -1 0 0 0 -1 0 -1 0 0 0 -1 1 0 0 -1 0 -1 0 0 0 -1 0 -1 0 0 0 -1 0 -1 0 0zm0 0c0,-3 3,-6 7,-5 4,0 6,3 6,7l-13 -2zm9 -26l0 13 6 -7 0 1 0 1 0 1 0 0 0 1 0 1 0 1 0 0 0 1 0 1 0 0 -1 1 0 1 0 0 0 1 0 1 0 0 0 1 0 1 0 0 0 1 0 1 -1 0 0 1 0 0 0 1 0 1 0 0 0 1 0 0 0 1 0 1 -13 -2 0 0 0 -1 0 -1 0 0 0 -1 0 -1 1 0 0 -1 0 -1 0 0 0 -1 0 -1 0 0 0 -1 0 0 0 -1 0 -1 1 0 0 -1 0 0 0 -1 0 -1 0 0 0 -1 0 0 0 -1 0 -1 0 0 0 -1 0 0 0 -1 0 -1 7 -6zm-7 6c0,-3 3,-6 7,-6 3,0 6,3 6,6l-13 0zm23 -10l8 9 0 0 0 1 -1 1 -1 0 0 1 -1 0 -1 1 -1 0 -1 1 0 0 -1 0 -1 1 -1 0 -1 0 0 0 -1 1 -1 0 -1 0 0 0 -1 0 -1 0 -1 0 -1 1 0 0 -1 0 -1 0 -1 0 0 0 -1 0 -1 0 -1 0 -1 0 0 0 0 -13 0 0 1 0 1 0 1 0 0 0 1 0 1 0 0 0 1 0 0 0 1 0 0 0 1 0 0 -1 1 0 0 0 1 0 0 0 1 0 0 0 0 0 1 0 0 -1 1 0 0 0 0 0 1 0 0 -1 0 0 1 0 0 -1 1 0 0 0zm0 0c2,-3 6,-2 9,0 2,3 2,7 -1,9l-8 -9zm4 -28l13 -1 0 0 0 1 0 1 0 2 0 1 0 1 1 2 0 1 0 1 0 1 0 1 0 2 0 1 0 1 0 1 0 1 0 2 0 1 0 1 0 1 -1 1 0 2 0 1 -1 1 -1 1 0 2 -1 1 -1 1 0 1 -1 1 -1 1 -1 1 -2 1 -8 -9 0 -1 1 -1 1 0 0 -1 1 -1 0 0 1 -1 0 -1 0 0 1 -1 0 0 0 -1 0 -1 0 0 0 -1 0 -1 1 0 0 -1 0 -1 0 -1 -1 -1 0 -1 0 -1 0 -1 0 -1 0 -1 0 -1 0 -1 -1 -1 0 -2 0 -1 0 -1 0 -1zm0 1c-1,-4 2,-7 5,-8 4,0 7,2 8,6l-13 2zm2 -95l11 93 -13 1 -11 -93 0 0 13 -1zm-13 1c0,-3 3,-6 6,-7 4,0 7,2 7,6l-13 1zm-16 -14l0 -12 0 0 1 0 2 0 1 0 2 0 1 0 1 1 2 0 1 0 1 1 2 0 1 1 1 1 1 0 1 1 1 1 1 1 1 0 1 1 1 1 1 1 0 1 1 1 1 2 0 1 1 1 0 1 1 1 0 2 1 1 0 1 0 2 0 1 -13 1 0 -1 0 0 0 -1 0 -1 0 -1 -1 0 0 -1 0 -1 0 0 -1 -1 0 0 -1 -1 0 0 0 -1 -1 0 0 -1 -1 0 0 -1 -1 0 -1 0 0 -1 -1 0 -1 0 0 -1 -1 0 -1 0 -1 0 0 0 -1 0 -1 -1 -1 0 -1 0 0 0zm0 0c-3,0 -6,-3 -6,-6 0,-4 3,-6 6,-6l0 12zm-64 -12l64 0 0 12 -64 0 0 0 0 -12zm0 12c-4,0 -7,-3 -7,-6 0,-4 3,-6 7,-6l0 12zm-21 50l-13 -1 0 0 1 -3 0 -2 0 -3 0 -2 1 -3 0 -2 0 -3 0 -3 0 -2 1 -3 0 -2 0 -2 1 -3 0 -2 1 -2 0 -3 1 -2 1 -2 1 -2 1 -2 1 -2 1 -2 2 -2 2 -1 2 -2 2 -1 2 -1 2 -1 3 -1 2 0 3 0 3 0 0 12 -2 0 -2 1 -1 0 -2 0 -1 1 -1 0 -1 1 -1 1 -1 0 -1 1 0 1 -1 1 -1 2 0 1 -1 1 0 2 -1 2 0 2 -1 2 0 2 0 2 -1 2 0 2 0 3 0 2 0 3 -1 2 0 3 0 2 0 3 -1 3 0 2 0 0zm0 0c0,4 -3,6 -7,6 -3,0 -6,-4 -6,-7l13 1zm-4 38l-13 -2 0 0 1 -1 0 -1 0 -1 0 -2 0 -1 0 -1 0 -1 1 -1 0 -1 0 -1 0 -2 0 -1 0 -1 0 -1 0 -1 0 -1 1 -1 0 -2 0 -1 0 -1 0 -1 0 -1 0 -1 0 -2 1 -1 0 -1 0 -1 0 -1 0 -1 0 -2 0 -1 0 -1 13 1 0 2 0 1 0 1 0 1 0 1 -1 1 0 2 0 1 0 1 0 1 0 1 0 1 0 2 0 1 -1 1 0 1 0 1 0 1 0 1 0 2 0 1 0 1 -1 1 0 1 0 1 0 2 0 1 0 1 0 1 -1 1 0 2 0 1 0 0zm0 0c0,3 -4,6 -7,5 -4,0 -6,-3 -6,-7l13 2zm-2 18l-13 -1 0 0 0 -1 0 -1 0 0 0 -1 1 0 0 -1 0 0 0 -1 0 -1 0 0 0 -1 0 0 0 -1 0 0 0 -1 0 0 0 -1 0 -1 0 0 0 -1 1 0 0 -1 0 0 0 -1 0 -1 0 0 0 -1 0 0 0 -1 0 -1 0 0 0 -1 13 2 0 0 0 1 0 1 0 0 0 1 0 0 0 1 -1 0 0 1 0 1 0 0 0 1 0 0 0 1 0 0 0 1 0 0 0 1 0 1 0 0 0 1 0 0 0 1 0 0 -1 1 0 1 0 0 0 1 0 0 0 1 0 1 0 0 0 0zm0 0c-1,4 -4,6 -7,6 -4,-1 -6,-4 -6,-7l13 1zm-2 19l-12 0 0 0 0 -1 0 -1 0 0 0 -1 0 -1 0 0 0 -1 0 -1 0 0 0 -1 0 -1 0 0 0 -1 0 0 0 -1 0 -1 0 0 0 -1 0 0 0 -1 0 -1 0 0 0 -1 1 0 0 -1 0 -1 0 0 0 -1 0 0 0 -1 0 -1 0 0 13 1 0 1 0 1 0 0 0 1 -1 0 0 1 0 1 0 0 0 1 0 0 0 1 0 0 0 1 0 0 0 1 0 0 0 1 0 1 0 0 0 1 0 0 0 1 0 0 0 1 -1 0 0 1 0 1 0 0 0 1 0 0 0 1 0 1 0 0zm0 0c0,3 -2,6 -6,6 -4,0 -6,-3 -6,-6l12 0z"/>
       <path id="1" class="fil2" d="M464 379c0,14 13,20 28,20 0,11 13,108 14,123 4,28 3,28 32,28 6,0 12,-3 14,-8 2,-4 7,-53 8,-61 2,-12 3,-28 5,-41 1,-7 2,-13 2,-20 1,-7 3,-13 3,-21 8,0 14,0 20,-5 11,-10 8,-19 6,-33l-10 -93c-1,-12 -10,-20 -23,-20l-64 0c-27,0 -24,27 -27,56 -2,13 -2,24 -4,37 -1,7 -2,12 -2,18 -1,7 -2,12 -2,20z"/>
      </g>
      <g>
       <path class="fil1" d="M401 393l-13 3 6 5 -1 0 -1 0 -2 0 -1 0 -1 0 -2 0 -1 0 -1 -1 -2 0 -1 0 -1 -1 -1 0 -2 -1 -1 0 -1 -1 -1 -1 -2 0 -1 -1 -1 -1 -1 -1 -1 -1 -1 -1 -1 -1 -1 -1 -1 -2 0 -1 -1 -2 0 -1 -1 -2 0 -1 0 -2 0 -2 13 0 0 1 0 1 0 1 0 0 0 1 0 1 1 0 0 1 0 0 1 1 0 0 1 1 0 0 1 0 0 1 1 0 1 1 0 0 1 0 1 1 1 0 1 0 1 0 1 1 1 0 0 0 1 0 1 0 1 0 1 0 1 0 1 1 7 4zm-7 -4c4,0 7,2 7,6 0,3 -3,6 -7,6l0 -12zm23 137l-13 4 0 0 0 -2 0 -1 -1 -2 0 -3 0 -3 -1 -3 0 -4 -1 -4 0 -5 -1 -5 0 -5 -1 -5 0 -6 -1 -5 -1 -6 0 -6 -1 -5 -1 -6 0 -6 -1 -6 -1 -5 0 -5 -1 -6 0 -4 -1 -5 -1 -4 0 -4 -1 -4 0 -3 0 -2 -1 -2 0 -2 13 -3 0 2 0 3 1 2 0 4 1 3 0 4 1 4 0 5 1 5 1 5 0 5 1 6 0 6 1 5 1 6 0 6 1 6 1 5 0 6 1 6 0 5 1 5 1 5 0 4 1 4 0 4 0 4 1 2 0 3 0 2 1 1 0 0 0 0zm0 0c1,3 -1,7 -4,8 -4,1 -7,-1 -9,-4l13 -4zm22 4l0 13 0 0 -1 0 -1 0 -1 0 -2 0 -1 0 -1 0 -1 0 -1 0 -1 0 -2 0 -1 0 -1 0 -1 0 -1 0 -1 0 -2 0 -1 -1 -1 0 -1 0 -1 -1 -2 0 -1 -1 -1 0 -1 -1 -1 -1 -1 -1 -1 -1 -1 -1 -1 -1 0 -1 -1 -2 -1 -1 13 -4 0 0 0 1 0 0 0 1 1 0 0 0 0 0 0 1 1 0 0 0 1 0 0 0 1 0 0 1 1 0 0 0 1 0 1 0 1 0 1 0 1 0 1 0 1 0 1 0 1 0 1 0 1 0 1 0 1 0 1 0 2 0 1 0 0 0zm0 0c3,0 6,3 6,6 0,4 -3,7 -6,7l0 -13zm9 -21l13 1 0 1 0 1 0 1 0 1 -1 2 0 1 0 1 0 1 0 2 0 1 0 1 0 1 -1 2 0 1 0 1 0 1 -1 2 0 1 -1 1 0 1 -1 1 -1 2 -1 1 -1 1 -1 1 -2 0 -1 1 -2 1 -1 0 -2 1 -2 0 -1 0 -2 0 0 -13 1 0 1 0 1 0 1 0 0 0 1 -1 0 0 0 0 1 0 0 0 0 -1 0 0 0 0 1 -1 0 0 0 -1 0 0 0 -1 1 -1 0 -1 0 -1 0 -1 0 -1 0 -1 0 -1 0 -1 1 -1 0 -2 0 -1 0 -1 0 -2 0 -1 0 0zm0 0c1,-4 4,-6 7,-6 4,1 6,4 6,8l-13 -2zm26 -103l-13 104 -13 -1 13 -104 0 0 13 1zm-13 -1c0,-4 3,-6 7,-6 3,1 6,4 6,7l-13 -1zm-9 -17l12 -5 0 0 0 1 1 1 0 1 1 1 0 1 0 0 1 1 0 0 0 0 1 1 0 0 0 0 0 1 1 0 0 0 1 0 0 1 1 0 0 1 1 1 0 1 1 1 0 1 1 1 0 1 0 1 0 1 0 1 0 1 0 1 0 1 0 1 -13 -1 0 -1 0 -1 0 -1 0 0 0 -1 0 0 0 0 0 0 0 0 0 0 0 0 0 0 0 0 1 0 -1 0 0 0 0 0 0 0 -1 -1 0 0 -1 0 0 -1 -1 -1 -1 0 0 -1 -1 -1 -1 -1 0 -1 -1 -1 -1 -2 0 -1 -1 -2 0 0zm0 0c-2,-3 0,-7 3,-8 3,-1 7,0 9,3l-12 5zm-2 -21l13 2 0 0 0 0 0 1 0 1 0 0 0 1 -1 0 0 1 0 0 0 1 0 0 0 1 0 0 0 1 0 0 0 1 0 0 0 1 0 0 0 0 0 1 0 0 0 0 0 1 1 0 0 0 0 1 0 0 0 1 0 0 0 0 0 1 1 0 -12 5 0 0 -1 -1 0 -1 0 0 0 -1 -1 -1 0 0 0 -1 0 -1 0 0 0 -1 0 -1 -1 -1 0 0 0 -1 0 -1 0 0 0 -1 0 -1 0 0 0 -1 0 0 1 -1 0 -1 0 0 0 -1 0 -1 0 0 0 -1 0 -1 0 0 0 -1 0 0zm0 0c1,-3 4,-6 7,-5 4,0 6,3 6,7l-13 -2zm22 -75l-9 77 -13 -2 9 -76 13 1 0 0zm-13 -1c0,-4 3,-6 7,-6 3,1 6,4 6,7l-13 -1zm10 -31l5 -11 3 8 0 1 0 1 0 0 -1 1 0 1 0 1 -1 1 0 1 0 1 0 1 0 1 -1 1 0 1 0 2 0 1 0 1 -1 1 0 2 0 1 0 1 0 1 0 2 0 1 -1 1 0 1 0 2 0 1 0 1 0 1 0 1 0 1 0 1 -13 -1 0 -1 0 -1 0 -1 0 -1 0 -1 0 -2 0 -1 1 -1 0 -1 0 -2 0 -1 0 -1 0 -2 0 -1 1 -1 0 -2 0 -1 0 -1 0 -2 1 -1 0 -1 0 -2 0 -1 1 -1 0 -2 0 -1 1 -1 0 -1 0 -1 1 -1 0 -1 1 -2 3 9zm-3 -9c2,-3 5,-4 9,-2 3,1 4,5 2,8l-11 -6zm-66 8l0 -13 0 0 1 0 2 0 1 0 2 0 2 0 2 0 3 0 2 0 3 0 2 0 3 -1 3 0 3 0 2 0 3 0 3 0 3 0 3 0 3 0 3 0 2 1 3 0 2 0 3 0 2 0 2 0 2 1 2 0 2 0 2 1 2 0 1 1 -5 11 0 0 -1 0 -1 0 -2 -1 -1 0 -2 0 -2 0 -2 0 -2 0 -3 -1 -2 0 -3 0 -2 0 -3 0 -3 0 -3 0 -3 0 -2 0 -3 0 -3 0 -3 0 -2 0 -3 0 -3 0 -2 1 -2 0 -3 0 -2 0 -2 0 -1 0 -2 0 -1 0 0 0zm0 0c-4,0 -7,-3 -7,-7 0,-3 3,-6 7,-6l0 13zm-16 30l-13 -1 0 0 1 -2 0 -1 0 -1 0 -1 0 -2 0 -1 0 -2 0 -1 1 -2 0 -2 0 -1 0 -2 1 -2 0 -1 1 -2 0 -2 1 -1 0 -2 1 -2 1 -1 1 -2 2 -1 1 -2 1 -1 2 -1 2 -1 2 -1 2 -1 2 0 2 -1 2 0 3 0 0 13 -2 0 -1 0 -1 0 -1 0 -1 1 -1 0 -1 1 -1 0 0 1 -1 0 0 1 -1 1 0 1 -1 1 0 1 -1 1 0 1 -1 1 0 1 0 1 0 2 -1 1 0 2 0 1 0 1 0 2 0 1 0 1 0 2 -1 1 0 1 0 2 0 0zm0 0c0,3 -3,6 -7,6 -3,-1 -6,-4 -6,-7l13 1zm-9 87l-13 0 0 0 0 -1 0 -1 0 -2 0 -2 0 -2 1 -3 0 -2 0 -3 0 -3 1 -3 0 -3 0 -4 1 -3 0 -4 1 -3 0 -4 0 -3 1 -4 0 -3 1 -4 0 -3 1 -3 0 -4 0 -3 1 -3 0 -3 0 -2 1 -3 0 -2 0 -2 0 -2 0 -1 13 1 0 1 0 2 0 2 -1 3 0 2 0 3 -1 3 0 3 0 3 -1 3 0 3 0 4 -1 3 0 4 -1 3 0 4 -1 3 0 4 0 3 -1 4 0 3 0 3 -1 3 0 3 0 3 -1 2 0 3 0 2 0 2 0 1 0 2 0 0 0 0zm0 0c0,4 -3,7 -7,7 -3,0 -6,-3 -6,-7l13 0z"/>
       <path id="1" class="fil2" d="M368 376c0,14 14,19 26,19 4,14 15,128 17,133 3,11 15,8 28,8 16,0 14,-12 16,-26l12 -104c2,-13 -3,-5 -9,-20 -3,-6 -2,-11 -1,-18l8 -76c1,-11 2,-30 7,-38 -9,-4 -59,-2 -72,-2 -22,0 -21,24 -22,36 -2,15 -10,78 -10,88z"/>
      </g>
      <g>
       <path class="fil1" d="M605 473l-13 2 0 0 0 -2 0 -1 -1 -2 0 -2 0 -2 -1 -2 0 -3 0 -2 0 -3 -1 -2 0 -3 0 -3 -1 -3 0 -3 0 -2 -1 -3 0 -3 0 -3 -1 -3 0 -2 0 -3 -1 -3 0 -2 0 -3 0 -2 -1 -2 0 -2 0 -2 0 -2 0 -2 0 -1 0 -2 13 0 0 1 0 2 0 1 0 2 0 2 0 2 0 2 1 2 0 3 0 2 0 3 1 2 0 3 0 3 1 2 0 3 0 3 1 3 0 3 0 3 1 2 0 3 0 3 1 2 0 3 0 2 1 2 0 2 0 2 0 2 1 2 0 1 0 0zm0 0c0,4 -2,7 -6,7 -3,1 -7,-2 -7,-5l13 -2zm4 37l-12 2 0 0 -1 -2 0 -1 0 -1 0 -1 0 -1 0 -1 -1 -2 0 -1 0 -1 0 -1 0 -1 0 -1 0 -1 0 -2 -1 -1 0 -1 0 -1 0 -1 0 -1 0 -1 0 -2 -1 -1 0 -1 0 -1 0 -1 0 -1 0 -1 0 -2 -1 -1 0 -1 0 -1 0 -1 13 -2 0 1 0 1 0 2 0 1 1 1 0 1 0 1 0 2 0 1 0 1 0 1 1 1 0 1 0 1 0 2 0 1 0 1 0 1 0 1 1 1 0 1 0 1 0 2 0 1 0 1 0 1 1 1 0 1 0 1 0 2 0 1 0 1 0 0zm0 0c1,3 -2,7 -5,7 -4,1 -7,-2 -7,-5l12 -2zm25 20l0 13 0 0 -3 0 -3 0 -2 0 -2 0 -2 0 -2 0 -2 0 -2 0 -2 -1 -1 0 -2 0 -2 -1 -1 0 -2 -1 -1 -1 -1 -1 -1 -1 -1 -1 -1 -2 -1 -1 0 -1 -1 -2 0 -1 0 -2 -1 -1 0 -2 0 -2 0 -2 -1 -2 0 -2 0 -2 0 -2 12 -2 1 2 0 3 0 2 0 2 1 1 0 2 0 2 0 1 0 1 1 1 0 1 0 0 0 0 0 1 0 0 0 0 0 0 1 0 0 0 0 0 1 0 1 1 1 0 1 0 1 0 2 0 2 0 2 0 2 0 2 0 3 0 3 0 0 0zm0 0c3,0 6,3 6,6 0,4 -3,7 -6,7l0 -13zm10 -31l13 1 0 0 0 2 -1 2 0 1 0 2 0 2 0 2 0 1 0 2 -1 2 0 1 0 2 0 2 0 1 -1 2 0 1 -1 2 0 1 -1 2 0 1 -1 2 -1 1 -1 2 -1 1 -1 1 -1 1 -2 1 -1 1 -2 1 -2 0 -1 1 -2 0 -2 0 0 -13 1 0 1 0 0 0 1 0 0 -1 1 0 0 0 0 0 1 -1 0 0 0 -1 1 0 0 -1 0 -1 1 -1 0 -1 0 -1 1 -1 0 -1 0 -1 0 -2 0 -1 1 -2 0 -1 0 -2 0 -1 0 -2 0 -2 0 -2 1 -1 0 -2 0 -2 0 0zm0 0c0,-4 3,-6 7,-6 3,0 6,4 6,7l-13 -1zm3 -24l13 1 0 0 0 1 0 1 -1 0 0 1 0 1 0 1 0 0 0 1 0 1 0 1 0 1 0 0 -1 1 0 1 0 1 0 0 0 1 0 1 0 1 0 0 0 1 0 1 -1 1 0 0 0 1 0 1 0 1 0 0 0 1 0 1 0 0 0 1 -13 -1 0 -1 0 -1 0 0 0 -1 0 -1 0 -1 0 0 1 -1 0 -1 0 -1 0 -1 0 0 0 -1 0 -1 0 -1 0 0 1 -1 0 -1 0 -1 0 0 0 -1 0 -1 0 -1 0 -1 0 0 0 -1 1 -1 0 0 0 -1 0 -1 0 -1 0 0 0 0zm0 0c0,-4 3,-6 7,-6 3,0 6,3 6,7l-13 -1zm9 -72l12 1 0 0 0 2 0 2 0 2 0 2 -1 2 0 3 0 2 -1 2 0 2 0 3 0 2 -1 2 0 3 0 2 -1 2 0 3 0 2 -1 3 0 2 0 2 0 3 -1 2 0 2 0 3 -1 2 0 2 0 2 0 3 -1 2 0 2 0 2 0 2 -13 -1 0 -2 0 -2 1 -3 0 -2 0 -2 0 -2 1 -3 0 -2 0 -2 1 -3 0 -2 0 -2 0 -3 1 -2 0 -2 0 -3 1 -2 0 -3 0 -2 1 -2 0 -3 0 -2 0 -2 1 -2 0 -3 0 -2 0 -2 1 -2 0 -2 0 -2 0 -2 1 -2 0 0zm0 0c0,-4 3,-6 6,-6 4,0 7,3 6,7l-12 -1zm10 -15l1 13 0 0 0 0 -1 0 0 0 0 0 0 1 0 0 0 0 0 -1 0 0 0 0 1 0 0 -1 1 0 0 -1 0 0 0 -1 0 0 0 0 0 0 0 0 0 0 0 0 0 1 0 0 0 1 0 0 0 1 0 0 0 1 0 0 0 1 0 1 -12 -1 0 -1 0 0 0 -1 0 0 0 0 0 -1 0 0 0 -1 0 0 0 0 0 -1 0 0 0 -1 0 0 0 -1 0 -1 0 0 0 -1 1 -1 1 -1 0 -1 1 0 1 -1 1 0 0 -1 1 0 0 0 1 0 1 0 0 0 1 0 1 -1 0 0zm0 0c3,0 6,2 7,6 0,4 -2,7 -6,7l-1 -13zm9 -1l6 11 0 0 -1 0 0 1 -1 0 0 0 -1 0 0 1 -1 0 0 0 0 0 -1 0 0 0 -1 0 0 0 -1 1 0 0 -1 0 0 0 0 0 -1 0 0 0 0 0 -1 0 0 0 -1 0 0 0 0 0 -1 0 0 0 0 0 -1 0 0 0 -1 0 -1 -13 0 0 1 0 0 0 1 0 0 0 1 0 0 0 0 0 1 0 0 0 0 0 1 0 0 0 0 0 1 0 0 0 0 0 0 0 0 0 0 0 1 0 0 0 0 0 0 0 0 -1 1 0 0 0 0 0 0 0 1 0 0 0 0 0 0 0zm0 0c4,-2 7,-1 9,3 2,3 0,7 -3,8l-6 -11zm6 -28l13 -1 0 0 0 1 0 1 0 1 0 1 1 1 0 1 0 1 0 1 0 2 0 1 1 1 0 2 0 1 0 1 0 2 -1 1 0 2 0 1 0 2 -1 1 0 2 -1 1 0 1 -1 2 -1 1 -1 2 -1 1 -2 1 -1 1 -2 1 -1 1 -2 1 -6 -11 1 -1 1 0 1 -1 1 -1 0 0 1 -1 0 0 1 -1 0 -1 1 0 0 -1 0 -1 0 0 0 -1 1 -1 0 -1 0 -1 0 -1 0 -1 0 -1 0 -1 0 -1 -1 -1 0 -1 0 -1 0 -1 0 -1 0 -1 0 -1 -1 -1 0 -1 0 -2 0 0zm0 0c0,-3 2,-6 6,-7 3,0 6,2 7,6l-13 1zm3 -89l10 88 -13 1 -10 -88 13 -2 0 1zm-13 1c0,-3 2,-7 6,-7 4,0 7,2 7,6l-13 1zm-4 -9l8 -9 0 0 1 0 0 0 1 1 0 0 0 1 1 0 0 1 1 0 0 1 0 0 1 1 0 0 0 1 1 0 0 1 0 0 0 1 1 0 0 1 0 0 0 1 0 0 1 1 0 1 0 0 0 1 0 0 1 1 0 0 0 1 0 1 0 0 -13 3 0 -1 0 0 0 -1 0 0 0 0 0 -1 0 0 0 -1 -1 0 0 0 0 -1 0 0 0 0 0 -1 0 0 0 0 -1 0 0 -1 0 0 0 0 0 0 0 -1 0 0 -1 0 0 0 0 0 0 -1 0 0 0 0 -1 0 0 0 0 -1 0 0zm0 0c-3,-2 -3,-6 -1,-9 2,-2 6,-3 9,0l-8 9zm-11 -3l0 -13 0 0 0 0 1 0 1 0 1 0 0 0 1 0 1 0 0 0 1 0 1 1 0 0 1 0 1 0 0 0 1 0 1 1 0 0 1 0 0 0 1 1 1 0 0 0 1 0 0 1 1 0 0 0 1 1 0 0 1 0 0 1 1 0 0 1 -8 9 0 0 -1 0 0 0 0 0 0 -1 -1 0 0 0 0 0 -1 0 0 0 0 -1 0 0 -1 0 0 0 0 0 -1 0 0 0 0 0 -1 -1 0 0 0 0 -1 0 0 0 -1 0 0 0 0 0 -1 0 0 0 -1 0 0 0 -1 0 0 0 0 0zm0 0c-4,0 -7,-3 -7,-7 0,-3 3,-6 7,-6l0 13zm-64 -13l64 0 0 13 -64 0 0 0 0 -13zm0 13c-3,0 -6,-3 -6,-7 0,-3 3,-6 6,-6l0 13zm8 8l-13 1 0 0 0 -1 0 -1 0 -1 0 0 -1 -1 0 -1 0 0 0 -1 0 -1 0 0 -1 -1 0 0 0 -1 0 0 -1 -1 0 0 0 -1 0 0 0 -1 -1 -1 0 -1 0 -1 0 -2 1 -1 1 -2 2 -1 1 0 1 -1 1 0 1 0 1 0 0 0 0 13 0 0 0 0 0 0 0 0 1 0 0 -1 1 -1 1 -1 1 -1 0 -1 0 -1 0 0 0 -1 0 0 0 1 0 0 0 0 0 1 1 0 0 1 0 1 1 0 0 1 0 1 0 1 1 1 0 1 0 1 0 1 1 1 0 2 0 1 0 0zm0 0c0,4 -2,7 -6,7 -4,0 -7,-2 -7,-6l13 -1zm-6 63l-7 -62 13 -1 7 62 -13 1 0 0zm13 -1c0,3 -2,6 -6,7 -3,0 -7,-2 -7,-6l13 -1zm4 40l-12 2 0 0 0 -1 -1 -1 0 -2 0 -1 0 -1 0 -2 -1 -1 0 -1 0 -2 0 -1 0 -1 0 -2 0 -1 -1 -1 0 -2 0 -1 0 -1 0 -1 0 -2 0 -1 0 -1 -1 -2 0 -1 0 -1 0 -1 0 -2 0 -1 0 -1 -1 -1 0 -2 0 -1 0 -1 13 -2 0 2 0 1 0 1 0 1 1 2 0 1 0 1 0 2 0 1 0 1 0 1 0 2 1 1 0 1 0 2 0 1 0 1 0 1 0 2 1 1 0 1 0 2 0 1 0 1 0 2 0 1 1 1 0 1 0 2 0 1 0 1 0 1 0 0zm0 0c1,4 -1,7 -5,8 -3,0 -7,-2 -7,-6l12 -2zm-14 31l-13 0 5 -6 0 0 1 0 0 0 0 -1 1 0 0 0 1 -1 1 0 0 -1 1 -1 0 0 1 -1 0 -1 0 0 1 -1 0 -1 1 -1 0 -1 0 -1 1 -1 0 -1 0 -1 0 -1 1 -1 0 -1 0 -1 0 -1 0 0 0 -1 0 -1 0 -1 0 -1 12 -2 1 2 0 1 0 2 0 1 0 1 0 2 -1 1 0 1 0 2 0 1 -1 2 0 1 0 1 -1 2 0 1 -1 1 -1 1 0 2 -1 1 -1 1 -1 1 0 1 -1 2 -1 1 -1 1 -1 0 -1 1 -2 1 -1 1 -1 1 -2 0 -1 1 5 -7zm-5 7c-3,1 -7,-2 -8,-5 -1,-3 1,-7 5,-8l3 13z"/>
       <path id="1" class="fil2" d="M590 400c0,12 6,59 8,74 2,13 3,24 5,37 3,26 0,25 31,25 16,0 14,-17 16,-36 1,-8 3,-17 3,-25 2,-22 7,-51 9,-72 1,-6 -2,-7 4,-8 6,-1 7,0 12,-3 16,-7 11,-23 10,-33l-10 -89c-1,-5 -3,-10 -7,-12 -4,-4 -8,-6 -15,-6l-64 0c-6,0 1,3 2,16l6 61c2,13 3,28 5,41 2,11 -5,28 -15,30z"/>
      </g>
      <g>
       <path class="fil1" d="M530 228l0 13 0 0 -2 0 -2 0 -2 0 -2 -1 -2 0 -1 -1 -2 0 -2 -1 -2 -1 -2 -1 -2 -1 -1 -1 -2 -1 -2 -2 -1 -1 -2 -1 -1 -2 -2 -1 -1 -2 -1 -2 -1 -1 -1 -2 -1 -2 -1 -2 -1 -2 -1 -2 0 -2 -1 -2 0 -2 -1 -3 0 -2 0 -2 13 0 0 1 0 2 0 2 1 1 0 1 0 2 1 1 0 2 1 1 1 1 1 2 0 1 1 1 1 1 1 1 1 2 1 1 2 1 1 0 1 1 1 1 1 1 2 1 1 0 1 1 2 0 1 1 1 0 1 0 2 0 1 0 1 0 0 0zm0 0c4,0 7,3 7,7 0,3 -3,6 -7,6l0 -13zm22 -50l9 -9 0 0 2 2 3 3 1 3 2 3 1 3 2 3 0 3 1 3 0 3 1 3 -1 3 0 3 -1 3 0 3 -1 3 -1 3 -2 2 -1 3 -2 3 -2 2 -2 2 -2 2 -2 2 -3 2 -2 2 -3 1 -3 1 -3 1 -3 1 -3 1 -3 0 -4 0 0 -13 3 0 2 0 2 0 2 -1 2 -1 2 -1 2 -1 2 -1 2 -1 1 -1 2 -2 1 -1 2 -2 1 -2 1 -2 1 -2 1 -2 0 -2 1 -2 0 -2 1 -2 0 -2 0 -2 -1 -2 0 -2 -1 -2 0 -2 -1 -2 -2 -2 -1 -2 -1 -2 -2 -2 0 0zm0 0c-3,-3 -3,-7 0,-9 2,-3 6,-3 9,0l-9 9zm-51 20l-13 0 0 0 0 -3 1 -3 0 -3 1 -3 1 -3 1 -3 2 -3 1 -2 2 -3 2 -2 2 -2 2 -2 3 -2 2 -2 2 -1 3 -1 3 -2 3 -1 3 0 3 -1 3 0 3 0 3 0 3 0 3 1 3 0 3 2 3 1 3 2 3 2 3 2 3 3 -9 9 -2 -2 -2 -2 -2 -1 -3 -2 -2 -1 -2 0 -2 -1 -2 0 -2 -1 -2 0 -2 0 -2 1 -2 0 -2 1 -2 0 -2 1 -2 1 -2 1 -2 1 -1 2 -2 1 -2 2 -1 1 -1 2 -1 2 -1 2 -1 2 -1 2 0 2 -1 2 0 2 0 2 0 0zm0 0c0,3 -3,6 -7,6 -3,0 -6,-3 -6,-6l13 0z"/>
       <path id="1" class="fil2" d="M494 198c0,21 19,37 36,37 31,0 51,-38 26,-62 -25,-25 -62,-3 -62,25z"/>
      </g>
      <g>
       <path class="fil1" d="M654 210l12 0 0 0 0 2 0 1 0 2 0 2 -1 2 -1 1 0 2 -1 2 -1 1 -1 2 -1 2 -1 1 -1 2 -1 1 -1 1 -1 2 -2 1 -1 1 -2 1 -1 2 -2 1 -2 1 -1 1 -2 0 -2 1 -2 1 -2 0 -2 1 -2 0 -2 1 -2 0 -2 0 0 -13 2 0 1 0 1 0 2 -1 1 0 1 0 1 -1 2 0 1 -1 1 -1 1 0 1 -1 1 -1 2 -1 1 0 1 -1 0 -1 1 -1 1 -1 1 -1 1 -1 0 -2 1 -1 0 -1 1 -1 0 -1 1 -1 0 -1 0 -1 0 -1 1 -1 0 -1 0 0zm0 0c0,-4 2,-7 6,-7 4,0 6,3 6,7l-12 0zm-9 -23l9 -9 0 0 1 1 1 0 0 1 1 1 1 1 1 1 0 1 1 1 1 1 0 1 1 1 0 1 1 1 0 1 1 1 0 1 0 1 1 1 0 1 0 1 0 1 1 1 0 1 0 1 0 1 0 1 0 1 0 1 0 1 0 2 0 1 0 1 -12 0 0 -1 0 -1 -1 -1 0 -1 0 -1 0 -1 0 0 0 -1 0 -1 0 -1 0 -1 0 0 -1 -1 0 -1 0 0 0 -1 0 -1 -1 0 0 -1 0 0 -1 -1 0 -1 0 0 -1 -1 0 -1 -1 0 0 -1 -1 0 0 -1 -1 -1 0 0 -1 -1 0 0zm0 0c-3,-3 -3,-7 0,-9 2,-3 6,-3 9,0l-9 9zm-47 20l-13 -1 0 0 0 -3 1 -3 0 -3 1 -3 1 -3 2 -2 1 -3 2 -2 1 -3 2 -2 2 -2 3 -2 2 -1 2 -2 3 -1 2 -1 3 -1 3 -1 2 -1 3 0 3 -1 3 0 3 1 2 0 3 0 3 1 3 1 3 1 2 2 3 2 2 2 3 2 -9 9 -2 -2 -1 -1 -2 -1 -2 -1 -2 -1 -2 -1 -2 0 -2 0 -1 -1 -2 0 -2 0 -2 0 -2 1 -2 0 -2 1 -2 1 -1 0 -2 1 -2 1 -1 1 -2 2 -1 1 -2 2 -1 1 -1 2 -1 2 -1 1 -1 2 0 2 -1 2 0 3 0 2 0 0zm0 0c0,3 -3,6 -7,6 -3,0 -6,-3 -6,-7l13 1zm28 28l0 13 0 0 -2 0 -2 0 -2 -1 -2 0 -2 0 -2 -1 -2 -1 -2 0 -2 -1 -1 -1 -2 -1 -2 -1 -1 -1 -2 -2 -1 -1 -2 -1 -1 -2 -2 -1 -1 -2 -1 -2 -1 -1 -1 -2 -1 -2 -1 -2 -1 -1 0 -2 -1 -2 0 -2 -1 -2 0 -2 0 -2 0 -3 13 1 0 1 0 2 0 1 0 1 1 2 0 1 1 1 0 1 1 2 0 1 1 1 1 1 0 1 1 1 1 1 1 1 1 1 1 1 1 1 1 1 2 1 1 0 1 1 1 1 2 0 1 1 1 0 2 0 1 1 1 0 2 0 1 0 0 0zm0 0c4,0 7,3 7,6 0,4 -3,7 -7,7l0 -13z"/>
       <path id="1" class="fil2" d="M626 241c19,0 34,-16 34,-31 0,-12 -2,-19 -11,-28 -21,-20 -57,-5 -57,25 -1,18 15,34 34,34z"/>
      </g>
      <g>
       <path class="fil1" d="M459 207l13 1 0 0 0 4 -1 5 -1 4 -2 4 -2 3 -2 4 -2 3 -3 2 -3 3 -3 2 -4 2 -3 1 -4 1 -3 1 -4 0 -4 1 -3 -1 -4 0 -4 -1 -3 -1 -4 -2 -3 -1 -3 -3 -3 -2 -3 -3 -3 -3 -2 -4 -2 -3 -1 -4 -1 -5 -1 -5 0 -5 13 0 0 4 1 4 0 3 1 3 2 2 1 3 2 2 1 2 2 1 2 2 3 1 2 1 3 1 2 0 3 1 2 0 3 0 2 -1 3 0 3 -1 2 -1 2 -1 2 -2 2 -1 2 -2 2 -2 1 -2 2 -3 1 -2 1 -3 0 -3 0 -4 0 0zm0 0c0,-3 3,-6 7,-6 3,0 6,3 6,7l-13 -1zm-28 -28l0 -13 0 0 2 0 3 1 2 0 2 0 2 1 2 0 1 1 2 1 2 1 2 0 2 1 1 2 2 1 1 1 2 1 1 2 2 1 1 2 1 1 1 2 1 1 1 2 1 2 1 2 1 2 1 2 0 2 0 1 1 3 0 2 0 2 0 2 -13 -1 0 -1 0 -1 0 -2 0 -1 0 -1 -1 -2 0 -1 -1 -1 0 -2 -1 -1 -1 -1 0 -1 -1 -1 -1 -1 -1 -1 -1 -1 -1 -1 -1 -1 -1 -1 -1 -1 -1 -1 -1 0 -2 -1 -1 0 -1 -1 -1 0 -2 -1 -1 0 -1 0 -2 -1 -1 0 -2 0 0 0zm0 0c-3,0 -6,-3 -6,-6 0,-4 3,-7 6,-7l0 13zm-27 26l-13 0 0 0 0 -2 0 -2 1 -1 0 -2 0 -2 1 -2 1 -2 0 -2 1 -1 1 -2 1 -2 1 -1 1 -2 2 -1 1 -2 1 -1 2 -1 1 -2 2 -1 1 -1 2 -1 2 -1 1 -1 2 0 2 -1 2 -1 2 0 1 -1 2 0 2 0 2 -1 2 0 0 13 -1 0 -1 0 -2 1 -1 0 -1 0 -1 0 -2 1 -1 0 -1 1 -1 0 -2 1 -1 1 -1 1 -1 0 -1 1 -1 1 -1 1 -1 1 0 1 -1 1 -1 1 -1 1 0 1 -1 2 0 1 -1 1 0 1 0 1 -1 2 0 1 0 1 0 1 0 0zm0 0c0,4 -3,7 -6,7 -4,0 -7,-3 -7,-7l13 0z"/>
       <path id="1" class="fil2" d="M398 205c0,49 67,47 68,3 0,-19 -16,-35 -35,-35 -17,0 -33,15 -33,32z"/>
      </g>
     </g>
     <g>
      <g>
       <path class="fil1" d="M359 544l-13 0 7 6 -2 0 -1 0 -2 0 -2 0 -1 0 -2 0 -1 -1 -2 0 -1 -1 -2 0 -1 0 -1 -1 -2 -1 -1 0 -1 -1 -2 -1 -1 -1 -1 -1 -1 -1 -1 -1 -1 -1 -1 -1 -1 -1 -1 -1 -1 -2 0 -1 -1 -2 0 -1 -1 -2 0 -1 0 -2 0 -2 13 0 0 1 0 1 0 1 0 1 0 0 1 1 0 1 0 0 1 1 0 0 1 1 0 0 1 1 0 0 1 1 0 0 1 1 1 0 1 1 1 0 1 0 1 1 1 0 1 0 1 1 1 0 1 0 1 0 1 0 1 0 2 0 1 0 6 7zm-6 -7c3,0 6,3 6,7 0,3 -3,6 -6,6l0 -13zm20 129l-12 2 0 0 -1 -2 0 -2 0 -3 -1 -3 0 -3 0 -4 -1 -3 0 -5 -1 -4 -1 -5 0 -4 -1 -5 0 -5 -1 -5 -1 -6 0 -5 -1 -5 0 -5 -1 -5 -1 -5 0 -5 -1 -4 0 -5 -1 -4 0 -4 0 -4 -1 -3 0 -3 0 -3 0 -2 -1 -2 0 -1 13 0 0 1 0 1 0 2 1 3 0 3 0 3 1 4 0 4 1 4 0 4 1 5 0 5 1 4 0 5 1 6 1 5 0 5 1 5 0 5 1 5 1 5 0 5 1 4 0 5 1 4 0 4 1 4 0 3 1 3 0 2 0 3 0 1 0 0zm0 0c1,4 -2,7 -5,7 -4,1 -7,-2 -7,-5l12 -2zm26 22l0 13 0 0 -3 0 -3 0 -2 0 -2 0 -2 0 -2 -1 -2 0 -2 0 -2 0 -1 0 -2 -1 -2 0 -1 -1 -2 0 -1 -1 -1 -1 -2 -2 -1 -1 -1 -1 0 -2 -1 -1 0 -2 -1 -1 0 -2 -1 -2 0 -1 0 -2 0 -2 -1 -2 0 -3 0 -2 0 -2 12 -2 1 3 0 2 0 2 0 2 1 2 0 2 0 1 0 1 1 2 0 1 0 0 0 1 1 0 0 1 0 0 0 0 0 0 1 0 0 0 0 1 1 0 1 0 1 0 1 0 2 0 1 1 2 0 2 0 2 0 2 0 3 0 3 0 0 0zm0 0c3,0 6,3 6,6 0,4 -3,7 -6,7l0 -13zm8 -4l12 5 0 0 -1 1 0 1 0 0 -1 1 0 1 -1 0 0 1 -1 0 0 1 -1 0 -1 1 0 0 -1 1 0 0 -1 1 -1 0 0 0 -1 1 -1 0 0 0 -1 0 -1 1 -1 0 0 0 -1 0 -1 0 -1 0 0 0 -1 1 -1 0 -1 0 0 0 0 -13 0 0 0 0 1 0 0 0 1 0 0 0 0 -1 1 0 0 0 0 0 1 0 0 0 1 0 0 0 0 0 0 -1 1 0 0 0 0 0 0 0 1 0 0 0 0 -1 0 0 0 0 0 0 0 0 1 0 0 0 0 -1 0 0 0 0 0 0zm0 0c1,-3 5,-5 8,-3 3,1 5,5 4,8l-12 -5zm7 -59l13 2 0 0 0 1 0 1 0 1 -1 1 0 2 0 2 0 2 0 2 -1 2 0 2 0 3 0 2 -1 3 0 2 0 3 -1 2 0 3 0 2 -1 3 0 2 0 3 0 2 -1 2 0 2 0 2 -1 2 0 2 0 1 0 2 -1 1 0 1 0 1 -12 -5 0 0 0 0 0 -1 0 -1 0 -1 1 -2 0 -2 0 -1 0 -2 1 -3 0 -2 0 -2 1 -3 0 -2 0 -3 1 -2 0 -3 0 -2 0 -3 1 -2 0 -3 0 -2 1 -2 0 -3 0 -2 0 -2 0 -1 1 -2 0 -2 0 -1 0 -1 0 -1 0 0zm0 0c1,-3 4,-6 7,-5 4,0 6,3 6,7l-13 -2zm5 -41l13 2 0 0 0 1 0 1 -1 2 0 1 0 1 0 1 0 2 0 1 0 1 -1 1 0 2 0 1 0 1 0 2 0 1 -1 1 0 2 0 1 0 1 0 2 0 1 0 1 -1 1 0 2 0 1 0 1 0 2 0 1 -1 1 0 1 0 2 0 1 -13 -2 0 -1 1 -1 0 -2 0 -1 0 -1 0 -1 0 -2 0 -1 1 -1 0 -1 0 -2 0 -1 0 -1 0 -2 1 -1 0 -1 0 -1 0 -2 0 -1 0 -1 0 -2 1 -1 0 -1 0 -2 0 -1 0 -1 0 -1 1 -2 0 -1 0 -1 0 -1 0 -2 0 0zm0 0c1,-3 4,-6 7,-5 4,0 6,3 6,7l-13 -2zm3 -20l12 1 0 0 0 1 0 1 0 0 0 1 0 1 0 0 0 1 0 1 0 0 0 1 0 0 0 1 -1 1 0 0 0 1 0 1 0 0 0 1 0 0 0 1 0 1 0 0 0 1 0 1 -1 0 0 1 0 1 0 0 0 1 0 1 0 0 0 1 -13 -2 0 0 0 -1 0 -1 0 0 1 -1 0 -1 0 0 0 -1 0 -1 0 0 0 -1 0 -1 0 0 0 -1 0 0 0 -1 1 -1 0 0 0 -1 0 0 0 -1 0 -1 0 0 0 -1 0 0 0 -1 0 -1 0 0 0 -1 0 -1 0 0 1 -1 0 0zm0 0c0,-3 3,-6 6,-6 4,1 7,4 6,7l-12 -1zm8 -27l0 13 7 -6 0 1 -1 0 0 1 0 1 0 1 0 1 0 0 0 1 0 1 0 0 0 1 0 1 0 0 0 1 0 1 0 0 0 1 -1 1 0 0 0 1 0 1 0 0 0 1 0 0 0 1 0 1 0 0 0 1 0 0 -1 1 0 1 0 0 -12 -1 0 -1 0 0 0 -1 0 -1 0 0 0 -1 0 -1 0 0 0 -1 0 -1 0 0 1 -1 0 -1 0 0 0 -1 0 0 0 -1 0 -1 0 0 0 -1 0 0 0 -1 0 -1 0 0 0 -1 1 0 0 -1 0 -1 0 0 0 -1 0 0 0 -1 6 -7zm-6 7c0,-4 3,-7 6,-7 4,0 7,3 7,7l-13 0zm22 -10l9 9 0 0 -1 1 -1 0 0 1 -1 0 -1 1 -1 0 0 1 -1 0 -1 1 -1 0 0 0 -1 1 -1 0 -1 0 -1 0 0 0 -1 1 -1 0 -1 0 -1 0 0 0 -1 0 -1 0 -1 0 0 0 -1 0 -1 0 -1 0 -1 0 0 0 -1 0 -1 0 0 -13 1 0 1 0 0 0 1 0 1 0 0 0 1 0 1 0 0 0 1 0 0 0 1 0 0 0 1 0 0 0 1 0 0 0 1 0 0 0 1 -1 0 0 0 0 1 0 0 0 0 0 1 -1 0 0 1 0 0 0 0 -1 1 0 0 0 0 0zm0 0c3,-3 7,-3 9,0 3,2 3,7 0,9l-9 -9zm4 -28l13 -1 0 -1 0 2 0 1 1 1 0 2 0 1 0 1 0 1 0 2 1 1 0 1 0 1 0 1 0 2 0 1 0 1 0 1 0 1 -1 2 0 1 0 1 0 1 -1 2 0 1 -1 1 -1 1 0 1 -1 1 -1 2 -1 1 -1 1 -1 1 -1 1 -9 -9 1 -1 1 -1 0 -1 1 0 0 -1 1 -1 0 0 1 -1 0 -1 0 0 0 -1 0 0 1 -1 0 -1 0 0 0 -1 0 -1 0 0 0 -1 0 -1 0 -1 0 -1 0 -1 0 -1 0 -1 -1 -1 0 -1 0 -1 0 -2 0 -1 0 -1 -1 -2 0 0zm0 0c0,-3 2,-7 6,-7 3,-1 7,2 7,5l-13 2zm3 -94l10 93 -13 1 -10 -93 0 0 13 -1zm-13 1c0,-4 2,-7 6,-7 3,-1 6,2 7,6l-13 1zm-16 -14l0 -13 0 0 1 0 1 0 2 0 1 1 2 0 1 0 1 0 2 1 1 0 1 1 1 0 1 1 1 1 2 1 1 0 1 1 1 1 0 1 1 1 1 1 1 1 1 1 0 1 1 1 0 2 1 1 0 1 1 1 0 2 0 1 1 1 0 2 -13 1 0 -1 0 -1 0 -1 -1 0 0 -1 0 -1 0 0 -1 -1 0 -1 0 0 -1 -1 0 0 0 -1 -1 0 0 -1 -1 0 0 -1 -1 0 0 0 -1 -1 -1 0 0 0 -1 -1 -1 0 0 0 -1 0 -1 -1 -1 0 -1 0 -1 0 0 0 -1 0 0 0zm0 0c-4,0 -7,-3 -7,-6 0,-4 3,-7 7,-7l0 13zm-65 -13l65 0 0 13 -65 0 0 0 0 -13zm0 13c-3,0 -6,-3 -6,-6 0,-4 3,-7 6,-7l0 13zm-20 50l-13 -1 0 0 0 -3 0 -3 1 -2 0 -3 0 -2 0 -3 0 -2 1 -3 0 -2 0 -3 1 -2 0 -3 0 -2 1 -2 0 -3 1 -2 1 -2 0 -2 1 -2 1 -2 2 -2 1 -2 1 -2 2 -2 2 -1 2 -1 2 -1 3 -1 2 -1 3 0 2 -1 3 0 0 13 -2 0 -1 0 -2 1 -1 0 -2 0 -1 1 -1 1 -1 0 0 1 -1 1 -1 1 0 1 -1 1 -1 2 0 1 -1 2 0 1 -1 2 0 2 0 2 -1 2 0 3 0 2 -1 2 0 3 0 2 0 3 0 2 -1 3 0 3 0 2 0 3 0 0zm0 0c-1,4 -4,6 -7,6 -4,-1 -6,-4 -6,-7l13 1zm-4 37l-13 -1 0 0 0 -1 0 -2 0 -1 0 -1 1 -1 0 -1 0 -1 0 -2 0 -1 0 -1 0 -1 1 -1 0 -1 0 -1 0 -2 0 -1 0 -1 0 -1 0 -1 0 -1 1 -1 0 -2 0 -1 0 -1 0 -1 0 -1 0 -1 0 -2 1 -1 0 -1 0 -1 0 -1 13 1 0 1 -1 1 0 2 0 1 0 1 0 1 0 1 0 1 0 2 -1 1 0 1 0 1 0 1 0 1 0 1 0 2 0 1 0 1 -1 1 0 1 0 1 0 2 0 1 0 1 0 1 0 1 -1 1 0 2 0 1 0 1 0 1 0 1 0 0zm0 0c-1,4 -4,6 -8,6 -3,-1 -6,-4 -5,-7l13 1zm-3 19l-12 -2 0 0 0 0 0 -1 0 -1 0 0 0 -1 0 0 0 -1 0 0 0 -1 0 -1 0 0 0 -1 1 0 0 -1 0 0 0 -1 0 0 0 -1 0 -1 0 0 0 -1 0 0 0 -1 0 0 0 -1 0 -1 0 0 1 -1 0 0 0 -1 0 -1 0 0 13 1 0 1 -1 1 0 0 0 1 0 0 0 1 0 1 0 0 0 1 0 0 0 1 0 0 0 1 0 0 0 1 0 1 -1 0 0 1 0 0 0 1 0 0 0 1 0 0 0 1 0 1 0 0 0 1 0 0 0 1 0 1 -1 0 0 1 0 0zm0 0c0,3 -3,6 -7,5 -3,0 -6,-3 -5,-7l12 2zm-1 18l-13 0 0 0 0 0 0 -1 0 -1 0 -1 0 0 0 -1 0 0 0 -1 0 -1 0 0 0 -1 0 -1 0 0 0 -1 0 0 0 -1 1 -1 0 0 0 -1 0 0 0 -1 0 -1 0 0 0 -1 0 0 0 -1 0 -1 0 0 0 -1 0 -1 1 0 0 -1 12 2 0 1 0 0 0 1 0 0 0 1 0 1 0 0 0 1 0 0 0 1 0 0 0 1 -1 0 0 1 0 1 0 0 0 1 0 0 0 1 0 0 0 1 0 0 0 1 0 0 0 1 0 1 0 0 0 1 0 0 0 1 0 1 0 0 0 0zm0 0c0,4 -3,7 -7,7 -3,0 -6,-3 -6,-7l13 0z"/>
       <path id="1" class="fil2" d="M324 523c0,14 14,21 29,21 0,10 12,107 14,123 3,27 2,27 32,27 6,0 12,-3 14,-7 2,-5 7,-53 8,-61 1,-13 3,-28 5,-41 0,-7 1,-13 2,-20 1,-7 2,-13 2,-21 9,0 14,0 21,-6 10,-10 8,-18 6,-33l-11 -93c-1,-11 -10,-19 -22,-19l-65 0c-26,0 -24,27 -27,55 -1,13 -2,25 -4,38 -1,6 -1,11 -2,18 -1,7 -2,12 -2,19z"/>
      </g>
      <g>
       <path class="fil1" d="M261 538l-12 3 6 5 -2 0 -1 0 -1 0 -1 0 -2 0 -1 -1 -1 0 -2 0 -1 0 -1 -1 -2 0 -1 -1 -1 0 -2 -1 -1 0 -1 -1 -1 -1 -1 -1 -1 0 -2 -1 -1 -1 -1 -1 -1 -2 0 -1 -1 -1 -1 -2 0 -1 -1 -1 0 -2 -1 -2 0 -1 0 -2 13 0 0 1 0 1 0 0 0 1 1 1 0 0 0 1 0 0 1 1 0 0 1 1 0 0 1 1 0 0 1 0 0 1 1 0 1 1 1 0 1 0 0 1 1 0 1 0 1 0 1 0 1 1 1 0 1 0 1 0 1 0 1 0 1 0 6 5zm-6 -5c3,0 6,3 6,7 0,3 -3,6 -6,6l0 -13zm22 137l-12 4 0 0 0 -1 -1 -2 0 -2 0 -2 -1 -3 0 -4 -1 -4 0 -4 -1 -4 0 -5 -1 -5 0 -5 -1 -6 -1 -6 0 -5 -1 -6 -1 -6 0 -6 -1 -5 0 -6 -1 -5 -1 -6 0 -5 -1 -5 -1 -4 0 -5 -1 -4 0 -3 0 -3 -1 -3 0 -2 0 -1 12 -3 0 2 1 2 0 3 1 3 0 4 1 4 0 4 1 5 0 5 1 5 1 5 0 6 1 5 1 6 0 6 1 6 1 5 0 6 1 6 0 5 1 5 1 5 0 5 1 5 0 4 1 4 0 3 0 3 1 2 0 2 0 1 0 0 0 0zm0 0c1,4 -1,7 -4,9 -3,1 -7,-1 -8,-5l12 -4zm22 5l0 13 0 0 -1 0 -1 0 -1 0 -1 0 -1 0 -1 0 -2 0 -1 0 -1 0 -1 0 -1 0 -1 0 -2 0 -1 0 -1 -1 -1 0 -1 0 -1 0 -2 -1 -1 0 -1 0 -1 -1 -1 -1 -1 0 -2 -1 -1 -1 -1 -1 0 -1 -1 -1 -1 -2 -1 -1 0 -2 12 -4 0 1 1 0 0 1 0 0 0 1 0 0 1 0 0 0 0 0 1 1 0 0 0 0 1 0 1 0 0 0 1 1 1 0 0 0 1 0 1 0 1 0 1 0 1 0 1 0 1 0 1 0 1 0 2 0 1 0 1 0 1 0 1 0 0 0zm0 0c4,0 7,3 7,6 0,4 -3,7 -7,7l0 -13zm10 -21l13 1 -1 0 0 1 0 2 0 1 0 1 0 1 0 2 0 1 0 1 -1 1 0 2 0 1 0 1 0 1 -1 2 0 1 0 1 -1 1 0 2 -1 1 -1 1 -1 1 -1 1 -1 1 -1 1 -1 1 -2 1 -1 0 -2 1 -1 0 -2 0 -2 0 -2 1 0 -13 2 0 1 0 0 -1 1 0 1 0 0 0 1 0 0 0 0 -1 0 0 1 0 0 0 0 -1 0 0 0 0 1 -1 0 -1 0 0 0 -1 0 -1 0 -1 1 -1 0 -1 0 -1 0 -1 0 -1 0 -2 0 -1 0 -1 0 -2 1 -1 0 -2 0 1zm0 -1c0,-3 3,-6 7,-5 4,0 6,4 5,7l-12 -2zm25 -102l-12 104 -13 -1 12 -104 0 0 13 1zm-13 -1c1,-4 4,-7 7,-6 4,0 7,4 6,7l-13 -1zm-9 -17l12 -5 0 0 1 1 0 1 1 1 0 1 0 0 1 1 0 0 1 1 0 0 0 0 0 1 1 0 0 0 0 0 1 1 0 0 1 1 0 0 1 1 0 0 1 1 0 1 1 1 0 1 0 1 0 1 0 1 0 1 0 1 0 2 0 1 0 1 -13 -1 0 -2 1 0 0 -1 0 -1 0 0 0 -1 0 0 0 0 0 0 0 0 0 1 0 0 0 0 0 0 0 0 0 0 0 0 -1 -1 0 0 -1 0 0 -1 -1 0 -1 -1 0 -1 -1 -1 -1 -1 0 -1 -1 -1 -1 -1 0 -1 -1 -1 -1 -2 0 0zm0 0c-1,-3 0,-7 4,-8 3,-2 7,0 8,3l-12 5zm-1 -21l12 1 0 0 0 1 0 1 0 0 0 1 0 0 0 1 0 1 0 0 0 1 0 0 0 1 0 0 0 0 0 1 0 0 0 1 0 0 0 1 0 0 0 0 0 1 0 0 0 0 0 1 0 0 0 0 0 1 0 0 1 1 0 0 0 1 0 0 -12 5 0 -1 0 0 0 -1 -1 -1 0 0 0 -1 0 -1 0 -1 -1 0 0 -1 0 -1 0 0 0 -1 0 -1 0 0 0 -1 0 -1 0 0 0 -1 0 -1 0 0 0 -1 0 0 0 -1 0 -1 0 0 0 -1 0 -1 0 0 0 -1 1 -1 0 0 0 0zm0 0c0,-4 3,-6 7,-6 3,1 6,4 5,7l-12 -1zm21 -75l-9 76 -12 -1 8 -77 13 2 0 0zm-13 -2c1,-3 4,-6 7,-5 4,0 6,3 6,7l-13 -2zm10 -30l6 -12 3 9 0 1 -1 0 0 1 0 1 -1 0 0 1 0 1 0 1 -1 1 0 1 0 2 0 1 0 1 -1 1 0 1 0 2 0 1 0 1 0 1 -1 2 0 1 0 1 0 2 0 1 0 1 0 1 0 1 -1 2 0 1 0 1 0 1 0 1 -13 -1 0 -1 0 -1 1 -1 0 -2 0 -1 0 -1 0 -1 0 -1 0 -2 0 -1 0 -1 1 -2 0 -1 0 -1 0 -2 0 -1 0 -1 1 -2 0 -1 0 -1 0 -2 1 -1 0 -1 0 -2 1 -1 0 -1 0 -1 1 -2 0 -1 0 -1 1 -1 0 -1 3 9zm-3 -9c2,-3 6,-4 9,-3 3,2 4,6 3,9l-12 -6zm-66 7l0 -13 0 0 2 0 1 0 2 0 2 0 2 0 2 0 2 0 3 0 2 0 3 0 2 0 3 0 3 0 3 0 3 0 3 0 3 0 2 0 3 0 3 0 3 0 2 0 3 0 2 1 3 0 2 0 2 0 2 0 2 1 2 0 1 1 2 0 -6 12 0 0 -1 0 -1 -1 -1 0 -2 0 -1 0 -2 0 -3 -1 -2 0 -2 0 -3 0 -2 0 -3 0 -3 0 -2 0 -3 0 -3 0 -3 0 -3 0 -3 0 -2 0 -3 0 -3 0 -2 0 -3 0 -2 0 -2 0 -2 0 -2 0 -2 0 -1 0 -2 0 0 0zm0 0c-3,0 -6,-3 -6,-6 0,-4 3,-7 6,-7l0 13zm-15 30l-13 -1 0 0 0 -1 0 -1 0 -2 0 -1 0 -1 1 -2 0 -1 0 -2 0 -1 0 -2 0 -2 1 -1 0 -2 1 -2 0 -1 1 -2 0 -2 1 -1 1 -2 1 -2 1 -1 1 -2 1 -1 2 -1 1 -1 2 -2 2 0 2 -1 2 -1 2 0 3 0 2 -1 0 13 -1 0 -2 1 -1 0 -1 0 -1 0 -1 1 0 0 -1 1 -1 0 0 1 -1 1 0 0 -1 1 0 1 -1 1 0 1 -1 1 0 2 0 1 -1 1 0 1 0 2 0 1 0 2 -1 1 0 1 0 2 0 1 0 1 0 2 0 1 0 1 0 0zm0 0c-1,4 -4,6 -7,6 -4,0 -6,-3 -6,-7l13 1zm-10 88l-13 0 0 0 0 -1 0 -2 0 -2 1 -2 0 -2 0 -2 0 -3 1 -3 0 -3 0 -3 1 -3 0 -3 0 -3 1 -4 0 -3 1 -4 0 -3 0 -4 1 -4 0 -3 1 -3 0 -4 0 -3 1 -3 0 -3 1 -3 0 -3 0 -2 0 -2 1 -3 0 -1 0 -2 13 1 0 2 -1 2 0 2 0 2 0 3 -1 2 0 3 0 3 -1 3 0 4 -1 3 0 4 0 3 -1 4 0 3 -1 4 0 3 0 4 -1 3 0 3 -1 4 0 3 0 3 -1 3 0 3 0 2 0 2 -1 2 0 2 0 2 0 1 0 1 0 0zm0 0c0,4 -3,6 -6,6 -4,0 -7,-2 -7,-6l13 0z"/>
       <path id="1" class="fil2" d="M229 521c0,14 14,19 26,19 3,13 14,127 16,132 4,11 16,9 28,9 17,0 14,-12 16,-27l13 -104c1,-13 -3,-5 -10,-19 -2,-7 -2,-11 -1,-18l9 -77c1,-10 2,-29 6,-37 -9,-4 -59,-2 -72,-2 -21,0 -20,23 -22,36 -1,15 -9,78 -9,88z"/>
      </g>
      <g>
       <path class="fil1" d="M465 618l-13 1 0 0 0 -1 0 -2 0 -1 0 -2 -1 -3 0 -2 0 -2 -1 -3 0 -2 0 -3 -1 -3 0 -2 0 -3 -1 -3 0 -3 0 -3 -1 -2 0 -3 0 -3 -1 -3 0 -2 0 -3 0 -3 -1 -2 0 -2 0 -3 0 -2 0 -2 0 -1 -1 -2 0 -2 0 -1 13 0 0 1 0 1 0 2 0 1 1 2 0 2 0 2 0 3 0 2 1 3 0 2 0 3 0 3 1 2 0 3 0 3 1 3 0 3 0 2 1 3 0 3 0 3 1 2 0 3 0 2 1 3 0 2 0 2 1 2 0 2 0 1 0 2 0 0zm0 0c1,3 -2,6 -5,7 -4,0 -7,-2 -8,-6l13 -1zm5 37l-13 1 0 0 0 -1 0 -1 0 -1 -1 -1 0 -2 0 -1 0 -1 0 -1 0 -1 0 -1 -1 -2 0 -1 0 -1 0 -1 0 -1 0 -1 0 -1 -1 -2 0 -1 0 -1 0 -1 0 -1 0 -1 0 -1 0 -1 -1 -2 0 -1 0 -1 0 -1 0 -1 0 -1 -1 -2 13 -1 0 1 1 1 0 1 0 1 0 2 0 1 0 1 0 1 1 1 0 1 0 2 0 1 0 1 0 1 0 1 1 1 0 1 0 2 0 1 0 1 0 1 0 1 0 1 1 1 0 1 0 2 0 1 0 1 0 1 0 1 1 1 0 2 0 0zm0 0c0,3 -2,6 -6,7 -3,0 -7,-2 -7,-6l13 -1zm24 20l0 13 0 0 -2 0 -3 0 -3 0 -2 0 -2 -1 -2 0 -2 0 -2 0 -1 0 -2 0 -1 -1 -2 0 -2 0 -1 -1 -1 -1 -2 -1 -1 -1 -1 -2 -1 -1 0 -1 -1 -2 0 -1 -1 -2 0 -1 0 -2 0 -2 -1 -1 0 -2 0 -2 0 -2 -1 -2 0 -3 13 -1 0 2 0 2 1 2 0 2 0 2 0 2 0 1 1 1 0 2 0 0 0 1 1 1 0 0 0 0 0 0 0 0 0 0 0 1 0 0 1 0 0 0 1 0 1 0 1 0 2 0 2 1 1 0 2 0 3 0 2 0 3 0 2 0 0 0zm0 0c4,0 7,3 7,6 0,4 -3,7 -7,7l0 -13zm10 -31l13 1 0 0 0 2 0 1 0 2 0 2 -1 1 0 2 0 2 0 2 0 1 0 2 0 2 -1 1 0 2 0 1 -1 2 0 2 0 1 -1 2 -1 1 0 1 -1 2 -1 1 -1 2 -1 1 -2 1 -1 1 -2 1 -1 0 -2 1 -2 0 -2 0 -2 1 0 -13 1 0 1 0 1 -1 0 0 1 0 0 0 1 0 0 -1 0 0 1 0 0 -1 0 -1 1 0 0 -1 0 -1 1 -1 0 -1 0 -1 0 -1 1 -2 0 -1 0 -1 0 -2 0 -2 0 -1 1 -2 0 -1 0 -2 0 -2 0 -2 0 -2 0 -1 0 0zm0 0c1,-4 4,-7 7,-6 4,0 6,3 6,7l-13 -1zm3 -25l13 2 0 0 0 0 0 1 0 1 0 1 0 0 0 1 0 1 0 1 -1 1 0 0 0 1 0 1 0 1 0 0 0 1 0 1 0 1 -1 1 0 0 0 1 0 1 0 1 0 0 0 1 0 1 0 1 0 0 -1 1 0 1 0 0 0 1 0 1 -13 -1 0 -1 1 -1 0 -1 0 0 0 -1 0 -1 0 -1 0 -1 0 0 0 -1 0 -1 0 -1 1 0 0 -1 0 -1 0 -1 0 -1 0 0 0 -1 0 -1 0 -1 1 0 0 -1 0 -1 0 -1 0 0 0 -1 0 -1 0 0 0 -1 0 -1 0 -1 0 0zm0 0c1,-3 4,-6 7,-5 4,0 7,3 6,7l-13 -2zm9 -72l13 2 0 0 0 2 -1 2 0 2 0 2 0 2 0 2 -1 3 0 2 0 2 -1 2 0 3 0 2 0 2 -1 3 0 2 0 2 -1 3 0 2 0 3 -1 2 0 2 0 3 -1 2 0 2 0 3 0 2 -1 2 0 2 0 2 0 2 -1 3 0 2 -13 -2 1 -2 0 -2 0 -2 0 -2 1 -2 0 -3 0 -2 0 -2 1 -3 0 -2 0 -2 1 -3 0 -2 0 -2 1 -3 0 -2 0 -3 0 -2 1 -2 0 -3 0 -2 1 -2 0 -2 0 -3 0 -2 1 -2 0 -2 0 -2 0 -3 1 -2 0 -2 0 -2 0 0zm0 0c0,-3 3,-6 7,-5 4,0 6,3 6,7l-13 -2zm10 -14l2 13 0 0 -1 0 0 0 0 0 -1 0 0 0 0 0 0 0 0 0 1 0 0 0 0 -1 1 0 0 -1 1 0 0 -1 0 0 0 0 0 0 0 0 0 0 0 0 0 0 0 0 0 1 0 0 0 1 0 0 0 1 0 0 0 1 0 1 0 1 -13 -2 0 0 0 0 0 -1 0 0 0 -1 0 0 0 0 0 -1 0 0 0 -1 0 0 0 -1 0 0 0 -1 0 0 0 -1 1 -1 0 -1 0 -1 1 0 1 -1 1 -1 0 0 1 -1 1 0 0 0 1 0 1 0 0 -1 1 0 0 0 1 0 0 0zm0 0c4,0 7,2 7,6 1,3 -2,6 -5,7l-2 -13zm10 -2l5 12 0 0 0 0 -1 0 0 1 -1 0 0 0 -1 0 0 0 0 0 -1 1 0 0 -1 0 0 0 -1 0 0 0 -1 0 0 0 -1 0 0 0 0 0 -1 0 0 0 0 0 -1 0 0 1 0 0 -1 0 0 0 -1 0 0 0 0 0 -1 0 0 0 -2 -13 1 0 0 0 1 0 0 0 1 0 0 0 0 0 1 0 0 0 1 0 0 0 0 0 1 0 0 0 0 0 0 -1 0 0 1 0 0 0 0 0 0 0 0 0 1 0 0 0 0 0 0 0 0 0 1 0 0 0 0 0 0 -1 1 0 0 0zm0 0c3,-1 7,0 8,3 2,3 1,7 -3,9l-5 -12zm6 -27l12 -1 0 0 0 0 1 1 0 1 0 1 0 2 0 1 0 1 1 1 0 1 0 2 0 1 0 1 0 2 0 1 0 1 0 2 0 1 0 2 -1 1 0 2 -1 1 0 2 -1 1 -1 1 -1 2 -1 1 -1 1 -1 2 -2 1 -1 1 -2 1 -2 1 -5 -12 1 0 1 -1 1 0 0 -1 1 -1 0 0 1 -1 0 0 1 -1 0 -1 0 0 1 -1 0 -1 0 -1 0 -1 0 0 0 -1 0 -1 0 -1 0 -1 0 -1 0 -1 0 -1 0 -1 0 -1 0 -1 -1 -2 0 -1 0 -1 0 -1 0 -1 0 -1 0 0zm0 0c-1,-3 2,-7 5,-7 4,-1 7,2 7,6l-12 1zm3 -90l9 89 -12 1 -10 -88 13 -2 0 0zm-13 2c-1,-4 2,-7 6,-7 3,-1 6,2 7,5l-13 2zm-5 -9l9 -10 0 0 0 1 1 0 0 0 0 1 1 0 0 1 1 0 0 1 0 0 1 1 0 0 0 1 1 0 0 1 0 0 1 1 0 0 0 1 0 0 1 1 0 0 0 1 0 1 0 0 1 1 0 0 0 1 0 0 0 1 0 1 0 0 1 1 -13 2 0 0 0 -1 0 0 0 0 -1 -1 0 0 0 -1 0 0 0 0 0 -1 0 0 0 0 -1 -1 0 0 0 0 0 -1 0 0 0 0 0 0 -1 -1 0 0 0 0 0 0 0 0 0 -1 0 0 -1 0 0 0 0 0 0 -1 0 0 -1 0 0 0zm0 0c-2,-2 -3,-6 0,-9 2,-3 6,-3 9,-1l-9 10zm-11 -4l0 -13 0 0 1 0 1 1 0 0 1 0 1 0 1 0 0 0 1 0 1 0 0 0 1 0 1 0 0 1 1 0 1 0 0 0 1 0 0 1 1 0 1 0 0 0 1 1 0 0 1 0 0 1 1 0 0 0 1 1 0 0 1 0 0 1 1 0 -9 10 0 0 0 0 0 -1 -1 0 0 0 0 0 -1 0 0 -1 0 0 0 0 -1 0 0 0 0 0 -1 0 0 -1 0 0 -1 0 0 0 0 0 -1 0 0 0 0 0 -1 0 0 0 -1 0 0 -1 0 0 -1 0 0 0 -1 0 0 0 -1 0 0 0zm0 0c-3,0 -6,-3 -6,-6 0,-4 3,-7 6,-7l0 13zm-63 -13l63 0 0 13 -63 0 0 0 0 -13zm0 13c-4,0 -6,-3 -6,-6 0,-4 2,-7 6,-7l0 13zm7 8l-12 2 0 0 0 -1 -1 -1 0 -1 0 -1 0 0 0 -1 0 -1 -1 0 0 -1 0 -1 0 0 0 -1 -1 0 0 -1 0 0 0 -1 0 0 -1 -1 0 0 0 -1 0 -1 0 -1 0 -2 1 -2 1 -1 1 -1 2 -1 1 0 0 0 1 0 1 -1 1 0 0 13 0 0 -1 0 0 0 1 0 0 0 1 0 1 -1 1 -1 0 -1 1 -2 0 0 -1 -1 0 0 0 0 0 0 1 0 0 1 0 0 0 1 0 0 1 1 0 1 0 1 1 1 0 1 0 1 0 1 1 1 0 1 0 1 0 1 0 2 0 -1zm0 1c1,3 -2,6 -5,7 -4,0 -7,-3 -7,-6l12 -1zm-5 63l-7 -62 12 -2 7 62 -12 2 0 0zm12 -2c1,4 -2,7 -5,7 -4,1 -7,-2 -7,-5l12 -2zm5 41l-13 2 0 0 0 -1 0 -2 0 -1 -1 -1 0 -2 0 -1 0 -1 0 -2 0 -1 0 -1 -1 -2 0 -1 0 -1 0 -2 0 -1 0 -1 0 -2 -1 -1 0 -1 0 -1 0 -2 0 -1 0 -1 0 -2 0 -1 -1 -1 0 -1 0 -1 0 -2 0 -1 0 -1 0 -1 12 -2 0 1 1 2 0 1 0 1 0 1 0 2 0 1 0 1 1 1 0 2 0 1 0 1 0 2 0 1 0 1 0 1 1 2 0 1 0 1 0 2 0 1 0 1 0 2 1 1 0 1 0 1 0 2 0 1 0 1 1 2 0 1 0 1 0 0zm0 0c0,4 -2,7 -5,7 -4,1 -7,-2 -8,-5l13 -2zm-15 31l-13 0 5 -6 1 0 0 -1 0 0 1 0 0 0 1 -1 1 0 0 -1 1 0 0 -1 1 -1 0 0 0 -1 1 -1 0 -1 1 -1 0 0 1 -1 0 -1 0 -1 0 -1 1 -1 0 -1 0 -1 0 -1 0 -1 0 -1 0 -1 0 -1 0 -1 0 0 0 -1 13 -2 0 1 0 2 0 1 0 1 0 2 0 1 0 2 0 1 0 1 -1 2 0 1 -1 2 0 1 0 1 -1 2 -1 1 0 1 -1 1 0 2 -1 1 -1 1 -1 1 -1 1 -1 1 -1 1 -1 1 -1 1 -1 1 -1 1 -2 0 -1 1 -2 0 5 -6zm-5 6c-3,1 -7,-1 -7,-4 -1,-4 1,-7 4,-8l3 12z"/>
       <path id="1" class="fil2" d="M451 545c0,12 6,59 8,74 2,12 3,24 4,36 4,27 0,26 31,26 16,0 15,-18 17,-37 0,-7 2,-16 3,-24 2,-22 7,-51 8,-72 1,-7 -1,-8 5,-9 5,0 7,0 12,-2 15,-7 10,-23 9,-34l-10 -88c-1,-5 -3,-10 -6,-13 -4,-3 -9,-5 -16,-5l-63 0c-7,0 0,3 1,15l7 62c2,13 3,27 5,41 1,11 -5,27 -15,30z"/>
      </g>
      <g>
       <path class="fil1" d="M391 373l0 13 0 0 -2 0 -2 0 -2 -1 -2 0 -2 0 -2 -1 -2 -1 -2 0 -2 -1 -1 -1 -2 -1 -2 -1 -2 -2 -1 -1 -2 -1 -1 -2 -2 -1 -1 -2 -1 -1 -2 -2 -1 -2 -1 -2 -1 -1 -1 -2 -1 -2 0 -2 -1 -2 0 -3 -1 -2 0 -2 0 -2 0 -3 12 0 0 2 1 2 0 1 0 2 0 1 1 2 0 1 1 1 1 2 0 1 1 1 1 2 1 1 1 1 1 1 1 1 1 1 1 1 1 1 1 1 2 1 1 0 1 1 1 1 2 0 1 1 1 0 2 0 1 1 1 0 2 0 1 0 0 0zm0 0c3,0 6,3 6,6 0,4 -3,7 -6,7l0 -13zm21 -51l9 -9 0 0 3 3 2 3 2 2 2 3 1 3 1 3 1 4 1 3 0 3 0 3 0 3 0 3 -1 3 -1 3 -1 3 -1 2 -1 3 -2 3 -2 2 -1 2 -2 3 -3 2 -2 2 -2 2 -3 1 -3 2 -2 1 -3 1 -3 1 -4 0 -3 1 -3 0 0 -13 2 0 2 0 3 -1 2 0 2 -1 2 -1 2 -1 1 -1 2 -1 2 -2 1 -1 2 -2 1 -1 1 -2 1 -2 1 -2 1 -2 1 -2 0 -2 1 -2 0 -2 0 -2 0 -2 0 -2 -1 -3 0 -2 -1 -2 -1 -2 -1 -2 -1 -2 -2 -2 -2 -2 0 0zm0 0c-2,-2 -2,-6 0,-9 3,-2 7,-2 9,0l-9 9zm-51 20l-12 0 0 0 0 -3 0 -3 1 -3 0 -3 1 -3 2 -2 1 -3 2 -2 2 -3 1 -2 2 -2 3 -2 2 -2 2 -2 3 -1 3 -2 2 -1 3 -1 3 -1 3 0 3 -1 3 0 3 0 3 1 4 0 3 1 3 1 3 2 3 1 3 2 3 3 2 2 -9 9 -2 -2 -2 -1 -2 -2 -2 -1 -2 -1 -2 -1 -2 0 -3 -1 -2 0 -2 0 -2 0 -2 0 -2 1 -2 0 -2 1 -2 1 -2 1 -2 1 -1 1 -2 1 -2 2 -1 1 -1 2 -2 2 -1 2 -1 1 -1 2 0 2 -1 2 0 2 -1 2 0 2 0 0zm0 0c0,4 -2,7 -6,7 -4,0 -6,-3 -6,-7l12 0z"/>
       <path id="1" class="fil2" d="M355 342c0,21 18,37 36,37 30,0 50,-37 26,-61 -25,-26 -62,-4 -62,24z"/>
      </g>
      <g>
       <path class="fil1" d="M514 354l13 0 0 0 0 2 0 2 -1 2 0 2 0 1 -1 2 -1 2 0 1 -1 2 -1 2 -1 1 -1 2 -1 1 -1 2 -2 1 -1 1 -1 2 -2 1 -1 1 -2 1 -1 1 -2 1 -2 1 -2 1 -1 1 -2 0 -2 1 -2 1 -2 0 -2 0 -2 0 -2 0 0 -12 1 0 1 -1 2 0 1 0 1 0 2 -1 1 0 1 -1 1 0 2 -1 1 -1 1 0 1 -1 1 -1 1 -1 1 -1 1 -1 1 -1 1 -1 0 -1 1 -1 1 -1 0 -1 1 -1 0 -1 1 -1 0 -1 1 -1 0 -2 0 -1 0 -1 0 -1 0 0zm0 0c0,-3 3,-6 6,-6 4,0 7,3 7,6l-13 0zm-9 -22l9 -10 0 0 1 1 1 1 1 1 1 1 0 1 1 1 1 1 0 1 1 0 1 1 0 1 1 1 0 1 1 1 0 1 0 1 1 1 0 1 0 1 1 1 0 1 0 2 0 1 0 1 1 1 0 1 0 1 0 1 0 1 0 1 0 1 0 1 -13 0 0 -1 0 -1 0 0 0 -1 0 -1 0 -1 0 -1 0 -1 0 0 -1 -1 0 -1 0 -1 0 0 0 -1 0 -1 -1 0 0 -1 0 -1 0 0 -1 -1 0 0 0 -1 -1 -1 0 0 -1 -1 0 -1 -1 0 0 -1 -1 0 0 -1 -1 -1 -1 0 0 0zm0 0c-2,-3 -2,-7 0,-10 3,-2 7,-2 9,0l-9 10zm-47 19l-12 0 0 0 0 -3 0 -3 1 -3 1 -3 1 -3 1 -3 2 -2 1 -3 2 -2 2 -2 2 -2 2 -2 2 -2 3 -1 2 -2 3 -1 2 -1 3 -1 3 0 3 -1 2 0 3 0 3 0 3 1 3 0 3 1 2 1 3 1 3 2 2 1 3 2 2 2 -9 10 -1 -2 -2 -1 -2 -1 -2 -1 -1 -1 -2 -1 -2 0 -2 -1 -2 0 -2 0 -2 0 -2 0 -2 0 -2 1 -1 0 -2 1 -2 1 -2 1 -1 1 -2 1 -1 1 -2 2 -1 1 -1 2 -1 1 -1 2 -1 2 -1 2 -1 2 0 2 0 2 -1 2 0 0zm0 0c0,4 -3,7 -6,7 -4,0 -6,-3 -6,-7l12 0zm29 29l0 12 0 0 -2 0 -2 0 -3 0 -2 0 -2 -1 -1 0 -2 -1 -2 -1 -2 -1 -2 -1 -2 -1 -1 -1 -2 -1 -1 -1 -2 -1 -1 -2 -2 -1 -1 -2 -1 -1 -1 -2 -2 -2 -1 -1 0 -2 -1 -2 -1 -2 -1 -2 0 -2 -1 -2 0 -2 0 -2 0 -2 0 -2 12 0 0 2 1 1 0 2 0 1 0 1 1 2 0 1 1 1 0 1 1 2 0 1 1 1 1 1 1 1 1 1 1 1 1 1 1 1 1 1 1 1 1 0 1 1 2 1 1 0 1 1 1 0 2 1 1 0 2 0 1 0 1 1 2 0 0 0zm0 0c3,0 6,2 6,6 0,4 -3,6 -6,6l0 -12z"/>
       <path id="1" class="fil2" d="M487 386c18,0 33,-17 33,-32 0,-11 -2,-19 -10,-27 -21,-21 -57,-6 -58,24 0,19 16,35 35,35z"/>
      </g>
      <g>
       <path class="fil1" d="M320 352l13 0 0 0 -1 5 0 4 -2 5 -1 3 -2 4 -2 3 -3 3 -3 3 -3 2 -3 2 -3 2 -4 2 -3 1 -4 1 -4 0 -3 0 -4 0 -4 -1 -3 0 -4 -1 -3 -2 -4 -2 -3 -2 -3 -2 -3 -3 -2 -3 -2 -4 -2 -4 -1 -4 -2 -4 0 -5 0 -5 12 0 1 4 0 3 1 3 1 3 1 3 2 2 1 2 2 2 2 2 2 1 2 1 3 1 2 1 3 1 2 0 3 0 2 0 3 0 3 -1 2 0 2 -1 3 -2 2 -1 2 -2 2 -1 1 -2 2 -3 1 -2 1 -3 1 -2 1 -4 0 -3 0 0zm0 0c0,-4 3,-6 6,-6 4,0 7,3 7,6l-13 0zm-28 -28l0 -13 0 0 2 0 2 0 2 0 2 1 2 0 2 1 2 1 2 0 2 1 1 1 2 1 2 1 1 1 2 2 1 1 2 1 1 2 2 1 1 2 1 1 1 2 1 2 1 2 1 1 0 2 1 2 1 2 0 2 0 2 1 2 0 2 0 2 -13 0 0 -1 0 -2 0 -1 -1 -1 0 -2 0 -1 -1 -1 0 -2 -1 -1 0 -1 -1 -1 -1 -1 -1 -2 0 -1 -1 -1 -1 -1 -1 -1 -1 -1 -1 0 -1 -1 -2 -1 -1 -1 -1 0 -1 -1 -2 0 -1 -1 -1 0 -2 -1 -1 0 -1 0 -2 0 -1 0 0 0zm0 0c-4,0 -7,-3 -7,-7 0,-3 3,-6 7,-6l0 13zm-28 26l-12 0 0 0 0 -2 0 -2 0 -2 0 -2 1 -2 1 -2 0 -1 1 -2 1 -2 1 -2 1 -1 1 -2 1 -1 1 -2 1 -1 2 -2 1 -1 2 -1 1 -1 2 -1 1 -1 2 -1 2 -1 2 -1 1 -1 2 0 2 -1 2 0 2 -1 2 0 2 0 2 0 0 13 -2 0 -1 0 -1 0 -1 0 -2 1 -1 0 -1 0 -1 1 -2 1 -1 0 -1 1 -1 0 -1 1 -1 1 -1 1 -1 1 -1 1 -1 1 -1 1 -1 1 0 1 -1 1 -1 1 0 1 -1 1 0 2 -1 1 0 1 0 1 0 2 0 1 -1 1 0 0zm0 0c0,4 -2,7 -6,7 -3,0 -6,-3 -6,-7l12 0z"/>
       <path id="1" class="fil2" d="M258 350c0,48 67,46 68,2 1,-18 -15,-35 -34,-35 -18,0 -34,15 -34,33z"/>
      </g>
     </g>
    </g>
   </g>
  </g>
  <path class="fil3 str0" d="M374 26c193,0 349,157 349,349 0,193 -156,349 -349,349 -193,0 -349,-156 -349,-349 0,-192 156,-349 349,-349z"/>
 </g>
</svg>
