<?xml version="1.0" encoding="UTF-8"?>
<!DOCTYPE svg PUBLIC "-//W3C//DTD SVG 1.1//EN" "http://www.w3.org/Graphics/SVG/1.1/DTD/svg11.dtd">
<!-- Creator: CorelDRAW X7 -->
<svg xmlns="http://www.w3.org/2000/svg" xml:space="preserve" width="0.752079in" height="0.752079in" version="1.1" style="shape-rendering:geometricPrecision; text-rendering:geometricPrecision; image-rendering:optimizeQuality; fill-rule:evenodd; clip-rule:evenodd"
viewBox="0 0 752 752"
 xmlns:xlink="http://www.w3.org/1999/xlink">
 <defs>
  <style type="text/css">
   <![CDATA[
    .fil2 {fill:#612C75}
    .fil0 {fill:#FFED00}
    .fil1 {fill:#612C75;fill-rule:nonzero}
   ]]>
  </style>
 </defs>
 <g id="Слой_x0020_1">
  <metadata id="CorelCorpID_0Corel-Layer"/>
  <g id="_1101558800">
   <g>
    <path class="fil0" d="M379 29c190,0 345,155 345,345 0,191 -155,345 -345,345 -191,0 -345,-154 -345,-345 0,-190 154,-345 345,-345z"/>
    <path id="1" class="fil1" d="M743 374l-39 0 0 0 0 -17 -2 -16 -2 -16 -3 -16 -3 -16 -5 -16 -5 -15 -6 -14 -6 -15 -7 -14 -8 -13 -8 -14 -10 -12 -9 -13 -10 -12 -11 -11 -12 -11 -11 -10 -13 -9 -12 -10 -14 -8 -13 -8 -14 -7 -15 -7 -14 -5 -15 -5 -16 -5 -16 -3 -16 -3 -16 -2 -16 -2 -17 0 0 -39 19 0 18 1 18 3 18 3 18 4 17 5 17 6 17 6 16 8 16 8 15 8 15 10 14 10 14 11 13 11 13 12 12 13 11 13 11 14 10 14 10 15 8 15 8 16 8 16 6 17 6 17 5 17 4 18 3 18 3 18 1 18 0 19 0 0zm-364 365l0 -40 0 0 17 0 16 -1 16 -2 16 -3 16 -4 16 -4 15 -5 14 -6 15 -7 14 -7 13 -8 14 -8 12 -9 13 -10 11 -10 12 -11 11 -11 10 -12 9 -12 10 -13 8 -13 8 -14 7 -14 6 -14 6 -15 5 -15 5 -16 3 -15 3 -16 2 -17 2 -16 0 -17 39 0 0 19 -1 18 -3 19 -3 18 -4 17 -5 17 -6 17 -6 17 -8 16 -8 16 -8 15 -10 15 -10 14 -11 14 -11 13 -12 13 -13 12 -13 11 -14 11 -14 10 -15 10 -15 9 -16 8 -16 7 -17 7 -17 5 -17 5 -18 4 -18 3 -18 3 -18 1 -19 1 0 0zm-365 -365l40 0 0 0 0 17 1 16 2 17 3 16 4 15 4 16 5 15 6 15 7 14 7 14 8 14 8 13 9 13 10 12 10 12 11 11 11 11 12 10 12 10 13 9 13 8 14 8 14 7 14 7 15 6 15 5 16 4 15 4 16 3 17 2 16 1 17 0 0 40 -19 -1 -18 -1 -19 -3 -18 -3 -17 -4 -18 -5 -16 -5 -17 -7 -16 -7 -16 -8 -15 -9 -15 -10 -14 -10 -14 -11 -13 -11 -13 -12 -12 -13 -11 -13 -11 -14 -10 -14 -10 -15 -9 -15 -8 -16 -7 -16 -7 -17 -5 -17 -5 -17 -4 -17 -3 -18 -3 -19 -1 -18 -1 -19 0 0zm365 -364l0 39 0 0 -17 0 -16 2 -17 2 -16 3 -15 3 -16 5 -15 5 -15 5 -14 7 -14 7 -14 8 -13 8 -13 10 -12 9 -12 10 -11 11 -11 11 -10 12 -10 13 -9 12 -8 14 -8 13 -7 14 -7 15 -6 14 -5 15 -4 16 -4 16 -3 16 -2 16 -1 16 0 17 -40 0 1 -19 1 -18 3 -18 3 -18 4 -18 5 -17 5 -17 7 -17 7 -16 8 -16 9 -15 10 -15 10 -14 11 -14 11 -13 12 -13 13 -12 13 -11 14 -11 14 -10 15 -10 15 -8 16 -8 16 -8 17 -6 16 -6 18 -5 17 -4 18 -3 19 -3 18 -1 19 0 0 0z"/>
   </g>
   <g id="_1101558864">
    <path class="fil2" d="M439 224c-1,1 1,0 -2,1 0,0 -1,0 -1,0 -1,0 -3,0 -4,0l-6 1 -6 2 -2 0c-1,1 0,1 -2,2 -2,0 -1,0 -2,0l-7 2c0,0 0,0 -1,1 -1,0 0,0 -2,0l-2 1c0,0 0,0 -1,1 -1,0 -1,0 -2,0l-9 3c-1,1 1,0 -1,1 -1,0 -2,1 -2,1l-2 0c-1,0 0,0 -1,1 -1,1 -1,0 -2,0 -13,6 -20,3 -32,-1 -2,0 -2,0 -3,-1l-3 -1c-1,0 0,0 -2,-1 0,0 -1,0 -1,0 0,-1 0,-1 0,-1l-20 -7c-2,0 -1,0 -2,0 -3,-1 -1,0 -2,-1 -8,-2 -15,-3 -23,-3 -4,0 -9,0 -13,0 -3,1 -9,2 -11,2 -1,1 1,0 -2,1 -1,1 -1,0 -2,1l-7 2c-1,1 0,0 -1,1 -2,1 -1,0 -2,0 -6,2 -10,6 -16,8 0,1 0,0 -1,1 -1,1 1,0 -1,0l-2 2c-14,8 -29,26 -37,41 -8,14 -12,28 -15,44 -1,4 -2,15 -3,17l0 29c1,2 2,18 3,21 1,7 2,14 4,21 3,13 7,25 11,38l1 1c1,1 0,1 1,2 2,11 20,42 28,53l11 16c1,1 0,1 1,1 1,1 0,0 1,1 2,5 14,18 18,21 5,5 14,12 23,16 2,0 1,0 2,0 0,0 0,1 1,1 0,0 0,0 0,0l7 2 12 0 11 -2c1,-1 0,-1 2,-2 1,0 0,0 2,0 11,-2 24,-9 36,-12 8,-2 15,-3 23,-2 9,0 14,3 21,4 1,0 0,0 2,0 4,1 0,0 1,1 9,4 19,8 28,10 5,1 11,2 17,3 7,0 10,-2 17,-3 0,0 0,0 1,0 1,-1 0,0 2,-1 17,-6 30,-22 39,-35 5,-7 10,-14 15,-22 4,-5 11,-16 14,-23 1,-3 0,-2 2,-3 0,-2 3,-8 4,-11 2,-4 3,-7 5,-11 0,-2 0,-1 0,-2 1,0 1,0 1,-1 0,0 0,0 0,0l3 -7 0 -2 -6 -3c-2,-1 -2,0 -3,-2l-3 -1c-1,-1 -1,0 -2,-1 0,0 0,0 0,0 0,-1 0,-1 0,-1l-2 -1c-1,0 -1,0 -2,-1 0,0 0,0 0,0 0,0 0,0 0,-1l-2 0c-1,-1 0,0 -1,-1 0,0 -1,0 -1,-1 0,0 0,0 0,0 -5,-3 -14,-13 -18,-17 -4,-5 -12,-18 -13,-23 -1,-1 -1,0 -1,-2 -1,-1 -1,-1 -1,-2 -1,-4 -4,-12 -4,-17 0,-1 0,0 -1,-2 0,-1 0,-1 0,-2 0,-1 0,-3 0,-5 0,-4 -1,-8 -1,-12 0,-3 1,-8 1,-11 0,-1 0,-2 0,-3 0,-3 0,-2 1,-2 0,-7 3,-15 5,-21 1,-2 1,-2 2,-3l2 -5c1,-2 0,0 1,-2 0,0 0,0 0,0 1,0 1,0 1,0 3,-7 11,-16 16,-20 3,-3 6,-6 9,-9 3,-2 9,-5 10,-7 -2,-7 -18,-22 -24,-25 -1,-1 0,-1 -1,-1 0,0 0,-1 0,-1 -1,0 -1,0 -1,0l-6 -4c-1,0 -1,0 -2,0 -2,-2 -1,-1 -2,-2l-2 -1c0,0 -1,0 -2,-1 -1,0 0,0 -1,-1 -5,0 -12,-5 -19,-6 -1,0 -3,0 -3,0 -4,-1 -1,0 -2,-1 -5,0 -11,-2 -16,-2 -7,-1 -12,0 -18,0z"/>
    <path class="fil2" d="M446 115c0,0 1,0 -1,1 0,0 -1,0 -1,0 -1,0 -2,0 -2,1 -17,3 -39,17 -47,26 -6,6 -12,13 -17,21 -3,5 -10,19 -10,26 0,2 -1,4 -2,6 0,5 -2,18 0,22 4,3 14,1 19,0 7,-1 11,-4 16,-5 1,-1 0,-1 1,-1 1,-1 0,0 2,-1l3 -1c1,-1 0,-1 1,-2 1,0 0,1 1,0l2 -1c1,-1 0,0 1,-1 1,-1 -1,1 1,-1 9,-6 23,-21 29,-31 0,-1 0,0 0,-1 1,0 1,0 1,-1 0,0 0,0 0,0l4 -7c0,0 0,-1 1,-2 0,-1 0,0 1,-1l0 -2c0,-2 0,-2 2,-2 1,-7 3,-13 5,-21 1,-5 2,-18 0,-23l-4 0 -6 1z"/>
    <path class="fil2" d="M492 373c0,-2 0,-3 0,-5 0,0 0,-1 -1,-2 0,-3 0,0 0,-2 0,2 0,4 0,5 0,1 0,1 0,2 1,2 1,1 1,2z"/>
    <path class="fil2" d="M432 225c1,0 3,0 4,0 0,0 1,0 1,0 3,-1 1,0 2,-1 -1,0 -3,0 -4,0 0,0 -1,1 -2,1 -1,0 0,0 -1,0z"/>
    <path class="fil2" d="M478 227c-1,0 0,0 -2,-1 -1,0 -2,0 -3,0 1,1 -2,0 2,1 0,0 2,0 3,0z"/>
    <path class="fil2" d="M491 341c0,-1 0,0 1,-3 0,0 0,-2 0,-2 -1,0 -1,-1 -1,2 0,1 0,2 0,3z"/>
    <path class="fil2" d="M366 196c1,-2 2,-4 2,-6 -1,0 0,0 -1,1 0,0 0,1 0,1 -1,1 -1,3 -1,4z"/>
    <path class="fil2" d="M420 228l6 -2c-1,0 -2,0 -3,1 -1,0 -1,0 -2,0 -1,1 0,1 -1,1z"/>
    <path class="fil2" d="M442 117c0,-1 1,-1 2,-1 0,0 1,0 1,0 2,-1 1,-1 1,-1 0,0 -1,0 -2,0 0,0 -1,1 -1,1 -2,1 -1,0 -1,1z"/>
    <path class="fil2" d="M266 229c1,-1 1,0 2,-1 3,-1 1,0 2,-1 -1,0 -1,0 -3,1 -1,0 0,0 -1,1z"/>
    <path class="fil2" d="M387 240c0,0 1,-1 2,-1 2,-1 0,0 1,-1 0,0 -1,0 -2,0 -2,2 0,1 -1,2z"/>
    <path class="fil2" d="M506 238c-1,-1 1,0 -1,-1 -1,0 -2,0 -3,-1 1,1 0,0 2,2 1,0 1,0 2,0z"/>
    <path class="fil2" d="M414 230c1,0 0,0 2,0 2,-1 1,-1 2,-2 -1,1 -2,1 -3,1 -1,0 0,1 -1,1z"/>
    <path class="fil2" d="M498 394c0,-1 0,-1 -1,-2 0,-1 0,-1 -1,-2 0,1 0,1 1,2 0,2 0,1 1,2z"/>
    <path class="fil2" d="M399 235c1,0 1,0 2,0 1,-1 1,-1 1,-1 -1,0 -1,0 -2,0 -1,1 -1,1 -1,1z"/>
    <path class="fil2" d="M447 165c1,-1 0,1 1,-1 0,-1 1,-2 1,-2 -1,1 -1,0 -1,1 -1,1 -1,2 -1,2z"/>
    <path class="fil2" d="M321 229c-1,0 -1,0 -2,-1 -1,0 -1,0 -2,0 1,1 -1,0 2,1 1,0 0,0 2,0z"/>
    <path class="fil2" d="M500 235c-1,-1 1,0 -1,-1 -1,0 -2,0 -2,-1 1,1 0,1 1,1 1,1 2,1 2,1z"/>
    <path class="fil2" d="M316 566c1,-1 1,0 2,-1 2,0 1,-1 2,-1 -2,0 -1,0 -2,0 -2,1 -1,1 -2,2z"/>
    <path class="fil2" d="M382 241c1,0 1,1 2,0 1,-1 0,-1 1,-1 -1,0 0,0 -2,0 -2,1 0,1 -1,1z"/>
    <path class="fil2" d="M350 240c0,0 0,0 -1,-1 -1,0 -1,0 -2,0 1,1 1,1 3,1z"/>
    <path class="fil2" d="M449 160c0,0 0,0 1,-1 0,-1 0,-1 1,-1 -2,0 -2,0 -2,2z"/>
    <path class="fil2" d="M344 238c-1,-1 0,-1 -1,-1 -1,-1 -1,-1 -2,-1 0,0 0,0 0,1 0,0 1,0 1,0 2,1 1,1 2,1z"/>
    <path class="fil2" d="M256 232c1,0 0,1 2,0 1,-1 0,0 1,-1 -1,0 -1,0 -2,0 -1,1 -1,1 -1,1z"/>
    <path class="fil2" d="M545 444c-1,-1 -1,-1 -2,-1 0,-1 -1,-1 -1,-1 1,2 1,1 3,2z"/>
    <path class="fil2" d="M403 555c-1,-1 3,0 -1,-1 -2,0 -1,0 -2,0 0,0 0,0 1,1 2,0 0,0 2,0z"/>
    <path class="fil2" d="M401 213c1,0 0,0 1,-1 2,-1 1,0 2,-1 -2,1 -1,0 -2,1 -1,0 0,0 -1,1z"/>
    <path class="fil2" d="M404 233c2,0 1,0 2,0 1,-1 1,-1 1,-1 -1,0 0,-1 -1,0 -1,0 -1,2 -1,1 -1,0 -1,0 -1,0z"/>
    <path class="fil2" d="M465 565c1,0 0,1 1,0 1,0 2,-1 2,-1 -2,1 -1,0 -2,1 -1,0 -1,0 -1,0z"/>
    <path class="fil2" d="M201 457c-1,-1 0,-1 -1,-2l-1 -1c0,1 0,0 1,1 0,1 0,1 1,2z"/>
    <path class="fil2" d="M536 484c0,-1 0,-1 1,-2 0,0 0,0 1,-1 -2,1 -1,0 -2,3z"/>
    <path class="fil2" d="M497 315l2 -3c-1,1 -1,1 -2,3z"/>
    <path class="fil2" d="M501 307c1,-1 1,0 1,-1 1,-1 0,0 1,-1 0,0 0,0 -1,0 0,0 0,0 0,0 -1,2 0,0 -1,2z"/>
    <path class="fil2" d="M547 459c0,0 0,-1 0,0 0,0 1,-1 1,-1 0,-1 0,0 0,-2 0,0 0,0 0,0 0,1 0,1 -1,1 0,1 0,0 0,2z"/>
    <path class="fil2" d="M242 528c-1,-1 0,0 -1,-1 -1,0 0,0 -1,-1 1,2 0,2 2,2z"/>
    <path class="fil2" d="M407 210c1,-1 1,-1 2,-1 0,0 0,0 0,-1 0,0 0,0 0,0 -1,1 0,0 -1,0 -1,1 0,1 -1,2z"/>
    <path class="fil2" d="M442 174c1,0 0,0 1,-1 1,-1 -1,2 0,-1 0,0 0,0 0,0 0,1 0,1 -1,1 0,1 0,0 0,1z"/>
    <path class="fil2" d="M286 566c0,0 0,0 0,0 -1,0 -1,-1 -1,-1 -1,0 0,0 -2,0 0,0 1,0 1,0 0,0 0,0 0,1 1,0 0,0 2,0z"/>
    <path class="fil2" d="M531 436c-1,-1 0,-1 -1,-2 -1,0 0,1 -1,0 0,0 0,0 0,0 0,1 1,1 1,1 1,1 0,0 1,1z"/>
    <path class="fil2" d="M514 244c0,-1 0,-1 -1,-2 -1,-1 1,1 -1,0 0,0 0,0 1,0 0,0 0,1 0,1 1,0 0,0 1,1z"/>
    <path class="fil2" d="M411 207c1,0 0,0 2,-1 0,0 0,0 0,0 0,0 0,0 0,-1 -2,2 0,0 -1,1 -1,1 0,0 -1,1z"/>
    <path class="fil2" d="M539 441c-1,-1 -1,-1 -2,-2 0,0 0,0 0,1 0,0 0,0 0,0 1,1 1,0 2,1z"/>
    <path class="fil2" d="M238 241c2,0 0,1 1,0 1,-1 1,0 1,-1 -1,0 0,0 -1,1 0,0 0,0 -1,0 0,0 0,0 0,0z"/>
    <path class="fil2" d="M236 243l2 -2c-2,1 -1,1 -2,2z"/>
    <path class="fil2" d="M535 438l-2 -2c0,1 0,1 0,1 0,0 0,0 0,0 1,1 1,1 2,1z"/>
    <path class="fil2" d="M537 439c-1,0 -1,0 -1,-1 -2,-1 1,1 -1,0l2 1z"/>
   </g>
  </g>
 </g>
</svg>
