<?xml version="1.0" encoding="UTF-8"?>
<!DOCTYPE svg PUBLIC "-//W3C//DTD SVG 1.1//EN" "http://www.w3.org/Graphics/SVG/1.1/DTD/svg11.dtd">
<!-- Creator: CorelDRAW X7 -->
<svg xmlns="http://www.w3.org/2000/svg" xml:space="preserve" width="0.752079in" height="0.752079in" version="1.1" style="shape-rendering:geometricPrecision; text-rendering:geometricPrecision; image-rendering:optimizeQuality; fill-rule:evenodd; clip-rule:evenodd"
viewBox="0 0 752 752"
 xmlns:xlink="http://www.w3.org/1999/xlink">
 <defs>
  <style type="text/css">
   <![CDATA[
    .fil0 {fill:#612C75}
    .fil2 {fill:#FFED00}
    .fil1 {fill:#FFED00;fill-rule:nonzero}
   ]]>
  </style>
 </defs>
 <g id="Слой_x0020_1">
  <metadata id="CorelCorpID_0Corel-Layer"/>
  <g id="_1105924752">
   <g>
    <path class="fil0" d="M49 351c0,56 6,102 29,149 28,56 57,92 106,129 43,33 113,63 172,63 70,0 103,0 170,-34 38,-19 63,-38 92,-67 119,-118 125,-330 -5,-460 -99,-99 -235,-124 -366,-71 -40,17 -67,39 -98,66 -26,22 -53,62 -68,94 -17,35 -32,81 -32,131z"/>
    <path id="1" class="fil1" d="M96 491l-35 18 0 0 -3 -5 -2 -5 -2 -4 -2 -5 -2 -5 -1 -4 -2 -5 -2 -5 -1 -5 -2 -4 -1 -5 -1 -5 -1 -5 -1 -5 -1 -5 -1 -4 -1 -5 -1 -5 -1 -5 0 -5 -1 -5 0 -5 -1 -5 0 -5 0 -5 -1 -5 0 -6 0 -5 0 -5 0 -5 0 -6 0 -5 39 0 0 5 0 5 0 5 0 5 0 5 1 5 0 4 0 5 0 5 1 4 0 5 1 4 0 5 1 4 1 4 0 5 1 4 1 4 1 4 1 4 1 5 1 4 1 4 2 4 1 4 1 4 2 4 2 4 1 4 2 4 2 4 2 4 0 0zm100 123l-24 31 0 0 -5 -4 -5 -3 -4 -4 -4 -4 -5 -3 -4 -4 -4 -4 -4 -3 -4 -4 -4 -4 -4 -4 -3 -4 -4 -4 -3 -4 -4 -4 -3 -4 -3 -4 -4 -4 -3 -5 -3 -4 -3 -4 -3 -5 -3 -4 -3 -5 -3 -5 -3 -5 -2 -4 -3 -5 -3 -5 -3 -6 -2 -5 -3 -5 35 -18 3 5 2 5 3 5 2 4 3 5 2 4 3 5 2 4 3 4 3 4 2 4 3 4 3 4 3 4 3 4 3 3 2 4 4 3 3 4 3 3 3 4 3 3 4 4 3 3 4 3 3 4 4 3 4 3 4 4 4 3 4 3 5 4 0 0zm160 58l0 39 0 0 -6 0 -7 0 -6 0 -6 -1 -6 -1 -7 -1 -6 -1 -6 -1 -6 -2 -7 -1 -6 -2 -6 -2 -6 -2 -6 -2 -6 -2 -6 -2 -6 -2 -6 -3 -6 -2 -6 -3 -6 -3 -5 -2 -6 -3 -5 -3 -5 -3 -6 -3 -5 -3 -5 -3 -4 -3 -5 -4 -5 -3 -4 -3 24 -31 3 2 4 3 4 3 5 3 4 2 4 3 5 3 5 2 5 3 5 3 5 2 5 2 5 3 5 2 5 2 6 2 5 2 5 2 6 2 5 2 6 1 5 2 6 1 5 1 5 1 6 1 5 1 5 1 6 0 5 1 5 0 5 0 0 0zm161 -31l17 35 0 0 -6 3 -6 3 -6 3 -6 3 -6 2 -6 2 -5 2 -6 2 -5 2 -6 2 -5 1 -5 2 -5 1 -5 1 -6 1 -5 1 -5 1 -5 1 -5 0 -5 1 -6 0 -5 0 -5 1 -6 0 -5 0 -6 0 -5 0 -6 0 -6 0 -6 0 -7 0 -6 0 0 -39 6 0 6 0 7 0 5 0 6 0 5 0 6 0 5 0 5 -1 5 0 4 0 5 -1 5 0 4 -1 5 0 4 -1 4 -1 5 0 4 -1 4 -1 5 -2 4 -1 5 -1 4 -2 5 -2 5 -1 5 -2 5 -3 6 -2 5 -3 6 -2 6 -3 0 0zm87 -64l27 28 0 0 -2 3 -3 2 -3 3 -3 3 -2 2 -3 3 -3 2 -2 3 -3 2 -3 2 -3 3 -3 2 -2 2 -3 3 -3 2 -3 2 -3 2 -3 2 -3 2 -3 2 -3 2 -3 2 -3 2 -3 2 -4 2 -3 2 -4 2 -3 2 -3 2 -4 2 -4 2 -4 2 -17 -35 3 -2 4 -2 3 -1 3 -2 3 -2 3 -2 3 -1 3 -2 3 -2 3 -2 2 -1 3 -2 3 -2 2 -2 3 -2 3 -2 2 -2 3 -1 2 -2 3 -2 2 -3 2 -2 3 -2 2 -2 3 -2 2 -2 3 -3 2 -2 3 -2 3 -3 2 -2 3 -3 0 0zm-5 -432l28 -28 0 0 12 13 12 14 11 14 10 15 9 14 8 16 8 15 6 16 6 16 5 16 5 16 3 17 3 16 2 17 1 17 0 17 0 16 -1 17 -2 16 -3 17 -3 16 -5 16 -5 15 -5 16 -7 15 -7 15 -8 14 -9 14 -9 14 -10 13 -11 13 -12 12 -27 -28 10 -11 9 -11 9 -11 8 -12 8 -12 7 -13 6 -13 6 -14 5 -13 4 -14 4 -14 3 -15 3 -14 1 -15 1 -15 1 -15 0 -14 -1 -15 -2 -15 -3 -15 -3 -15 -3 -14 -5 -14 -5 -15 -6 -14 -7 -13 -7 -14 -8 -13 -9 -13 -10 -12 -10 -12 -11 -12 0 0zm-345 -66l-15 -37 0 0 13 -5 13 -4 13 -4 13 -4 13 -3 13 -3 13 -2 13 -2 13 -1 13 0 13 -1 13 1 13 0 12 1 13 2 13 2 12 3 12 3 13 4 12 4 12 4 12 5 11 6 12 6 11 6 11 7 11 7 11 8 10 8 11 9 10 9 10 9 -28 28 -9 -8 -9 -9 -9 -7 -10 -8 -9 -7 -10 -6 -10 -6 -10 -6 -10 -5 -10 -5 -11 -4 -10 -4 -11 -4 -11 -3 -11 -3 -11 -2 -11 -2 -11 -1 -11 -1 -12 -1 -11 0 -11 0 -12 1 -11 1 -12 1 -12 2 -11 2 -12 3 -12 3 -11 4 -12 4 -12 5 0 0zm-92 62l-26 -30 0 0 3 -3 3 -2 3 -3 3 -2 3 -2 3 -3 2 -2 3 -3 3 -2 3 -2 3 -3 3 -2 3 -2 3 -2 3 -3 3 -2 3 -2 3 -2 4 -2 3 -2 3 -2 4 -2 3 -2 3 -2 4 -2 3 -2 4 -2 4 -2 4 -2 3 -1 4 -2 4 -2 15 37 -3 1 -4 2 -3 1 -3 2 -3 1 -3 2 -3 1 -3 2 -3 2 -3 1 -3 2 -3 2 -3 2 -3 1 -2 2 -3 2 -3 2 -3 2 -2 2 -3 2 -3 2 -2 3 -3 2 -3 2 -2 2 -3 2 -3 3 -3 2 -2 2 -3 3 -3 2 -3 3 0 0zm-63 88l-36 -17 0 0 2 -4 2 -3 1 -3 2 -3 2 -4 2 -3 2 -4 2 -3 2 -3 2 -4 2 -3 2 -3 2 -4 2 -3 3 -4 2 -3 2 -3 3 -3 2 -4 3 -3 2 -3 3 -3 2 -3 3 -3 2 -3 3 -3 3 -3 2 -3 3 -2 3 -3 3 -3 2 -2 26 30 -2 2 -2 2 -2 2 -2 2 -3 2 -2 2 -2 3 -2 2 -3 3 -2 3 -2 2 -2 3 -2 3 -3 3 -2 3 -2 3 -2 3 -2 3 -2 3 -2 3 -2 3 -2 3 -2 3 -2 3 -1 3 -2 3 -2 3 -1 3 -2 3 -1 3 -2 3 -1 3 0 0zm-30 122l-39 0 0 0 0 -5 0 -5 0 -5 0 -5 1 -5 0 -5 1 -5 0 -5 1 -4 1 -5 1 -5 1 -4 1 -5 1 -4 1 -5 1 -4 1 -5 1 -4 2 -4 1 -5 1 -4 2 -4 1 -4 2 -4 1 -4 2 -4 1 -3 2 -4 1 -4 2 -3 2 -4 1 -3 36 17 -2 3 -1 3 -2 3 -1 3 -1 4 -2 3 -1 4 -2 3 -1 4 -1 3 -1 4 -2 4 -1 3 -1 4 -1 4 -1 4 -1 4 -1 4 -1 4 -1 4 -1 4 0 4 -1 4 -1 4 0 4 -1 4 0 4 0 5 -1 4 0 4 0 5 0 4 0 0z"/>
   </g>
   <path class="fil2" d="M136 248l0 169c6,8 16,10 26,12 10,-13 27,-47 68,-34 20,7 19,12 29,28 9,15 15,5 28,28 8,14 1,7 13,15 8,6 9,6 15,13 5,8 6,13 10,18 12,14 28,6 33,51 3,16 12,27 32,25 42,-23 -15,-51 -18,-72 20,9 44,61 69,41 28,-23 -20,-45 -31,-71 24,3 42,60 70,42 34,-21 -24,-51 -27,-74 13,5 32,27 42,40 34,3 39,-20 22,-39l-83 -86c-42,-45 -73,24 -121,15 -31,-7 -65,-60 -6,-98 18,-11 38,-21 53,-33 -25,-38 -87,-3 -112,12 -58,34 -51,13 -112,-2z"/>
   <path class="fil2" d="M621 416l0 -151c-31,4 -74,27 -100,8 -16,-11 -52,-54 -75,-54 -14,0 -71,36 -85,44 -37,22 -72,34 -64,65 11,43 62,4 82,-7 47,-24 49,3 80,30 21,17 43,45 63,65 28,27 59,13 99,0z"/>
   <path class="fil2" d="M214 475c-7,29 1,43 31,33 -5,37 0,39 34,35 -15,39 16,49 43,30 22,-15 21,-54 -20,-52 2,-26 -4,-37 -31,-37 -1,-25 -6,-34 -32,-33 1,-39 -32,-45 -50,-23 -6,8 -14,23 -10,37 6,15 18,13 35,10z"/>
  </g>
 </g>
</svg>
