<?xml version="1.0" encoding="UTF-8"?>
<!DOCTYPE svg PUBLIC "-//W3C//DTD SVG 1.1//EN" "http://www.w3.org/Graphics/SVG/1.1/DTD/svg11.dtd">
<!-- Creator: CorelDRAW X7 -->
<svg xmlns="http://www.w3.org/2000/svg" xml:space="preserve" width="0.752079in" height="0.752079in" version="1.1" style="shape-rendering:geometricPrecision; text-rendering:geometricPrecision; image-rendering:optimizeQuality; fill-rule:evenodd; clip-rule:evenodd"
viewBox="0 0 752 752"
 xmlns:xlink="http://www.w3.org/1999/xlink">
 <defs>
  <style type="text/css">
   <![CDATA[
    .fil1 {fill:#612C75}
    .fil0 {fill:#FFED00}
   ]]>
  </style>
 </defs>
 <g id="Слой_x0020_1">
  <metadata id="CorelCorpID_0Corel-Layer"/>
  <g id="_1112675488">
   <circle class="fil0" cx="384" cy="360" r="332"/>
   <path class="fil1" d="M261 480c0,1 -9,31 -13,49 -3,19 -7,47 -5,54l0 2c5,2 260,2 266,0 0,-33 -4,-53 -12,-85 -6,-24 -21,-57 -45,-66 -27,-11 -39,36 -50,43 -6,-2 -18,-16 -26,-19 -3,0 -23,19 -26,19 -2,-1 -29,-37 -34,-45 -26,-3 -48,26 -55,48z"/>
   <path class="fil1" d="M326 437c2,2 0,1 2,2 -3,-10 -4,-9 -12,-17 -19,-19 -16,-28 -25,-44 -2,-4 -5,-3 -8,-6 -4,-5 -6,-15 -7,-14 -5,1 -27,36 -30,37 -4,-1 -16,-13 -21,-15 -7,1 -13,14 -22,14 -3,-2 -11,-14 -13,-17 -2,-3 -12,-16 -14,-18 -7,-3 -19,3 -23,7 -16,15 -28,41 -30,63 -1,5 -2,7 -3,13 -1,7 -7,38 -4,42 3,2 62,1 70,1 11,0 61,0 69,-1 6,-12 10,-26 23,-40 6,-6 8,-8 17,-13 20,-9 20,-5 31,6z"/>
   <path class="fil1" d="M474 359c-2,7 0,9 -6,15 -5,4 -5,7 -8,14 -6,17 -38,47 -38,53 11,-6 18,-30 48,-2 14,14 19,27 28,45 22,1 47,0 70,0l64 0c7,-1 3,-7 3,-18 -3,-24 -7,-49 -16,-70 -5,-13 -13,-26 -26,-33 -21,-13 -20,0 -41,27 -6,8 -5,4 -15,-3 -4,-3 -5,-5 -10,-7 -9,3 -14,13 -22,14 -12,-9 -15,-29 -31,-35z"/>
   <path class="fil1" d="M451 343c4,4 -1,24 -2,29 -1,5 -3,7 -5,12 -8,17 -24,35 -41,42 -10,5 -14,7 -28,6 -13,0 -19,-2 -27,-7 -29,-15 -42,-41 -46,-72 0,-7 -1,-11 4,-13l24 -10c26,-9 25,-19 31,-13 4,3 6,4 11,6 4,2 7,3 12,5 9,3 45,11 55,12 3,0 11,1 12,3zm-100 97c14,5 32,7 47,1 20,-8 25,-11 40,-28 7,-7 12,-15 16,-24 2,-5 4,-11 6,-15 3,-5 7,-3 8,-11 5,-28 -4,-12 -4,-34 -1,-6 -2,-11 -2,-18 -1,-6 -2,-9 -4,-15 -3,-10 -8,-18 -16,-24 -13,-12 -41,-19 -63,-18 -25,1 -22,10 -32,10 -12,0 -22,3 -30,9 -16,11 -26,29 -27,53 0,17 3,9 -4,17 -3,4 -2,11 -1,17 1,13 2,6 8,12 2,2 5,20 20,39 10,13 23,23 38,29z"/>
   <path class="fil0" d="M451 343c-1,-2 -9,-3 -12,-3 -10,-1 -46,-9 -55,-12 -5,-2 -8,-3 -12,-5 -5,-2 -7,-3 -11,-6 -6,-6 -5,4 -31,13l-24 10c-5,2 -4,6 -4,13 4,31 17,57 46,72 8,5 14,7 27,7 14,1 18,-1 28,-6 17,-7 33,-25 41,-42 2,-5 4,-7 5,-12 1,-5 6,-25 2,-29z"/>
   <path class="fil1" d="M474 282c6,-2 14,-6 20,-8 25,-12 15,-11 26,-5 4,2 5,2 9,4 8,2 10,4 19,5l41 8c4,24 -18,60 -47,71 -32,12 -64,-19 -73,-47 0,-1 0,-1 -1,-2 0,-2 -1,-4 -2,-6 -1,6 2,27 4,31 13,32 55,44 86,28 13,-7 32,-25 36,-40 3,-10 2,-9 10,-15 3,-29 -4,-13 -4,-29 -1,-18 -5,-40 -19,-50 -4,-3 -18,-10 -24,-10 -51,-7 -39,5 -52,5 -41,1 -51,48 -44,63 3,7 5,16 8,18l0 -18c2,-1 4,-3 7,-3z"/>
   <path class="fil1" d="M205 222c-6,1 -25,-1 -38,16 -12,18 -10,25 -12,45 -5,4 -5,4 -5,12 1,20 5,6 10,22 2,5 3,7 6,12 7,14 12,18 22,27 16,14 40,17 62,7 17,-7 26,-18 34,-30 2,-5 2,-8 2,-14l0 -8c-4,-5 -22,60 -72,47 -30,-8 -52,-44 -48,-73 5,-4 23,-9 35,-15 4,-3 6,-6 11,-6 3,2 3,4 8,6 6,3 24,9 31,9l32 5c1,0 1,0 2,1 6,2 1,14 1,23 3,-3 3,-7 6,-13 2,-4 4,-5 4,-12 1,-25 -5,-48 -24,-59 -14,-8 -44,-13 -60,-7 -4,2 -3,3 -7,5z"/>
   <path class="fil0" d="M283 310c1,-6 3,-6 3,-23 -4,-1 -24,-4 -31,-6l-4 -2c-7,0 -25,-6 -31,-9 -5,-2 -5,-4 -8,-6 -5,0 -7,3 -11,6 -12,6 -30,11 -35,15 -4,29 18,65 48,73 37,10 69,-34 69,-48z"/>
   <path class="fil0" d="M474 282c-4,4 -5,3 -6,6 0,2 0,9 0,12 3,2 2,3 3,7 0,3 1,5 1,8 1,15 35,55 70,42 29,-11 51,-47 47,-71l-41 -8c-9,-1 -11,-3 -19,-5 -4,-2 -5,-2 -9,-4 -11,-6 -1,-7 -26,5 -6,2 -14,6 -20,8z"/>
   <g>
    <path class="fil1" d="M571 -8c-67,37 -102,57 -133,77 67,78 79,91 97,111 15,-67 24,-117 36,-188z"/>
    <path class="fil1" d="M544 56c115,58 195,178 195,317 0,196 -159,354 -355,354 -196,0 -355,-158 -355,-354 0,-139 79,-259 195,-317l0 57c-87,54 -145,150 -145,260 0,168 136,304 305,304 168,0 305,-136 305,-304 0,-110 -58,-206 -145,-260l0 -57z"/>
   </g>
  </g>
 </g>
</svg>
