<?xml version="1.0" encoding="utf-8"?>
<!-- Generator: Adobe Illustrator 21.0.2, SVG Export Plug-In . SVG Version: 6.00 Build 0)  -->
<svg version="1.1" id="Слой_1" xmlns="http://www.w3.org/2000/svg" xmlns:xlink="http://www.w3.org/1999/xlink" x="0px" y="0px"
	 viewBox="0 0 1302 1302" style="enable-background:new 0 0 1302 1302;" xml:space="preserve">
<style type="text/css">
	.st0{fill:none;stroke:#FFFFFF;}
	.st1{fill:#FFFFFF;}
</style>
<g>
	<ellipse class="st0" cx="688" cy="511" rx="384" ry="381"/>
	<path class="st1" d="M800,252c-6,9-3,17,6,24c26,20,45,37,63,65c20,29,31,64,35,94c7,54-10,110-41,156c-3,4-5,8-5,13
		c1,12,18,25,31,6c42-62,57-132,44-193c-14-67-49-125-111-168C814,243,805,244,800,252z"/>
	<path class="st1" d="M800,310c-14-4-24,9-19,21c3,6,9,10,15,15c43,38,64,91,48,145c-4,15-9,23-17,37c-4,8-9,10-8,19c0,5,5,12,12,14
		c13,4,21-11,28-23c19-36,26-65,20-106c-4-35-22-66-46-94C828,332,807,311,800,310z"/>
	<path class="st1" d="M762,380c-4,6-3,13,1,18c4,6,33,23,30,53c-3,23-14,31-15,40c0,16,20,24,30,11c15-22,22-53,13-79
		c-5-12-11-23-22-34c-4-4-13-13-19-15S767,373,762,380z"/>
	<g>
		<g>
			<path class="st1" d="M520.3,536.8c1.9-4.3,3.4-9.1,4.4-14.2L805,585c-70-83-88-174-52-273c-81.4,49.4-161.8,97.9-243.1,147.2
				c-10.3-13.7-24.4-21.7-38.4-19.9c-23.7,2.9-38.3,32.4-32.6,65.7c2.8,16.1,9.8,30.2,18.9,40.2C461.7,609,491.3,710.6,500,746
				c6,21,27,34,49,29c21-6,34-28,29-49C568.5,690,547.9,594.3,520.3,536.8z M699,381l5,27l-162,65L699,381z M554,730l-42-173l55,174
				L554,730z"/>
		</g>
	</g>
</g>
</svg>
