<?xml version="1.0" encoding="UTF-8"?>
<!DOCTYPE svg PUBLIC "-//W3C//DTD SVG 1.1//EN" "http://www.w3.org/Graphics/SVG/1.1/DTD/svg11.dtd">
<!-- Creator: CorelDRAW X7 -->
<svg xmlns="http://www.w3.org/2000/svg" xml:space="preserve"  version="1.1" style="shape-rendering:geometricPrecision; text-rendering:geometricPrecision; image-rendering:optimizeQuality; fill-rule:evenodd; clip-rule:evenodd"
viewBox="0 0 1302 1302"
 xmlns:xlink="http://www.w3.org/1999/xlink">
 <defs>
  <style type="text/css">
   <![CDATA[
    .str0 {stroke:#612C75;stroke-width:3.00001}
    .fil1 {fill:none;fill-rule:nonzero}
    .fil2 {fill:#612C75}
    .fil3 {fill:#FFED00}
    .fil0 {fill:#612C75;fill-rule:nonzero}
   ]]>
  </style>
 </defs>
 <g id="Слой_x0020_1">
  <metadata id="CorelCorpID_0Corel-Layer"/>
  <g id="_1114859520">
   <path class="fil0" d="M172 1009l11 -15c8,19 19,34 34,44 16,11 30,16 43,15 12,0 23,-7 31,-18 7,-11 10,-21 9,-31 -1,-10 -7,-27 -18,-50 -12,-26 -18,-45 -18,-57 0,-12 4,-23 11,-34 10,-14 24,-22 43,-24 18,-3 36,3 54,16 12,8 23,18 32,31l-10 15c-8,-14 -19,-26 -32,-35 -14,-10 -27,-14 -40,-12 -13,1 -23,7 -31,18 -7,10 -10,20 -9,30 1,10 7,27 18,50 12,24 18,42 18,55 0,13 -3,24 -11,35 -11,16 -25,24 -42,27 -18,2 -37,-4 -56,-18 -7,-4 -14,-11 -22,-20 -7,-8 -13,-15 -15,-22zm505 187l7 -175c0,-4 1,-16 3,-36l0 0c-4,9 -8,16 -10,21l-96 186 -5 0 -80 -192c-3,-6 -5,-14 -8,-24l0 0c0,11 0,22 -1,33l-7 179 -17 -1 10 -246 16 1 84 202c0,1 1,3 2,5 0,2 1,4 1,6 2,3 3,6 4,10l1 0 2 -6c0,0 2,-6 6,-16l99 -193 15 1 -10 246 -16 -1zm411 -169l-94 -148c-2,-4 -8,-14 -18,-32l0 0c2,10 3,18 4,23l27 208 -5 3 -175 -113c-6,-3 -12,-8 -19,-15l-1 0c6,9 13,18 18,27l96 152 -14 9 -132 -208 13 -9 184 119c2,0 3,1 4,3 2,1 4,2 5,3 3,2 6,4 9,7l1 -1 -2 -5c0,-1 -1,-6 -3,-17l-29 -215 12 -8 132 208 -13 9z"/>
   <path id="1" class="fil1 str0" d="M172 1009l11 -15c8,19 19,34 34,44 16,11 30,16 43,15 12,0 23,-7 31,-18 7,-11 10,-21 9,-31 -1,-10 -7,-27 -18,-50 -12,-26 -18,-45 -18,-57 0,-12 4,-23 11,-34 10,-14 24,-22 43,-24 18,-3 36,3 54,16 12,8 23,18 32,31l-10 15c-8,-14 -19,-26 -32,-35 -14,-10 -27,-14 -40,-12 -13,1 -23,7 -31,18 -7,10 -10,20 -9,30 1,10 7,27 18,50 12,24 18,42 18,55 0,13 -3,24 -11,35 -11,16 -25,24 -42,27 -18,2 -37,-4 -56,-18 -7,-4 -14,-11 -22,-20 -7,-8 -13,-15 -15,-22zm505 187l7 -175c0,-4 1,-16 3,-36l0 0c-4,9 -8,16 -10,21l-96 186 -5 0 -80 -192c-3,-6 -5,-14 -8,-24l0 0c0,11 0,22 -1,33l-7 179 -17 -1 10 -246 16 1 84 202c0,1 1,3 2,5 0,2 1,4 1,6 2,3 3,6 4,10l1 0 2 -6c0,0 2,-6 6,-16l99 -193 15 1 -10 246 -16 -1zm411 -169l-94 -148c-2,-4 -8,-14 -18,-32l0 0c2,10 3,18 4,23l27 208 -5 3 -175 -113c-6,-3 -12,-8 -19,-15l-1 0c6,9 13,18 18,27l96 152 -14 9 -132 -208 13 -9 184 119c2,0 3,1 4,3 2,1 4,2 5,3 3,2 6,4 9,7l1 -1 -2 -5c0,-1 -1,-6 -3,-17l-29 -215 12 -8 132 208 -13 9z"/>
   <g>
    <ellipse class="fil2" cx="673" cy="484" rx="299" ry="297"/>
    <path class="fil3" d="M658 87c212,0 384,170 384,379 0,208 -172,378 -384,378 -212,0 -384,-170 -384,-378 0,-209 172,-379 384,-379zm186 490c13,-6 20,-10 22,-25 3,-20 -6,-19 -13,-37 16,-5 27,-14 28,-33 1,-27 -11,-26 -22,-40 44,-33 17,-68 -20,-70 -44,-1 -90,2 -134,0 9,-41 43,-57 28,-124 -14,-62 -75,-56 -80,-12 -3,29 8,40 -14,61 -19,18 -23,16 -40,40 -82,117 -60,59 -61,244 0,81 4,65 87,65 52,0 105,0 157,0 23,0 50,4 64,-11 22,-22 1,-42 -2,-58zm-422 -121l1 182c17,7 29,5 47,5 56,0 46,11 46,-115l0 -76c0,-23 18,-44 -77,-35 -23,2 -16,15 -17,39z"/>
   </g>
  </g>
 </g>
</svg>
