<?xml version="1.0" encoding="UTF-8"?>
<!DOCTYPE svg PUBLIC "-//W3C//DTD SVG 1.1//EN" "http://www.w3.org/Graphics/SVG/1.1/DTD/svg11.dtd">
<!-- Creator: CorelDRAW X7 -->
<svg xmlns="http://www.w3.org/2000/svg" xml:space="preserve"  version="1.1" style="shape-rendering:geometricPrecision; text-rendering:geometricPrecision; image-rendering:optimizeQuality; fill-rule:evenodd; clip-rule:evenodd"
viewBox="0 0 1302 1302"
 xmlns:xlink="http://www.w3.org/1999/xlink">
 <defs>
  <style type="text/css">
   <![CDATA[
    .str0 {stroke:#612C75;stroke-width:3}
    .fil1 {fill:none;fill-rule:nonzero}
    .fil3 {fill:#612C75}
    .fil2 {fill:#FFED00}
    .fil0 {fill:#612C75;fill-rule:nonzero}
   ]]>
  </style>
 </defs>
 <g id="Слой_x0020_1">
  <metadata id="CorelCorpID_0Corel-Layer"/>
  <g id="_1087128800">
   <path class="fil0" d="M289 1095l9 -15c9,17 21,29 35,37 16,8 29,11 40,9 12,-2 21,-9 27,-20 5,-10 7,-20 5,-29 -2,-9 -9,-23 -22,-43 -13,-23 -21,-39 -22,-50 -1,-11 2,-21 7,-31 8,-14 20,-23 36,-27 16,-4 33,-1 51,9 12,6 22,14 32,25l-8 14c-9,-11 -20,-21 -33,-28 -13,-7 -26,-10 -37,-7 -12,3 -20,9 -26,20 -5,10 -7,19 -5,28 2,9 9,23 22,43 12,21 20,37 21,48 2,11 0,22 -6,33 -8,15 -20,24 -35,28 -16,4 -34,1 -53,-9 -6,-4 -14,-9 -21,-16 -8,-7 -14,-13 -17,-19zm282 124l6 -225 105 3 -1 14 -89 -2 -2 90 83 2 -1 14 -83 -2 -2 92 94 3 0 14 -110 -3zm389 -62c-28,15 -55,18 -82,9 -26,-10 -48,-29 -64,-59 -17,-31 -22,-61 -16,-89 7,-28 25,-50 54,-66 27,-15 53,-18 80,-8 26,9 47,28 64,58 17,32 23,62 16,90 -6,28 -24,50 -52,65zm-103 -192c-23,13 -37,31 -43,56 -6,25 -1,50 13,77 15,27 34,45 57,53 23,9 46,7 69,-6 24,-13 39,-32 45,-55 5,-24 0,-50 -15,-79 -16,-27 -34,-45 -57,-53 -22,-8 -45,-6 -69,7z"/>
   <path id="1" class="fil1 str0" d="M289 1095l9 -15c9,17 21,29 35,37 16,8 29,11 40,9 12,-2 21,-9 27,-20 5,-10 7,-20 5,-29 -2,-9 -9,-23 -22,-43 -13,-23 -21,-39 -22,-50 -1,-11 2,-21 7,-31 8,-14 20,-23 36,-27 16,-4 33,-1 51,9 12,6 22,14 32,25l-8 14c-9,-11 -20,-21 -33,-28 -13,-7 -26,-10 -37,-7 -12,3 -20,9 -26,20 -5,10 -7,19 -5,28 2,9 9,23 22,43 12,21 20,37 21,48 2,11 0,22 -6,33 -8,15 -20,24 -35,28 -16,4 -34,1 -53,-9 -6,-4 -14,-9 -21,-16 -8,-7 -14,-13 -17,-19zm282 124l6 -225 105 3 -1 14 -89 -2 -2 90 83 2 -1 14 -83 -2 -2 92 94 3 0 14 -110 -3zm389 -62c-28,15 -55,18 -82,9 -26,-10 -48,-29 -64,-59 -17,-31 -22,-61 -16,-89 7,-28 25,-50 54,-66 27,-15 53,-18 80,-8 26,9 47,28 64,58 17,32 23,62 16,90 -6,28 -24,50 -52,65zm-103 -192c-23,13 -37,31 -43,56 -6,25 -1,50 13,77 15,27 34,45 57,53 23,9 46,7 69,-6 24,-13 39,-32 45,-55 5,-24 0,-50 -15,-79 -16,-27 -34,-45 -57,-53 -22,-8 -45,-6 -69,7z"/>
   <g>
    <circle class="fil2" cx="681" cy="490" r="384"/>
    <g>
     <path class="fil3" d="M400 501c0,3 0,6 0,8l1 3c0,2 0,0 0,3 0,3 0,7 1,10 0,0 0,0 0,0 0,1 1,1 1,2 0,1 0,3 0,4 0,4 1,3 1,5 0,2 0,4 1,6 0,1 0,0 0,1 0,1 0,1 0,2 0,4 1,3 1,6 1,1 0,2 1,3 0,1 1,1 1,2 0,1 0,2 0,3 1,2 1,1 1,3 0,1 0,2 1,3 0,1 0,-1 0,2 0,1 0,1 1,1 0,3 0,1 1,3 0,1 0,2 0,3 1,1 0,-1 1,1 0,0 0,1 0,1 0,2 1,2 1,4 1,2 2,2 2,4 0,2 1,2 1,4 0,2 1,1 1,2 1,2 0,1 1,3 1,1 1,0 1,3l1 0c0,3 0,2 1,4l1 2c1,2 0,2 2,3 0,1 0,2 0,3 0,0 0,0 0,0 0,0 1,0 1,0 0,1 0,2 1,3l1 3c1,1 0,0 1,1l5 10c0,1 0,1 1,1 0,1 0,1 0,2 1,1 0,0 1,1 0,1 1,1 1,2l2 3c1,1 0,1 1,1 0,2 2,3 3,5 1,2 0,1 1,1 0,3 2,3 3,5 0,1 0,1 0,1l4 6c0,0 0,0 0,0l6 8c1,1 1,3 3,3 0,2 0,0 1,2 0,0 0,0 0,0l2 2c0,0 0,1 0,1 1,1 1,1 2,1l0 1c2,1 1,1 2,2l3 4c1,1 0,1 2,1 0,1 0,1 1,1 0,2 0,1 1,2l2 2c0,0 0,0 0,0 0,0 0,1 0,1 1,0 0,0 2,1 0,1 0,1 1,1 0,1 0,1 2,1 0,1 0,2 1,2 1,1 0,1 2,1 1,0 2,0 2,-2 2,0 1,0 2,-1 1,0 1,0 2,-1 3,0 1,-1 3,-2l0 -1c4,0 2,-1 4,-1l0 -1c2,0 2,-1 3,-2l5 -3c0,0 1,0 1,0 0,0 0,0 0,0 0,0 0,0 0,0l8 -5c0,0 0,0 0,0 0,0 0,0 0,0l8 -5c1,0 1,0 2,0 0,0 0,-1 0,-1l1 0c0,0 0,0 0,0 0,0 0,0 0,0l2 -1c1,0 1,0 1,0 0,0 0,0 0,-1l5 -2c0,0 0,0 0,0l8 -4c1,0 1,-1 3,-1 1,0 1,0 1,-1 4,0 3,-1 4,-1 1,-1 1,0 2,-1 1,0 0,0 1,-1 1,0 1,0 2,0 1,0 0,-1 1,-1 1,-1 3,0 3,-2 0,-2 0,-1 0,-2l-1 0c0,-1 0,-1 0,-2 0,-1 -1,-1 -1,-2 0,0 0,-1 0,-1l-1 -2c-1,-1 -1,-1 -1,-2 0,0 0,0 0,0 -1,-1 0,-2 -1,-3l-2 -5c0,-1 0,-1 -1,-2l0 -1c0,-1 -1,-1 -1,-2l0 -1c-1,-1 -1,-2 -1,-3l0 -1c-1,-1 0,0 -1,0 0,-1 0,-3 -1,-4l-1 -3c0,-2 0,-1 -1,-2 0,-1 0,-2 0,-3 0,-2 -1,0 -1,-2 0,-1 0,-2 -1,-3 0,-1 0,-1 -1,-2 0,-2 1,-2 0,-3 -1,-1 -1,0 -1,-2 0,-5 -1,-2 -1,-6 0,-4 -1,-1 -1,-5 0,0 0,-1 0,-2 -1,-1 -1,0 -2,-2 0,-1 1,-3 0,-4 0,-2 -1,0 -1,-2 0,-1 0,-3 0,-3 0,-2 0,-2 -1,-3 0,-1 0,-3 0,-4 0,-3 -1,-1 -2,-4 0,-1 1,-3 0,-4 0,-2 -1,-2 -1,-4 0,-1 0,-3 0,-4 0,-2 0,-3 -1,-4 -1,-2 0,-7 0,-9 -1,-4 -1,1 -1,-8 0,-5 0,-5 -2,-9 0,-2 0,-15 0,-18 -1,-1 -1,-1 -2,-1l-123 0c-1,0 -2,0 -2,1z"/>
     <path class="fil3" d="M835 501c0,3 1,16 0,18 -1,5 -1,1 -1,8 0,10 0,5 -1,9 -1,2 0,6 0,9 -1,1 -2,1 -2,3 0,2 0,3 0,5 0,2 -1,1 -1,3 0,2 0,3 0,5 0,3 -1,-2 -1,8 -3,1 -1,5 -2,7 -1,2 0,3 -1,5 -1,2 0,0 -1,2 0,1 0,2 0,4 -1,1 -1,0 -1,3 0,1 0,1 0,2 -1,1 -1,1 -1,1 -1,2 0,3 -1,4 -1,2 -1,0 -1,3 0,1 0,1 0,2 -1,1 -1,1 -1,1 -1,2 0,2 -1,4 -1,1 0,2 -1,3 0,2 -1,1 -1,3 0,3 -1,3 -1,5 -1,2 0,1 -1,2 -1,1 -1,2 -1,4l-1 0c0,3 0,3 -1,4l-2 5c0,2 -1,2 -1,4 0,2 0,0 0,1l-1 2c0,0 0,0 0,0 0,1 0,0 -1,1 0,1 0,2 -1,3l-1 3c-1,3 -1,3 2,4 1,0 1,0 2,1l1 0c1,1 1,1 2,1 1,1 1,0 2,1 1,0 2,1 3,1 0,1 1,1 2,1 1,0 1,1 2,1 2,1 1,0 2,1l7 3c1,1 1,1 2,1 2,1 1,0 2,1 0,0 0,0 0,0l2 1c1,1 0,1 1,1 0,0 0,0 1,0l2 1c0,0 0,0 0,0l4 3c0,0 0,0 0,0 2,0 1,0 3,1l5 4c1,0 2,0 3,1 0,0 0,0 0,0l4 3c0,0 0,0 1,0l1 1c0,0 0,0 1,0 0,0 0,0 0,0 1,1 1,2 3,2l0 1c3,0 1,1 4,1l0 1c3,1 1,2 4,2 0,1 0,1 1,1 0,0 0,0 0,0 0,0 0,1 0,1 1,0 2,0 3,0 0,2 1,2 3,2 0,0 0,-1 1,-1l0 -1c1,0 1,1 1,-1 1,0 1,0 1,-1 1,0 1,0 2,-1 1,-1 1,-1 2,-2l0 -1c1,-1 3,-1 3,-3 1,0 1,0 1,-1 2,0 0,0 1,-1l4 -5c1,-1 0,0 1,-1l0 -1c2,0 1,0 2,-1 0,0 0,0 0,0l2 -3c1,-1 1,0 2,-2 1,0 0,0 1,-1 0,0 0,0 0,0l13 -18c1,-1 1,-2 1,-4 2,0 1,0 2,-1 0,0 0,-1 0,-1l2 -2c0,-1 0,-1 0,-2 2,0 1,-1 2,-2 1,-2 2,-2 2,-4 1,-1 1,0 1,-1 0,-1 0,-1 0,-2 2,0 1,0 2,-1l0 -2c1,0 1,0 1,0l3 -7c1,0 0,0 1,-1 0,-1 2,-4 2,-5 1,-3 2,-2 2,-5 2,-1 0,-1 2,-3l1 -3c1,-1 1,-1 1,-3l1 0c0,-2 0,-2 0,-3 2,-2 1,-1 1,-3 1,-1 1,0 1,-2 0,0 0,-1 1,-1 0,-2 0,-1 1,-3 0,-3 1,-2 1,-5l1 -1c0,-1 0,-3 1,-4 1,-1 0,0 0,-1 1,-1 1,-2 1,-3 1,-1 1,-1 1,-4 0,-2 1,0 1,-2 1,-2 0,-2 1,-4 1,-1 1,-2 1,-3l0 -2c1,-1 1,-2 1,-4 0,-3 1,-3 1,-5 0,-1 0,-1 0,-2 0,-2 1,0 2,-7 0,-1 0,-2 0,-3 1,-2 1,-4 1,-6 0,-3 1,-2 1,-9 0,-1 0,-2 0,-4 0,-3 1,-2 1,-4 0,0 0,-1 0,-1 1,-3 0,-6 0,-9 0,-1 0,-1 -1,-1l-123 0c-1,0 -2,0 -3,1z"/>
     <path class="fil3" d="M886 307c-2,0 -4,2 -4,2l-2 1c0,0 0,0 0,0l-2 2c0,0 0,0 0,0l-3 2c-1,1 -3,2 -4,3l-7 4c0,0 0,0 0,0l-5 4c-1,0 -1,0 -2,1 -1,0 -2,1 -3,1 0,1 0,1 0,1l-1 0c-2,1 -3,2 -5,2l0 1c-1,0 -2,1 -4,2l-2 1c0,1 0,0 0,1l-10 5c-1,0 0,0 -1,0l-1 1c-2,0 -1,0 -2,1l-4 1c0,1 0,1 0,1l-3 1c-1,0 -1,0 -2,1 -1,0 -1,0 -3,1 -1,0 -1,0 -1,1 -2,1 -3,-1 -3,3 0,0 0,0 0,0 0,2 1,1 1,3 0,0 0,1 0,1l2 3c0,3 0,1 1,3 0,1 0,1 0,2 0,1 0,0 1,1 0,1 0,3 0,4 1,1 1,1 1,3 1,3 1,0 2,3 0,2 -1,1 0,3 1,2 1,2 1,4 0,2 1,0 1,3 1,3 0,1 1,3 1,1 0,2 1,4 0,2 1,0 1,3 0,2 -1,2 0,3 2,3 1,4 1,6 1,2 1,0 1,5 0,2 1,2 2,3 0,1 0,3 0,4 0,3 1,2 1,4 0,1 0,3 0,4 0,3 1,2 1,4 1,2 0,5 1,7 0,1 0,0 0,1 1,2 0,7 1,9 0,2 1,2 1,4 0,3 -1,8 0,11 1,2 1,2 1,2 1,2 0,16 0,19 1,0 2,1 3,1l123 0c2,0 1,-4 1,-6 0,-2 0,-3 0,-4l-1 -3c-1,-4 1,-9 -1,-13l0 -2c0,-2 0,-4 0,-6 -1,-2 -1,-1 -1,-1 -1,-2 0,-5 -1,-7 -1,-2 -1,0 -1,-4 0,-1 0,-1 0,-1l0 -2c-1,-1 -1,1 -1,-2 0,-5 0,-2 -1,-4 -1,-2 0,-3 -1,-4 0,-2 0,0 -1,-3 0,-1 0,-2 0,-2 0,-1 0,-1 -1,-1 0,-1 0,-3 0,-4 -1,-1 -1,0 -1,-3 0,0 0,-1 -1,-1 0,-1 0,0 0,-1l-1 -2c0,0 0,-1 0,-1 0,-2 0,0 -1,-2 0,-1 0,-2 0,-2 -1,-2 -1,-2 -1,-3 -1,-2 0,0 -1,-2 0,0 0,0 -1,-1 0,-1 0,-1 0,-2 0,-1 0,0 -1,-1 0,-1 0,0 0,-1 0,-2 -1,-2 -1,-3 0,-2 -1,-2 -1,-3 -1,-1 0,-1 -1,-2 0,-1 0,0 -1,-1 0,-1 0,-1 0,-2 -1,-1 -1,0 -1,-1 -1,-3 -1,-2 -1,-3l-1 -1c0,-2 -1,0 -1,-3l-1 -1c0,-2 0,-1 -1,-3l-1 -2c-1,-1 0,-2 -1,-2 0,-1 0,0 0,-1l-1 -1c0,-1 1,-1 -1,-1 0,-1 0,-2 -1,-3 0,-2 -1,-1 -2,-3l0 -2c-1,0 0,1 -1,0l-4 -7c0,-1 0,-1 -1,-2 0,0 0,0 0,0l-8 -13c0,0 -1,0 -1,0l-1 -2c0,0 0,0 0,-1l-8 -10c-1,-1 0,-1 -2,-1l0 -1c-1,-1 -1,-1 -2,-3 0,0 0,0 0,0 -1,-1 -1,-3 -3,-3 0,-1 0,0 0,-1l-4 -5 -3 0c0,1 0,0 0,1l-1 1c0,0 -1,0 -1,0l0 0c0,0 0,0 0,0l-1 1c0,0 0,0 0,1z"/>
     <path class="fil3" d="M466 309c-1,0 0,0 -1,1l-2 3c-1,1 0,1 -2,2l0 1c-1,0 -1,0 -1,1l-7 9c0,0 0,0 0,0l-1 2c-1,1 -1,-1 -1,1 0,0 0,0 0,1 -1,0 -1,0 -1,0 0,1 -1,2 -2,3 0,0 0,0 0,0l-2 4c-1,1 -2,2 -3,3l-1 2c0,1 0,1 -1,1l-6 12c-1,1 -1,1 -1,2 -1,0 -1,0 -1,1 -1,1 0,1 0,2 -3,0 -1,0 -3,3 0,0 0,0 0,0l-2 5c-1,0 0,0 0,0 -1,1 -1,2 -1,2l-1 1c0,3 0,1 -1,2l-2 5c0,1 0,0 0,1 -1,1 0,1 -1,3 -1,1 -1,2 -2,3 0,1 0,0 0,1 -1,2 -1,2 -1,3 -1,1 0,1 -1,2 -1,1 0,0 -1,1 0,1 0,1 0,2 0,2 -1,1 -1,3l-1 2c-1,1 -1,3 -1,4 -1,1 0,-1 -1,1 -1,3 -1,3 -1,5 0,0 0,1 0,1 -1,1 -1,1 -1,2 -1,2 0,1 -1,5 -1,1 -1,3 -1,4 -1,1 -1,3 -1,4 -1,2 -1,1 -2,5 0,3 -1,1 -1,7 0,2 -1,2 -1,5 0,2 0,3 -1,4l0 3c0,1 0,2 0,4 0,3 -2,3 -2,6 0,2 1,7 0,8 0,2 0,2 -1,4l0 8c0,1 1,2 2,2l123 0c1,0 1,-1 2,-1 0,-3 0,-17 0,-19 1,0 1,0 1,-1 1,-2 1,-4 1,-7 0,-2 -1,-5 0,-7 0,0 0,0 0,-1 2,-2 0,-6 1,-9 0,-2 1,-1 1,-4 0,-1 0,-3 0,-5 0,-2 1,-1 1,-3 1,-1 0,-3 0,-5 1,-2 2,-1 2,-3 0,-2 0,-4 0,-5 1,-1 1,-1 1,-3 0,-1 0,-3 0,-4 1,-1 1,-1 1,-3 0,-4 1,-3 2,-5 0,0 0,-1 0,-2 0,-3 0,-1 1,-3 0,-1 0,-3 0,-4 1,-2 1,1 1,-3 0,-2 1,-2 1,-3 1,-1 0,-2 1,-4 1,-1 1,-1 1,-3 0,-1 1,-1 1,-3l1 -3c0,-1 0,-2 1,-3 0,-1 0,-1 1,-2 0,0 0,-1 0,-2 0,-2 0,0 1,-3l2 -6c0,0 1,-2 0,-3 0,-1 -1,0 -2,-1 0,0 0,-1 -1,-1l-2 -1c-2,-1 -5,-1 -6,-3 -2,0 -4,-1 -5,-2l-8 -4c-2,-1 -4,-2 -5,-3l-4 -2c-1,0 -2,-1 -3,-1l0 -1c-1,0 -1,0 -1,0 -2,0 -3,-2 -4,-3l-1 0c-1,-1 -1,-1 -3,-1 0,-1 -1,-1 -2,-2l-4 -2c-1,-1 -2,-2 -4,-2l-1 -2c0,0 0,0 0,0l-2 -1c0,0 0,0 0,0 0,0 0,0 -1,0 -1,-1 -2,-2 -3,-3l-7 -5c0,0 0,0 0,0l-2 -1c-1,-1 0,-1 -2,-1 0,-2 -1,-2 -3,-3 0,0 0,1 -1,-1l-2 0 -1 1c0,1 0,1 0,1 0,0 0,0 0,0l-1 1c-1,1 -1,1 -1,1 -1,1 -2,1 -2,2z"/>
     <path class="fil3" d="M546 500l0 14c0,2 0,3 1,4 1,3 -1,11 0,14 1,2 1,1 1,3 0,2 0,3 0,5 0,5 1,2 2,6 0,2 -1,5 0,6 1,1 1,1 1,2 0,2 -1,4 0,6 1,2 1,0 1,4 0,4 1,3 1,4 0,2 0,4 1,5 0,2 0,-1 1,4 0,3 1,2 1,4 0,2 -1,4 1,4 0,9 1,3 2,8 0,3 0,1 1,3 0,0 0,4 0,4l1 0c0,5 0,3 1,5 0,0 0,0 0,1 0,0 0,1 0,1l1 2c1,2 0,1 1,3 0,0 0,0 0,0 1,2 1,0 1,2 0,1 0,1 1,3 0,1 0,-1 0,1 0,0 0,1 0,1 1,2 1,1 2,3 0,2 1,5 2,6 1,2 0,1 1,3 1,1 0,-1 0,1 1,3 0,1 1,3 1,1 1,1 1,3 1,0 0,-1 1,1 0,0 0,1 0,1 1,2 1,1 2,3 4,0 1,0 6,-1l2 -1c1,-1 0,0 2,-1 2,0 2,0 3,-1 0,0 2,0 3,0 2,0 0,-1 2,-1 1,0 2,0 3,-1 2,0 1,0 3,0 0,0 2,-1 3,-1 0,0 0,0 0,0 1,0 0,0 2,-1 1,0 3,0 4,0 1,0 1,-1 2,-1 1,0 2,0 4,0 1,0 0,0 1,-1 1,0 -1,0 1,0 1,0 2,-1 3,-1 3,0 2,1 3,0 0,0 0,0 0,0 2,-1 4,-1 6,-1 2,0 2,0 3,-1 2,-1 5,0 7,0 0,0 1,0 1,0 2,-1 1,-1 5,-1 2,0 4,0 6,0 2,0 3,0 3,-1 2,0 1,-1 3,-1 4,0 10,0 14,0 0,-1 1,-1 1,-2l0 -124c0,0 -1,-1 -2,-1l-123 0c0,0 -1,0 -1,0z"/>
     <path class="fil3" d="M691 501l0 124c0,1 0,1 0,2 5,0 10,0 14,0 3,0 2,2 6,2 5,0 7,-1 11,0 2,2 5,0 8,1 3,1 0,1 6,1 1,0 2,0 3,1 0,0 0,0 0,0 1,0 1,0 3,0 5,1 4,1 5,2 2,0 3,-1 6,1 2,0 3,0 5,0 2,1 0,0 1,1 2,1 2,0 6,1 1,1 2,1 3,1 2,0 1,0 2,1 2,0 3,0 4,1 2,1 1,0 3,0 3,1 0,1 4,2 3,0 1,1 6,1 0,-2 0,0 1,-4 1,-2 1,0 2,-2 0,-3 1,-2 1,-4 0,-3 0,-1 1,-3 1,-1 0,0 1,-2 1,-2 0,-2 1,-4l1 -2c0,-3 1,0 1,-4 1,-2 1,0 2,-4 0,-3 0,1 1,-4 0,-2 0,0 0,-1 1,-1 0,0 1,-1 0,-1 0,-1 0,-2 0,-2 0,0 1,-2 1,-1 0,-3 0,-4l1 0c1,-8 2,-3 2,-7 0,-3 0,-1 1,-3 0,-1 0,-3 0,-5 2,0 1,-1 2,-3 0,-3 1,-2 1,-5 0,0 0,-2 0,-2 0,-1 0,-1 1,-2 0,-1 0,-3 0,-5 1,-1 1,0 1,-3 0,-3 0,-3 1,-5 0,0 0,1 0,0 1,-2 1,-4 1,-6 0,-2 0,0 0,-1 2,-3 0,-7 1,-9 1,-1 1,0 1,-1 0,-1 0,-6 0,-8 0,-2 1,-1 1,-3 1,-1 1,-3 1,-5 0,-2 -1,-7 0,-9 1,-4 1,-2 1,-8 0,-3 0,-6 0,-10 -1,0 -1,0 -2,0l-123 0c-1,0 -1,1 -1,1z"/>
     <path class="fil3" d="M783 359c-1,0 -1,0 -1,1 -2,0 -4,-1 -4,1 -1,0 -2,0 -3,0 -2,0 -1,1 -2,1 -1,1 -2,0 -3,1 -1,0 -1,0 -2,1 -1,0 -2,0 -3,0 -1,0 -1,1 -2,1 -1,0 -2,0 -3,0 -2,0 -1,1 -2,1 -2,1 -3,0 -5,1 -2,1 -1,1 -3,1 -5,0 -3,0 -5,1 -1,0 -4,0 -6,0 -1,1 0,1 -2,1 -2,0 -4,0 -6,1 -2,1 1,1 -5,1l-4 0c-3,1 1,1 -7,1 -3,0 -4,0 -6,0 -3,0 0,1 -6,1 -3,0 -8,0 -12,0 0,1 0,2 0,3l0 102c0,1 0,2 1,2l123 0c1,0 1,0 2,-1 0,-5 1,-13 -1,-17 -1,-3 0,-9 0,-13 -1,-2 -1,-2 -1,-3 0,0 0,0 0,0l-1 -1c0,-2 1,-6 0,-9 -1,-1 -1,0 -1,-3 0,-10 -1,-5 -1,-8 0,-1 0,-3 0,-5 -1,-2 -1,-1 -2,-3 0,-2 1,-3 0,-5 -1,-2 -1,1 -1,-3 0,-1 0,-2 0,-2 0,-3 -1,-1 -1,-4 0,0 0,-1 0,-2 0,-3 -1,-1 -1,-3 -1,-2 0,-3 -1,-4 -1,-2 -1,0 -1,-2 0,-1 0,-1 0,-2 0,-2 -1,-1 -1,-3 0,-5 -1,-3 -1,-4 -1,-1 0,-3 -1,-4 -1,-1 0,1 -1,-1 0,-1 1,-2 0,-3 0,-2 -1,1 -1,-3 0,-2 -1,-1 -1,-3 0,-1 0,-2 0,-2 -1,-2 -1,1 -2,-4 0,-1 0,-1 -1,-1 0,-2 0,-2 -1,-4 -1,-3 1,-3 -3,-3 -2,0 -2,1 -2,1 -1,1 -2,0 -3,0 -2,1 1,2 -4,2z"/>
     <path class="fil3" d="M562 375c-1,1 -1,1 -1,3 0,3 0,0 -1,2 0,1 0,3 0,4 -1,1 -1,0 -1,3 -1,5 -1,0 -2,6 0,2 0,1 -1,3 0,1 0,2 0,3 0,1 -1,1 -1,2 -1,2 0,3 -1,5 -2,2 0,4 -1,6 0,1 -1,0 -1,2 0,2 0,3 0,4 0,3 -1,-1 -1,7 0,4 -2,1 -2,6 1,11 -1,-1 -1,14 0,0 0,1 0,2 0,1 -1,0 -1,4 0,2 0,10 0,11 -2,6 -1,11 -1,18 0,1 0,1 1,1l123 0c1,0 2,-1 2,-2l0 -102c0,-1 -1,-2 -1,-3 -4,-1 -13,0 -15,0 -1,0 0,-1 -2,-1 -2,0 -4,0 -6,0 -3,0 -4,0 -6,-1 -1,0 0,0 -1,0 0,0 -1,0 -1,0 -2,-1 -4,0 -6,0 -1,0 -1,0 -2,-1l0 0c0,0 0,0 0,0 -2,-1 -4,-1 -7,-1 -2,0 -1,-1 -4,-1 -6,0 -3,0 -5,-1 -2,-1 -4,0 -6,-1 -1,0 0,-1 -2,-1 -6,0 -2,0 -5,-1 -1,0 -2,0 -3,0 -2,0 -1,-1 -2,-1 -1,0 -2,0 -3,0 -1,-1 -1,-1 -2,-1 -1,-1 -2,0 -3,-1 -2,0 0,0 -2,-1 -1,0 -3,0 -3,0 -1,-2 -2,-1 -5,-1 0,-1 0,-1 0,-1l-3 0c-1,-1 -1,-1 -1,-2 -7,0 0,-1 -7,-1 -1,0 -1,1 -1,2 -1,2 -1,0 -2,4 0,0 0,0 0,0 0,2 -1,0 -1,3 0,2 -1,2 -1,2 0,1 0,2 0,3 -1,1 -1,1 -2,2 0,1 0,2 0,3z"/>
     <path class="fil3" d="M691 211l0 143c0,1 0,1 0,2 2,0 2,0 3,0 3,0 8,0 11,-1 2,-1 4,0 6,0 2,0 2,0 3,-1 1,0 3,1 4,0 1,0 0,0 5,-1 2,0 3,0 4,0 2,0 1,0 3,-1 1,0 5,0 6,0 2,-1 1,-1 3,-1 1,-1 3,0 4,-1 2,0 -1,1 1,0l4 -1c4,0 1,-1 6,-1 2,0 1,0 2,-1 1,-1 2,0 4,0 2,0 0,-1 2,-1 1,-1 2,0 3,-1 1,0 1,-1 3,-1 1,0 1,1 3,0 1,-1 0,-1 2,-1 3,0 1,-1 3,-1 1,-1 2,0 3,-1 1,0 0,-1 2,-1 3,0 2,0 3,-1l3 -1 -3 -8c-1,-1 -1,-2 -2,-2 0,-1 0,-1 0,-1 0,0 0,1 0,0 -1,-2 0,-1 -1,-2 -1,-1 -1,-1 -1,-2 0,-1 0,-1 -1,-1 0,-3 0,-1 -1,-3l-1 -3c0,0 0,0 0,0 -1,-2 -1,-1 -1,-2l-1 -1c0,-1 0,0 -1,-2 0,0 0,-1 0,-1l-1 -1c0,0 0,0 0,0 -1,-1 0,-2 -2,-2 0,-2 -1,-4 -2,-6l-2 -3c0,0 0,0 0,0 -1,-1 -1,-2 -1,-3l-1 0c0,-2 -3,-4 -3,-6l-1 0c0,-2 0,-2 -1,-3l-2 -3c-1,-1 -1,0 -1,-2l-1 0c0,-3 -1,-2 -2,-4l-1 0c0,-2 0,-2 -1,-3l-5 -8c-1,0 0,0 -1,-1l0 0c0,0 0,0 0,0l-5 -6c0,0 0,0 0,0 0,0 0,0 0,0l-2 -3c-1,-2 -1,-2 -3,-2 0,-1 0,-1 0,-1l-1 -2c-1,0 0,0 -1,0 0,-2 -1,-3 -3,-4 0,0 0,0 0,-1l0 0c-1,0 -1,0 -1,0 0,-1 0,-1 -1,-1 0,-1 0,-1 0,-1 -1,-1 0,-1 -2,-1 0,-1 0,-1 -1,-1 0,-1 0,-1 -1,-2 0,-2 0,0 -1,-1 -1,-1 -1,-1 -1,-1 0,-1 -1,-2 -2,-2l-3 -4c-1,-1 0,0 -1,-1 0,-1 0,0 -1,-1l-2 -2c-1,-1 0,0 -1,0 0,-2 0,-2 -1,-2 -1,-1 -1,-1 -2,-1 0,-1 0,-1 -1,-1 0,-2 0,-1 -1,-2l-5 -4c-1,-1 -1,-2 -3,-2 0,-3 -1,0 -1,-3 -2,0 -1,0 -2,-1 -1,-1 -6,-5 -6,-1z"/>
     <path class="fil3" d="M664 213c0,3 -1,0 -1,3 -2,0 -1,0 -2,0 0,0 0,1 0,1l-2 1c0,0 0,0 0,0 -1,1 -1,1 -1,1l-3 3c0,0 0,0 0,0 -1,1 -1,0 -1,2 -2,0 -2,0 -2,1 -1,0 -1,0 -1,1 -1,0 -1,0 -1,2 -2,0 -1,0 -2,0l-2 2c0,1 0,0 0,1 -2,1 -1,0 -2,1l-6 7c0,1 0,0 0,1 -1,1 -1,1 -2,2 -1,0 -1,0 -1,1 -1,0 -1,1 -3,2l0 1c0,0 0,0 0,0l-1 1c-1,2 -2,2 -2,4 -2,0 -2,1 -2,1 -1,1 -1,0 -1,2 -2,0 0,-1 -1,1l-13 16c0,1 0,0 0,1l-3 5 -1 0c0,2 -1,1 -1,4l-1 0c-1,1 -1,1 -1,2 0,0 -1,0 -1,0 0,0 0,0 0,0l-2 3c0,1 -1,1 -1,3l-1 0c0,2 -1,2 -1,3 -1,2 -1,2 -2,3l0 0c-1,3 -1,2 -2,3l-3 6c0,0 0,0 -1,1 0,1 0,1 0,2 -2,0 -1,1 -2,3l-1 1c0,1 0,1 -1,2 0,2 0,1 -1,2 0,1 0,1 -1,2l-1 2c0,1 0,0 -1,2 0,0 0,1 0,1l-1 1 0 2c-1,1 -1,0 -1,2 -1,1 -1,0 -1,1 -1,1 0,1 -1,1 0,1 0,1 0,1 -1,2 -2,5 -2,6l-1 1c0,0 0,0 0,0 0,0 0,0 0,0l0 1 2 1c2,1 1,1 3,1 2,0 1,1 3,1 1,1 2,0 3,1 1,0 -1,1 2,1 3,0 1,0 3,1 1,1 1,0 3,0 2,0 1,1 2,1 1,1 2,0 3,1 2,0 1,1 3,1 1,0 2,-1 3,0 2,1 0,1 3,1 5,0 2,1 6,1 4,0 3,1 5,2 6,0 3,0 6,1 1,0 5,0 7,0 1,1 1,1 3,1l6 0c3,1 -1,1 6,1l7 1c5,0 -1,1 10,1 1,0 2,0 3,0 2,0 2,0 3,0 0,-1 1,-1 1,-2l0 -143c0,-4 -4,-1 -5,0l-1 1c-1,1 -1,1 -2,1z"/>
     <path class="fil3" d="M561 235c0,1 0,1 0,2 -1,0 -1,-1 -2,0 -1,0 0,0 -2,1l-3 1c-1,0 0,0 -1,1l-3 2c-1,0 -2,-1 -2,1 -1,0 -1,0 -2,0l-1 1c-1,1 -1,0 -2,1 0,0 0,0 0,0 -1,1 -1,0 -1,1 -2,1 -3,2 -4,2 -1,1 -1,0 -1,1 -2,0 -3,1 -4,2l-3 2c0,0 0,0 0,0 0,0 0,0 0,0l-2 1c0,1 -1,1 -2,1l0 1c-2,0 -1,1 -4,1l0 1c-1,1 -1,1 -3,2l-3 3c-1,0 0,0 -1,0l-1 1c-1,1 -1,0 -1,1l-1 0 0 1c-2,0 -3,1 -4,2l-4 4c-1,1 -2,1 -2,2 -2,0 -2,0 -2,2l-1 0c0,1 -1,1 -2,2l-5 4c-1,1 -1,0 -1,1 -1,0 -1,0 -1,2 -1,0 -2,1 -3,2 0,0 0,0 0,0 -1,1 -1,1 -1,2 0,1 0,2 1,2l7 5c0,0 0,0 1,1 1,1 -1,0 1,0 0,2 0,1 1,2l1 0c1,1 0,1 2,1 0,1 1,1 1,1 1,1 2,2 3,2 0,1 0,0 1,1 1,1 -1,-1 0,0l1 0c1,1 0,1 2,1 0,2 1,1 2,2 0,0 0,0 1,1l4 2c0,0 0,0 0,0 0,0 0,0 0,1 2,0 3,1 3,1l2 1c0,0 1,0 1,0 0,0 0,1 0,1l0 0c0,0 0,0 0,0 0,0 0,0 1,0l3 2c0,0 0,0 0,0l3 1c0,1 1,1 2,1l0 1c1,0 2,1 3,1 0,1 -1,0 0,1 1,0 1,0 1,0l2 1c0,0 0,0 0,0l5 2c1,1 1,1 2,1 0,2 2,1 3,2l7 3c1,0 0,0 1,0 2,1 0,1 4,1 1,0 0,0 1,-1 1,-1 1,-1 1,-3l1 0c0,-2 1,-2 1,-3 0,-1 0,-2 1,-2 0,-1 0,-1 1,-2 0,0 0,0 0,-1 0,-2 -1,1 0,0l1 -2c0,-1 1,-2 1,-3 0,0 0,-1 0,-1 2,0 2,-1 2,-3 1,0 1,-1 1,-2 1,0 1,-1 1,-3 1,0 1,0 1,0l0 -2c3,-1 1,-1 2,-3l1 -1c1,-2 2,-3 3,-5 0,0 0,0 0,0l1 -2c0,-1 0,-1 0,-1 1,-1 0,0 1,-1 0,-1 0,0 0,-1 1,-1 0,0 1,-1 0,0 0,0 0,0l4 -7c0,0 0,0 0,0l5 -7c1,-1 1,-1 1,-3l1 0c0,-2 1,-1 1,-4l1 0c1,-2 2,0 2,-3 1,-1 1,-1 1,-1 1,-2 2,-3 2,-4l1 0c1,-2 2,-3 2,-4 2,-1 1,0 2,-1 0,0 0,0 0,-1l1 0c0,0 0,-1 0,-1 0,0 1,-1 1,-3 2,0 1,0 2,-1l4 -5c1,-1 1,0 1,-2 1,0 1,0 3,-3 1,-1 0,-2 2,-2 0,-2 1,0 1,-2 1,0 1,-1 2,-2l5 -5c0,-1 -1,-1 1,-1 0,-1 0,-1 1,-1 0,-2 0,-1 1,-2l1 -1c0,0 0,0 0,0 1,-1 1,0 1,-1 1,0 1,0 1,-2 1,0 1,0 1,-1 2,0 1,0 2,-1l1 -2c1,0 1,0 1,-1 -1,-1 -3,-1 -5,-1l-2 1c-2,1 -5,0 -6,1 -1,1 0,0 -1,1 -1,0 -2,0 -3,0 -2,0 -1,0 -2,1 -1,0 -4,0 -5,1 -1,0 0,0 -1,0l-3 0c0,0 0,0 0,0 -2,1 -1,1 -3,2 -2,0 -3,1 -6,1 -1,0 -2,1 -3,1 -3,1 -1,1 -3,1 -1,0 -1,1 -2,1 -2,0 0,0 -2,1 -1,0 -1,0 -2,0 -1,0 -1,1 -2,1 -1,0 -1,0 -2,1l-3 1c0,0 0,0 -1,0l-3 1c-1,1 0,1 -2,1 0,0 0,0 -1,0 0,0 0,0 0,1 -2,1 -2,0 -3,1 -2,1 0,0 -2,1 -2,0 -1,1 -3,1 -1,0 -1,0 -1,1 -1,0 0,0 -1,0 0,0 -1,0 -2,0z"/>
     <path class="fil3" d="M726 214c1,1 2,2 2,3 0,0 0,0 1,0 0,0 0,0 0,0 0,1 0,1 1,1 0,1 0,1 1,1 1,2 1,2 2,2 0,2 2,2 2,4 2,0 2,0 2,1 1,0 1,0 1,1l5 5c0,1 0,2 1,2 1,2 1,0 2,2 1,0 1,2 2,3 2,2 1,2 3,2 0,2 2,3 3,5 0,0 1,1 1,2 1,1 1,1 2,1 0,2 1,3 2,4l0 0c0,0 0,0 0,0 0,0 0,0 1,0 0,0 0,0 0,0 1,2 -1,1 1,2 0,1 2,3 3,4l0 0c0,1 0,1 1,1 0,0 0,0 0,0l1 2c1,1 0,1 2,2 0,3 1,1 1,3l1 0c0,3 2,2 2,4l1 0c0,1 0,2 0,3 1,0 1,0 1,0l1 1c1,1 0,2 1,3l2 3c0,0 0,0 0,0 1,1 0,0 1,1l5 8c0,1 0,0 0,1 1,0 0,0 1,1l1 3c1,0 0,0 1,1 1,2 1,3 2,4 1,1 0,2 2,3l0 2c1,0 0,0 1,0 0,1 0,1 0,2 1,1 1,1 2,1 0,0 0,1 0,2 0,0 0,0 1,0 0,1 0,2 0,2 0,1 0,1 1,1 0,3 1,2 1,3 1,2 0,1 1,2l1 2c0,1 1,1 1,2 1,3 2,2 2,5l1 0c0,2 0,2 1,4 1,0 -1,0 3,0 1,0 0,0 3,-1 2,-1 1,-1 2,-1l6 -3c1,0 1,0 1,-1 3,0 2,-1 4,-1l2 -2c0,0 0,0 0,0 1,0 0,1 1,0 0,0 0,0 1,0 0,0 0,0 0,0l3 -2c1,-1 1,-1 2,-1l0 -1c1,0 2,0 2,0l4 -2c0,0 0,0 0,0l2 -1c0,-1 1,-1 1,-1 0,0 1,0 1,0 0,0 0,-1 0,-1l5 -3c0,0 1,0 1,0l3 -2c0,0 0,0 0,0 3,-2 3,-1 4,-3 1,0 2,-1 3,-1 1,-1 0,0 0,-1 2,0 3,-1 4,-2 0,-1 0,0 0,-1 2,0 2,0 3,-1 1,-1 1,0 1,-2 2,0 1,1 2,0l8 -6c1,-1 1,-3 0,-4 -2,-1 -2,-2 -3,-2 -1,-2 -1,-2 -2,-2 0,-1 0,-1 -1,-2l-4 -3c0,0 0,0 -1,0 0,0 0,-1 0,-1 -1,0 -1,0 -1,-1l-2 0c0,-2 0,-2 -1,-2 0,-1 -1,-1 -2,-2l-3 -2c0,0 0,0 0,0l-2 -2c-1,-1 -2,-2 -3,-2l0 -1 -2 0c0,-1 0,-1 -1,-1l-5 -4c-1,-1 -2,-1 -3,-2l0 -1c-2,0 -1,-1 -4,-1l0 -1c-1,0 -1,0 -2,-1l-8 -5c0,-1 -1,0 -2,-1 0,0 0,0 0,0l-3 -2c-1,0 -1,0 -1,-1l-2 -1c-1,0 -1,0 -2,-1 -1,0 -1,0 -2,0 0,-2 1,-1 -1,-1 -2,-1 -1,-1 -2,-1 -1,-1 0,-1 -1,-1 -1,0 0,0 -1,0 -1,-1 0,0 -1,-1 0,0 0,0 0,0l-3 -1c-2,-1 -1,-1 -2,-1l-2 0c0,-1 0,-1 0,-2 -2,0 -2,0 -3,-1l-4 -1c-1,-1 -1,-1 -1,-1 -1,-1 -1,0 -2,-1 -2,0 0,0 -2,-1 -2,0 -1,1 -2,-1 -1,0 0,0 -1,0l-3 -1c0,0 0,0 -1,0l-4 -2c-2,0 -1,0 -2,-1 -1,0 -1,0 -2,0 -2,-1 -1,-1 -2,-1 -3,-1 0,0 -4,-1 0,-1 0,-1 -1,-1 -2,0 -3,-1 -4,-1 -2,0 -2,-1 -3,-1 -1,0 -2,0 -2,0 0,0 -1,0 -1,-1 -2,0 -2,-1 -5,-1l-1 0c-3,-2 -3,-1 -5,-1 -1,-1 0,-1 -2,-1 0,0 -1,0 -3,0 -2,0 0,0 -2,-1 -1,-1 -3,0 -5,-1 -2,0 -4,-2 -8,0z"/>
     <path class="fil3" d="M585 661c0,3 0,2 0,3 1,1 1,1 1,2l4 7c0,1 0,1 1,1 0,1 0,1 0,2l5 9c1,1 0,0 1,1 1,1 1,1 2,2l1 2c0,0 0,0 0,0 0,0 0,0 0,0 0,2 0,2 1,2 0,2 2,3 3,4l0 2c1,0 0,0 1,0 0,0 0,0 0,1l0 0c1,1 0,1 2,1 0,3 1,1 1,4l1 0c0,3 1,1 2,4 1,0 1,0 1,1l4 6c1,1 0,0 1,0 0,1 0,0 0,2 2,0 1,0 2,1l1 2c1,1 1,0 1,2 1,0 1,0 2,2 1,0 1,0 1,1 0,0 0,0 1,1 0,0 0,0 0,0 0,0 0,0 0,0l0 1c0,0 0,0 0,0l4 4c0,0 1,1 1,1 0,0 0,0 0,1l1 1c0,0 0,0 0,0l3 3c0,0 0,1 1,1 0,2 1,0 1,2 2,0 1,1 4,4l3 3c0,0 0,0 0,0l6 6c0,0 0,0 0,0 1,1 1,1 2,2 0,1 0,1 1,1 0,1 0,1 2,1 0,1 0,1 0,1 0,0 0,0 0,1l7 5c1,1 0,1 2,1 0,2 0,1 1,2 1,1 8,8 8,3l0 -123c0,-1 -1,-1 -2,-1 -3,0 -10,-1 -13,0 -3,2 -9,0 -13,2 -1,0 -1,0 -1,0 -3,1 -7,-1 -10,1 -1,0 1,0 -2,1 -2,0 -5,-1 -6,0 -2,2 -4,0 -7,1 -1,1 0,1 -2,1 0,0 -2,0 -2,0l-2 0c0,1 0,1 -1,1 -1,0 1,0 -2,0 -4,0 -3,1 -4,2 -1,0 -2,0 -3,0 -2,0 -1,0 -2,1 -1,0 -2,0 -3,0 -2,0 -1,1 -3,1 -1,0 -2,0 -3,1 -2,1 -1,0 -3,1 -1,0 -1,0 -2,0 -1,1 -1,1 -1,2z"/>
     <path class="fil3" d="M691 647l0 123c0,5 6,-1 7,-3l1 0c1,-1 1,0 1,-2 1,0 1,-1 2,-2l6 -4c1,-1 1,0 1,-2 1,0 1,0 1,-1 1,0 1,0 2,-1 1,-1 1,-1 2,-2l7 -7c0,-1 0,-1 0,-1 1,0 1,-1 1,-1l2 -2c0,0 1,0 1,-1 0,-1 0,-1 1,-1 0,-2 1,0 1,-2 2,0 1,-1 2,-2l6 -6c0,0 0,0 0,0 0,0 0,0 0,0l0 -1c0,0 1,0 1,0l1 -2c0,0 0,0 0,0l2 -3c1,-1 1,-2 2,-2 1,-2 1,-2 3,-4 0,-1 0,-1 1,-1 0,-2 1,-1 2,-2 0,-1 0,-1 0,-2l2 -1c1,-2 2,-3 2,-4l1 0c0,-3 1,-1 1,-4l1 0c1,-3 2,-1 2,-4 2,0 0,0 1,0l3 -5c1,-1 1,-1 1,-3 2,0 1,-1 1,-2 2,0 1,-1 2,-2 1,-1 1,-1 1,-2 1,-1 1,0 1,-1l5 -8c0,-1 0,-1 0,-3 2,0 1,0 2,-1l1 -2c0,0 0,0 0,0 0,0 0,-1 1,-2l0 -2c1,-2 1,0 1,-1l1 -2c1,-1 1,0 1,-3 0,-1 -1,-1 -1,-2 -1,0 -1,0 -2,0 -4,-1 -3,-1 -6,-2l-2 0c-1,-1 -2,-1 -4,-1 -2,-1 0,-1 -2,-1 -2,-1 -3,0 -4,-1 -2,-1 -3,0 -5,-1 -1,0 0,0 -1,0 0,-1 1,0 0,-1 -1,0 -2,0 -2,0 -1,0 -2,0 -3,0 -1,0 0,0 -2,-1 0,0 -1,0 -2,0 -5,0 -2,0 -5,-1 -1,-1 -4,0 -6,0 -2,0 -1,-2 -4,-2 -3,0 -6,1 -8,0 -1,-1 -2,-1 -2,-1 -2,0 -4,0 -6,0 -8,0 -5,-1 -10,-1l-9 0c-1,0 -1,0 -1,1z"/>
     <path class="fil3" d="M555 672c-4,0 -2,0 -4,1 -1,0 -1,0 -2,1l-6 3c-1,0 -1,0 -1,0 -1,0 -1,0 -1,1l-2 0c0,0 0,0 0,0l-12 7c-2,1 -2,1 -3,1 -1,1 0,0 0,1l-3 1 0 0c-1,1 -1,1 -2,2l-7 4c0,0 -1,0 -1,0 0,0 0,0 0,0 -1,1 0,1 -1,1 0,0 0,0 -1,0l-2 1c-1,1 0,0 0,2 -2,0 -2,0 -3,0 -1,1 -1,1 -1,2 -3,0 -2,2 -4,2l0 3 1 0c0,2 2,2 3,3 0,0 0,0 0,0 0,0 0,1 0,1l2 1c0,0 0,0 0,0 2,1 4,3 5,4 2,1 2,0 2,2 2,0 1,0 2,1 1,1 1,1 2,1l4 3c1,1 1,1 2,1l0 1c2,0 2,1 3,1 0,1 0,1 1,1l0 1c2,0 3,1 4,2l5 3c1,0 1,0 2,0 0,2 0,1 1,2l5 3c1,1 2,0 3,1 0,0 0,0 0,0 1,1 1,1 2,1 0,2 1,1 2,1 2,1 0,0 1,1l2 1c0,0 0,0 0,0l7 3c0,0 0,0 0,0 1,1 1,1 2,1l3 2c1,0 1,0 2,1 1,0 2,0 2,1 2,1 2,0 3,1 1,0 0,0 2,1l2 0c1,1 1,1 2,1 2,1 0,0 2,1 0,0 0,0 0,0 1,0 1,0 2,1 1,0 0,0 1,0 1,1 1,0 2,1 2,0 0,0 2,1 3,0 2,1 4,1 0,0 0,0 0,0 3,1 3,1 4,1 2,1 3,2 4,2 1,0 1,0 2,0 2,0 1,1 3,1l2 0c1,1 0,1 2,1l3 1c2,0 1,1 4,1 3,0 2,1 6,1 3,0 1,0 3,1 2,1 3,0 6,1 2,1 4,1 6,0 0,-1 0,-1 -1,-2 0,0 0,0 0,0l-3 -3c0,0 1,0 0,0 -1,-1 1,-1 -1,-1 0,-1 0,-1 -1,-1 0,-1 -1,-1 -2,-2 0,-1 -1,-1 -1,-2 -1,0 -1,0 -1,-1 -2,0 -1,0 -1,-1 0,0 -1,0 -1,0l-1 -1c0,0 0,0 0,-1l-4 -4c-1,-1 1,-1 -1,-1 0,-3 -1,0 -1,-2 -3,-1 0,-2 -3,-2 0,-2 -1,-3 -3,-4l0 -1c0,0 -1,-1 -1,-1l-1 -1c-1,-1 -1,-2 -2,-3l0 0c-1,-1 -1,-1 -1,-2l-1 0c0,0 0,0 0,0 0,0 0,0 0,0l-6 -9c-1,-1 0,-1 -2,-1 0,-2 -2,-4 -3,-6 0,0 -1,-1 -1,-2 0,0 0,0 0,0l-3 -3c0,0 0,0 0,0l0 -1c-1,-1 -2,-2 -2,-3 -1,-1 -1,0 -1,-1 -1,-2 -2,-3 -3,-5 0,-1 0,-1 -1,-1l-1 -2c0,0 0,0 0,0l-3 -6c0,0 0,0 0,0l-3 -4c0,0 0,0 0,-1 0,0 0,0 0,0 0,0 0,0 0,0 0,0 0,0 0,0 0,0 0,0 -1,-1l-1 -2c0,0 0,-1 0,-2 -1,0 -1,0 -1,0 0,-1 0,-1 0,-1 0,0 0,0 0,0 -1,-2 -1,-2 -2,-3l-2 -4c0,-1 0,-1 -1,-2 -1,-2 0,-2 -2,-3 0,0 0,0 0,-1 -1,0 0,0 -1,0 -2,1 -3,1 -4,2 -1,1 -1,-1 -3,1 -3,1 -2,-1 -3,2z"/>
     <path class="fil3" d="M774 706c0,1 0,1 -1,3l-7 9c0,0 0,0 0,0 0,0 0,1 0,1 0,0 0,0 0,0 -1,1 -1,1 -1,2 -2,0 0,0 -1,1l-4 5c0,0 0,0 0,0 0,0 0,0 0,1l-3 3c-1,1 -1,0 -1,2l-1 0c0,1 0,0 -1,1l-2 4c0,0 0,0 0,0l-1 1c0,0 0,0 0,0l-1 1c-1,1 -2,1 -2,3 -3,0 1,1 -2,2 -1,2 -1,-1 -2,2 -1,0 0,0 -1,1l-3 4c0,0 -1,0 -1,0l-1 2c0,1 0,1 -1,1 0,1 0,1 -2,1 0,2 -2,2 -2,4 -1,0 -1,0 -2,1 -1,0 -1,1 -2,2l0 0c0,0 0,0 0,0l-1 1c-1,1 -1,2 -2,3 4,2 6,0 8,0 2,-1 3,0 5,-1 2,-1 0,-1 2,-1 1,0 2,0 3,0 3,-1 -1,-1 4,-1 3,0 2,-1 5,-1 0,-1 2,-1 2,-1 2,-1 0,0 2,-1 3,0 3,-1 5,-1 0,0 1,0 2,-1 1,0 0,0 2,0 3,-1 2,-1 4,-2l3 0c0,0 0,0 0,0 0,-1 0,-1 0,-1 0,0 0,0 0,0l2 0c2,-1 0,0 2,-1 1,-1 1,0 2,-1 1,0 1,0 3,-1 1,0 0,0 1,0 0,0 1,-1 2,-1 2,0 1,-1 3,-1 2,-1 1,-1 3,-2l2 0c1,-1 1,-1 2,-1 1,-1 1,-1 2,-1 2,-1 1,0 2,-1l2 0c1,-2 0,-1 1,-2 2,0 1,0 2,-1 1,0 2,0 3,-1 1,0 0,0 1,0l1 -1c1,-1 1,0 1,-1 1,0 2,-1 3,-1 1,0 1,0 1,-1 3,0 2,-1 4,-1l5 -4c2,-1 3,0 3,-2 2,0 3,-1 5,-2l1 -1c1,-1 3,-2 4,-2l0 -1c3,0 2,-2 4,-2l0 -1c2,0 1,0 3,-1l5 -4c1,0 1,0 1,0 0,0 0,0 0,0 1,-1 0,-1 2,-1 0,-2 1,-2 2,-3l2 -2c0,0 0,0 0,0 1,0 1,0 1,0 0,0 0,0 0,0l4 -3c0,0 1,-1 1,-1 1,-1 1,0 1,-2l2 0 0 -3c-2,0 -1,-2 -4,-2 0,-1 -1,-1 -2,-2 -1,0 -1,0 -2,0 0,-2 -2,-2 -4,-4l-4 -2c0,0 1,0 0,0l-2 -1c-1,0 0,0 -1,0 0,-1 1,0 0,-1l-1 0c0,-1 0,-1 0,-1 -1,0 -1,0 -3,-1l0 0c-2,-1 -2,-1 -3,-2l-14 -7c-1,-1 -1,-1 -1,-1l-6 -3c0,0 0,0 0,0l-7 -3c0,0 -1,0 -2,0 -1,-3 -1,-1 -3,-2 -1,0 0,0 -1,-1 -1,0 -2,0 -3,0 -1,-1 -1,-1 -3,-2 -3,0 -3,2 -4,4l0 1c0,1 0,0 -1,1l-3 7c-1,1 0,0 -1,1l-1 2c0,0 0,0 0,0 -1,2 0,0 -1,2 0,0 0,0 0,0 0,1 -1,1 -1,2l-2 4c0,0 0,0 0,0 0,0 0,0 -1,0l0 1c0,1 -1,1 -1,2 0,0 0,0 0,0l-4 6c0,0 0,0 0,1 -1,1 -2,2 -2,3 -1,1 0,1 -2,2z"/>
    </g>
   </g>
  </g>
 </g>
</svg>
