<?xml version="1.0" encoding="UTF-8"?>
<!DOCTYPE svg PUBLIC "-//W3C//DTD SVG 1.1//EN" "http://www.w3.org/Graphics/SVG/1.1/DTD/svg11.dtd">
<!-- Creator: CorelDRAW X7 -->
<svg xmlns="http://www.w3.org/2000/svg" xml:space="preserve"  version="1.1" style="shape-rendering:geometricPrecision; text-rendering:geometricPrecision; image-rendering:optimizeQuality; fill-rule:evenodd; clip-rule:evenodd"
viewBox="0 0 1302 1302"
 xmlns:xlink="http://www.w3.org/1999/xlink">
 <defs>
  <style type="text/css">
   <![CDATA[
    .str0 {stroke:#612C75;stroke-width:3}
    .fil3 {fill:none;fill-rule:nonzero}
    .fil0 {fill:#612C75}
    .fil1 {fill:#FFED00}
    .fil2 {fill:#612C75;fill-rule:nonzero}
   ]]>
  </style>
 </defs>
 <g id="Слой_x0020_1">
  <metadata id="CorelCorpID_0Corel-Layer"/>
  <g id="_1087175328">
   <g>
    <ellipse class="fil0" cx="721" cy="473" rx="384" ry="381"/>
    <g>
     <path class="fil1" d="M648 587c-4,6 -5,13 -5,21l0 43c0,21 13,37 29,37l90 0c16,0 29,-16 29,-37l0 -43c0,-8 -2,-15 -5,-21 -22,3 -45,4 -69,4 -24,0 -47,-1 -69,-4zm139 -25c3,-4 4,-9 4,-13l0 0c0,-13 -8,-23 -18,-23l-112 0c-10,0 -18,10 -18,23l0 0c0,4 1,9 3,13 23,3 47,4 71,4 24,0 48,-1 70,-4z"/>
     <path class="fil1" d="M743 529c-23,-133 -126,-278 -254,-287 -82,-6 104,206 101,204l50 -21 -32 46 24 23c0,0 23,4 43,-4 20,-7 -6,18 -6,18l48 21c0,0 -8,-37 -61,-120 -54,-83 -127,-125 -127,-125 0,0 108,55 164,156 57,102 36,89 36,89l21 0 -7 0z"/>
     <path class="fil1" d="M933 579c0,0 102,52 70,92 -23,29 -563,29 -571,18 59,-3 314,-4 372,-15 138,-26 129,-95 129,-95z"/>
    </g>
   </g>
   <path class="fil2" d="M134 830l33 -14 0 0c-14,-1 -26,-4 -36,-11 -11,-8 -19,-17 -24,-29 -7,-15 -8,-29 -3,-42 5,-13 14,-22 27,-27 28,-13 53,-1 75,34l29 46c35,-14 46,-35 35,-61 -7,-18 -22,-32 -44,-43l18 -7c7,3 15,10 23,19 7,9 13,18 17,27 7,16 8,31 1,45 -6,13 -19,24 -39,33l-105 45 -7 -15zm62 -79c-10,-16 -19,-26 -27,-31 -8,-4 -19,-4 -31,1 -9,5 -16,11 -19,20 -4,9 -3,19 2,31 6,15 18,26 34,31 15,6 33,5 51,-3l16 -7 -26 -42zm167 185c-2,-7 -5,-12 -10,-17 -10,-10 -23,-13 -40,-9 -16,3 -34,15 -52,33l-58 60 -11 -11 123 -126 11 11 -27 27 0 1c12,-7 24,-10 36,-9 11,1 21,5 29,13 5,4 8,9 10,14l-11 13zm52 218c-9,0 -17,-2 -24,-6 -22,-12 -26,-32 -11,-59l57 -104 -27 -15 7 -13 27 15 22 -40c3,1 6,1 9,2 2,0 5,1 8,1l-25 45 41 23 -7 12 -41 -22 -56 101c-6,11 -9,20 -8,26 1,7 5,12 13,17 6,3 13,4 22,4l-7 13zm163 -178c-4,-1 -6,-2 -9,-6 -2,-3 -2,-6 -1,-10 0,-3 2,-6 6,-8 3,-2 6,-2 9,-1 4,0 6,2 9,5 2,3 2,6 2,10 -1,3 -3,6 -6,8 -4,2 -7,3 -10,2zm-55 214l38 -172 15 3 -38 172 -15 -3zm260 2c-12,9 -27,14 -45,16 -24,3 -44,-4 -61,-18 -16,-15 -25,-36 -28,-62 -3,-28 3,-52 18,-71 15,-20 35,-31 61,-33 13,-1 26,0 39,4l2 18c-13,-7 -27,-9 -42,-8 -21,3 -37,12 -48,28 -11,16 -16,35 -14,59 3,23 10,40 23,53 14,12 30,18 49,16 17,-2 32,-8 44,-19l2 17zm113 -30l-115 -234 14 -7 115 234 -14 7zm76 -143c17,18 34,27 52,29 17,2 33,-4 47,-17 14,-14 22,-33 26,-56l11 12c-4,22 -14,41 -30,56 -16,16 -35,23 -56,21 -21,-2 -42,-13 -63,-34 -18,-19 -28,-39 -30,-62 -2,-23 6,-42 22,-59 16,-15 33,-21 52,-18 20,2 38,13 57,32l5 5 -93 91zm71 -89c-15,-14 -29,-22 -43,-24 -15,-2 -28,3 -39,14 -12,12 -18,25 -18,41 0,15 7,31 19,48l81 -79zm128 -70l-18 -8c7,-3 14,-8 20,-15 7,-6 11,-12 14,-18 11,-25 7,-42 -14,-52 -7,-3 -14,-3 -22,0 -7,4 -17,10 -28,20 -13,13 -25,20 -35,23 -10,3 -20,2 -30,-2 -13,-6 -22,-16 -25,-30 -4,-13 -2,-28 5,-42 6,-14 14,-24 24,-32l17 8c-14,8 -23,19 -29,31 -5,11 -6,21 -3,30 2,9 8,15 17,19 7,4 14,4 21,2 7,-2 16,-8 29,-19 15,-13 27,-22 36,-25 9,-3 19,-2 30,2 13,6 21,16 25,29 4,13 2,29 -6,45 -7,16 -16,27 -28,34z"/>
   <path id="1" class="fil3 str0" d="M134 830l33 -14 0 0c-14,-1 -26,-4 -36,-11 -11,-8 -19,-17 -24,-29 -7,-15 -8,-29 -3,-42 5,-13 14,-22 27,-27 28,-13 53,-1 75,34l29 46c35,-14 46,-35 35,-61 -7,-18 -22,-32 -44,-43l18 -7c7,3 15,10 23,19 7,9 13,18 17,27 7,16 8,31 1,45 -6,13 -19,24 -39,33l-105 45 -7 -15zm62 -79c-10,-16 -19,-26 -27,-31 -8,-4 -19,-4 -31,1 -9,5 -16,11 -19,20 -4,9 -3,19 2,31 6,15 18,26 34,31 15,6 33,5 51,-3l16 -7 -26 -42zm167 185c-2,-7 -5,-12 -10,-17 -10,-10 -23,-13 -40,-9 -16,3 -34,15 -52,33l-58 60 -11 -11 123 -126 11 11 -27 27 0 1c12,-7 24,-10 36,-9 11,1 21,5 29,13 5,4 8,9 10,14l-11 13zm52 218c-9,0 -17,-2 -24,-6 -22,-12 -26,-32 -11,-59l57 -104 -27 -15 7 -13 27 15 22 -40c3,1 6,1 9,2 2,0 5,1 8,1l-25 45 41 23 -7 12 -41 -22 -56 101c-6,11 -9,20 -8,26 1,7 5,12 13,17 6,3 13,4 22,4l-7 13zm163 -178c-4,-1 -6,-2 -9,-6 -2,-3 -2,-6 -1,-10 0,-3 2,-6 6,-8 3,-2 6,-2 9,-1 4,0 6,2 9,5 2,3 2,6 2,10 -1,3 -3,6 -6,8 -4,2 -7,3 -10,2zm-55 214l38 -172 15 3 -38 172 -15 -3zm260 2c-12,9 -27,14 -45,16 -24,3 -44,-4 -61,-18 -16,-15 -25,-36 -28,-62 -3,-28 3,-52 18,-71 15,-20 35,-31 61,-33 13,-1 26,0 39,4l2 18c-13,-7 -27,-9 -42,-8 -21,3 -37,12 -48,28 -11,16 -16,35 -14,59 3,23 10,40 23,53 14,12 30,18 49,16 17,-2 32,-8 44,-19l2 17zm113 -30l-115 -234 14 -7 115 234 -14 7zm76 -143c17,18 34,27 52,29 17,2 33,-4 47,-17 14,-14 22,-33 26,-56l11 12c-4,22 -14,41 -30,56 -16,16 -35,23 -56,21 -21,-2 -42,-13 -63,-34 -18,-19 -28,-39 -30,-62 -2,-23 6,-42 22,-59 16,-15 33,-21 52,-18 20,2 38,13 57,32l5 5 -93 91zm71 -89c-15,-14 -29,-22 -43,-24 -15,-2 -28,3 -39,14 -12,12 -18,25 -18,41 0,15 7,31 19,48l81 -79zm128 -70l-18 -8c7,-3 14,-8 20,-15 7,-6 11,-12 14,-18 11,-25 7,-42 -14,-52 -7,-3 -14,-3 -22,0 -7,4 -17,10 -28,20 -13,13 -25,20 -35,23 -10,3 -20,2 -30,-2 -13,-6 -22,-16 -25,-30 -4,-13 -2,-28 5,-42 6,-14 14,-24 24,-32l17 8c-14,8 -23,19 -29,31 -5,11 -6,21 -3,30 2,9 8,15 17,19 7,4 14,4 21,2 7,-2 16,-8 29,-19 15,-13 27,-22 36,-25 9,-3 19,-2 30,2 13,6 21,16 25,29 4,13 2,29 -6,45 -7,16 -16,27 -28,34z"/>
  </g>
 </g>
</svg>
