<?xml version="1.0" encoding="UTF-8"?>
<!DOCTYPE svg PUBLIC "-//W3C//DTD SVG 1.1//EN" "http://www.w3.org/Graphics/SVG/1.1/DTD/svg11.dtd">
<!-- Creator: CorelDRAW X7 -->
<svg xmlns="http://www.w3.org/2000/svg" xml:space="preserve" version="1.1" style="shape-rendering:geometricPrecision; text-rendering:geometricPrecision; image-rendering:optimizeQuality; fill-rule:evenodd; clip-rule:evenodd"
viewBox="0 0 1302 1302"
 xmlns:xlink="http://www.w3.org/1999/xlink">
 <defs>
  <style type="text/css">
   <![CDATA[
    .str0 {stroke:#612C75;stroke-width:3}
    .fil1 {fill:none;fill-rule:nonzero}
    .fil4 {fill:#612C75}
    .fil2 {fill:#FFED00}
    .fil3 {fill:#612C75;fill-rule:nonzero}
    .fil0 {fill:#612C75;fill-rule:nonzero}
   ]]>
  </style>
 </defs>
 <g id="Слой_x0020_1">
  <metadata id="CorelCorpID_0Corel-Layer"/>
  <g id="_1087162944">
   <path class="fil0" d="M163 891l0 -1 -86 74 -10 -12 195 -168 11 12 -28 24 0 0c14,-3 28,-3 41,2 13,4 24,11 33,22 15,17 20,35 16,55 -3,19 -15,38 -35,55 -22,19 -45,29 -68,30 -23,1 -43,-8 -58,-25 -17,-21 -21,-43 -11,-68zm49 -43l-16 14c-14,12 -22,26 -24,43 -3,16 2,31 14,45 12,14 27,20 46,18 19,-1 38,-10 57,-26 17,-15 27,-30 30,-46 3,-16 -1,-31 -12,-44 -14,-16 -29,-23 -47,-23 -18,1 -34,7 -48,19zm247 320l42 -97c8,-19 10,-35 7,-47 -3,-11 -12,-21 -27,-27 -14,-6 -28,-6 -43,1 -16,6 -28,19 -36,40l-38 89 -15 -6 102 -240 15 7 -46 106 1 1c22,-17 45,-20 70,-10 17,8 28,19 33,35 4,15 2,33 -7,54l-43 100 -15 -6zm244 35c-25,4 -47,-2 -64,-17 -17,-15 -27,-36 -30,-62 -4,-29 1,-53 14,-71 13,-19 33,-30 58,-33 25,-3 46,2 62,17 17,14 27,36 31,64 3,27 -1,50 -14,69 -12,19 -31,30 -57,33zm-21 -169c-20,3 -36,12 -46,28 -11,15 -14,35 -11,60 3,23 11,40 25,52 14,13 31,18 52,15 21,-3 36,-12 46,-27 9,-15 12,-35 9,-59 -3,-25 -11,-43 -24,-55 -13,-12 -30,-16 -51,-14zm308 58c-5,7 -11,13 -17,16 -23,13 -42,6 -57,-22l-57 -103 -28 15 -7 -12 28 -16 -22 -40c1,-2 3,-4 5,-6 2,-2 4,-4 6,-6l25 45 40 -23 7 13 -40 22 56 102c6,10 12,17 18,20 6,3 13,2 21,-2 5,-3 11,-9 15,-16l7 13zm170 -129c-17,20 -36,30 -59,30 -22,1 -44,-8 -65,-25 -22,-19 -35,-39 -37,-62 -3,-23 4,-44 21,-63 16,-19 35,-29 57,-30 22,-1 44,8 66,27 21,18 33,38 36,60 4,22 -3,43 -19,63zm-130 -110c-13,15 -18,33 -16,51 3,18 14,36 33,52 18,14 36,22 54,22 19,-1 35,-9 48,-25 14,-16 19,-33 16,-50 -3,-18 -14,-35 -33,-50 -19,-17 -38,-25 -55,-25 -18,1 -33,9 -47,25z"/>
   <path id="1" class="fil1 str0" d="M163 891l0 -1 -86 74 -10 -12 195 -168 11 12 -28 24 0 0c14,-3 28,-3 41,2 13,4 24,11 33,22 15,17 20,35 16,55 -3,19 -15,38 -35,55 -22,19 -45,29 -68,30 -23,1 -43,-8 -58,-25 -17,-21 -21,-43 -11,-68zm49 -43l-16 14c-14,12 -22,26 -24,43 -3,16 2,31 14,45 12,14 27,20 46,18 19,-1 38,-10 57,-26 17,-15 27,-30 30,-46 3,-16 -1,-31 -12,-44 -14,-16 -29,-23 -47,-23 -18,1 -34,7 -48,19zm247 320l42 -97c8,-19 10,-35 7,-47 -3,-11 -12,-21 -27,-27 -14,-6 -28,-6 -43,1 -16,6 -28,19 -36,40l-38 89 -15 -6 102 -240 15 7 -46 106 1 1c22,-17 45,-20 70,-10 17,8 28,19 33,35 4,15 2,33 -7,54l-43 100 -15 -6zm244 35c-25,4 -47,-2 -64,-17 -17,-15 -27,-36 -30,-62 -4,-29 1,-53 14,-71 13,-19 33,-30 58,-33 25,-3 46,2 62,17 17,14 27,36 31,64 3,27 -1,50 -14,69 -12,19 -31,30 -57,33zm-21 -169c-20,3 -36,12 -46,28 -11,15 -14,35 -11,60 3,23 11,40 25,52 14,13 31,18 52,15 21,-3 36,-12 46,-27 9,-15 12,-35 9,-59 -3,-25 -11,-43 -24,-55 -13,-12 -30,-16 -51,-14zm308 58c-5,7 -11,13 -17,16 -23,13 -42,6 -57,-22l-57 -103 -28 15 -7 -12 28 -16 -22 -40c1,-2 3,-4 5,-6 2,-2 4,-4 6,-6l25 45 40 -23 7 13 -40 22 56 102c6,10 12,17 18,20 6,3 13,2 21,-2 5,-3 11,-9 15,-16l7 13zm170 -129c-17,20 -36,30 -59,30 -22,1 -44,-8 -65,-25 -22,-19 -35,-39 -37,-62 -3,-23 4,-44 21,-63 16,-19 35,-29 57,-30 22,-1 44,8 66,27 21,18 33,38 36,60 4,22 -3,43 -19,63zm-130 -110c-13,15 -18,33 -16,51 3,18 14,36 33,52 18,14 36,22 54,22 19,-1 35,-9 48,-25 14,-16 19,-33 16,-50 -3,-18 -14,-35 -33,-50 -19,-17 -38,-25 -55,-25 -18,1 -33,9 -47,25z"/>
   <g>
    <ellipse class="fil2" cx="702" cy="459" rx="384" ry="381"/>
    <g>
     <path class="fil3" d="M499 277l60 0 0 42 -60 0c-18,0 -31,38 -39,87 -3,22 -5,46 -5,69 0,23 2,47 5,69 8,48 21,85 39,85l78 0c22,24 61,41 106,41 45,0 85,-17 106,-41l124 0c7,0 12,-3 16,-7 6,-5 9,-13 10,-21 7,-50 10,-87 10,-124 0,-38 -4,-77 -10,-130 -1,-8 -4,-16 -9,-21 -5,-4 -10,-7 -17,-7l-147 0 0 -42 147 0c19,0 35,7 47,19 13,12 20,28 22,46 7,54 10,94 10,134 1,40 -3,79 -10,131 -2,17 -10,34 -22,46 -12,12 -28,19 -47,19l-414 0c-45,0 -71,-53 -82,-122 -3,-23 -5,-49 -5,-75 0,-26 2,-52 5,-75 11,-69 38,-123 82,-123z"/>
     <path class="fil3" d="M569 355c-3,11 -15,18 -26,15 -12,-3 -19,-15 -16,-26 5,-18 11,-41 17,-61 7,-21 13,-40 18,-46 6,-8 14,-14 22,-18 9,-5 19,-6 28,-6l101 0 1 0c0,0 47,1 58,23 2,4 6,17 11,34 6,20 14,49 20,71 3,12 -4,23 -16,26 -12,3 -24,-3 -27,-15 -5,-20 -13,-48 -19,-71 -4,-14 -7,-25 -8,-26 0,-1 -17,0 -20,0l0 1 -101 0c-3,0 -6,0 -9,1 -2,2 -4,3 -6,6 -1,1 -6,15 -11,32 -6,19 -12,42 -17,60z"/>
     <path class="fil4" d="M848 347l52 0c5,0 9,4 9,10l0 31c0,6 -4,10 -9,10l-52 0c-5,0 -10,-4 -10,-10l0 -31c0,-6 5,-10 10,-10z"/>
     <path class="fil4" d="M675 381c91,0 165,73 165,162 0,90 -74,163 -165,163 -91,0 -165,-73 -165,-163 0,-89 74,-162 165,-162zm0 47c65,0 117,52 117,115 0,64 -52,116 -117,116 -65,0 -117,-52 -117,-116 0,-63 52,-115 117,-115z"/>
     <path class="fil4" d="M675 465c44,0 80,35 80,78 0,44 -36,79 -80,79 -44,0 -80,-35 -80,-79 0,-43 36,-78 80,-78z"/>
    </g>
   </g>
  </g>
 </g>
</svg>
