<?xml version="1.0" encoding="UTF-8"?>
<!DOCTYPE svg PUBLIC "-//W3C//DTD SVG 1.1//EN" "http://www.w3.org/Graphics/SVG/1.1/DTD/svg11.dtd">
<!-- Creator: CorelDRAW X7 -->
<svg xmlns="http://www.w3.org/2000/svg" xml:space="preserve"  version="1.1" style="shape-rendering:geometricPrecision; text-rendering:geometricPrecision; image-rendering:optimizeQuality; fill-rule:evenodd; clip-rule:evenodd"
viewBox="0 0 1302 1302"
 xmlns:xlink="http://www.w3.org/1999/xlink">
 <defs>
  <style type="text/css">
   <![CDATA[
    .str0 {stroke:#612C75;stroke-width:3}
    .fil2 {fill:none}
    .fil6 {fill:none;fill-rule:nonzero}
    .fil3 {fill:#612C75}
    .fil0 {fill:#FFED00}
    .fil1 {fill:#5B5B5B;fill-rule:nonzero}
    .fil5 {fill:#612C75;fill-rule:nonzero}
    .fil4 {fill:#FFED00;fill-rule:nonzero}
   ]]>
  </style>
 </defs>
 <g id="Слой_x0020_1">
  <metadata id="CorelCorpID_0Corel-Layer"/>
  <g id="_1087155264">
   <g>
    <ellipse class="fil0" cx="728" cy="494" rx="387" ry="384"/>
    <g>
     <g>
      <path class="fil1" d="M814 490c-3,4 -6,7 -10,10 -3,3 -6,6 -10,8 -1,1 -2,1 -3,2 -1,0 -2,0 -2,0 -2,-1 -3,-1 -4,-2 -2,-1 -3,-3 -4,-5 -3,-5 -6,-9 -10,-14 -3,-3 -5,-4 -9,-6 -4,-1 -8,-1 -12,0 -13,2 -23,10 -33,17 -5,5 -11,9 -17,11 -2,0 -4,1 -5,1 -1,0 -2,0 -2,0 0,0 -1,-1 -1,-1 0,0 0,-1 0,-1 -1,-3 -2,-5 -2,-8 -1,-8 -1,-16 0,-25 0,-4 1,-8 1,-12 0,-1 -1,-3 -1,-5 0,-1 -1,-2 -1,-3 -1,-3 -3,-5 -4,-7 -4,-3 -7,-4 -11,-5 -4,-1 -6,0 -9,0 -1,1 -2,1 -4,2 -1,0 -3,1 -4,1 -4,2 -7,3 -10,5 -9,5 -15,11 -22,18 -6,6 -33,32 -23,42 17,14 30,3 48,-9 7,-5 14,-10 21,-16 2,-2 4,-3 6,-5 1,-1 1,-1 1,-1 0,0 -2,1 -2,1 -3,1 -5,1 -8,0 -4,0 -7,-2 -10,-5 -1,-1 -2,-2 -3,-4 0,-1 -1,-3 0,-2 0,0 0,0 0,0 1,2 1,5 2,8 2,10 4,19 7,28 2,6 5,10 8,15 2,3 4,4 7,6 3,2 6,3 9,4 4,0 6,0 10,-1 3,-1 6,-2 9,-4 8,-4 14,-10 20,-16 7,-7 16,-15 25,-19 3,0 5,-1 7,0 2,0 4,1 6,3 4,3 6,8 10,12 1,2 3,4 5,6 3,1 5,2 8,2 1,1 3,0 4,0 2,-1 4,-2 5,-3 4,-2 8,-5 11,-9 3,-3 6,-6 9,-10 5,-6 10,-12 14,-19 7,-9 14,-19 20,-29 2,-4 4,-7 7,-11 1,-1 3,-4 4,-5 -2,1 -3,4 -5,5 -2,3 -5,7 -7,10 -7,10 -14,19 -21,28 -5,6 -10,12 -15,17z"/>
     </g>
     <path class="fil2" d="M603 514c5,-4 63,-51 68,-50 9,1 -8,94 52,43 50,-44 44,6 65,8 21,3 72,-79 76,-82"/>
     <path class="fil3" d="M552 324l332 0c29,0 53,24 53,53l0 239c0,29 -24,53 -53,53l-332 0c-29,0 -53,-24 -53,-53l0 -239c0,-29 24,-53 53,-53zm1 49l330 0 0 183 -330 0 0 -183zm165 209c12,0 22,10 22,23 0,12 -10,22 -22,22 -13,0 -23,-10 -23,-22 0,-13 10,-23 23,-23zm-69 -2l29 0 0 69 -29 0 0 -69zm-46 0l29 0 0 69 -29 0 0 -69zm-51 0l41 0 0 69 -41 0 0 -69zm234 0l-29 0 0 69 29 0 0 -69zm46 0l-29 0 0 69 29 0 0 -69zm50 0l-40 0 0 69 40 0 0 -69z"/>
     <g>
      <path class="fil4" d="M985 258l-329 207 -18 -29 328 -207 19 29zm36 -17l-29 19 0 0 0 0 0 -1 0 0 0 0 -1 0 0 0 0 -1 0 0 0 0 -1 0 0 0 0 0 0 0 -1 0 0 0 0 -1 0 0 -1 0 0 0 0 0 0 0 -1 0 0 0 0 0 0 0 -1 1 0 0 0 0 0 0 -1 0 0 0 0 0 -19 -29 2 -1 2 -1 2 -1 2 -1 2 0 1 -1 2 0 2 -1 2 0 2 0 2 0 2 0 2 0 2 0 2 0 2 1 1 0 2 1 2 0 2 1 1 1 2 1 2 1 1 1 2 1 2 1 1 2 1 1 2 2 1 1 1 2 1 1 0 0zm-14 10l0 0 0 0 0 0 14 -10 -14 10zm2 45l-18 -29 0 0 0 0 0 0 0 0 0 -1 1 0 0 0 0 0 0 0 0 0 0 -1 0 0 1 0 0 0 0 -1 0 0 0 0 0 0 0 -1 0 0 0 0 0 0 0 -1 0 0 0 0 0 -1 0 0 0 0 0 0 0 0 -1 -1 0 0 0 0 29 -19 1 2 1 2 1 2 1 2 1 1 0 2 1 2 0 2 0 2 0 2 1 2 0 2 -1 2 0 2 0 2 0 2 -1 1 0 2 -1 2 -1 2 -1 1 -1 2 -1 2 -1 1 -1 2 -1 2 -1 1 -2 1 -1 2 -2 1 -1 1 -2 1 0 0zm-347 178l329 -207 18 29 -329 207 -18 -29zm-83 46l30 -19 0 0 -3 -3 -3 -2 -1 0 -1 0 0 0 1 0 1 0 2 -1 2 0 2 -1 2 0 3 -1 3 -1 3 0 2 -1 3 -1 3 -1 3 -2 3 -1 3 -1 3 -1 3 -1 3 -1 2 -1 3 -2 2 -1 2 -1 2 -1 2 0 1 -1 1 -1 1 0 18 29 -2 1 -1 1 -2 1 -2 1 -3 2 -2 1 -3 1 -3 1 -3 1 -3 2 -3 1 -3 1 -3 2 -4 1 -3 1 -3 1 -4 1 -3 2 -4 1 -3 1 -3 0 -4 1 -3 1 -3 0 -3 1 -3 0 -4 0 -3 0 -4 -1 -5 -2 -4 -3 -5 -4 0 0zm59 -84l18 29 0 0 0 0 -1 1 -2 1 -1 1 -2 1 -1 2 -2 1 -3 2 -2 2 -2 2 -2 2 -2 2 -3 2 -2 3 -2 2 -3 2 -2 2 -2 3 -2 2 -2 2 -2 2 -1 2 -2 2 -1 1 -1 2 0 1 -1 0 0 0 1 0 0 -2 -1 -3 -1 -4 -30 19 -2 -6 -1 -6 1 -5 1 -3 1 -4 1 -3 2 -3 2 -2 2 -3 2 -3 2 -2 2 -3 2 -2 3 -3 2 -3 3 -2 2 -3 3 -2 2 -3 3 -2 3 -3 2 -2 3 -2 2 -2 2 -2 3 -2 2 -2 2 -1 2 -2 1 -1 2 -1 2 -1 0 0z"/>
      <path id="1" class="fil3" d="M647 450l329 -206c10,-7 24,-4 31,7l0 0c6,10 3,24 -7,31l-329 207c-11,6 -70,32 -77,21 -7,-10 42,-53 53,-60z"/>
     </g>
    </g>
   </g>
   <path class="fil5" d="M131 890l29 -13 -1 -1c-12,0 -24,-4 -34,-12 -11,-7 -19,-17 -25,-30 -9,-19 -10,-39 -1,-58 8,-19 25,-34 50,-46 26,-12 50,-15 72,-9 22,6 39,20 49,41 11,24 9,46 -6,65l1 1 102 -48 6 14 -235 111 -7 -15zm97 -45c15,-7 25,-18 31,-32 6,-14 5,-29 -2,-45 -8,-17 -21,-27 -39,-32 -18,-5 -38,-2 -60,8 -22,10 -37,23 -45,39 -7,15 -7,31 0,46 9,18 21,30 37,34 16,5 32,3 48,-4l30 -14zm64 157c-14,19 -20,38 -19,56 1,17 10,32 26,43 16,11 36,16 60,15l-10 14c-22,0 -43,-6 -61,-19 -19,-13 -29,-31 -31,-52 -2,-21 5,-44 23,-68 14,-21 33,-35 55,-41 22,-5 43,-2 62,12 18,12 27,28 28,48 0,19 -7,39 -22,61l-4 6 -107 -75zm101 54c11,-17 17,-33 16,-47 -1,-15 -8,-27 -21,-36 -14,-9 -28,-13 -43,-10 -16,3 -30,12 -44,27l92 66zm100 162l2 -18c5,5 12,10 20,15 8,4 15,6 21,7 28,4 43,-5 46,-28 1,-7 -1,-15 -6,-21 -6,-6 -15,-13 -27,-21 -16,-9 -27,-18 -32,-27 -6,-9 -8,-19 -7,-30 2,-14 9,-25 21,-32 12,-7 26,-10 42,-7 15,2 28,6 38,14l-3 18c-12,-10 -24,-17 -38,-18 -12,-2 -21,0 -29,5 -8,5 -13,12 -14,21 -1,9 0,16 4,21 4,6 12,14 27,22 17,11 28,20 34,28 6,8 8,18 6,29 -2,14 -8,25 -20,33 -12,7 -27,10 -45,7 -17,-2 -30,-8 -40,-18zm220 -203c-4,1 -7,1 -10,-1 -3,-2 -5,-4 -6,-8 -1,-4 -1,-7 1,-10 2,-3 5,-5 8,-6 4,-1 7,0 10,1 3,2 5,4 6,8 1,4 1,7 -1,10 -2,3 -5,5 -8,6zm49 215l-45 -170 15 -4 45 170 -15 4zm291 -160c20,27 28,51 26,72 -3,21 -16,40 -41,58 -13,10 -30,17 -50,21l-10 -14c21,-2 38,-9 52,-18 39,-29 43,-64 13,-106l-14 -18 0 0c3,28 -7,50 -30,67 -18,13 -36,17 -57,12 -20,-4 -39,-18 -55,-40 -17,-23 -25,-46 -23,-69 1,-23 12,-41 31,-56 21,-15 42,-18 64,-7l1 -1 -17 -22 13 -10 97 131zm-69 -67c-10,-12 -22,-20 -37,-23 -15,-3 -30,1 -43,11 -16,11 -24,26 -25,45 -1,19 6,38 20,57 15,19 30,31 47,35 16,5 32,1 46,-9 15,-11 24,-25 25,-42 2,-16 -2,-32 -13,-46l-20 -28zm238 -190l-94 -41c-39,-16 -64,-11 -77,17 -6,16 -6,31 1,46 7,15 19,26 36,33l92 41 -6 14 -162 -70 7 -15 29 13 0 -1c-17,-21 -20,-44 -9,-69 8,-18 19,-29 35,-33 16,-4 34,-1 56,8l98 43 -6 14z"/>
   <path id="1" class="fil6 str0" d="M131 890l29 -13 -1 -1c-12,0 -24,-4 -34,-12 -11,-7 -19,-17 -25,-30 -9,-19 -10,-39 -1,-58 8,-19 25,-34 50,-46 26,-12 50,-15 72,-9 22,6 39,20 49,41 11,24 9,46 -6,65l1 1 102 -48 6 14 -235 111 -7 -15zm97 -45c15,-7 25,-18 31,-32 6,-14 5,-29 -2,-45 -8,-17 -21,-27 -39,-32 -18,-5 -38,-2 -60,8 -22,10 -37,23 -45,39 -7,15 -7,31 0,46 9,18 21,30 37,34 16,5 32,3 48,-4l30 -14zm64 157c-14,19 -20,38 -19,56 1,17 10,32 26,43 16,11 36,16 60,15l-10 14c-22,0 -43,-6 -61,-19 -19,-13 -29,-31 -31,-52 -2,-21 5,-44 23,-68 14,-21 33,-35 55,-41 22,-5 43,-2 62,12 18,12 27,28 28,48 0,19 -7,39 -22,61l-4 6 -107 -75zm101 54c11,-17 17,-33 16,-47 -1,-15 -8,-27 -21,-36 -14,-9 -28,-13 -43,-10 -16,3 -30,12 -44,27l92 66zm100 162l2 -18c5,5 12,10 20,15 8,4 15,6 21,7 28,4 43,-5 46,-28 1,-7 -1,-15 -6,-21 -6,-6 -15,-13 -27,-21 -16,-9 -27,-18 -32,-27 -6,-9 -8,-19 -7,-30 2,-14 9,-25 21,-32 12,-7 26,-10 42,-7 15,2 28,6 38,14l-3 18c-12,-10 -24,-17 -38,-18 -12,-2 -21,0 -29,5 -8,5 -13,12 -14,21 -1,9 0,16 4,21 4,6 12,14 27,22 17,11 28,20 34,28 6,8 8,18 6,29 -2,14 -8,25 -20,33 -12,7 -27,10 -45,7 -17,-2 -30,-8 -40,-18zm220 -203c-4,1 -7,1 -10,-1 -3,-2 -5,-4 -6,-8 -1,-4 -1,-7 1,-10 2,-3 5,-5 8,-6 4,-1 7,0 10,1 3,2 5,4 6,8 1,4 1,7 -1,10 -2,3 -5,5 -8,6zm49 215l-45 -170 15 -4 45 170 -15 4zm291 -160c20,27 28,51 26,72 -3,21 -16,40 -41,58 -13,10 -30,17 -50,21l-10 -14c21,-2 38,-9 52,-18 39,-29 43,-64 13,-106l-14 -18 0 0c3,28 -7,50 -30,67 -18,13 -36,17 -57,12 -20,-4 -39,-18 -55,-40 -17,-23 -25,-46 -23,-69 1,-23 12,-41 31,-56 21,-15 42,-18 64,-7l1 -1 -17 -22 13 -10 97 131zm-69 -67c-10,-12 -22,-20 -37,-23 -15,-3 -30,1 -43,11 -16,11 -24,26 -25,45 -1,19 6,38 20,57 15,19 30,31 47,35 16,5 32,1 46,-9 15,-11 24,-25 25,-42 2,-16 -2,-32 -13,-46l-20 -28zm238 -190l-94 -41c-39,-16 -64,-11 -77,17 -6,16 -6,31 1,46 7,15 19,26 36,33l92 41 -6 14 -162 -70 7 -15 29 13 0 -1c-17,-21 -20,-44 -9,-69 8,-18 19,-29 35,-33 16,-4 34,-1 56,8l98 43 -6 14z"/>
  </g>
 </g>
</svg>
