<?xml version="1.0" encoding="UTF-8"?>
<!DOCTYPE svg PUBLIC "-//W3C//DTD SVG 1.1//EN" "http://www.w3.org/Graphics/SVG/1.1/DTD/svg11.dtd">
<!-- Creator: CorelDRAW X7 -->
<svg xmlns="http://www.w3.org/2000/svg" xml:space="preserve"  version="1.1" style="shape-rendering:geometricPrecision; text-rendering:geometricPrecision; image-rendering:optimizeQuality; fill-rule:evenodd; clip-rule:evenodd"
viewBox="0 0 1302 1302"
 xmlns:xlink="http://www.w3.org/1999/xlink">
 <defs>
  <style type="text/css">
   <![CDATA[
    .str0 {stroke:#612C75;stroke-width:3}
    .fil7 {fill:none;fill-rule:nonzero}
    .fil5 {fill:#FFED00}
    .fil0 {fill:#FFED00}
    .fil2 {fill:#FEFEFE;fill-rule:nonzero}
    .fil3 {fill:#FFED00;fill-rule:nonzero}
    .fil1 {fill:#612C75;fill-rule:nonzero}
    .fil6 {fill:#612C75;fill-rule:nonzero}
    .fil4 {fill:#FFED00;fill-rule:nonzero}
   ]]>
  </style>
 </defs>
 <g id="Слой_x0020_1">
  <metadata id="CorelCorpID_0Corel-Layer"/>
  <g id="_1097652256">
   <g>
    <ellipse class="fil0" cx="720" cy="504" rx="384" ry="381"/>
    <g>
     <rect class="fil0" x="894" y="416" width="37.8013" height="175.35"/>
     <rect class="fil0" x="831" y="416" width="37.8013" height="175.35"/>
     <rect class="fil0" x="759" y="416" width="53.7193" height="175.35"/>
     <rect class="fil0" x="520" y="465" width="42.0535" height="118.408"/>
     <path class="fil1" d="M1047 469l-43 0 0 -12c0,-7 0,-10 -1,-12 -1,-2 -3,-3 -6,-3 -2,0 -4,2 -6,4 -1,2 -2,5 -2,10 0,6 1,10 2,13 2,3 6,7 13,11 21,12 33,22 39,30 5,7 7,20 7,37 0,12 -1,22 -4,28 -3,5 -9,10 -17,14 -8,4 -18,6 -29,6 -12,0 -23,-2 -31,-7 -9,-4 -15,-10 -17,-17 -3,-7 -4,-17 -4,-31l0 -11 42 0 0 21c0,7 1,11 2,13 1,2 3,3 6,3 3,0 6,-1 7,-4 1,-2 2,-6 2,-10 0,-11 -1,-18 -4,-21 -3,-3 -10,-8 -21,-16 -12,-7 -19,-13 -23,-16 -3,-3 -7,-8 -9,-14 -2,-6 -4,-14 -4,-23 0,-13 2,-23 6,-29 3,-7 9,-12 16,-15 8,-4 17,-5 28,-5 12,0 22,2 30,5 8,4 14,9 17,15 2,6 4,16 4,30l0 6z"/>
     <path class="fil1" d="M932 416l0 45 -29 0 0 83 29 0 0 48 -40 0 -24 -80 0 14 -11 0 0 -64 -20 0 0 82 31 0 0 48 -38 0 0 -176 38 0 26 79 0 -79 38 0zm0 66l0 15 -11 0 0 -15 11 0zm0 30l0 18 -11 0 0 -18 11 0z"/>
     <path class="fil1" d="M813 416l0 101 -9 -56 -31 0 -12 83 23 0 1 -15 8 0 2 15 18 0 0 48 -54 0 0 -176 54 0zm-20 98c-1,-9 -2,-21 -4,-36 -2,17 -3,29 -4,36l8 0z"/>
     <polygon class="fil1" points="726,416 752,592 706,592 703,560 687,560 684,592 637,592 660,416 "/>
     <path class="fil1" d="M520 416l40 0c22,0 36,1 44,3 8,1 14,6 19,13 4,6 7,17 7,32 0,14 -2,23 -5,28 -4,4 -10,7 -20,8 9,2 15,5 18,9 3,4 5,7 6,10 0,4 1,12 1,26l0 47 -43 0 0 -59c0,-9 0,-15 -2,-17 -1,-2 -5,-4 -11,-4l0 80 -54 0 0 -12 16 0 0 -31c3,0 4,0 5,1 1,1 1,3 1,7l0 23 17 0 0 -18c0,-6 0,-9 -1,-11 0,-1 -1,-2 -2,-4 -1,-1 -4,-3 -7,-3 4,-1 7,-2 8,-4 1,-2 2,-5 2,-11 0,-6 -1,-10 -3,-13 -2,-3 -4,-5 -7,-5 -4,-1 -9,-1 -18,-1l-11 0 0 -94zm54 30l0 39c5,0 8,0 10,-2 2,-1 3,-6 3,-14l0 -9c0,-6 -1,-9 -3,-11 -2,-2 -5,-3 -10,-3z"/>
     <path class="fil1" d="M536 521l0 16c2,0 4,0 5,-1 0,0 1,-2 1,-5l0 -4c0,-2 -1,-4 -1,-5 -1,0 -3,-1 -5,-1z"/>
     <path class="fil2" d="M503 551c0,7 0,12 0,15 -1,3 -2,6 -3,8 -2,3 -5,5 -8,6 -3,1 -6,2 -10,2 -4,0 -7,-1 -10,-2 -3,-1 -6,-3 -7,-5 -2,-3 -3,-6 -4,-8 0,-3 0,-8 0,-16l0 -12c0,-7 0,-12 0,-15 1,-3 2,-6 3,-8 2,-2 5,-4 8,-6 3,-1 6,-2 10,-2 4,0 7,1 10,2 3,2 6,3 7,6 2,2 3,5 4,8 0,3 0,8 0,15l0 12z"/>
     <path class="fil2" d="M485 528c0,-3 0,-5 -1,-6 0,-1 -1,-2 -2,-2 -1,0 -2,1 -2,2 -1,0 -1,2 -1,6l0 33c0,4 0,7 1,8 0,1 1,1 2,1 1,0 2,-1 2,-2 1,-1 1,-3 1,-7l0 -33z"/>
     <polygon class="fil3" points="415,508 482,508 477,523 434,523 434,536 446,536 446,549 434,549 434,579 415,579 "/>
     <path class="fil3" d="M503 551c0,7 0,12 0,15 -1,3 -2,6 -3,8 -2,3 -5,5 -8,6 -3,1 -6,2 -10,2 -4,0 -7,-1 -10,-2 -3,-1 -6,-3 -7,-5 -2,-3 -3,-6 -4,-8 0,-3 0,-8 0,-16l0 -12c0,-7 0,-12 0,-15 1,-3 2,-6 3,-8 2,-2 5,-4 8,-6 3,-1 6,-2 10,-2 4,0 7,1 10,2 3,2 6,3 7,6 2,2 3,5 4,8 0,3 0,8 0,15l0 12z"/>
     <path class="fil3" d="M485 528c0,-3 0,-5 -1,-6 0,-1 -1,-2 -2,-2 -1,0 -2,1 -2,2 -1,0 -1,2 -1,6l0 33c0,4 0,7 1,8 0,1 1,1 2,1 1,0 2,-1 2,-2 1,-1 1,-3 1,-7l0 -33z"/>
     <path class="fil1" d="M406 416l45 0c14,0 25,1 33,4 7,2 13,6 17,13 5,7 7,18 7,33 0,10 -1,18 -5,22 -3,4 -9,7 -19,9 11,2 18,6 22,12 4,5 6,14 6,25l0 16c0,12 -2,21 -5,27 -2,5 -6,9 -12,11 -6,3 -18,4 -37,4l-52 0 0 -176zm45 30l0 39c2,0 4,0 5,0 4,0 7,-1 8,-3 1,-2 2,-9 2,-19 0,-6 -1,-9 -2,-12 -1,-2 -2,-3 -3,-4 -2,0 -5,-1 -10,-1z"/>
     <path class="fil4" d="M485 528c0,-3 0,-5 -1,-6 0,-1 -1,-2 -2,-2 -1,0 -2,1 -2,2 -1,0 -1,2 -1,6l0 33c0,4 0,7 1,8 0,1 1,1 2,1 1,0 2,-1 2,-2 1,-1 1,-3 1,-7l0 -33zm18 23c0,7 0,12 0,15 -1,3 -2,6 -3,8 -2,3 -5,5 -8,6 -3,1 -6,2 -10,2 -4,0 -7,-1 -10,-2 -3,-1 -6,-3 -7,-5 -2,-3 -3,-6 -4,-8 0,-3 0,-8 0,-16l0 -12c0,-7 0,-12 0,-15 1,-3 2,-6 3,-8 2,-2 5,-4 8,-6 3,-1 6,-2 10,-2 4,0 7,1 10,2 3,2 6,3 7,6 2,2 3,5 4,8 0,3 0,8 0,15l0 12zm-88 -43l67 0 -5 15 -43 0 0 13 12 0 0 13 -12 0 0 30 -19 0 0 -71z"/>
     <path class="fil4" d="M716 487l-19 0 0 -5c0,-3 0,-5 -1,-6 0,0 -1,-1 -2,-1 -1,0 -2,1 -3,2 0,1 -1,2 -1,4 0,3 1,5 1,6 1,2 3,3 6,5 9,6 15,10 17,14 3,3 4,9 4,16 0,6 -1,10 -2,13 -1,3 -4,5 -8,7 -3,1 -8,2 -13,2 -5,0 -10,-1 -14,-3 -4,-2 -6,-5 -8,-8 -1,-3 -1,-8 -1,-14l0 -5 19 0 0 10c0,3 0,5 1,6 0,0 1,1 2,1 2,0 3,-1 3,-2 1,-1 1,-2 1,-5 0,-4 0,-7 -1,-9 -2,-1 -5,-3 -10,-7 -5,-3 -9,-6 -10,-7 -2,-2 -3,-4 -4,-7 -1,-2 -2,-6 -2,-10 0,-6 1,-10 2,-13 2,-3 4,-5 8,-7 3,-1 7,-2 12,-2 6,0 10,1 14,2 4,2 6,4 7,7 2,3 2,7 2,13l0 3z"/>
     <g>
      <rect class="fil5" x="1004" y="393" width="8.36934" height="221.411"/>
      <rect class="fil5" x="983" y="393" width="8.36934" height="221.411"/>
     </g>
    </g>
   </g>
   <path class="fil6" d="M86 873l88 -52c37,-21 47,-45 32,-72 -9,-14 -21,-23 -38,-26 -16,-3 -32,0 -48,9l-87 52 -8 -14 152 -89 8 13 -28 17 1 0c27,-1 48,10 62,33 9,17 11,33 5,48 -5,15 -18,28 -38,40l-92 55 -9 -14zm193 191l19 -29 -1 -1c-11,7 -23,11 -36,11 -13,1 -25,-3 -36,-10 -14,-9 -22,-20 -26,-33 -3,-13 0,-26 7,-38 17,-26 44,-30 82,-14l50 22c20,-32 18,-55 -6,-71 -16,-10 -36,-13 -60,-10l10 -16c8,-1 18,0 29,3 12,3 22,7 30,12 15,10 24,22 27,37 2,15 -3,31 -14,49l-62 97 -13 -9zm6 -100c-17,-7 -30,-11 -40,-10 -9,1 -17,7 -24,18 -6,9 -8,18 -5,28 2,9 8,17 19,24 14,9 29,11 45,7 17,-5 30,-15 41,-32l9 -15 -45 -20zm351 223l11 -106c2,-22 0,-37 -6,-47 -6,-10 -16,-15 -31,-17 -14,-1 -27,4 -38,15 -11,10 -18,25 -19,43l-11 102 -16 -1 11 -107c4,-39 -9,-60 -38,-63 -15,-1 -27,3 -38,14 -10,11 -17,26 -19,45l-10 101 -16 -2 18 -175 16 2 -3 29 1 0c14,-21 33,-30 57,-28 12,2 23,6 31,15 9,8 14,18 16,30 6,-12 15,-21 26,-27 11,-6 22,-8 35,-7 38,4 55,30 50,77l-11 108 -16 -1zm128 -241c-3,0 -7,0 -10,-2 -3,-2 -5,-5 -5,-9 -1,-4 0,-7 2,-10 2,-3 5,-4 8,-5 3,-1 7,0 10,1 3,2 5,5 6,9 0,3 0,7 -2,10 -3,3 -5,5 -9,6zm35 217l-34 -172 16 -4 34 173 -16 3zm257 -121l-54 -87c-22,-36 -46,-46 -72,-30 -14,9 -23,21 -26,38 -2,16 1,32 11,47l53 86 -14 9 -92 -150 13 -8 17 27 1 -1c-2,-27 9,-48 32,-62 16,-10 32,-12 47,-7 15,6 29,18 41,38l57 91 -14 9zm188 -243c27,19 43,39 48,59 4,21 -2,44 -19,69 -9,14 -23,26 -40,36l-14 -9c19,-10 33,-22 42,-35 28,-41 20,-75 -23,-104l-19 -13 0 1c12,25 10,49 -6,72 -12,18 -28,29 -49,31 -21,3 -43,-4 -66,-19 -23,-16 -38,-35 -44,-57 -7,-22 -3,-44 10,-64 15,-21 34,-31 58,-28l1 -1 -23 -16 8 -13 136 91zm-88 -40c-13,-8 -27,-12 -43,-9 -15,2 -27,10 -37,24 -11,16 -13,33 -8,51 6,18 18,34 38,47 20,14 39,20 56,18 17,-2 30,-10 40,-24 11,-16 14,-32 10,-48 -4,-16 -13,-29 -28,-39l-28 -20z"/>
   <path id="1" class="fil7 str0" d="M86 873l88 -52c37,-21 47,-45 32,-72 -9,-14 -21,-23 -38,-26 -16,-3 -32,0 -48,9l-87 52 -8 -14 152 -89 8 13 -28 17 1 0c27,-1 48,10 62,33 9,17 11,33 5,48 -5,15 -18,28 -38,40l-92 55 -9 -14zm193 191l19 -29 -1 -1c-11,7 -23,11 -36,11 -13,1 -25,-3 -36,-10 -14,-9 -22,-20 -26,-33 -3,-13 0,-26 7,-38 17,-26 44,-30 82,-14l50 22c20,-32 18,-55 -6,-71 -16,-10 -36,-13 -60,-10l10 -16c8,-1 18,0 29,3 12,3 22,7 30,12 15,10 24,22 27,37 2,15 -3,31 -14,49l-62 97 -13 -9zm6 -100c-17,-7 -30,-11 -40,-10 -9,1 -17,7 -24,18 -6,9 -8,18 -5,28 2,9 8,17 19,24 14,9 29,11 45,7 17,-5 30,-15 41,-32l9 -15 -45 -20zm351 223l11 -106c2,-22 0,-37 -6,-47 -6,-10 -16,-15 -31,-17 -14,-1 -27,4 -38,15 -11,10 -18,25 -19,43l-11 102 -16 -1 11 -107c4,-39 -9,-60 -38,-63 -15,-1 -27,3 -38,14 -10,11 -17,26 -19,45l-10 101 -16 -2 18 -175 16 2 -3 29 1 0c14,-21 33,-30 57,-28 12,2 23,6 31,15 9,8 14,18 16,30 6,-12 15,-21 26,-27 11,-6 22,-8 35,-7 38,4 55,30 50,77l-11 108 -16 -1zm128 -241c-3,0 -7,0 -10,-2 -3,-2 -5,-5 -5,-9 -1,-4 0,-7 2,-10 2,-3 5,-4 8,-5 3,-1 7,0 10,1 3,2 5,5 6,9 0,3 0,7 -2,10 -3,3 -5,5 -9,6zm35 217l-34 -172 16 -4 34 173 -16 3zm257 -121l-54 -87c-22,-36 -46,-46 -72,-30 -14,9 -23,21 -26,38 -2,16 1,32 11,47l53 86 -14 9 -92 -150 13 -8 17 27 1 -1c-2,-27 9,-48 32,-62 16,-10 32,-12 47,-7 15,6 29,18 41,38l57 91 -14 9zm188 -243c27,19 43,39 48,59 4,21 -2,44 -19,69 -9,14 -23,26 -40,36l-14 -9c19,-10 33,-22 42,-35 28,-41 20,-75 -23,-104l-19 -13 0 1c12,25 10,49 -6,72 -12,18 -28,29 -49,31 -21,3 -43,-4 -66,-19 -23,-16 -38,-35 -44,-57 -7,-22 -3,-44 10,-64 15,-21 34,-31 58,-28l1 -1 -23 -16 8 -13 136 91zm-88 -40c-13,-8 -27,-12 -43,-9 -15,2 -27,10 -37,24 -11,16 -13,33 -8,51 6,18 18,34 38,47 20,14 39,20 56,18 17,-2 30,-10 40,-24 11,-16 14,-32 10,-48 -4,-16 -13,-29 -28,-39l-28 -20z"/>
  </g>
 </g>
</svg>
