<?xml version="1.0" encoding="UTF-8"?>
<!DOCTYPE svg PUBLIC "-//W3C//DTD SVG 1.1//EN" "http://www.w3.org/Graphics/SVG/1.1/DTD/svg11.dtd">
<!-- Creator: CorelDRAW X7 -->
<svg xmlns="http://www.w3.org/2000/svg" xml:space="preserve" version="1.1" style="shape-rendering:geometricPrecision; text-rendering:geometricPrecision; image-rendering:optimizeQuality; fill-rule:evenodd; clip-rule:evenodd"
viewBox="0 0 1052 1052"
 xmlns:xlink="http://www.w3.org/1999/xlink">
 <defs>
  <style type="text/css">
   <![CDATA[
    .str0 {stroke:#612C75;stroke-width:24.5748}
    .str1 {stroke:#5B5B5B;stroke-width:14.252;stroke-linecap:round;stroke-linejoin:round}
    .fil1 {fill:none}
    .fil0 {fill:#612C75}
    .fil2 {fill:#FFED00}
   ]]>
  </style>
 </defs>
 <g id="Слой_x0020_1">
  <metadata id="CorelCorpID_0Corel-Layer"/>
  <path class="fil0 str0" d="M643 177c2,35 -5,43 16,71 10,11 17,13 33,20 70,30 130,84 172,148 13,21 26,47 36,72 6,16 24,74 22,90l-163 0c35,349 -497,352 -456,1l-172 -2c0,-19 15,-68 21,-85 10,-26 26,-56 39,-78 41,-65 100,-113 169,-145 17,-8 21,-8 35,-25 13,-30 11,-41 11,-70 0,-40 1,-60 1,-152 0,60 1,124 -1,184 -1,23 -12,48 -34,57 -15,7 -39,18 -53,27 -15,11 -31,21 -46,33 -3,2 -5,4 -7,6 -3,2 -4,4 -7,6 -19,15 -55,59 -68,79 -8,15 -16,26 -24,42 -8,19 -16,38 -22,57 -9,29 -15,59 -17,90 -3,71 8,134 38,199 170,352 678,266 747,-68 16,-75 19,-135 -2,-211 -1,-4 -2,-7 -3,-11 -4,-15 -12,-34 -18,-47 -2,-4 -3,-6 -4,-9 -16,-33 -35,-61 -58,-88 -12,-13 -24,-25 -37,-36 -2,-2 -2,-2 -4,-3 -2,-3 -4,-4 -7,-7 -22,-18 -46,-34 -72,-47 -15,-7 -24,-11 -36,-17 -12,-6 -19,-17 -24,-29 -1,-3 -3,-6 -3,-9 -3,-23 0,-165 0,-198 -1,35 -2,109 -2,155z"/>
  <g>
   <path class="fil1 str1" d="M527 41c-4,43 -11,253 -69,361 -30,56 -78,104 -93,164 -26,103 50,211 164,210 112,-1 187,-110 160,-214 -3,-8 -5,-15 -9,-23 -5,-13 -28,-46 -37,-60 -16,-25 -32,-51 -46,-81 -58,-121 -67,-314 -70,-357zm-82 519c0,-13 2,-25 5,-37 2,-9 7,-27 6,-35 -3,5 -5,12 -8,17 -3,7 -5,12 -8,19 -12,27 -22,48 -26,80 -2,18 0,31 6,46 4,11 12,27 23,29 18,4 22,-17 21,-32 0,-24 -19,-57 -19,-87z"/>
   <path id="1" class="fil0" d="M527 41c-4,43 -11,253 -69,361 -30,56 -78,104 -93,164 -26,103 50,211 164,210 112,-1 187,-110 160,-214 -3,-8 -5,-15 -9,-23 -5,-13 -28,-46 -37,-60 -16,-25 -32,-51 -46,-81 -58,-121 -67,-314 -70,-357zm-82 519c0,-13 2,-25 5,-37 2,-9 7,-27 6,-35 -3,5 -5,12 -8,17 -3,7 -5,12 -8,19 -12,27 -22,48 -26,80 -2,18 0,31 6,46 4,11 12,27 23,29 18,4 22,-17 21,-32 0,-24 -19,-57 -19,-87z"/>
  </g>
  <path class="fil2" d="M766 805c-6,-2 -10,-8 -15,-9 -2,2 -7,7 -8,10 2,4 9,7 13,11 -2,5 -21,21 1,38 20,16 29,3 37,-8 4,2 10,9 14,10 3,-3 7,-7 8,-11 -2,-4 -9,-7 -13,-11 4,-5 10,-10 10,-19 -1,-9 -7,-16 -11,-19 -22,-17 -30,1 -36,8zm-573 -130c-3,57 34,61 43,40 4,-11 0,-21 -1,-31 3,-1 9,-2 13,-2l5 32 11 -1c0,-7 -6,-38 -8,-48 -6,-1 -52,8 -63,10zm179 261c12,3 4,8 30,-7l29 -16c-1,4 -15,32 -16,40 3,1 11,5 14,5l24 -59c-11,-7 -13,-3 -31,6l-21 11c-3,2 -5,4 -8,5l9 -19c2,-5 7,-17 7,-21l-13 -5c-2,3 -24,55 -24,60zm202 12c0,0 -6,-39 -7,-43l-15 3 10 63c11,1 13,-2 15,-7l17 -28c3,-5 4,-9 7,-15 1,1 1,0 1,2l7 40 11 -1c1,-1 1,-1 2,-1 0,0 0,0 0,0l-9 -63c-13,-1 -13,5 -23,21 -3,5 -6,9 -8,14 -3,4 -6,11 -8,15zm-107 20c3,1 12,2 14,0l4 -51 28 1 -4 54 16 1 5 -64c-8,-1 -55,-5 -59,-4l-5 55c0,1 0,3 0,4 0,1 0,1 0,2 0,2 0,1 1,2zm-175 -90c3,2 9,7 12,9l16 -21c3,1 22,15 23,19 -3,6 -11,13 -15,20 1,3 8,8 11,10 2,-2 39,-49 40,-51 -3,-3 -9,-7 -12,-9 -5,4 -11,14 -16,20 -3,-1 -21,-15 -23,-18 2,-4 12,-15 15,-20 -1,-3 -8,-8 -12,-10l-39 51zm463 4l-9 -3c-3,8 -16,22 -26,11 1,-4 22,-17 25,-22 -11,-31 -52,-3 -45,20 4,10 15,23 30,18 9,-3 24,-16 25,-24zm-522 -90l5 -7c-4,-6 -7,-6 -9,-14 -3,-8 -1,-14 5,-16l14 31c35,-5 16,-51 -9,-48 -11,1 -23,10 -23,23 0,12 11,28 17,31zm596 -81c-5,0 -10,-3 -16,-3 -1,4 -3,10 -3,14 9,2 38,10 45,10 3,-12 12,-37 2,-46 -7,-5 -16,-4 -21,2 -4,5 -6,14 -7,23zm-165 182c1,5 5,11 7,15 -2,3 -13,8 -16,9l-8 -14 -13 6 21 40c4,0 9,-4 13,-6l-8 -16c3,-3 12,-7 16,-8l9 15c4,-1 10,-5 13,-7l-21 -40 -13 6zm-416 -88l-9 3c2,10 10,16 21,14 10,-2 18,-9 24,-10l6 8 -28 21c1,3 5,10 8,12l37 -26c-2,-4 -20,-29 -23,-32 -6,3 -19,13 -27,15 -6,1 -7,-1 -9,-5zm539 -28l8 4c3,-3 6,-11 7,-14 6,1 25,12 33,14 1,-3 5,-11 5,-14l-31 -14 6 -15 -9 -4c-3,4 -19,40 -19,43zm-582 -87c0,33 31,22 19,-4 -5,0 -15,1 -19,4zm581 150c-3,-3 -19,-16 -22,-17 -7,9 -7,14 2,20 7,6 18,8 20,-3zm-13 -28c2,3 19,17 22,17 17,-13 -15,-36 -22,-17zm65 -99l4 2c2,0 4,0 7,1 1,-6 5,-16 -2,-18 -8,-2 -9,9 -9,15zm-124 170c3,0 16,-10 17,-13 -7,-9 -21,-2 -17,13zm-464 -112c12,-2 6,-23 -9,-19l9 19z"/>
 </g>
</svg>
