<?xml version="1.0" encoding="UTF-8"?>
<!DOCTYPE svg PUBLIC "-//W3C//DTD SVG 1.1//EN" "http://www.w3.org/Graphics/SVG/1.1/DTD/svg11.dtd">
<!-- Creator: CorelDRAW X7 -->
<svg xmlns="http://www.w3.org/2000/svg" xml:space="preserve" version="1.1" style="shape-rendering:geometricPrecision; text-rendering:geometricPrecision; image-rendering:optimizeQuality; fill-rule:evenodd; clip-rule:evenodd"
viewBox="0 0 1052 1052"
 xmlns:xlink="http://www.w3.org/1999/xlink">
 <defs>
  <style type="text/css">
   <![CDATA[
    .str0 {stroke:#612C75;stroke-width:3}
    .fil2 {fill:#FEFEFE}
    .fil0 {fill:#FEFEFE}
    .fil3 {fill:#2B2A29}
    .fil4 {fill:#612C75}
    .fil1 {fill:#FFED00}
   ]]>
  </style>
 </defs>
 <g id="Слой_x0020_1">
  <metadata id="CorelCorpID_0Corel-Layer"/>
  <g id="_938144752">
   <path class="fil0" d="M515 744l-218 -266c-1,-1 -2,-3 -4,-4 -20,-25 -28,-22 -50,-22l-5 0 -81 0 358 433 358 -433 -81 0 -5 0c-21,0 -30,-3 -50,22 -2,1 -3,3 -4,4l-218 266zm-24 -409l1 0 2 1 1 0 1 0 1 1 2 1 1 0 1 1 1 0 1 1 1 1 1 1 1 0 1 1 1 1 1 1 1 1 1 1 1 1 1 1 1 1 1 1 0 1 0 -1 1 -1 1 -1 1 -1 1 -1 1 -1 1 -1 1 -1 1 -1 1 -1 1 -1 1 0 1 -1 1 -1 1 0 2 -1 1 -1 1 0 1 -1 2 0 1 -1 1 0 2 0 1 -1 1 0 2 0 1 0 2 -1 1 0 1 0 74 0 0 80 40 0 0 -80 44 0 0 138 -44 53 0 -67 -40 0 0 116 -44 54 0 -250 -32 0 0 0 -10 0 0 268 27 0 -49 60 -49 -60 27 0 0 -268 -10 0 0 0 -116 0 0 36 86 0 0 215 -130 -158 0 -137 160 0 0 1 1 0 1 0 2 0 1 0 2 0 1 1zm-82 171l0 -49 -40 0 40 49z"/>
   <path class="fil1" d="M525 16c281,0 510,229 510,509 0,281 -229,509 -510,509 -280,0 -509,-228 -509,-509 0,-280 229,-509 509,-509z"/>
   <path class="fil1 str0" d="M525 1009c267,0 484,-217 484,-484 0,-266 -217,-484 -484,-484 -266,0 -483,218 -483,484 0,267 217,484 483,484z"/>
   <polygon class="fil2" points="798,399 796,399 794,399 792,399 790,399 788,399 786,399 784,400 781,400 779,400 777,401 774,401 772,402 769,403 766,404 764,405 761,406 759,408 757,409 754,411 752,413 750,415 748,417 747,417 747,277 561,277 559,277 556,277 554,278 552,278 549,278 547,279 545,279 543,280 541,280 539,281 536,282 534,283 532,283 530,284 528,285 527,287 525,287 525,287 523,286 521,285 519,284 517,283 515,282 513,281 511,281 509,280 507,279 504,279 502,278 500,278 495,277 304,277 304,417 303,417 301,415 299,413 297,411 294,409 292,408 289,406 287,405 284,404 282,403 279,402 277,401 274,401 272,400 269,400 267,400 265,399 263,399 261,399 259,399 257,399 255,399 253,399 251,399 249,399 247,399 245,399 105,399 525,906 946,399 806,399 804,399 802,399 800,399 "/>
   <path class="fil3" d="M525 724l-224 -273c-1,-2 -2,-3 -4,-5 -21,-26 -29,-22 -52,-22l-5 0 -83 0 368 444 369 -444 -83 0 -6 0c-22,0 -31,-4 -52,22 -1,2 -2,3 -3,5l-225 273zm-24 -421l1 0 1 1 2 0 1 1 1 0 1 1 2 0 1 1 1 1 1 0 1 1 2 1 1 1 1 1 1 1 1 1 1 0 1 1 1 1 0 2 1 1 1 1 0 0 1 0 1 -1 0 -2 1 -1 1 -1 1 -1 1 -1 1 -1 1 0 1 -1 2 -1 1 -1 1 -1 1 -1 1 0 1 -1 2 0 1 -1 1 -1 2 0 1 -1 1 0 2 0 1 -1 2 0 1 0 1 0 2 0 1 0 2 -1 75 0 0 82 41 0 0 -82 46 0 0 142 -46 55 0 -70 -41 0 0 120 -45 55 0 -256 -32 0 0 0 -11 0 0 275 28 0 -51 61 -50 -61 28 0 0 -275 -10 0 0 0 -120 0 0 36 89 0 0 221 -134 -162 0 -141 165 0 0 1 1 0 1 0 1 0 2 0 1 1 2 0zm-85 176l0 -51 -40 0 40 51z"/>
   <polygon class="fil2" points="798,399 796,399 794,399 792,399 790,399 788,399 786,399 784,400 781,400 779,400 777,401 774,401 772,402 769,403 766,404 764,405 761,406 759,408 757,409 754,411 752,413 750,415 748,417 747,417 747,277 561,277 559,277 556,277 554,278 552,278 549,278 547,279 545,279 543,280 541,280 539,281 536,282 534,283 532,283 530,284 528,285 527,287 525,287 525,287 523,286 521,285 519,284 517,283 515,282 513,281 511,281 509,280 507,279 504,279 502,278 500,278 495,277 304,277 304,417 303,417 301,415 299,413 297,411 294,409 292,408 289,406 287,405 284,404 282,403 279,402 277,401 274,401 272,400 269,400 267,400 265,399 263,399 261,399 259,399 257,399 255,399 253,399 251,399 249,399 247,399 245,399 105,399 525,906 946,399 806,399 804,399 802,399 800,399 "/>
   <path class="fil4" d="M525 724l-224 -273c-1,-2 -2,-3 -4,-5 -21,-26 -29,-22 -52,-22l-5 0 -83 0 368 444 369 -444 -83 0 -6 0c-22,0 -31,-4 -52,22 -1,2 -2,3 -3,5l-225 273zm-24 -421l1 0 1 1 2 0 1 1 1 0 1 1 2 0 1 1 1 1 1 0 1 1 2 1 1 1 1 1 1 1 1 1 1 0 1 1 1 1 0 2 1 1 1 1 0 0 1 0 1 -1 0 -2 1 -1 1 -1 1 -1 1 -1 1 -1 1 0 1 -1 2 -1 1 -1 1 -1 1 -1 1 0 1 -1 2 0 1 -1 1 -1 2 0 1 -1 1 0 2 0 1 -1 2 0 1 0 1 0 2 0 1 0 2 -1 75 0 0 82 41 0 0 -82 46 0 0 142 -46 55 0 -70 -41 0 0 120 -45 55 0 -256 -32 0 0 0 -11 0 0 275 28 0 -51 61 -50 -61 28 0 0 -275 -10 0 0 0 -120 0 0 36 89 0 0 221 -134 -162 0 -141 165 0 0 1 1 0 1 0 1 0 2 0 1 1 2 0zm-85 176l0 -51 -40 0 40 51z"/>
  </g>
 </g>
</svg>
