<?xml version="1.0" encoding="UTF-8"?>
<!DOCTYPE svg PUBLIC "-//W3C//DTD SVG 1.1//EN" "http://www.w3.org/Graphics/SVG/1.1/DTD/svg11.dtd">
<!-- Creator: CorelDRAW X7 -->
<svg xmlns="http://www.w3.org/2000/svg" xml:space="preserve" width="1.05208in" height="0.602079in" version="1.1" style="shape-rendering:geometricPrecision; text-rendering:geometricPrecision; image-rendering:optimizeQuality; fill-rule:evenodd; clip-rule:evenodd"
viewBox="0 0 1052 602"
 xmlns:xlink="http://www.w3.org/1999/xlink">
 <defs>
  <style type="text/css">
   <![CDATA[
    .fil0 {fill:#612C75}
   ]]>
  </style>
 </defs>
 <g id="Слой_x0020_1">
  <metadata id="CorelCorpID_0Corel-Layer"/>
  <g id="_1028473632">
   <path class="fil0" d="M814 31l-1 0c-1,0 -3,0 -4,0 -2,1 -3,2 -4,4 -3,5 0,14 9,19l0 0c1,2 1,4 2,7 6,25 14,3 23,3 5,1 7,4 3,9 -5,8 -14,0 -13,14 1,7 14,5 15,12 0,7 1,18 11,18 7,0 12,-7 12,-16l0 -1c5,-8 13,-6 13,-14 0,-13 -20,-4 -14,-18 8,-16 13,26 28,-12 0,-2 1,-3 1,-4 7,-5 9,-13 6,-17 -2,-4 -7,-5 -13,-4 -3,0 -7,0 -15,-4 -17,-7 -14,6 -14,21 -12,0 -8,2 -9,-6 0,-6 2,-12 -2,-15 -3,-4 -6,-2 -15,1 -10,5 -8,3 -19,3 0,0 0,0 0,0z"/>
   <path class="fil0" d="M758 453l12 0c23,0 41,18 41,41l0 26c0,22 -18,40 -41,40l-12 0c-23,0 -41,-18 -41,-40l0 -26c0,-23 18,-41 41,-41zm2 11l8 0c16,0 28,12 28,27l0 31c0,15 -12,28 -28,28l-8 0c-15,0 -28,-13 -28,-28l0 -31c0,-15 13,-27 28,-27z"/>
   <path class="fil0" d="M983 275c0,1 0,1 1,2 8,57 -54,72 -54,22l-15 0c0,13 -5,17 -10,25l-2 2c-9,9 -8,8 -22,17 -84,50 -226,-19 -313,-36 -87,-18 -260,-3 -314,77 10,4 42,21 52,27l49 27c10,-7 26,-29 62,-48 62,-33 121,-30 186,-19 17,3 29,6 46,9 41,7 74,13 117,14 26,0 45,-2 66,-8 34,-8 73,-26 90,-58 8,6 16,21 42,23 20,2 41,-9 52,-26 9,-14 7,-24 7,-45 0,-35 0,-69 0,-103 4,-1 13,-5 12,-11 -5,-7 -26,-4 -44,-4 -1,5 -2,6 -4,10l-13 -7c-1,0 -1,-1 -2,-1l-4 -2c-44,-20 -89,36 -66,89 12,28 46,41 68,29 8,-4 5,-9 13,-5zm-21 -86c8,0 16,4 21,10l0 51c-5,6 -13,10 -21,10 -17,0 -31,-16 -31,-36 0,-19 14,-35 31,-35z"/>
   <path class="fil0" d="M53 285c52,70 146,88 216,41 6,-4 26,-17 29,-25 2,-5 2,-1 0,-4 -11,-18 -37,44 -117,27 -39,-9 -73,-35 -88,-72 -34,-84 40,-189 134,-141l2 2 8 7c7,-5 46,-58 55,-70 12,-16 16,-18 15,-23 -126,-1 -126,-1 -205,-2 -17,10 -43,44 -54,62 -34,59 -39,141 5,198z"/>
   <path class="fil0" d="M848 149l-2 2c-3,7 -2,10 -2,19l-9 -2c-10,-6 -12,-23 -59,9 -10,-7 -25,-31 -64,-12 -20,9 -35,28 -37,54 -4,-3 -11,-7 -17,-9l0 -48c-48,0 -40,-9 -40,40 7,3 12,7 19,10l0 40c-12,9 -31,12 -36,-5 -3,-11 -2,-147 -2,-165 -22,0 -50,-5 -50,6 0,7 6,7 12,9 0,162 -19,185 66,183 34,-1 31,-29 31,-53 19,9 16,3 22,18 13,32 50,47 83,34 14,-5 34,-27 25,-32 -9,-5 -13,22 -47,13 -11,-3 -17,-11 -22,-20 25,0 49,-11 57,-30 1,-5 2,-13 4,-15 3,-6 17,-11 24,-8 5,11 2,74 2,93 15,0 41,3 52,-2 -2,-11 -4,-9 -12,-13l0 -76c4,-3 6,-4 10,-6 7,3 7,5 12,8 14,8 31,-1 37,-20 7,-23 -6,-51 -28,-51 1,20 26,14 11,38 -22,0 -23,-17 -40,-9zm-131 74c0,0 20,2 34,-14 10,-12 11,-30 -9,-27 -10,2 -16,10 -21,19 -4,9 -4,22 -4,22z"/>
   <path class="fil0" d="M269 242l-2 2c-20,10 -17,-1 -17,-21 0,-15 0,-31 0,-46l2 -2c6,-1 4,-1 8,-3 0,-15 -2,-10 -42,-10 -2,5 -3,6 -6,10l-15 -8c0,0 -1,0 -1,-1 -2,0 -2,0 -5,-2 -58,-24 -103,79 -40,117 32,19 54,-9 63,-11 15,11 15,27 40,10 18,-12 28,-27 36,-29l0 32 50 0c0,-16 -1,-9 -12,-15 0,-15 0,-31 0,-46 0,-20 -4,-32 12,-36 9,13 2,3 1,17 -2,23 39,18 42,-11 1,-17 -11,-28 -25,-31 -19,-3 -23,12 -35,19 -5,-5 -5,-9 -10,-13 -20,-18 -53,11 -36,16 12,3 13,-16 13,33 0,12 0,12 -7,18 -5,5 -9,7 -14,11zm-79 -59c8,0 16,4 21,10l0 50c-5,7 -13,10 -21,10 -17,0 -31,-15 -31,-35 0,-19 14,-35 31,-35z"/>
   <path class="fil0" d="M499 255c-17,14 -33,-7 -39,-19 -5,1 -8,2 -12,4 1,6 5,15 -4,17 -17,2 -11,-39 -11,-70 0,-35 0,-70 0,-105l-51 0c0,15 1,10 11,15 0,39 0,78 0,118 0,22 -2,36 8,50 11,15 20,15 45,15 15,0 72,3 84,-4 6,-4 12,-8 14,-15 14,-34 -18,-42 -34,-50 -7,-4 -17,-5 -12,-18 5,-12 25,-1 40,3 4,-8 13,-23 13,-34 -36,0 -84,-9 -88,25 -5,34 30,34 39,47 6,8 2,16 -3,21z"/>
   <path class="fil0" d="M1010 547c32,-44 6,-123 -59,-88 -9,-6 -2,-7 -17,-7l0 125c0,9 -2,15 5,17l8 0c6,-2 4,-8 4,-17 0,-9 0,-17 0,-26 18,10 46,16 59,-4zm-35 -85c19,0 35,19 35,42 0,24 -16,43 -35,43 -8,0 -17,-4 -23,-11l0 -63c6,-7 15,-11 23,-11z"/>
   <path class="fil0" d="M580 545c-39,0 -43,-57 -35,-86 7,-31 23,-40 56,-36 11,2 12,7 24,8 1,-6 3,-9 4,-16 -19,-10 -53,-11 -74,-1 -20,10 -30,34 -31,62 -1,16 1,31 3,42 3,12 8,23 16,31 25,24 67,4 73,2 9,6 4,7 19,7l0 -66c-1,-11 -3,-8 -15,-8 0,54 7,60 -40,61z"/>
   <path class="fil0" d="M829 459l0 67c0,43 43,38 71,23 0,10 -4,9 13,9l0 -99c0,-8 -5,-7 -17,-7l0 81c0,13 -24,12 -33,12 -24,0 -17,-34 -17,-69 0,-19 3,-24 -11,-24 -5,0 -6,2 -6,7z"/>
   <path class="fil0" d="M677 459c-8,-6 -2,-7 -17,-7l0 106 15 0 0 -78c0,-13 25,-15 36,-15l0 -15c-18,0 -22,3 -34,9z"/>
   <polygon class="fil0" points="229,113 227,111 "/>
   <polygon class="fil0" points="848,149 846,151 "/>
   <polygon class="fil0" points="252,175 250,177 "/>
   <polygon class="fil0" points="161,232 159,229 "/>
   <polygon class="fil0" points="269,242 267,244 "/>
   <polygon class="fil0" points="499,255 496,257 "/>
   <polygon class="fil0" points="905,324 903,326 "/>
   <polygon class="fil0" points="987,347 985,349 "/>
   <polygon class="fil0" points="699,389 696,387 "/>
  </g>
 </g>
</svg>
