<?xml version="1.0" encoding="UTF-8"?>
<!DOCTYPE svg PUBLIC "-//W3C//DTD SVG 1.1//EN" "http://www.w3.org/Graphics/SVG/1.1/DTD/svg11.dtd">
<!-- Creator: CorelDRAW X7 -->
<svg xmlns="http://www.w3.org/2000/svg" xml:space="preserve"  version="1.1" style="shape-rendering:geometricPrecision; text-rendering:geometricPrecision; image-rendering:optimizeQuality; fill-rule:evenodd; clip-rule:evenodd"
viewBox="0 0 1052 602"
 xmlns:xlink="http://www.w3.org/1999/xlink">
 <defs>
  <style type="text/css">
   <![CDATA[
    .str0 {stroke:#FFED00;stroke-width:5.14961;stroke-linecap:round;stroke-linejoin:round}
    .fil2 {fill:none}
    .fil3 {fill:#FEFEFE}
    .fil0 {fill:#612C75}
    .fil1 {fill:#FFED00;fill-rule:nonzero}
   ]]>
  </style>
 </defs>
 <g id="Слой_x0020_1">
  <metadata id="CorelCorpID_0Corel-Layer"/>
  <g id="_1064427200">
   <polygon class="fil0" points="13,82 1043,82 1043,536 13,536 "/>
   <g>
    <path class="fil1" d="M1015 101l-976 0 0 -5 976 0 0 0 0 5zm13 8l-6 0 0 0 0 -1 0 0 0 -1 0 0 0 0 0 -1 0 0 0 0 0 -1 -1 0 0 0 0 -1 0 0 0 0 -1 -1 0 0 0 0 0 0 -1 0 0 -1 0 0 -1 0 0 0 0 0 -1 -1 0 0 0 0 -1 0 0 0 0 0 -1 0 0 0 0 -5 0 0 1 0 1 0 0 0 1 0 1 0 0 1 1 0 0 0 1 0 0 1 1 0 0 0 1 1 0 0 1 1 0 0 1 0 0 1 0 0 1 1 0 1 0 0 1 1 0 0 0 1 0 0 0 1 0 1 1 0 0 1 0 1 0 0zm-6 310l0 -310 6 0 0 310 0 0 -6 0zm-7 12l0 -5 0 0 0 0 1 0 0 0 0 0 1 0 0 0 0 0 1 0 0 -1 0 0 1 0 0 0 0 0 1 -1 0 0 0 0 0 0 1 -1 0 0 0 0 0 0 0 -1 1 0 0 0 0 -1 0 0 0 0 0 -1 0 0 0 -1 0 0 0 0 6 0 0 0 0 1 -1 1 0 0 0 1 0 0 0 1 0 1 -1 0 0 1 0 0 -1 1 0 0 0 1 -1 0 0 1 -1 0 0 0 -1 1 0 0 -1 1 0 0 -1 0 0 0 -1 1 0 0 -1 0 -1 0 0 0 -1 0 -1 0 0 0 0 0zm-976 -5l976 0 0 5 -976 0 0 0 0 -5zm-13 -7l6 0 0 0 0 0 0 0 0 1 0 0 0 1 0 0 0 0 0 1 0 0 1 0 0 1 0 0 0 0 0 0 1 1 0 0 0 0 0 0 1 1 0 0 0 0 1 0 0 0 0 1 1 0 0 0 0 0 1 0 0 0 0 0 1 0 0 0 0 5 0 0 -1 0 -1 0 0 0 -1 0 -1 0 0 0 -1 -1 0 0 -1 0 0 0 -1 -1 0 0 -1 -1 0 0 -1 0 0 -1 -1 0 0 -1 0 0 -1 -1 0 0 0 -1 -1 0 0 -1 0 -1 0 0 0 -1 0 0 0 -1 -1 -1 0 0 0 0zm6 -310l0 310 -6 0 0 -310 0 0 6 0zm7 -13l0 5 0 0 0 0 -1 0 0 0 0 0 -1 0 0 0 0 0 -1 1 0 0 0 0 -1 0 0 0 0 1 -1 0 0 0 0 0 0 0 -1 1 0 0 0 0 0 1 0 0 -1 0 0 1 0 0 0 0 0 1 0 0 0 0 0 1 0 0 0 1 -6 0 0 -1 1 -1 0 0 0 -1 0 -1 0 0 0 -1 0 0 1 -1 0 0 0 -1 1 -1 0 0 0 -1 1 0 0 0 1 -1 0 0 1 -1 0 0 1 0 0 -1 1 0 0 0 1 0 0 -1 1 0 1 0 0 0 1 0 1 0 0 0 0 0z"/>
   </g>
   <g>
    <line class="fil2 str0" x1="32" y1="513" x2="550" y2= "513" />
   </g>
   <g>
    <path class="fil1" d="M572 515c-1,0 -3,-1 -3,-2 0,-2 2,-3 3,-3l0 5zm453 0l-453 0 0 -5 453 0 0 5zm0 -5c1,0 3,1 3,3 0,1 -2,2 -3,2l0 -5z"/>
   </g>
   <path class="fil3" d="M491 97l1 54c27,1 34,10 33,23 0,19 0,178 0,240l205 1c140,-12 156,-175 -12,-198 -35,-5 -58,3 -57,-18 1,-32 -6,-43 19,-43 8,0 37,-1 37,-1 13,0 20,13 18,24l80 2 -2 -83c0,0 -322,-1 -322,-1zm182 171c16,0 29,23 29,51 0,28 -13,51 -29,51 -4,0 -8,-1 -11,-4l0 -94c3,-3 7,-4 11,-4z"/>
   <path class="fil3" d="M485 97l1 54 -41 0c-104,-1 -110,198 0,213 23,3 73,-2 73,-2l0 52 -164 0c0,0 -104,-10 -132,-104 -37,-124 59,-211 130,-212l133 -1z"/>
   <g>
    <path class="fil3" d="M36 500l1 -68c0,-9 9,-16 18,-16 8,0 31,0 31,0l0 13 -19 0c-6,3 -4,10 0,11 58,5 31,60 10,60l-41 0zm30 -46c-1,0 -1,0 -2,0l0 34c1,0 1,0 2,0 4,0 8,-8 8,-17 0,-9 -4,-17 -8,-17z"/>
    <path class="fil3" d="M162 475l-27 0c-6,0 -6,5 -3,7 7,5 20,3 28,1l0 15c-8,4 -26,5 -34,2 -36,-12 -21,-60 -4,-60 2,0 27,1 27,1 17,5 17,34 13,34zm-26 -23c4,0 6,4 6,8 0,3 -2,3 -3,3 -3,0 -5,0 -9,0 -1,-4 0,-11 6,-11z"/>
    <path class="fil3" d="M194 500l-27 0c0,-11 0,-29 0,-29 0,-15 10,-31 30,-31l40 0 0 13c0,0 -6,-2 -7,3 0,5 0,44 0,44l-28 0 0 -42c0,0 -7,3 -7,10 -1,6 -1,32 -1,32z"/>
    <path class="fil3" d="M240 452l-1 -12c30,0 42,0 42,0 8,0 14,7 14,10 0,11 0,50 0,50l-45 1c0,0 -15,-5 -16,-18 -2,-21 15,-23 22,-23 4,0 7,0 9,-1 3,-1 2,-5 -2,-6 -2,-1 -5,-1 -7,-1 -7,0 -12,0 -16,0zm25 19c1,0 1,0 2,0l0 15c-1,0 -1,0 -2,0 -4,0 -8,-3 -8,-7 0,-4 4,-8 8,-8z"/>
    <path class="fil3" d="M327 525l-27 0c1,-10 1,-52 1,-68 0,-4 -1,-5 -3,-5 -6,0 -4,-11 -4,-11l45 0c32,0 33,48 14,58 -10,5 -23,3 -23,3 0,0 -3,0 -3,4 0,3 0,19 0,19zm2 -72c0,0 -1,0 -1,0l0 34c0,0 1,0 1,0 5,0 9,-7 9,-17 0,-9 -4,-17 -9,-17z"/>
    <path class="fil3" d="M360 451c0,-5 0,-11 0,-11l31 0c0,0 7,26 9,28 1,2 2,3 3,1 2,-3 9,-19 1,-17 -2,1 -1,-12 -1,-12l25 0 -26 78c0,0 -2,10 -12,11 -9,1 -22,1 -22,1l0 -13 9 -1c0,0 4,1 5,-7 0,-7 -12,-47 -13,-52 -2,-7 -5,-5 -9,-6z"/>
    <line class="fil2" x1="469" y1="440" x2="469" y2= "452" />
    <path class="fil3" d="M469 440l0 12c-9,-1 -18,3 -18,18 -1,14 13,17 18,15l0 16 -22 0c-31,0 -33,-58 -2,-61 2,0 24,0 24,0z"/>
    <path class="fil3" d="M472 440l0 9c5,0 6,1 6,6 0,6 0,46 0,46l38 0c36,1 34,-43 -10,-41l0 -20 -34 0zm36 30c0,0 -1,0 -1,0l0 21c0,0 1,0 1,0 4,0 8,-4 8,-10 0,-6 -4,-11 -8,-11z"/>
    <path class="fil3" d="M631 439l0 11c-8,0 -18,4 -18,18 0,15 13,18 19,16l0 15 -22 0c-32,0 -34,-57 -3,-60 3,-1 24,0 24,0z"/>
    <path class="fil3" d="M690 474l-26 -1c-6,0 -7,6 -4,8 7,5 21,3 28,1l1 14c-9,4 -26,6 -35,3 -36,-12 -21,-60 -3,-60 1,0 27,0 27,0 16,6 16,34 12,35zm-26 -23c4,0 6,4 6,7 0,3 -2,4 -3,4 -3,0 -4,0 -9,0 -1,-5 0,-11 6,-11z"/>
    <path class="fil3" d="M738 486l1 0 0 13c-38,1 -46,-4 -46,-18 0,-19 20,-17 20,-26 0,-6 -9,-5 -16,-5l0 -12c29,-2 43,3 43,17 0,18 -17,17 -17,25 0,6 8,6 15,6z"/>
    <path class="fil3" d="M836 510l0 12c19,0 23,0 23,0 0,0 15,-1 15,-13 1,-12 1,-52 1,-52 0,-1 -1,-7 4,-7 8,0 9,1 10,5 0,6 0,44 0,44l27 0 0 -27c0,-4 9,-3 9,0 0,4 0,22 0,27l28 0 0 -61 -28 0 0 19c0,3 -9,3 -9,0l0 -19 -82 0c-38,10 -28,58 -2,60 15,1 16,1 16,1 0,3 0,10 -3,11 -2,0 -9,0 -9,0zm10 -60c0,0 1,0 1,0l0 34c0,0 -1,0 -1,0 -5,0 -9,-7 -9,-17 0,-9 4,-17 9,-17z"/>
    <path class="fil3" d="M790 438c11,5 18,17 18,31 0,13 -7,25 -18,30l-32 0c-11,-5 -18,-17 -18,-30 0,-14 8,-26 19,-31l31 0zm-16 13c4,0 8,8 8,18 0,10 -4,18 -8,18 -4,0 -7,-8 -7,-18 0,-10 3,-18 7,-18z"/>
    <path class="fil3" d="M968 475c-17,-8 -17,-31 2,-37 14,0 52,0 52,0l0 9c0,0 -5,0 -6,3 0,3 1,49 0,49l-24 0 0 -16c-14,-1 -12,10 -12,16l-25 0c0,-12 0,-18 13,-24zm23 -28c1,0 1,0 2,0l0 23c-13,1 -16,-23 -2,-23z"/>
   </g>
  </g>
 </g>
</svg>
