<?xml version="1.0" encoding="UTF-8"?>
<!DOCTYPE svg PUBLIC "-//W3C//DTD SVG 1.1//EN" "http://www.w3.org/Graphics/SVG/1.1/DTD/svg11.dtd">
<!-- Creator: CorelDRAW X7 -->
<svg xmlns="http://www.w3.org/2000/svg" xml:space="preserve" version="1.1" style="shape-rendering:geometricPrecision; text-rendering:geometricPrecision; image-rendering:optimizeQuality; fill-rule:evenodd; clip-rule:evenodd"
viewBox="0 0 1052 1052"
 xmlns:xlink="http://www.w3.org/1999/xlink">
 <defs>
  <style type="text/css">
   <![CDATA[
    .str0 {stroke:#2873B9;stroke-width:13.8898}
    .str1 {stroke:#612C75;stroke-width:13.8898}
    .str2 {stroke:#FEFEFE;stroke-width:3}
    .fil1 {fill:none}
    .fil3 {fill:none;fill-rule:nonzero}
    .fil7 {fill:#FEFEFE}
    .fil4 {fill:#FEFEFE}
    .fil0 {fill:#2B2A29}
    .fil6 {fill:#612C75}
    .fil2 {fill:#2B2A29;fill-rule:nonzero}
    .fil5 {fill:#FFED00;fill-rule:nonzero}
   ]]>
  </style>
 </defs>
 <g id="Слой_x0020_1">
  <metadata id="CorelCorpID_0Corel-Layer"/>
  <g id="_1102334160">
   <path class="fil0" d="M865 161c-65,240 -62,473 11,701 -231,-71 -463,-79 -696,3 76,-255 62,-488 -15,-706 236,77 405,83 700,2z"/>
   <path class="fil1 str0" d="M865 161c-65,240 -62,473 11,701 -231,-71 -463,-79 -696,3 76,-255 62,-488 -15,-706 236,77 405,83 700,2z"/>
   <path class="fil2" d="M200 193c66,211 70,421 12,638 101,-31 206,-47 311,-47 103,0 211,15 320,45 -59,-206 -62,-420 -9,-637 -131,34 -235,50 -332,50l-1 0c-96,0 -189,-15 -301,-49zm-54 707l12 -41c71,-237 67,-463 -13,-693l-15 -42 42 14c128,42 226,60 329,60l1 0c102,0 212,-18 357,-58l37 -10 -10 37c-64,234 -60,466 11,688l12 40 -40 -12c-118,-37 -235,-55 -346,-55 -114,0 -227,20 -336,58l-41 14z"/>
   <path class="fil3 str1" d="M200 193c66,211 70,421 12,638 101,-31 206,-47 311,-47 103,0 211,15 320,45 -59,-206 -62,-420 -9,-637 -131,34 -235,50 -332,50l-1 0c-96,0 -189,-15 -301,-49zm-54 707l12 -41c71,-237 67,-463 -13,-693l-15 -42 42 14c128,42 226,60 329,60l1 0c102,0 212,-18 357,-58l37 -10 -10 37c-64,234 -60,466 11,688l12 40 -40 -12c-118,-37 -235,-55 -346,-55 -114,0 -227,20 -336,58l-41 14z"/>
   <path class="fil0 str0" d="M818 208c-76,211 -70,383 8,607 -224,-80 -376,-95 -593,-7 80,-241 68,-377 -12,-594 225,79 317,77 597,-6z"/>
   <path class="fil0" d="M518 25c122,216 288,380 499,491 -213,111 -384,268 -493,491 -124,-235 -298,-391 -506,-493 223,-111 347,-225 500,-489z"/>
   <path class="fil1 str0" d="M518 25c122,216 288,380 499,491 -213,111 -384,268 -493,491 -124,-235 -298,-391 -506,-493 223,-111 347,-225 500,-489z"/>
   <path class="fil0 str0" d="M518 100c92,199 214,314 422,417 -210,98 -327,192 -418,402 -110,-222 -211,-309 -416,-406 211,-98 274,-163 412,-413z"/>
   <path class="fil0" d="M394 296c-81,46 -150,104 -173,225 121,-1 263,-26 354,-119 -90,-29 -111,-36 -181,-106z"/>
   <path class="fil1 str0" d="M394 296c-81,46 -150,104 -173,225 121,-1 263,-26 354,-119 -90,-29 -111,-36 -181,-106z"/>
   <path class="fil2" d="M393 304c-72,41 -140,96 -164,210 104,-1 242,-22 333,-109 -80,-26 -103,-35 -169,-101zm-180 224l2 -8c23,-127 98,-186 176,-230l4 -3 3 4c70,70 91,77 179,105l10 3 -8 8c-96,99 -248,120 -358,121l-8 0z"/>
   <path class="fil3 str0" d="M393 304c-72,41 -140,96 -164,210 104,-1 242,-22 333,-109 -80,-26 -103,-35 -169,-101zm-180 224l2 -8c23,-127 98,-186 176,-230l4 -3 3 4c70,70 91,77 179,105l10 3 -8 8c-96,99 -248,120 -358,121l-8 0z"/>
   <path class="fil0" d="M481 290c159,-35 259,79 275,227l-461 6 91 -145 95 -88z"/>
   <path class="fil1 str0" d="M481 290c159,-35 259,79 275,227l-461 6 91 -145 95 -88z"/>
   <path class="fil2" d="M390 381l-85 136 445 -5c-16,-136 -99,-223 -212,-223 -18,0 -36,2 -54,6l-94 86zm-105 147l97 -154 97 -89 1 0c20,-4 39,-7 58,-7 120,0 208,94 224,238l1 6 -478 6z"/>
   <path class="fil3 str0" d="M390 381l-85 136 445 -5c-16,-136 -99,-223 -212,-223 -18,0 -36,2 -54,6l-94 86zm-105 147l97 -154 97 -89 1 0c20,-4 39,-7 58,-7 120,0 208,94 224,238l1 6 -478 6z"/>
   <polygon class="fil0 str0" points="289,559 757,559 757,520 289,520 "/>
   <path class="fil2 str0" d="M294 554l457 0 0 -28 -457 0 0 28zm468 10l-478 0 0 -49 478 0 0 49z"/>
   <polygon class="fil0" points="544,559 738,559 825,673 632,673 "/>
   <polygon class="fil1 str0" points="544,559 738,559 825,673 632,673 "/>
   <path class="fil2" d="M635 668l179 0 -79 -104 -180 0 80 104zm201 11l-207 0 -96 -125 207 0 96 125z"/>
   <path class="fil3 str0" d="M635 668l179 0 -79 -104 -180 0 80 104zm201 11l-207 0 -96 -125 207 0 96 125z"/>
   <path class="fil0" d="M282 510c6,-101 44,-164 117,-203 46,41 109,78 176,95 -87,67 -186,105 -293,108z"/>
   <path class="fil1 str0" d="M282 510c6,-101 44,-164 117,-203 46,41 109,78 176,95 -87,67 -186,105 -293,108z"/>
   <path class="fil2" d="M399 314c-69,38 -105,99 -111,191 98,-4 190,-38 275,-101 -58,-17 -117,-49 -164,-90zm-123 202l0 -6c6,-101 44,-167 121,-207l3 -2 3 2c50,44 113,78 173,94l11 3 -9 6c-90,70 -190,107 -296,110l-6 0z"/>
   <path class="fil3 str0" d="M399 314c-69,38 -105,99 -111,191 98,-4 190,-38 275,-101 -58,-17 -117,-49 -164,-90zm-123 202l0 -6c6,-101 44,-167 121,-207l3 -2 3 2c50,44 113,78 173,94l11 3 -9 6c-90,70 -190,107 -296,110l-6 0z"/>
   <path class="fil0" d="M578 397c-82,-20 -147,-48 -186,-95 -14,-4 49,-43 57,-39 41,38 85,73 136,102 -4,13 -3,19 -7,32z"/>
   <path class="fil1 str0" d="M578 397c-82,-20 -147,-48 -186,-95 -14,-4 49,-43 57,-39 41,38 85,73 136,102 -4,13 -3,19 -7,32z"/>
   <path class="fil2" d="M397 299c34,41 90,70 178,91 0,-3 1,-7 1,-10 1,-4 1,-8 2,-13 -45,-26 -88,-58 -131,-99 -10,2 -43,22 -50,31zm185 104l-5 -1c-92,-22 -152,-52 -188,-95 -3,-2 -4,-5 -4,-8 2,-13 51,-42 63,-42 1,0 3,1 4,1l1 1c44,42 88,75 134,101l4 2 -1 5c-2,5 -3,10 -3,14 -1,5 -1,11 -4,17l-1 5z"/>
   <path class="fil3 str0" d="M397 299c34,41 90,70 178,91 0,-3 1,-7 1,-10 1,-4 1,-8 2,-13 -45,-26 -88,-58 -131,-99 -10,2 -43,22 -50,31zm185 104l-5 -1c-92,-22 -152,-52 -188,-95 -3,-2 -4,-5 -4,-8 2,-13 51,-42 63,-42 1,0 3,1 4,1l1 1c44,42 88,75 134,101l4 2 -1 5c-2,5 -3,10 -3,14 -1,5 -1,11 -4,17l-1 5z"/>
   <path class="fil0" d="M604 356c17,0 31,14 31,30 0,17 -14,30 -31,30 -18,0 -32,-13 -32,-30 0,-16 14,-30 32,-30z"/>
   <path class="fil1 str0" d="M604 356c17,0 31,14 31,30 0,17 -14,30 -31,30 -18,0 -32,-13 -32,-30 0,-16 14,-30 32,-30z"/>
   <path class="fil2" d="M604 362c-15,0 -26,11 -26,24 0,14 11,25 26,25 14,0 26,-11 26,-25 0,-13 -12,-24 -26,-24zm0 60c-21,0 -37,-16 -37,-36 0,-19 16,-35 37,-35 20,0 37,16 37,35 0,20 -17,36 -37,36z"/>
   <path class="fil3 str0" d="M604 362c-15,0 -26,11 -26,24 0,14 11,25 26,25 14,0 26,-11 26,-25 0,-13 -12,-24 -26,-24zm0 60c-21,0 -37,-16 -37,-36 0,-19 16,-35 37,-35 20,0 37,16 37,35 0,20 -17,36 -37,36z"/>
   <path class="fil4 str2" d="M865 161c-65,240 -62,473 11,701 -231,-71 -463,-79 -696,3 76,-255 62,-488 -15,-706 236,77 405,83 700,2z"/>
   <path class="fil5" d="M200 193c66,211 70,421 12,638 101,-31 206,-47 311,-47 103,0 211,15 320,45 -59,-206 -62,-420 -9,-637 -131,34 -235,50 -332,50l-1 0c-96,0 -189,-15 -301,-49zm-54 707l12 -41c71,-237 67,-463 -13,-693l-15 -42 42 14c128,42 226,60 329,60l1 0c102,0 212,-18 357,-58l37 -10 -10 37c-64,234 -60,466 11,688l12 40 -40 -12c-118,-37 -235,-55 -346,-55 -114,0 -227,20 -336,58l-41 14z"/>
   <path class="fil6" d="M818 208c-76,211 -70,383 8,607 -224,-80 -376,-95 -593,-7 80,-241 68,-377 -12,-594 225,79 317,77 597,-6z"/>
   <path class="fil4" d="M518 25c122,216 288,380 499,491 -213,111 -384,268 -493,491 -124,-235 -298,-391 -506,-493 223,-111 347,-225 500,-489z"/>
   <path class="fil6" d="M518 100c92,199 214,314 422,417 -210,98 -327,192 -418,402 -110,-222 -211,-309 -416,-406 211,-98 274,-163 412,-413z"/>
   <path class="fil7" d="M394 296c-81,46 -150,104 -173,225 121,-1 263,-26 354,-119 -90,-29 -111,-36 -181,-106z"/>
   <path class="fil2" d="M393 304c-72,41 -140,96 -164,210 104,-1 242,-22 333,-109 -80,-26 -103,-35 -169,-101zm-180 224l2 -8c23,-127 98,-186 176,-230l4 -3 3 4c70,70 91,77 179,105l10 3 -8 8c-96,99 -248,120 -358,121l-8 0z"/>
   <path class="fil7" d="M481 290c159,-35 259,79 275,227l-461 6 91 -145 95 -88z"/>
   <path class="fil2" d="M390 381l-85 136 445 -5c-16,-136 -99,-223 -212,-223 -18,0 -36,2 -54,6l-94 86zm-105 147l97 -154 97 -89 1 0c20,-4 39,-7 58,-7 120,0 208,94 224,238l1 6 -478 6z"/>
   <polygon class="fil7" points="289,559 757,559 757,520 289,520 "/>
   <path class="fil2" d="M294 554l457 0 0 -28 -457 0 0 28zm468 10l-478 0 0 -49 478 0 0 49z"/>
   <polygon class="fil7" points="544,559 738,559 825,673 632,673 "/>
   <path class="fil2" d="M635 668l179 0 -79 -104 -180 0 80 104zm201 11l-207 0 -96 -125 207 0 96 125z"/>
   <path class="fil7" d="M282 510c6,-101 44,-164 117,-203 46,41 109,78 176,95 -87,67 -186,105 -293,108z"/>
   <path class="fil2" d="M399 314c-69,38 -105,99 -111,191 98,-4 190,-38 275,-101 -58,-17 -117,-49 -164,-90zm-123 202l0 -6c6,-101 44,-167 121,-207l3 -2 3 2c50,44 113,78 173,94l11 3 -9 6c-90,70 -190,107 -296,110l-6 0z"/>
   <path class="fil7" d="M578 397c-82,-20 -147,-48 -186,-95 -14,-4 49,-43 57,-39 41,38 85,73 136,102 -4,13 -3,19 -7,32z"/>
   <path class="fil2" d="M397 299c34,41 90,70 178,91 0,-3 1,-7 1,-10 1,-4 1,-8 2,-13 -45,-26 -88,-58 -131,-99 -10,2 -43,22 -50,31zm185 104l-5 -1c-92,-22 -152,-52 -188,-95 -3,-2 -4,-5 -4,-8 2,-13 51,-42 63,-42 1,0 3,1 4,1l1 1c44,42 88,75 134,101l4 2 -1 5c-2,5 -3,10 -3,14 -1,5 -1,11 -4,17l-1 5z"/>
   <path class="fil7" d="M604 356c17,0 31,14 31,30 0,17 -14,30 -31,30 -18,0 -32,-13 -32,-30 0,-16 14,-30 32,-30z"/>
   <path class="fil2" d="M604 362c-15,0 -26,11 -26,24 0,14 11,25 26,25 14,0 26,-11 26,-25 0,-13 -12,-24 -26,-24zm0 60c-21,0 -37,-16 -37,-36 0,-19 16,-35 37,-35 20,0 37,16 37,35 0,20 -17,36 -37,36z"/>
  </g>
 </g>
</svg>
