<?xml version="1.0" encoding="UTF-8"?>
<!DOCTYPE svg PUBLIC "-//W3C//DTD SVG 1.1//EN" "http://www.w3.org/Graphics/SVG/1.1/DTD/svg11.dtd">
<!-- Creator: CorelDRAW X7 -->
<svg xmlns="http://www.w3.org/2000/svg" xml:space="preserve" width="1.05208in" height="0.602079in" version="1.1" style="shape-rendering:geometricPrecision; text-rendering:geometricPrecision; image-rendering:optimizeQuality; fill-rule:evenodd; clip-rule:evenodd"
viewBox="0 0 1052 602"
 xmlns:xlink="http://www.w3.org/1999/xlink">
 <defs>
  <style type="text/css">
   <![CDATA[
    .fil0 {fill:#612C75;fill-rule:nonzero}
   ]]>
  </style>
 </defs>
 <g id="Слой_x0020_1">
  <metadata id="CorelCorpID_0Corel-Layer"/>
  <g id="_1063537744">
   <path class="fil0" d="M7 201l47 0c34,0 68,10 68,51 0,44 -45,53 -83,53l0 57 -32 0 0 -161zm32 77l22 0c40,0 36,-52 1,-52l-22 0 -1 52z"/>
   <path class="fil0" d="M534 200l-10 24c-29,0 -70,-3 -72,35 24,-15 58,-7 69,4 10,11 17,23 17,40 0,18 -6,33 -17,45 -11,11 -25,17 -42,17 -14,0 -26,-4 -36,-13 -11,-8 -17,-19 -20,-30 -3,-12 -5,-25 -5,-39 0,-17 4,-30 9,-41 12,-33 43,-40 77,-42 12,-1 24,0 30,0zm-24 108c0,-10 -3,-18 -9,-24 -5,-6 -13,-9 -22,-9 -9,0 -16,3 -22,9 -5,7 -8,15 -8,24 0,10 3,18 8,24 6,7 13,10 22,10 9,0 16,-3 22,-10 6,-6 9,-14 9,-24z"/>
   <polygon class="fil0" points="663,359 629,359 602,288 576,359 542,359 587,252 619,252 "/>
   <path class="fil0" d="M784 314l-90 0c1,8 5,12 10,17 6,5 13,7 22,7 10,0 23,-5 30,-13l24 13c-6,8 -17,15 -25,19 -8,4 -18,6 -29,6 -18,0 -32,-6 -43,-17 -11,-11 -16,-25 -16,-41 0,-17 5,-31 16,-42 11,-12 25,-17 42,-17 17,0 32,5 43,16 11,12 16,26 16,45l0 7zm-30 -22c-1,-30 -52,-32 -57,0l57 0z"/>
   <path class="fil0" d="M830 249l0 12c6,-5 11,-9 18,-11 6,-3 13,-4 20,-4 15,0 29,5 40,17 10,11 16,25 16,43 0,17 -6,31 -17,42 -11,12 -25,17 -40,17 -7,0 -13,-1 -19,-3 -6,-2 -10,-6 -16,-12l0 63 -32 0 0 -164 30 0zm32 23c-10,0 -18,3 -24,9 -6,6 -9,14 -9,24 0,10 3,19 9,25 6,6 14,9 24,9 9,0 16,-3 23,-9 6,-7 9,-15 9,-25 0,-9 -3,-17 -9,-24 -6,-6 -14,-9 -23,-9z"/>
   <polygon class="fil0" points="946,415 1028,204 1058,204 975,415 "/>
   <path class="fil0" d="M233 360l-29 1c0,-6 0,-8 0,-11l-1 0c-9,8 -21,11 -36,11 -10,0 -23,-3 -29,-9 -7,-5 -11,-13 -11,-22 0,-12 3,-21 13,-28 11,-7 35,-12 62,-10 0,-32 -36,-22 -53,-11l-9 -23c15,-10 53,-19 76,-2 8,6 15,18 15,29 1,25 2,50 2,75zm-29 -49c-28,0 -47,3 -47,17 0,9 10,14 22,13 17,-1 25,-9 25,-30z"/>
   <polygon class="fil0" points="397,360 366,360 366,293 333,336 327,336 291,293 291,360 261,360 261,252 289,252 330,298 369,252 397,252 "/>
  </g>
 </g>
</svg>
