<?xml version="1.0" encoding="UTF-8"?>
<!DOCTYPE svg PUBLIC "-//W3C//DTD SVG 1.1//EN" "http://www.w3.org/Graphics/SVG/1.1/DTD/svg11.dtd">
<!-- Creator: CorelDRAW X7 -->
<svg xmlns="http://www.w3.org/2000/svg" xml:space="preserve"  version="1.1" style="shape-rendering:geometricPrecision; text-rendering:geometricPrecision; image-rendering:optimizeQuality; fill-rule:evenodd; clip-rule:evenodd"
viewBox="0 0 1052 740"
 xmlns:xlink="http://www.w3.org/1999/xlink">
 <defs>
  <style type="text/css">
   <![CDATA[
    .fil0 {fill:#612C75}
    .fil2 {fill:#850102}
    .fil4 {fill:#E3B166}
    .fil3 {fill:#FEFEFE}
    .fil1 {fill:#FFED00}
   ]]>
  </style>
 </defs>
 <g id="Слой_x0020_1">
  <metadata id="CorelCorpID_0Corel-Layer"/>
  <g id="_993184448">
   <g id="zalivka_x00a0_Изображение_1_">
    <path class="fil0" d="M339 269c0,0 -68,8 -143,22 -40,7 -86,18 -122,28 -73,19 -74,83 -74,83l0 240c0,0 2,58 61,73 46,11 167,16 259,15 223,-1 515,-37 622,-68 26,-7 45,-11 61,-20 47,-27 49,-75 49,-75l0 -237c0,0 -1,-45 -52,-66 -11,-4 -23,-5 -38,-7 -17,-2 -48,-8 -82,-10 -75,-4 -165,-3 -165,-3l-376 25z"/>
   </g>
   <path class="fil1" d="M1000 264c-11,-4 -23,-5 -38,-7 -17,-2 -48,-8 -82,-10 -72,-4 -159,-3 -165,-3 4,-13 5,-27 5,-40 0,-110 -88,-197 -196,-197 -109,0 -197,87 -197,197 0,22 4,44 11,65 -8,1 -73,10 -142,22 -40,7 -86,18 -122,28 -73,19 -74,83 -74,83l0 240c0,0 2,58 61,73 46,11 167,16 259,15 223,-1 515,-37 621,-68 27,-7 46,-11 62,-20 47,-27 49,-75 49,-75l0 -237c0,0 -1,-45 -52,-66zm-27 340c-53,15 -144,34 -244,47 -240,31 -400,31 -503,29 -98,-4 -149,-10 -162,-19 -22,-15 -19,-43 -19,-43l0 -206c0,0 -1,-39 35,-50 84,-28 255,-49 278,-52 36,54 96,89 166,89 78,0 146,-45 177,-111 17,0 89,-1 150,2 31,2 105,7 129,16 31,10 29,43 29,43l-1 206c0,-1 2,34 -35,49zm51 -41c0,0 -5,43 -45,58 -55,18 -141,36 -243,49 -118,16 -258,30 -404,31 -52,0 -112,-1 -164,-3 -40,-2 -76,-4 -101,-13 -38,-13 -37,-51 -37,-51l0 -227c0,0 4,-45 42,-59 91,-32 271,-53 280,-54 2,3 3,6 5,10 -19,2 -190,23 -277,53 -36,12 -35,52 -35,52l0 213c0,0 -3,30 19,45 13,9 64,16 163,20 103,2 266,2 507,-29 100,-14 192,-33 246,-49 39,-16 35,-52 35,-52l-2 -213c0,0 2,-34 -29,-45 -24,-8 -98,-14 -130,-15 -61,-3 -135,-2 -150,-2 1,-3 3,-8 4,-12 9,0 87,-1 153,2 33,2 104,8 128,16 33,11 35,49 35,49l0 226 0 0z"/>
   <path class="fil0" d="M533 214c2,-1 1,-7 -1,-7 -1,1 -1,7 1,7zm28 -28c1,-2 0,-7 -2,-6 -1,2 1,6 2,6zm-58 49c-1,1 2,4 3,3 0,0 -1,-3 -3,-3zm40 -33c1,-1 0,-7 -2,-6 -1,1 1,8 2,6zm12 -12c1,-1 0,-6 -2,-6 0,1 0,6 2,6zm-18 17c1,-1 1,-7 -1,-7 -1,1 0,8 1,7zm12 -12c1,-1 0,-6 -1,-6 -1,0 -1,6 1,6zm18 -13c1,0 1,-7 -2,-8 -1,1 -1,8 2,8zm-163 56c0,0 0,0 0,0 -3,-1 -11,-2 -16,-4 2,3 13,5 16,4zm29 -14c0,0 0,0 0,0 2,1 5,0 6,0 0,0 0,0 0,-1 0,0 0,0 -1,0 -1,0 -3,1 -5,1zm-16 1c0,0 0,0 0,0 -5,-1 -25,-5 -35,-8 15,9 28,8 35,8zm-43 5c-1,-5 -2,-15 3,-15 -1,-3 -3,-5 -8,-6 0,0 -1,0 -1,0 0,5 1,9 1,14 1,6 3,6 3,8 -1,4 -1,6 0,8 1,4 3,8 4,13 0,0 0,0 0,0 0,0 0,0 0,0 0,-3 -6,-21 1,-20 1,-2 -1,-2 -3,-2zm8 38c0,0 -1,0 -1,1 2,6 6,12 8,18 0,0 1,0 1,0 0,0 0,0 0,0 -1,-6 -3,-19 -8,-19zm55 -153c0,0 0,-1 1,-2 -1,-2 -1,-4 -3,-5 0,0 -1,0 -1,1 0,2 1,3 1,5 0,1 0,1 2,1 -1,0 -1,0 0,0zm158 54c1,-2 1,-6 -1,-7 -2,1 -1,8 1,7zm-15 5c2,-1 1,-6 -1,-7 -2,2 0,7 1,7zm7 -3c2,-1 1,-7 0,-7 -3,2 -1,7 0,7zm14 -4c1,0 2,-6 0,-7 -2,2 -2,7 0,7zm-71 53c1,-1 1,-7 -1,-7 -2,2 -1,8 1,7zm88 -2c-1,0 -1,0 0,0 0,3 1,5 2,7 0,0 1,0 1,0 0,0 0,0 0,0 0,-2 -1,-5 -3,-7 0,0 0,0 0,0zm-159 -64c0,0 0,-2 0,-2 -2,-4 -5,-8 -7,-12 0,0 0,0 -1,-1 0,0 0,1 -1,1 2,4 4,11 9,14 -1,0 -1,0 0,0zm-15 45c3,-3 4,-9 6,-12 4,-7 8,-12 13,-17 0,-1 0,-1 0,-2 0,0 -1,-1 -2,-1 -8,5 -14,18 -17,32 0,-1 0,0 0,0zm178 114c0,-2 0,-5 0,-7 -1,-4 -2,-7 -2,-10 -1,-1 -8,-1 -9,-3 0,0 0,0 0,-1 0,0 0,-1 0,-1 2,-3 9,-1 11,-3 1,-1 1,-3 1,-4 0,0 0,0 0,0 -6,-1 -22,6 -18,14 3,6 12,-1 14,6 2,10 -8,16 -13,16 -7,0 -11,-6 -17,-8 -3,-1 -5,-2 -8,-3 -2,-1 -2,-5 -4,-7 -3,0 -6,-1 -8,-1 -5,-2 -8,-6 -9,-10 -3,-8 9,-20 -8,-24 0,-1 1,-2 1,-3 3,-4 12,-1 17,2 0,0 0,0 0,0 -5,-6 -9,-11 -14,-18 0,2 0,8 -2,11 -1,1 -1,0 -5,3 -1,2 -2,4 -3,5 -2,0 -6,1 -7,6 0,0 1,0 1,0 0,0 0,1 2,1 0,6 -4,8 -8,8 -1,0 -2,-1 -2,-2 0,-4 1,-5 3,-6 1,0 1,-1 2,-1 -3,-5 -5,-6 -11,-6 0,-1 1,-2 1,-3 0,-1 0,-2 1,-3 1,-1 2,-1 3,-2 2,-2 5,-4 7,-7 2,-2 4,-5 5,-7 2,-3 5,-6 7,-8 4,-4 11,-6 15,-11 5,-6 6,-17 0,-20 3,-4 3,-10 3,-13 5,0 17,-1 21,2 4,3 1,11 6,13 7,4 15,-6 18,-3 1,1 4,6 4,8 0,0 1,0 1,1 0,-3 -1,-5 -3,-7 4,-2 7,-5 10,-7 1,-4 3,-9 4,-13 -2,1 -7,4 -10,1 -2,-1 -1,-3 -1,-5 -1,-6 -6,-9 -11,-10 2,-9 3,-15 0,-22 -5,1 -8,1 -13,1 -6,-1 -9,-2 -12,-4 -9,-2 -20,-4 -27,-5 -21,-1 -35,3 -51,9 -4,3 -9,4 -14,7 0,0 -1,0 -1,0 1,-4 8,-7 12,-8 10,-4 29,-11 40,-11 0,0 0,-1 0,-1 -5,0 -10,2 -15,2 -15,3 -28,7 -41,13 10,-8 34,-15 46,-18 4,-1 8,-2 14,-3 4,0 9,2 12,3 8,-31 39,-52 56,-71 2,-13 -15,-18 -29,-20 -10,-1 -22,-6 -33,-6 -4,0 -8,0 -10,1 -2,0 -3,0 -5,-1 -3,0 -7,0 -10,0 -2,2 -5,2 -8,3 -9,0 -16,0 -24,2 -25,5 -45,19 -64,36 -6,4 -11,8 -18,13 -14,14 -27,30 -36,51 -8,19 -7,42 -8,61 0,0 -3,2 7,-8 5,2 9,3 14,5 9,3 19,4 27,5 0,0 0,0 0,0 -12,-5 -37,-13 -41,-21 -3,-6 0,-22 3,-32 2,-8 3,-13 7,-17 3,-2 5,-3 8,2 7,15 23,24 36,35 1,-3 1,-5 2,-8 -5,-6 -7,-5 -12,-8 -3,-2 -6,-6 -8,-8 -4,-3 -7,-5 -11,-8 -1,-1 0,-3 0,-5 -1,-4 -3,-10 -6,-12 4,-11 23,-30 32,-35 1,2 2,3 3,5 1,1 1,2 2,3 0,-4 1,-8 1,-12 1,2 3,4 4,7 1,-4 2,-7 2,-11 8,-6 14,-11 21,-16 2,0 4,1 6,1 4,-2 7,-4 9,-6 3,0 5,0 8,-1 5,-1 10,-4 13,-6 4,0 8,0 12,0 0,12 -1,23 -5,38 0,0 0,0 0,0 2,-3 5,-7 7,-10 3,-10 5,-18 9,-27 0,3 0,6 0,8 0,0 0,0 0,0 5,-3 10,-8 13,-15 4,2 6,7 6,11 0,0 0,0 0,0 3,-4 8,-6 11,-11 6,-1 11,1 15,4 -2,8 -6,12 -10,17 0,0 0,0 0,0 6,-2 22,-24 31,-17 0,0 0,0 0,0 -2,7 -5,11 -8,15 0,0 0,0 0,0 5,-3 9,-6 14,-8 -1,2 -3,4 -4,6 0,0 0,0 0,0 4,-1 14,-9 18,-6 0,0 0,0 1,1 1,3 -10,13 -16,17 5,-2 9,-4 13,-6 -5,4 -9,9 -15,13 -9,9 -16,17 -25,29 -3,4 -6,10 -8,16 2,-12 1,-16 -2,-24 0,-1 -1,-1 -1,-2 -4,11 -3,25 -16,29 -2,1 -5,0 -8,-1 -2,-1 -3,-2 -5,-4 -9,19 -23,8 -43,28 0,0 0,1 0,2 2,0 5,-1 7,0 1,1 0,1 1,1 -1,1 -2,3 -3,4 0,0 0,0 0,1 1,0 1,0 2,0 -1,1 -2,3 -3,4 0,0 0,0 0,0 3,-2 6,-4 10,-6 5,-2 9,-4 14,-7 12,-6 34,-11 57,-5 20,8 17,7 17,7 -6,3 -12,6 -18,9 -9,5 -22,14 -31,25 -8,9 -14,22 -18,34 -1,-2 -3,-5 -5,-6 -16,-7 -29,8 -27,20 2,9 7,12 18,17 1,0 3,1 4,1 -6,11 -19,23 -27,26 -14,-6 -24,-26 -30,-37 -4,-9 -4,-9 -4,-8 4,14 13,36 25,46 -2,2 -3,3 -3,5 0,1 1,2 1,3 0,2 -1,4 -2,6 0,3 1,6 1,9 5,2 11,2 14,1 -1,5 -2,9 -3,14 1,0 2,0 3,1 1,-6 2,-19 7,-22 1,-1 4,0 6,0 5,-1 8,-4 11,-8 5,-7 3,-22 12,-19 0,0 2,1 2,2 0,3 -3,4 -3,6 0,6 5,8 11,8 0,4 2,9 7,10 -1,7 1,12 5,15 2,1 3,1 5,2 2,3 6,13 12,13 5,0 7,-4 10,-6 0,0 1,-1 3,-1 2,2 3,6 5,8 4,3 7,5 11,8 3,3 6,7 10,11 1,-4 1,-8 3,-10 4,-4 11,0 16,-1 6,-1 15,-9 14,-19 -2,-4 -3,-5 -4,-6zm-80 -88c-3,-2 5,-10 6,-9 2,3 -5,11 -6,9zm9 -8c-2,-2 3,-8 4,-7 1,2 -3,8 -4,7zm44 -58c3,-1 6,-1 8,-2 2,3 2,8 1,12 -6,1 -12,4 -19,6 -2,1 -4,2 -6,4 -1,1 -2,1 -3,2 -1,-4 -1,-6 -1,-8 -1,-2 -2,-4 -3,-6 6,-4 15,-6 23,-8zm-83 105c-1,1 -1,1 -2,1 -1,0 -1,0 -2,0 -2,-5 3,-9 6,-10 0,0 -1,7 -2,9zm-11 -13c-21,-3 -22,-27 -2,-30 8,-1 15,6 11,14 -1,3 -6,6 -10,4 -2,-1 -3,-2 -4,-3 0,5 9,9 16,3 4,-4 6,-12 9,-19 3,-7 6,-14 10,-20 7,-9 16,-16 24,-24 4,-3 8,-5 13,-8 3,2 4,11 4,15 -3,2 -7,4 -11,6 -5,4 -10,9 -14,13 -7,7 -12,19 -19,29 -7,12 -18,21 -27,20zm24 -32c-1,2 0,7 2,6 1,-1 -1,-6 -2,-6zm-3 7c-1,1 -1,8 1,8 0,0 0,-8 -1,-8zm-19 7c0,1 4,0 4,-1 0,-1 -4,0 -4,1zm112 -8c-2,-2 -4,-3 -7,-4 -2,0 -4,0 -6,0 -6,2 -16,5 -22,9 0,0 0,0 0,0 5,-1 12,-3 17,-5 1,1 2,1 4,2 6,3 10,0 13,-2 0,1 1,1 1,0zm15 44c-5,3 -17,10 -18,1 0,0 0,0 0,0 -2,9 7,11 12,7 1,-1 7,-1 6,-8zm-23 -24c-1,1 -2,1 -3,2 2,-1 3,-2 5,-2 -1,-7 -2,-4 -2,-6 0,-2 -1,-3 -2,-3 -3,2 -7,3 -10,5 -1,1 -2,2 -4,2 5,-1 8,-4 13,-4 -2,1 -4,2 -6,4 -1,0 -1,1 -2,1 3,-1 5,-2 8,-3 2,1 3,2 3,4 0,0 0,0 0,0zm14 14c0,0 1,0 0,0 4,-2 -1,-13 -4,-15 1,4 2,7 3,14 0,1 1,1 1,1zm-3 -20c0,0 0,1 0,0 2,-3 5,-3 4,-5 -1,0 -1,0 -2,-1 -1,2 -1,4 -2,6zm-120 -12c1,0 2,-4 0,-4 0,1 -1,4 0,4zm-3 3c1,-1 -2,-5 -3,-5 -2,1 2,6 3,5zm3 8c1,1 3,-2 3,-3 -1,-1 -3,3 -3,3zm-8 -3c2,-2 -5,-2 -4,-1 0,1 3,2 4,1zm13 -4c1,0 2,-4 2,-5 -1,-1 -3,4 -2,5zm10 9c-1,1 1,5 2,4 0,0 -1,-4 -2,-4zm5 -6c-2,1 -2,6 1,6 1,-2 1,-7 -1,-6zm-10 9c-1,0 -1,5 0,4 1,0 1,-4 0,-4zm-14 4c1,1 4,-3 3,-4 -1,-1 -4,3 -3,4zm7 -3c-1,0 -1,5 0,5 1,0 2,-5 0,-5zm-13 -1c0,1 5,-1 5,-3 0,-1 -5,1 -5,3z"/>
   <g id="Слой_9">
    <g>
     <path class="fil2" d="M937 441c7,-5 14,-10 20,-11 -4,11 2,19 11,21 13,5 27,-8 27,-22 0,-18 -18,-25 -37,-20 -16,4 -29,14 -40,27 -9,8 -16,18 -23,26l10 -51 -49 6 -2 13c6,0 10,2 10,8 0,1 0,3 -1,7l-11 66c-3,2 -7,4 -13,6 -5,1 -7,-2 -7,-6 0,-2 0,-3 0,-4l7 -43c1,-8 3,-14 3,-18 0,-6 -3,-11 -6,-15 -3,-5 -9,-7 -17,-8 -7,-1 -16,-1 -26,0 -6,0 -10,1 -15,2 -4,1 -9,2 -16,5 -5,2 -10,3 -15,5 -6,2 -9,3 -13,5l-4 26 18 -2c5,-12 14,-18 30,-20 6,-1 11,0 15,1 5,2 7,5 7,10 0,1 0,3 -1,7 -15,3 -27,6 -39,10 -10,4 -21,10 -29,17 -6,4 -10,9 -13,16 -4,6 -6,12 -6,18 0,1 0,1 0,3 0,0 0,1 0,1 -3,2 -6,3 -9,3 -2,0 -4,0 -6,-1 -2,-2 -2,-3 -2,-6 0,-1 0,-3 0,-4l18 -99 30 -3 3 -19 -30 3 9 -44 -40 6 -8 43 -26 3 0 18 26 -3 -19 100c0,1 0,2 0,3 0,2 0,2 0,3 0,1 0,2 0,3 0,1 0,2 0,3 0,6 2,11 5,15 4,5 9,7 16,7 1,0 4,0 7,0 8,-1 19,-4 26,-9 6,-2 9,-4 11,-6 2,2 4,3 7,5 6,3 14,3 23,3 17,-2 31,-8 42,-19 4,5 7,8 11,10 4,2 9,3 16,2 10,-1 21,-7 27,-12l-1 6 37 -4c2,-15 5,-27 9,-36 3,-9 8,-17 15,-27 3,16 15,53 26,65 4,4 10,6 16,7 2,0 4,0 7,0 11,-1 23,-7 36,-20l-10 -11c-27,20 -43,-54 -47,-71l0 0zm-148 71c-7,8 -14,12 -23,13 -3,0 -6,0 -9,-2 -3,-2 -4,-5 -4,-9 0,-12 14,-22 43,-31l-7 29zm-375 -6c0,-8 -2,-14 -4,-19 -3,-5 -6,-10 -10,-14 -4,-2 -8,-4 -15,-6 -5,-1 -11,-2 -16,-1 -12,1 -23,6 -34,14l1 -11 -47 7 -2 12c6,0 9,3 9,9 0,2 0,4 0,5l-22 116c-1,7 -5,13 -12,14l-2 10 61 -6 2 -11c-4,-1 -8,-1 -10,-2 -2,-1 -3,-3 -3,-5 0,-1 0,-2 1,-5l3 -17c10,0 17,-1 21,-1 16,-2 30,-7 43,-15 7,-6 14,-12 19,-19 5,-7 9,-15 12,-23 3,-8 4,-17 4,-26l0 -6 1 0zm-41 25c-1,5 -4,11 -8,16 -3,5 -6,10 -10,14 -8,7 -19,12 -31,13 0,0 -1,0 -2,0 -1,0 -1,0 -2,0l14 -74c8,-6 14,-9 20,-10 6,-1 10,1 15,5 4,4 6,11 6,19 0,6 0,11 -2,17l0 0zm292 -72c0,-18 -17,-25 -36,-20 -11,3 -20,8 -29,16l2 -13 -47 7 -2 12c5,0 8,3 8,9 0,2 0,4 0,5l-11 67c-3,2 -7,4 -13,6 -5,1 -7,-2 -7,-6 0,-2 0,-3 0,-4l7 -43c1,-8 2,-13 2,-18 0,-6 -2,-11 -5,-15 -3,-4 -9,-6 -18,-7 -6,-1 -15,-1 -26,0 -5,0 -9,1 -14,2 -4,1 -10,2 -16,4 -5,2 -10,3 -15,5 -6,2 -9,3 -13,5l-4 26 18 -2c5,-11 14,-18 30,-20 6,-1 11,0 14,1 6,3 8,6 8,10 0,1 0,3 -1,7 -15,3 -27,7 -39,11 -10,4 -21,9 -29,16 -6,4 -10,10 -14,16 -3,6 -5,12 -5,19 0,1 0,1 0,3 0,1 0,2 1,2 2,5 4,10 8,13 2,2 5,4 7,6 6,3 13,3 23,3 16,-2 31,-9 41,-20 5,5 8,8 12,10 4,2 9,3 16,2 5,-1 11,-3 15,-5l0 1 61 -6 2 -10c-5,-2 -8,-2 -10,-3 -2,-1 -3,-3 -3,-5 0,-1 0,-2 1,-5l13 -65c5,-6 22,-14 27,-15 -4,11 2,20 10,22 17,3 31,-10 31,-24l0 0zm-178 84c-7,8 -14,13 -23,14 -3,0 -6,0 -9,-2 -3,-3 -4,-6 -4,-10 0,-11 13,-22 43,-31l-7 29zm-209 -8c5,-33 -14,-43 -48,-55 -30,-12 -36,-15 -34,-31 1,-9 11,-23 27,-28 14,-4 26,-1 31,1 5,3 11,10 3,28l1 0 0 0 22 -2 69 -94 -43 4c0,0 -10,18 -21,40 -10,-4 -24,-7 -42,-6 -27,1 -47,10 -64,22 -18,11 -34,30 -38,53 -3,27 10,44 46,57 26,11 39,14 38,30 0,11 -10,20 -18,26 -19,12 -41,10 -54,2 -11,-7 -7,-22 -6,-26 0,-1 1,-2 1,-4l-23 3 -61 88 39 -4c0,0 8,-17 19,-35 17,10 35,11 50,11 24,-1 50,-7 71,-24 17,-14 31,-32 35,-56l0 0z"/>
     <path class="fil3" d="M933 436c6,-5 14,-12 20,-12 -4,12 2,20 10,22 14,4 27,-8 27,-23 0,-17 -17,-25 -36,-19 -17,4 -29,14 -41,27 -8,8 -15,17 -23,26l11 -51 -50 7 -2 12c6,0 10,2 10,9 0,1 0,3 -1,7l-11 66c-3,2 -8,4 -13,6 -5,1 -7,-2 -7,-6 0,-2 0,-3 0,-5l7 -42c1,-9 2,-14 2,-18 0,-6 -2,-11 -5,-16 -3,-4 -9,-6 -18,-7 -6,-1 -15,-1 -26,0 -5,0 -9,1 -13,2 -4,1 -10,2 -16,4 -5,2 -10,4 -15,6 -5,2 -9,3 -13,5l-3 23 18 -2c5,-12 14,-18 30,-20 6,-1 11,0 14,1 6,2 8,5 8,9 0,1 0,3 -1,8 -15,3 -27,7 -39,10 -10,4 -21,9 -29,17 -6,4 -10,9 -14,15 -3,7 -5,13 -5,19 0,1 0,1 0,3 0,0 0,1 0,1 -3,1 -6,2 -9,2 -2,0 -4,0 -6,-1 -3,-1 -3,-2 -3,-5 0,-1 0,-3 2,-4l18 -99 29 -3 4 -19 -29 5 9 -45 -40 7 -7 42 -26 4 -3 18 26 -3 -19 100c0,1 0,2 0,3 0,1 0,1 0,2 0,1 0,2 0,3 0,2 0,3 0,4 0,6 2,11 5,15 3,4 9,6 16,6 1,0 4,0 7,0 7,-1 19,-4 26,-8 5,-3 9,-4 11,-6 2,2 4,4 7,5 6,3 13,3 23,3 17,-2 31,-8 42,-20 4,6 7,9 11,11 4,2 9,3 16,2 10,-1 20,-7 27,-13l-3 6 37 -5c2,-14 5,-27 8,-35 4,-9 9,-18 16,-27 3,16 15,53 26,65 4,4 9,6 16,7 2,0 4,0 7,0 10,-1 23,-7 35,-20l-9 -11c-25,19 -41,-55 -46,-70l0 0zm-148 70c-7,8 -14,12 -23,13 -3,0 -6,0 -9,-2 -3,-2 -4,-5 -4,-9 0,-12 13,-22 43,-32l-7 30zm-374 -6c0,-7 -2,-13 -4,-18 -3,-6 -6,-10 -10,-14 -4,-3 -10,-5 -15,-7 -5,-1 -11,-2 -17,-1 -11,1 -22,6 -33,13l1 -10 -47 7 -2 12c5,0 9,3 9,9 0,2 0,4 0,5l-22 116c-1,6 -6,12 -12,13l-2 11 61 -6 2 -11c-5,-1 -8,-1 -10,-2 -2,-1 -3,-3 -3,-5 0,-1 0,-2 1,-5l3 -17c10,0 17,-1 21,-1 16,-2 30,-7 43,-16 7,-5 13,-11 19,-18 5,-8 9,-15 12,-23 3,-9 4,-17 4,-26l1 -6zm-41 25c-1,7 -5,12 -8,17 -3,5 -6,9 -10,14 -8,7 -19,12 -31,13 0,0 -1,0 -2,0 -1,0 -1,0 -2,0l14 -74c6,-6 14,-9 20,-10 6,-1 10,1 14,5 5,4 7,10 7,19 0,5 0,11 -2,16l0 0zm291 -71c0,-18 -17,-25 -36,-20 -12,3 -20,8 -29,15l2 -12 -46 7 -2 12c5,0 8,3 8,9 0,2 0,3 0,5l-12 68c-3,2 -8,4 -13,6 -5,1 -7,-2 -7,-6 0,-2 0,-3 0,-4l7 -43c1,-8 2,-14 2,-18 0,-6 -2,-11 -5,-15 -3,-4 -9,-7 -18,-8 -6,-1 -15,-1 -26,0 -5,0 -9,1 -13,2 -4,2 -10,3 -16,5 -5,2 -10,3 -16,5 -5,2 -9,3 -12,5l-4 26 18 -2c5,-11 14,-18 30,-20 6,-1 11,0 14,1 6,2 8,5 8,10 0,1 0,3 -1,7 -15,3 -28,7 -39,10 -10,5 -21,10 -29,17 -6,4 -11,9 -14,16 -3,6 -5,12 -5,18 0,1 0,2 0,4 0,1 0,2 1,2 2,5 4,10 7,13 3,2 6,4 8,5 6,3 13,3 22,3 16,-2 31,-8 41,-19 4,5 8,8 12,10 4,2 9,3 15,2 6,-1 12,-3 16,-5l0 1 60 -6 2 -11c-4,-1 -7,-1 -9,-2 -2,-1 -3,-3 -3,-5 0,-1 0,-2 1,-5l13 -65c5,-6 21,-14 27,-15 -5,11 2,19 10,22 18,2 31,-11 31,-25l0 0zm-177 84c-7,8 -14,12 -23,13 -3,0 -6,0 -9,-2 -3,-2 -4,-5 -4,-9 0,-11 13,-22 42,-31l-6 29zm-210 -8c5,-33 -14,-43 -48,-56 -30,-11 -37,-14 -34,-30 1,-9 11,-24 27,-28 14,-4 26,-1 31,1 5,3 11,9 3,28l1 0c0,0 0,0 0,0l22 -2 69 -95 -43 4c0,0 -10,19 -21,41 -10,-4 -24,-7 -43,-6 -26,2 -46,10 -63,22 -18,11 -35,30 -38,53 -3,27 10,44 46,58 26,11 39,13 38,29 -1,12 -10,21 -18,26 -19,13 -41,11 -54,2 -12,-6 -7,-21 -6,-26 1,-1 1,-2 1,-3l-23 2 -61 89 39 -3c0,0 8,-17 19,-36 17,11 35,12 50,12 24,-1 50,-7 70,-24 19,-16 33,-34 36,-58l0 0z"/>
     <path class="fil4" d="M969 441c4,1 7,0 10,-2 5,-3 8,-9 8,-16 0,-5 -2,-9 -6,-12 -5,-3 -13,-4 -22,-2 -16,4 -28,14 -37,25 -8,8 -15,16 -22,26 0,0 -8,9 -17,20 3,-14 11,-57 13,-68 -12,2 -31,4 -36,5 0,1 0,1 0,2 2,0 3,1 4,2 4,2 5,6 5,11l-1 8 -12 69 -3 2c-5,3 -10,5 -16,6 -5,1 -8,-1 -10,-2 -3,-2 -4,-5 -4,-10l1 -7 0 1 7 -42 2 -17c0,-5 -1,-9 -4,-11 -2,-4 -7,-5 -14,-6 -6,-1 -13,-1 -23,0 0,0 -14,2 -14,2 0,0 -15,5 -15,5 0,0 -14,5 -15,5 0,0 -5,2 -9,4 0,3 -1,9 -2,16 3,0 4,0 7,-1 6,-12 17,-18 33,-20 7,-1 13,0 19,2 9,4 11,10 11,14l-1 13 -4 1c-15,3 -27,7 -38,10 -10,5 -18,10 -28,16 -5,4 -9,8 -11,14 -3,5 -4,10 -4,15l0 0c0,0 0,2 0,2 0,0 0,0 0,0l2 6 -7 2 -10 2c-4,0 -7,0 -10,-2 -5,-4 -6,-8 -6,-10 0,0 1,-6 1,-5l20 -104c0,0 23,-2 29,-3 0,-2 0,-3 1,-7 -8,1 -29,4 -29,4 0,0 7,-34 9,-44 -10,1 -20,3 -25,4 -1,7 -9,43 -9,43 0,0 -19,2 -26,3 0,2 0,3 -1,6 8,-1 26,-3 26,-3 0,0 -24,108 -24,108l0 2 0 1c0,0 0,2 0,2 0,0 0,3 0,3 0,1 0,1 0,2 0,5 1,9 4,12 3,3 6,4 11,4l1 0c0,0 5,0 5,0 7,-1 17,-4 24,-7l15 -8 4 3c1,1 3,3 5,3 5,2 12,3 19,2 14,-1 28,-7 37,-18l7 -5 5 6c3,4 6,8 9,9 3,1 7,2 12,1 8,-1 17,-7 23,-12l14 -12c0,0 -2,14 -3,16 8,-1 19,-2 24,-2 2,-12 4,-24 7,-32 3,-9 9,-20 17,-29l9 -12 2 15c3,16 15,52 25,61 3,4 7,5 11,6 0,0 6,0 6,0 8,-1 18,-7 27,-15 -1,-1 -1,-1 -2,-2 -5,2 -9,2 -12,1 -19,-5 -29,-39 -37,-70l-3 -11 3 -2c6,-6 15,-13 24,-14l11 -2 -3 9c-5,11 2,14 6,15l0 0zm-175 69l-1 1c-9,9 -18,14 -29,16 -5,0 -9,0 -13,-3 -5,-3 -7,-7 -7,-14 0,-15 14,-27 46,-37l11 -3 -7 40z"/>
     <path class="fil4" d="M406 501l0 0c0,-6 -1,-11 -4,-15 -2,-4 -5,-9 -8,-11 -5,-3 -8,-5 -13,-6 -4,-1 -9,-1 -13,-1 -10,1 -20,5 -31,13l-11 9c0,0 2,-16 2,-17 -10,1 -27,4 -33,6 0,1 0,1 0,2 5,2 8,7 8,13 0,0 0,5 0,6 0,0 0,0 0,0 0,0 -22,116 -22,115 -1,7 -5,14 -11,17 12,-1 39,-5 45,-6 0,0 0,0 0,-1 -2,0 -3,-1 -5,-2 -3,-1 -6,-4 -6,-10 0,0 1,-6 1,-6l0 0 3 -17 1 -5 25 -1c15,-1 28,-7 40,-15 6,-4 12,-10 18,-17 5,-6 8,-13 11,-21 3,-9 4,-16 4,-24l-1 -6zm-26 10c0,6 -1,12 -2,18 0,0 0,0 0,0l0 0 0 0c-2,6 -4,11 -7,17 -3,5 -8,11 -12,15 -9,8 -21,13 -35,15 0,0 -4,0 -4,0l-9 0 17 -82 1 -1c8,-7 16,-11 24,-11 8,-1 16,2 21,7 4,4 6,11 6,22l0 0z"/>
     <path class="fil4" d="M629 441c-9,2 -18,7 -26,14l-14 11c0,0 4,-19 4,-21 -11,1 -28,4 -34,5 0,1 0,1 0,2 5,3 9,8 9,14 0,0 0,5 0,6 0,0 0,0 0,0l-14 70 -2 1c-5,3 -10,5 -16,6 -5,1 -8,-1 -10,-2 -3,-2 -4,-6 -4,-10l1 -6 0 1 7 -43 2 -17c0,-5 -1,-9 -4,-11 -2,-3 -7,-4 -14,-5 -6,-1 -13,-1 -24,0 0,0 -13,2 -13,2 0,0 -15,4 -15,4 0,0 -14,5 -15,5 0,0 -5,2 -9,4 0,3 -1,10 -2,16 3,0 4,0 7,-1 6,-12 17,-18 33,-20 7,-1 13,0 19,2 9,4 11,11 11,15l-1 12 -4 1c-15,3 -27,8 -38,11 -10,4 -18,9 -27,15 -5,4 -9,9 -11,14 -3,5 -4,10 -4,16 0,0 0,0 0,0 0,0 0,2 0,2 0,0 0,1 0,2 1,4 3,9 5,11 2,1 3,3 5,4 5,2 12,3 19,2 15,-2 27,-7 37,-17l7 -6 5 7c3,4 6,7 9,8 3,1 7,2 12,1 4,-1 8,-2 13,-5l13 -6c0,0 0,3 -1,5 11,-1 40,-4 46,-5 0,0 0,0 0,-1 -2,0 -3,-2 -5,-3 -3,-1 -6,-4 -6,-10 0,0 1,-6 1,-6l0 0 13 -66 1 -1c6,-7 24,-17 31,-18l9 -2 -3 11c-4,10 4,13 6,14 5,1 8,0 11,-2 5,-3 8,-9 8,-15l0 0c0,-6 -2,-10 -6,-13 -5,-4 -14,-5 -22,-2l0 0zm-137 101l-2 1c-8,9 -17,15 -28,17 -5,0 -9,0 -13,-3 -3,-2 -8,-7 -8,-15 0,-15 15,-27 47,-36l11 -4 -7 40z"/>
     <path class="fil4" d="M334 357c-11,15 -57,79 -59,82 -2,0 -6,1 -12,1 1,-3 1,-7 1,-10 0,-8 -3,-14 -10,-17 -5,-3 -19,-6 -35,-1 -18,5 -31,21 -32,32 -2,21 11,25 39,37 34,12 49,21 45,49 -4,21 -15,39 -36,55 -23,19 -51,22 -66,22 -18,0 -34,-3 -46,-11l-6 -2c0,0 -18,33 -20,39 -3,0 -13,1 -23,2 10,-16 49,-73 52,-77 2,0 6,-1 11,-1 0,2 -1,5 -1,7 0,7 2,15 11,20 14,8 39,11 61,-2 9,-6 19,-17 20,-31 1,-18 -13,-24 -34,-32l-8 -3c-34,-14 -46,-27 -41,-52 3,-24 20,-40 35,-50 18,-13 39,-19 60,-21 16,-1 29,1 40,6l6 3c0,0 20,-37 23,-42 2,-1 14,-2 25,-3l0 0z"/>
     <path class="fil3" d="M963 439c5,1 8,0 11,-2 5,-3 8,-10 8,-16 0,-5 -2,-9 -6,-12 -5,-3 -14,-4 -22,-2 -17,4 -28,14 -37,25 -8,8 -15,16 -22,26 0,0 -9,9 -17,19 3,-13 10,-56 12,-67 -11,2 -30,4 -35,5 0,1 0,1 0,2 2,1 3,1 4,2 3,2 4,6 4,11l-1 8 -11 69 -2 1c-5,3 -11,5 -16,6 -5,1 -8,-1 -10,-2 -3,-2 -4,-5 -4,-11l1 -6 0 1 7 -42 2 -17c0,-5 -1,-10 -4,-12 -2,-3 -6,-4 -14,-5 -6,-1 -13,-1 -24,0 0,0 -13,2 -13,2 0,0 -15,3 -15,4l-14 6c0,0 -6,2 -10,4 0,3 -1,9 -2,15 3,0 4,0 6,-1 7,-11 18,-17 34,-19 7,-1 13,0 19,2 9,4 11,10 11,14l-1 13 -4 1c-15,3 -27,7 -38,10 -10,4 -18,10 -28,16 -5,4 -9,8 -11,14 -3,6 -4,11 -4,16l0 0c0,0 0,2 0,2 0,0 0,0 0,0l2 6 -7 1 -10 3c-4,0 -7,0 -12,-3 -4,-3 -5,-7 -5,-9 0,0 1,-6 1,-5l20 -104c0,0 23,-2 29,-3 0,-3 0,-4 1,-7 -8,1 -29,3 -29,3 0,0 6,-33 8,-44 -9,1 -19,3 -26,4 -1,7 -8,43 -8,43 0,0 -20,2 -26,3 0,2 0,3 -1,6 7,-1 26,-3 26,-3 0,0 -20,107 -20,108l0 2 0 1c0,0 0,2 0,2 0,0 0,2 0,2 0,1 0,1 0,2 0,6 1,10 4,13 3,3 7,4 11,4l1 0c0,0 5,0 5,0 7,-1 17,-4 24,-7l15 -8 4 4c1,1 3,2 5,3 5,2 11,3 19,2 14,-1 28,-7 37,-18l7 -6 5 6c3,4 6,7 9,9 3,1 7,2 12,1 8,-1 17,-7 22,-12l15 -12c0,0 -2,14 -3,16 8,-1 19,-2 24,-2 2,-12 4,-24 7,-32 3,-9 8,-20 17,-29l6 -11 3 15c3,16 15,52 24,61 3,3 7,6 11,6l6 0c8,-1 18,-7 27,-15 -1,-1 -1,-1 -2,-2 -5,2 -10,2 -13,1 -18,-5 -28,-39 -36,-70l-3 -11 3 -2c6,-6 14,-13 24,-14l11 -2 -3 9c-5,11 3,14 5,15l0 0zm-174 69l-1 1c-8,9 -17,14 -28,15 -5,1 -9,0 -13,-3 -6,-3 -8,-7 -8,-14 0,-15 15,-27 47,-37l11 -3 -8 41z"/>
     <path class="fil3" d="M402 500l0 0c0,-6 -1,-11 -4,-15 -2,-4 -5,-9 -9,-11 -4,-3 -8,-5 -12,-6 -4,-1 -9,-1 -14,-1 -9,0 -19,4 -30,12l-12 9c0,0 2,-16 2,-17 -11,1 -27,4 -34,5 0,1 0,1 0,3 6,2 9,7 9,13 0,0 0,5 0,6l0 0c0,0 -22,116 -22,115 -1,7 -5,13 -12,17 13,-1 40,-5 46,-6 0,0 0,0 0,0 -2,0 -3,-1 -5,-2 -3,-1 -6,-4 -6,-10 0,0 1,-6 1,-6l0 0 3 -17 1 -5 25 -1c15,-1 28,-7 40,-15 6,-4 12,-10 17,-17 6,-6 9,-13 12,-21 3,-9 4,-16 3,-24l1 -6zm-26 9c0,6 -1,12 -2,17 0,0 0,0 0,0l0 0c0,0 0,0 0,0 -2,7 -4,12 -7,18 -4,5 -8,11 -12,15 -9,8 -21,13 -35,15 0,0 -5,0 -5,0l-8 0 17 -82 1 -1c8,-7 15,-11 24,-11 8,-1 15,2 21,7 3,4 5,11 6,22l0 0z"/>
     <path class="fil3" d="M625 439c-10,2 -18,7 -26,13l-14 12c0,0 3,-19 3,-21 -10,1 -27,4 -33,5 0,1 0,1 0,2 5,2 8,8 8,14 0,0 0,5 0,6 0,0 0,0 0,0l-13 70 -2 1c-5,3 -11,5 -16,6 -5,1 -8,-1 -10,-2 -3,-2 -4,-5 -4,-10l1 -6 0 1 7 -43 2 -17c0,-5 -1,-9 -4,-11 -2,-2 -6,-4 -14,-5 -6,-2 -13,-2 -24,0 0,0 -13,2 -13,2l-15 4c0,0 -14,5 -14,5 0,0 -6,2 -10,4 0,3 -1,10 -2,16 3,0 4,0 6,-1 7,-12 18,-18 34,-20 7,-1 13,0 18,2 10,4 12,10 12,15l-1 12 -4 1c-15,3 -27,7 -38,11 -10,4 -19,9 -28,15 -5,4 -9,9 -11,14 -4,5 -5,10 -5,16 0,0 0,0 0,0 0,0 0,1 0,1 0,0 0,1 0,3 1,4 5,9 6,11 2,1 3,3 5,4 5,2 11,3 19,2 15,-1 28,-7 37,-17l6 -6 6 7c3,4 6,7 9,8 3,1 7,2 11,1 5,-1 9,-2 14,-5l12 -7c0,0 -1,4 -1,6 12,-1 41,-4 47,-6 0,0 0,0 0,-1 -2,0 -3,-1 -5,-2 -3,-1 -6,-4 -6,-10 0,0 1,-6 1,-6l0 0 12 -66 1 -1c7,-7 24,-17 32,-18l11 -2 -3 10c-4,10 4,13 6,14 4,1 8,0 11,-2 5,-3 8,-9 8,-16l0 0c0,-5 -2,-9 -6,-12 -8,-3 -15,-3 -23,-1l0 0zm-138 101l-1 1c-8,9 -17,15 -28,16 -5,1 -9,0 -13,-3 -3,-2 -8,-6 -8,-14 0,-15 15,-27 47,-36l11 -4 -8 40z"/>
     <path class="fil3" d="M330 355c-11,15 -57,79 -59,82 -2,0 -7,1 -12,1 1,-3 1,-7 1,-11 0,-7 -3,-13 -10,-16 -5,-3 -19,-6 -36,-1 -17,5 -30,21 -31,32 -2,21 11,25 39,35 34,13 49,22 45,49 -4,22 -15,40 -36,56 -23,17 -51,22 -67,22 -17,0 -33,-4 -45,-11l-7 -3c0,0 -17,33 -19,39 -5,0 -13,1 -23,2 10,-15 49,-73 52,-77 2,0 6,-2 11,-2 0,3 -1,6 -1,8 0,7 2,14 11,20 14,8 39,11 61,-3 8,-5 19,-16 20,-30 1,-18 -13,-24 -35,-32l-7 -3c-34,-14 -46,-27 -42,-52 4,-24 21,-40 36,-49 18,-13 38,-19 60,-21 16,-1 28,1 40,6l6 2c0,0 20,-37 23,-42 2,1 14,0 25,-1l0 0z"/>
    </g>
   </g>
  </g>
 </g>
</svg>
