<?xml version="1.0" encoding="UTF-8"?>
<!DOCTYPE svg PUBLIC "-//W3C//DTD SVG 1.1//EN" "http://www.w3.org/Graphics/SVG/1.1/DTD/svg11.dtd">
<!-- Creator: CorelDRAW X7 -->
<svg xmlns="http://www.w3.org/2000/svg" xml:space="preserve" width="1.05208in" height="0.602079in" version="1.1" style="shape-rendering:geometricPrecision; text-rendering:geometricPrecision; image-rendering:optimizeQuality; fill-rule:evenodd; clip-rule:evenodd"
viewBox="0 0 1052 602"
 xmlns:xlink="http://www.w3.org/1999/xlink">
 <defs>
  <style type="text/css">
   <![CDATA[
    .str0 {stroke:#612C75;stroke-width:3}
    .fil1 {fill:#612C75}
    .fil2 {fill:#FFED00}
    .fil0 {fill:#612C75;fill-rule:nonzero}
   ]]>
  </style>
 </defs>
 <g id="Слой_x0020_1">
  <metadata id="CorelCorpID_0Corel-Layer"/>
  <g id="_1063324368">
   <polygon class="fil0" points="8,231 181,231 181,284 129,284 129,413 57,413 57,284 8,284 "/>
   <path class="fil0" d="M670 231l112 0c18,0 32,7 42,16 10,8 15,19 15,31 0,11 -3,23 -10,30 -5,5 -9,9 -18,12 14,3 21,5 27,13 7,7 10,17 10,28 0,9 -2,17 -7,25 -4,7 -11,13 -19,17 -5,3 -12,5 -23,6 -13,1 -22,2 -26,2l-103 0 0 -180zm66 73l20 0c9,0 13,-2 16,-5 4,-3 6,-7 6,-13 0,-5 -2,-9 -6,-12 -3,-3 -7,-4 -16,-4l-20 0 0 34zm0 69l24 0c11,0 15,-2 19,-5 4,-3 6,-8 6,-13 0,-6 -2,-10 -6,-13 -4,-3 -8,-5 -19,-5l-24 0 0 36z"/>
   <polygon class="fil0" points="838,231 913,231 945,284 976,231 1051,231 979,337 979,411 910,411 910,337 "/>
   <polygon class="fil0" points="425,231 598,231 598,284 546,284 546,413 474,413 474,284 425,284 "/>
   <circle class="fil1" cx="607" cy="390" r="32"/>
   <path class="fil2 str0" d="M200 345c0,28 13,47 30,60 65,48 172,11 172,-52l0 -122 -72 0 0 55 35 0c-30,42 -30,42 -61,85 -19,-20 -34,-41 -64,-85l35 0 0 -55 -75 0 0 114z"/>
  </g>
 </g>
</svg>
