<?xml version="1.0" encoding="UTF-8"?>
<!DOCTYPE svg PUBLIC "-//W3C//DTD SVG 1.1//EN" "http://www.w3.org/Graphics/SVG/1.1/DTD/svg11.dtd">
<!-- Creator: CorelDRAW X7 -->
<svg xmlns="http://www.w3.org/2000/svg" xml:space="preserve" width="1.94in" height="1.17in" version="1.1" style="shape-rendering:geometricPrecision; text-rendering:geometricPrecision; image-rendering:optimizeQuality; fill-rule:evenodd; clip-rule:evenodd"
viewBox="0 0 1940 1170"
 xmlns:xlink="http://www.w3.org/1999/xlink">
 <defs>
  <style type="text/css">
   <![CDATA[
    .str2 {stroke:#2B2A29;stroke-width:3.09449}
    .str6 {stroke:#2B2A29;stroke-width:3.09449}
    .str4 {stroke:#2B2A29;stroke-width:3.09449}
    .str1 {stroke:#2B2A29;stroke-width:3.09449}
    .str3 {stroke:#2B2A29;stroke-width:3.09449}
    .str5 {stroke:#2B2A29;stroke-width:3.09449}
    .str0 {stroke:#2B2A29;stroke-width:7.73622}
    .fil1 {fill:none}
    .fil2 {fill:#612C75}
    .fil0 {fill:#612C75;fill-rule:nonzero}
   ]]>
  </style>
 </defs>
 <g id="Слой_x0020_1">
  <metadata id="CorelCorpID_0Corel-Layer"/>
  <g id="_908200704">
   <path class="fil0" d="M138 715l-2 -38c50,0 82,-5 97,-17 15,-11 23,-32 23,-64l0 -22c0,-26 -3,-45 -9,-59 -9,-20 -25,-31 -48,-31 -18,0 -32,5 -43,14 -16,11 -23,31 -23,58 0,6 0,11 1,14 0,4 0,8 1,11 0,5 -3,8 -9,8l-12 0c-15,0 -27,0 -36,1 -9,1 -25,3 -48,6 -4,1 -6,1 -7,0 -1,0 -2,-5 -2,-13 0,-48 23,-82 70,-104 31,-15 69,-22 112,-22 47,0 87,10 120,32 32,21 49,50 49,87 0,35 -15,62 -43,82 -14,10 -37,19 -68,28l-6 2 0 12c9,1 16,3 22,4 6,2 11,4 16,5 25,8 45,18 58,29 24,19 36,47 36,81 0,38 -13,69 -39,92 -25,23 -56,35 -92,35 -12,0 -24,-2 -37,-4 -21,-4 -42,-9 -62,-15 -19,-6 -31,-9 -36,-9 -7,0 -14,3 -19,10 -5,7 -7,17 -7,31 0,4 0,8 1,13 1,5 2,9 2,10 0,6 -3,9 -7,9l-15 0c-4,0 -9,-1 -13,-2 -5,0 -9,0 -11,0 -7,0 -14,2 -20,5 -4,2 -7,3 -9,4 -5,-1 -10,-4 -13,-10 -4,-7 -6,-18 -6,-35 0,-25 7,-45 20,-60 13,-15 29,-23 47,-23 11,0 24,3 40,9 16,6 33,11 49,17 17,6 30,9 38,10 9,2 16,2 21,2 21,0 36,-10 44,-30 6,-14 9,-34 9,-59 0,-4 0,-8 0,-13 0,-5 0,-9 0,-14 0,-4 0,-7 -1,-9 -2,-23 -10,-39 -23,-51 -14,-11 -32,-17 -53,-17l-57 0zm429 -94l67 0c4,0 7,1 8,3 0,5 0,9 0,12 1,3 2,9 4,19l11 38 4 19c15,59 29,107 41,143 7,22 15,44 23,65 0,4 -4,6 -13,6l-67 0c-3,0 -6,-3 -7,-9 -1,-5 -2,-10 -2,-14 -3,-8 -5,-15 -7,-22l-8 -25 -8 -30c-10,32 -22,57 -36,74 -18,22 -41,33 -68,33 -25,0 -43,-10 -56,-30 -10,-16 -14,-34 -14,-55 0,-22 10,-48 31,-78 8,-11 25,-31 51,-61 2,-3 12,-13 28,-31 8,-8 11,-14 11,-19 0,-2 0,-5 -1,-9 0,-3 -2,-8 -3,-12 -2,-5 -3,-10 -3,-14 0,-2 5,-3 14,-3zm5 64c-19,21 -34,42 -47,65 -12,22 -19,41 -19,55 0,11 4,22 10,31 6,10 16,14 29,14 17,0 31,-6 42,-19 10,-11 14,-22 14,-34 0,-7 -1,-16 -4,-25 -3,-9 -5,-17 -7,-23l-8 -29 -10 -35zm293 -64l51 0c9,0 14,1 16,4 2,4 4,14 5,31 2,18 6,39 12,65 5,26 15,66 29,120 3,-23 9,-46 17,-68 4,-13 10,-26 16,-39 4,-8 8,-17 12,-27 4,-9 6,-17 6,-23 0,-16 -1,-29 -3,-39 -1,-11 -2,-18 -2,-21 0,-2 2,-3 8,-3l6 0 54 0c12,0 19,3 20,10 6,67 14,119 24,156 9,31 23,67 42,108 2,4 3,7 4,11 1,3 2,6 2,10 0,4 -1,6 -2,8 -2,1 -6,2 -13,2l-44 0c-16,0 -32,-24 -49,-71 -13,-35 -22,-69 -27,-103l-6 -27c-13,28 -23,58 -32,90 -9,31 -13,58 -13,81l0 14c0,2 0,5 0,10 -1,4 -3,6 -6,6l-50 0c-8,0 -12,-1 -14,-2 -5,-4 -10,-13 -15,-29 -8,-25 -15,-50 -21,-75 -8,-33 -17,-73 -26,-120 -18,23 -32,47 -43,74 -10,27 -16,53 -16,77 0,9 2,19 5,29 1,6 3,13 7,23 2,4 3,8 4,12 2,3 2,6 2,7 0,2 -2,4 -7,4l-56 0c-4,0 -7,-3 -9,-9 -2,-5 -2,-12 -2,-20 0,-23 7,-51 21,-83 10,-21 22,-43 36,-65 12,-20 20,-34 25,-43 11,-20 17,-38 17,-52 -1,-3 -1,-5 -1,-7 -1,-6 -2,-10 -2,-12 0,-2 1,-4 2,-7 1,-3 2,-4 4,-6 1,-1 5,-1 12,-1zm354 171c0,-50 16,-97 47,-140 27,-36 51,-55 71,-55 22,0 46,12 72,37 33,32 50,72 50,120 0,40 -14,82 -42,126 -29,45 -54,67 -77,67 -23,0 -49,-17 -77,-50 -29,-36 -44,-71 -44,-105zm67 -122c-6,8 -11,17 -15,27 -4,10 -6,19 -6,27 0,29 10,58 28,88 23,37 53,55 89,55 5,0 9,0 12,-1 4,-7 7,-15 8,-23 2,-8 3,-17 3,-25 0,-36 -10,-68 -32,-97 -22,-29 -51,-46 -87,-51zm381 -1l24 0 10 -18 10 -24 14 -28c27,-53 44,-85 51,-95 23,-32 49,-47 80,-47 21,0 40,4 57,11 -5,13 -9,25 -14,38 -1,4 -2,11 -2,21 -1,11 -2,21 -2,31l-13 0 -22 -8c-4,-2 -9,-4 -14,-6 -6,-1 -13,-2 -21,-2 -26,0 -61,45 -107,135 72,16 121,44 149,85 23,35 34,80 34,136l40 0 0 28 -179 0 0 -28 26 0c0,-64 -7,-110 -20,-137 -18,-36 -52,-59 -101,-68l0 205 40 0 0 28 -197 0 0 -28 55 0 0 -405 -55 0 0 -27 202 0 0 27 -45 0 0 176z"/>
   <path class="fil0" d="M299 1151l0 -89 -32 0 0 -18 85 0 0 18 -32 0 0 89 -21 0zm58 -53c0,-11 2,-20 5,-27 3,-6 6,-10 10,-15 4,-4 9,-7 14,-9 7,-3 14,-5 23,-5 16,0 28,5 38,15 9,10 14,23 14,41 0,17 -5,30 -14,40 -10,10 -22,15 -38,15 -16,0 -28,-5 -38,-15 -9,-9 -14,-23 -14,-40zm23 0c0,12 2,21 8,27 6,6 13,9 21,9 9,0 16,-3 21,-9 6,-6 9,-15 9,-28 0,-12 -3,-21 -8,-27 -6,-6 -13,-9 -22,-9 -9,0 -16,3 -21,9 -6,6 -8,15 -8,28zm98 53l0 -107 34 0c13,0 22,1 26,2 6,2 11,5 15,10 4,6 6,13 6,21 0,7 -1,12 -3,17 -3,4 -6,8 -9,10 -4,3 -8,4 -12,5 -5,1 -12,2 -22,2l-14 0 0 40 -21 0zm21 -89l0 31 12 0c8,0 14,-1 17,-2 3,-1 5,-3 7,-5 1,-3 2,-5 2,-9 0,-3 -1,-7 -3,-9 -3,-3 -6,-4 -9,-5 -3,0 -8,-1 -15,-1l-11 0zm79 -18l72 0 0 18 -51 0 0 89 -21 0 0 -107zm77 54c0,-11 1,-20 5,-27 2,-6 5,-10 10,-15 4,-4 8,-7 13,-9 7,-3 15,-5 23,-5 16,0 29,5 38,15 9,10 14,23 14,41 0,17 -5,30 -14,40 -9,10 -22,15 -37,15 -16,0 -29,-5 -38,-15 -10,-9 -14,-23 -14,-40zm22 0c0,12 3,21 8,27 6,6 13,9 22,9 8,0 15,-3 21,-9 5,-6 8,-15 8,-28 0,-12 -3,-21 -8,-27 -5,-6 -13,-9 -21,-9 -9,0 -16,3 -22,9 -5,6 -8,15 -8,28zm98 -54l43 0c8,0 14,1 18,1 5,1 8,3 12,5 3,2 6,5 8,9 2,3 3,8 3,12 0,5 -1,10 -4,14 -3,4 -6,7 -11,9 7,2 12,5 15,10 3,4 5,10 5,16 0,5 -1,9 -3,14 -2,5 -5,8 -9,11 -4,3 -9,5 -15,5 -3,1 -12,1 -26,1l-36 0 0 -107zm22 18l0 25 14 0c8,0 13,-1 15,-1 4,0 7,-1 9,-4 2,-2 3,-4 3,-8 0,-3 -1,-6 -3,-8 -2,-2 -4,-3 -8,-4 -2,0 -8,0 -18,0l-12 0zm0 42l0 29 19 0c8,0 13,0 15,-1 3,0 6,-2 8,-4 2,-2 3,-5 3,-9 0,-3 -1,-6 -2,-8 -2,-3 -4,-4 -7,-5 -3,-1 -9,-2 -19,-2l-17 0zm86 -60l22 0 0 43 28 0c8,0 14,1 20,3 5,2 10,6 13,11 4,5 6,11 6,18 0,8 -2,14 -6,19 -4,5 -8,9 -12,10 -5,2 -12,3 -21,3l-50 0 0 -107zm22 89l21 0c6,0 11,0 14,-1 2,-1 4,-2 7,-5 2,-2 3,-5 3,-8 0,-5 -2,-8 -5,-11 -4,-2 -10,-3 -19,-3l-21 0 0 28zm79 -89l22 0 0 107 -22 0 0 -107zm44 0l20 0 0 71 44 -71 21 0 0 107 -20 0 0 -70 -43 70 -22 0 0 -107zm55 -30l10 0c0,6 -3,11 -7,15 -4,4 -9,6 -15,6 -7,0 -12,-2 -16,-6 -4,-4 -6,-9 -7,-15l10 0c0,3 2,6 4,7 2,2 5,3 9,3 4,0 7,-1 9,-3 2,-1 3,-4 3,-7zm94 30l21 0 0 89 42 0 0 -89 21 0 0 89 9 0 0 41 -18 0 0 -23 -75 0 0 -107zm108 107l0 -107 79 0 0 18 -57 0 0 24 53 0 0 18 -53 0 0 29 59 0 0 18 -81 0zm99 0l0 -107 22 0 0 42 42 0 0 -42 21 0 0 107 -21 0 0 -47 -42 0 0 47 -22 0zm132 0l0 -89 -32 0 0 -18 85 0 0 18 -32 0 0 89 -21 0zm67 0l0 -107 34 0c13,0 22,1 26,2 6,2 11,5 15,10 4,6 6,13 6,21 0,7 -1,12 -3,17 -3,4 -6,8 -9,10 -4,3 -8,4 -12,5 -5,1 -12,2 -22,2l-14 0 0 40 -21 0zm21 -89l0 31 12 0c8,0 14,-1 17,-2 3,-1 5,-3 6,-5 2,-3 3,-5 3,-9 0,-3 -1,-7 -3,-9 -3,-3 -6,-4 -9,-5 -3,0 -8,-1 -16,-1l-10 0z"/>
   <g>
    <g>
     <polyline class="fil1 str0" points="531,508 739,508 739,283 713,283 755,198 797,112 "/>
    </g>
    <g>
     <polyline class="fil1 str0" points="797,112 882,284 856,284 856,477 905,477 905,419 879,419 "/>
    </g>
    <g>
     <polyline class="fil1 str0" points="879,419 951,289 1019,419 "/>
    </g>
    <g>
     <polyline class="fil1 str0" points="1019,419 997,419 997,476 1051,476 1052,378 "/>
    </g>
    <g>
     <polyline class="fil1 str0" points="1290,451 1290,427 1304,427 1304,400 1281,400 1276,427 1255,427 1260,400 1238,400 1233,426 1212,427 1216,400 1194,400 1189,427 1158,428 1159,378 1185,378 1106,219 1025,378 "/>
    </g>
    <g>
     <polyline class="fil1 str0" points="1390,506 1278,505 1278,449 1290,449 "/>
    </g>
    <g>
     <line class="fil1 str0" x1="1024" y1="378" x2="1053" y2= "378" />
    </g>
    <g>
     <line class="fil1 str1" x1="952" y1="181" x2="952" y2= "289" />
    </g>
    <g>
     <path class="fil1 str2" d="M952 186c0,0 -15,9 -30,4 -16,-5 -21,-8 -35,-5 -13,4 -21,9 -21,9 0,0 11,-1 23,1 25,6 2,7 23,14 19,6 20,0 36,0 1,0 4,0 4,0l0 -23z"/>
     <path id="1" class="fil2" d="M952 186c0,0 -15,9 -30,4 -16,-5 -21,-8 -35,-5 -13,4 -21,9 -21,9 0,0 11,-1 23,1 25,6 2,7 23,14 19,6 20,0 36,0 1,0 4,0 4,0l0 -23z"/>
    </g>
    <g>
     <g>
      <line class="fil1 str3" x1="1106" y1="113" x2="1106" y2= "222" />
     </g>
     <g>
      <path class="fil1 str4" d="M1106 119c0,0 -15,9 -30,4 -16,-5 -21,-8 -35,-5 -13,3 -21,9 -21,9 0,0 11,-2 23,1 25,5 2,7 23,13 19,7 20,0 36,0 1,0 4,0 4,0l0 -22z"/>
      <path id="1" class="fil2" d="M1106 119c0,0 -15,9 -30,4 -16,-5 -21,-8 -35,-5 -13,3 -21,9 -21,9 0,0 11,-2 23,1 25,5 2,7 23,13 19,7 20,0 36,0 1,0 4,0 4,0l0 -22z"/>
     </g>
    </g>
    <g>
     <g>
      <line class="fil1 str5" x1="797" y1="5" x2="797" y2= "114" />
     </g>
     <g>
      <path class="fil1 str6" d="M797 11c0,0 -15,9 -30,4 -16,-6 -21,-8 -35,-5 -13,3 -21,8 -21,8 0,0 11,-1 23,2 26,5 2,6 23,13 19,6 20,0 36,0 1,0 4,0 4,0l0 -22z"/>
      <path id="1" class="fil2" d="M797 11c0,0 -15,9 -30,4 -16,-6 -21,-8 -35,-5 -13,3 -21,8 -21,8 0,0 11,-1 23,2 26,5 2,6 23,13 19,6 20,0 36,0 1,0 4,0 4,0l0 -22z"/>
     </g>
    </g>
   </g>
  </g>
 </g>
</svg>
