<?xml version="1.0" encoding="UTF-8"?>
<!DOCTYPE svg PUBLIC "-//W3C//DTD SVG 1.1//EN" "http://www.w3.org/Graphics/SVG/1.1/DTD/svg11.dtd">
<!-- Creator: CorelDRAW X7 -->
<svg xmlns="http://www.w3.org/2000/svg" xml:space="preserve" width="1.45833in" height="0.520827in" version="1.1" style="shape-rendering:geometricPrecision; text-rendering:geometricPrecision; image-rendering:optimizeQuality; fill-rule:evenodd; clip-rule:evenodd"
viewBox="0 0 1458 521"
 xmlns:xlink="http://www.w3.org/1999/xlink">
 <defs>
  <style type="text/css">
   <![CDATA[
    .fil0 {fill:#612C75;fill-rule:nonzero}
   ]]>
  </style>
 </defs>
 <g id="Слой_x0020_1">
  <metadata id="CorelCorpID_0Corel-Layer"/>
  <path class="fil0" d="M245 385l-61 93 -176 -114 61 -93 13 8 -51 79 59 38 49 -75 13 9 -48 75 76 49 51 -78 14 9zm93 -95l-17 17 -110 8 53 51 -11 12 -105 -100 12 -12 50 48 -1 -99 17 -18 -1 102 113 -9zm138 -85l-14 8 -13 -21c-2,25 -13,43 -32,54 -19,11 -39,14 -59,8 -19,-5 -34,-18 -45,-37 -11,-20 -15,-39 -10,-59 5,-20 17,-35 36,-46 9,-6 19,-8 29,-9 12,-1 24,2 34,8l-13 -22 15 -8 72 124zm-130 -80c-14,8 -23,20 -26,36 -4,15 -1,31 9,47 8,15 20,25 35,30 16,5 31,3 45,-5 15,-9 24,-21 27,-36 2,-15 -1,-30 -10,-46 -9,-15 -21,-25 -36,-30 -16,-5 -30,-4 -44,4zm231 -86l-47 13 34 124 -17 5 -34 -124 -48 13 -4 -15 112 -31 4 15zm114 -36c22,-1 40,4 55,18 15,13 23,31 25,53l-132 10c2,19 8,34 19,45 12,10 26,15 43,14 26,-2 42,-14 49,-36l19 -1c-4,15 -12,27 -23,36 -11,9 -26,15 -43,16 -23,2 -42,-4 -57,-18 -15,-13 -23,-31 -25,-54 -1,-22 4,-41 17,-57 13,-15 31,-24 53,-26zm61 58c-5,-14 -13,-25 -24,-33 -11,-8 -23,-12 -36,-11 -13,1 -25,7 -34,16 -10,10 -16,22 -19,37l113 -9zm214 52c-5,22 -16,39 -33,50 -17,11 -36,14 -58,9 -24,-5 -39,-20 -46,-44 -2,10 -4,17 -5,23l-20 87 -17 -4 52 -224 16 3 -5 25c19,-17 39,-23 61,-17 22,5 38,16 48,34 10,17 12,37 7,58zm-87 44c16,4 30,1 43,-8 14,-9 22,-22 27,-40 3,-17 2,-32 -6,-46 -8,-15 -20,-24 -36,-27 -17,-4 -32,-2 -44,7 -12,9 -20,23 -25,41 -4,17 -2,32 6,46 8,15 19,23 35,27zm205 93l-15 -8 49 -96 -146 55 68 -135 17 8 -48 97 143 -56 -68 135zm131 115l-13 -12 47 -49 -64 -61 -47 48 -12 -12 100 -104 12 12 -43 45 64 61 43 -45 13 12 -100 105zm102 156l-8 -14 21 -13c-24,-2 -43,-13 -54,-32 -11,-20 -14,-39 -8,-59 6,-19 18,-34 37,-46 20,-11 39,-14 59,-9 20,4 35,16 47,36 5,9 8,18 8,29 1,12 -2,23 -8,34l22 -13 9 14 -125 73zm80 -130c-8,-15 -20,-23 -36,-27 -15,-3 -31,0 -47,9 -15,9 -25,21 -30,36 -5,16 -3,30 5,45 9,15 21,24 36,26 15,3 30,0 46,-10 15,-9 25,-21 30,-36 6,-15 4,-30 -4,-43z"/>
 </g>
</svg>
