<?xml version="1.0" encoding="UTF-8"?>
<!DOCTYPE svg PUBLIC "-//W3C//DTD SVG 1.1//EN" "http://www.w3.org/Graphics/SVG/1.1/DTD/svg11.dtd">
<!-- Creator: CorelDRAW X7 -->
<svg xmlns="http://www.w3.org/2000/svg" xml:space="preserve" width="1.30208in" height="1.30208in" version="1.1" style="shape-rendering:geometricPrecision; text-rendering:geometricPrecision; image-rendering:optimizeQuality; fill-rule:evenodd; clip-rule:evenodd"
viewBox="0 0 1302 1302"
 xmlns:xlink="http://www.w3.org/1999/xlink">
 <defs>
  <style type="text/css">
   <![CDATA[
    .fil1 {fill:#612C75}
    .fil0 {fill:#FFED00}
   ]]>
  </style>
 </defs>
 <g id="Слой_x0020_1">
  <metadata id="CorelCorpID_0Corel-Layer"/>
  <g id="_629447248">
   <path class="fil0" d="M3 259l1290 0 0 0c0,-135 -110,-245 -245,-245l-800 0c-135,0 -245,110 -245,245l0 0z"/>
   <path class="fil0" d="M3 1056l1290 0 0 0c0,135 -110,245 -245,245l-800 0c-135,0 -245,-110 -245,-245l0 0z"/>
   <path class="fil1" d="M1123 821c-124,-1 -184,3 -273,-5 -30,-7 -69,-29 -87,-54 -20,-29 -34,-71 -26,-115 35,-174 281,-169 295,30l-37 0c-4,-19 -5,-29 -12,-45 -10,-24 -30,-50 -54,-60 -86,-37 -173,40 -152,127 21,83 101,80 153,80 20,0 205,2 210,0 4,-2 7,-10 10,-22 -146,1 -150,0 -191,0 -74,0 -125,8 -153,-48 -59,-121 151,-188 162,-32l-38 -1c-6,-66 -62,-64 -86,-41 -26,23 -13,70 44,81 120,2 142,2 272,-1 36,-146 -74,-336 -248,-378 -193,-46 -352,77 -397,216 -56,170 29,355 183,416 86,34 171,37 259,3 54,-22 81,-47 116,-79 15,-13 42,-54 50,-72zm-525 -259l56 1 1 261 38 0 2 -303 -97 1 0 40zm-40 62l38 1 2 199 40 0c0,-45 -1,-185 0,-240l-80 0 0 40z"/>
   <path class="fil1" d="M248 456c-17,-21 -70,-103 -98,-74 -20,21 21,54 37,71 81,87 64,81 168,-50 7,-10 16,-20 25,-32 6,-8 61,-62 6,-62 -38,0 -97,117 -138,147z"/>
   <path class="fil1" d="M248 705c-17,-22 -70,-103 -98,-75 -20,21 21,54 37,71 81,87 64,81 168,-50 7,-9 16,-20 25,-32 6,-8 61,-61 6,-62 -38,0 -97,117 -138,148z"/>
   <path class="fil1" d="M248 942c-17,-22 -70,-103 -98,-75 -20,21 21,54 37,71 81,88 64,82 168,-50 7,-9 16,-20 25,-32 6,-8 61,-61 6,-62 -38,0 -97,117 -138,148z"/>
  </g>
 </g>
</svg>
