<?xml version="1.0" encoding="UTF-8"?>
<!DOCTYPE svg PUBLIC "-//W3C//DTD SVG 1.1//EN" "http://www.w3.org/Graphics/SVG/1.1/DTD/svg11.dtd">
<!-- Creator: CorelDRAW X7 -->
<svg xmlns="http://www.w3.org/2000/svg" xml:space="preserve" width="3.125in" height="3.125in" version="1.1" style="shape-rendering:geometricPrecision; text-rendering:geometricPrecision; image-rendering:optimizeQuality; fill-rule:evenodd; clip-rule:evenodd"
viewBox="0 0 3125 3125"
 xmlns:xlink="http://www.w3.org/1999/xlink">
 <defs>
  <style type="text/css">
   <![CDATA[
    .str0 {stroke:#FFED00;stroke-width:78.7402}
    .fil1 {fill:none}
    .fil0 {fill:#FEFEFE}
   ]]>
  </style>
   <clipPath id="id0">
    <path d="M1573 38c835,0 1512,677 1512,1512 0,835 -677,1512 -1512,1512 -835,0 -1512,-677 -1512,-1512 0,-835 677,-1512 1512,-1512z"/>
   </clipPath>
    <clipPath id="id1">
     <path d="M1573 38c835,0 1512,677 1512,1512 0,835 -677,1512 -1512,1512 -835,0 -1512,-677 -1512,-1512 0,-835 677,-1512 1512,-1512z"/>
    </clipPath>
    <clipPath id="id2">
     <path d="M1573 38c835,0 1512,677 1512,1512 0,835 -677,1512 -1512,1512 -835,0 -1512,-677 -1512,-1512 0,-835 677,-1512 1512,-1512z"/>
    </clipPath>
 </defs>
 <g id="Слой_x0020_1">
  <metadata id="CorelCorpID_0Corel-Layer"/>
  <path class="fil0" d="M1573 38c835,0 1512,677 1512,1512 0,835 -677,1512 -1512,1512 -835,0 -1512,-677 -1512,-1512 0,-835 677,-1512 1512,-1512z"/>
  <g style="clip-path:url(#id0)">
   <g id="_1004783936">
   </g>
   <g style="clip-path:url(#id1)">
    <image x="-416" y="-261" width="3916" height="4714" xlink:href="ka_Images\ka_ImgID1.png"/>
   </g>
   <g style="clip-path:url(#id2)">
   </g>
  </g>
  <path class="fil1 str0" d="M1573 38c835,0 1512,677 1512,1512 0,835 -677,1512 -1512,1512 -835,0 -1512,-677 -1512,-1512 0,-835 677,-1512 1512,-1512z"/>
 </g>
</svg>
