<?xml version="1.0" encoding="UTF-8"?>
<!DOCTYPE svg PUBLIC "-//W3C//DTD SVG 1.1//EN" "http://www.w3.org/Graphics/SVG/1.1/DTD/svg11.dtd">
<!-- Creator: CorelDRAW X7 -->
<svg xmlns="http://www.w3.org/2000/svg" xml:space="preserve" width="1in" height="1in" version="1.1" style="shape-rendering:geometricPrecision; text-rendering:geometricPrecision; image-rendering:optimizeQuality; fill-rule:evenodd; clip-rule:evenodd"
viewBox="0 0 1000 1000"
 xmlns:xlink="http://www.w3.org/1999/xlink">
 <defs>
  <style type="text/css">
   <![CDATA[
    .fil0 {fill:#FEFEFE;fill-opacity:0.501961}
   ]]>
  </style>
 </defs>
 <g id="Слой_x0020_1">
  <metadata id="CorelCorpID_0Corel-Layer"/>
  <path class="fil0" d="M505 63c249,0 451,201 451,450 0,248 -202,450 -451,450 -248,0 -449,-202 -449,-450 0,-249 201,-450 449,-450zm242 422c22,-2 40,-21 40,-43l0 0c0,-24 -20,-44 -43,-44l-186 0c11,-48 51,-67 33,-146 -16,-74 -88,-67 -93,-15 -3,35 8,48 -17,73 -140,138 -117,149 -118,338 2,74 7,76 104,77 76,0 152,0 227,0 24,0 43,-20 43,-44l0 0c0,-13 -6,-25 -16,-33 20,-4 35,-22 35,-43l0 0c0,-15 -8,-29 -19,-36 21,-3 37,-21 37,-44l0 0c0,-18 -11,-34 -27,-40zm-500 -32l71 0c12,0 23,11 23,24l0 224c0,13 -11,24 -23,24l-71 0c-13,0 -23,-11 -23,-24l0 -224c0,-13 10,-24 23,-24z"/>
 </g>
</svg>
