<?xml version="1.0" encoding="UTF-8"?>
<!DOCTYPE svg PUBLIC "-//W3C//DTD SVG 1.1//EN" "http://www.w3.org/Graphics/SVG/1.1/DTD/svg11.dtd">
<!-- Creator: CorelDRAW X7 -->
<svg xmlns="http://www.w3.org/2000/svg" xml:space="preserve" width="1in" height="1in" version="1.1" style="shape-rendering:geometricPrecision; text-rendering:geometricPrecision; image-rendering:optimizeQuality; fill-rule:evenodd; clip-rule:evenodd"
viewBox="0 0 1000 1000"
 xmlns:xlink="http://www.w3.org/1999/xlink">
 <defs>
  <style type="text/css">
   <![CDATA[
    .fil0 {fill:#FEFEFE;fill-opacity:0.501961}
   ]]>
  </style>
 </defs>
 <g id="Слой_x0020_1">
  <metadata id="CorelCorpID_0Corel-Layer"/>
  <path class="fil0" d="M499 68c230,0 416,186 416,415 0,230 -186,416 -416,416 -228,0 -415,-186 -415,-416 0,-229 187,-415 415,-415zm-214 242c-1,1 0,0 -1,1l-7 8c-16,20 -23,31 -32,54 -2,6 -5,23 -5,29 -2,45 1,57 14,97 2,7 18,35 21,40 48,77 108,120 183,176l20 13c5,2 18,13 21,13 3,0 20,-11 22,-13 2,-1 4,-2 6,-3l10 -6c1,-2 3,-3 5,-4 115,-82 283,-230 193,-382 -3,-4 -11,-15 -15,-19 -3,-2 -6,-5 -8,-8 -3,-3 -7,-5 -10,-7 -1,-2 -3,-3 -5,-4 -3,-2 0,-1 -4,-4 -4,-2 -7,-3 -13,-5 -10,-5 -25,-12 -36,-14 -4,0 -4,-1 -7,-1 -7,-1 -17,-2 -25,-2 -30,1 -66,15 -89,36l-10 11c-1,2 -3,4 -6,8 -1,3 -6,10 -8,11 -1,-1 -2,-2 -3,-4 -1,-4 -7,-10 -7,-13 -2,-2 -5,-6 -7,-9 -2,-2 -7,-7 -9,-9 -4,-2 -6,-5 -10,-7 -7,-5 -21,-12 -29,-15 -4,-1 -3,-1 -6,-2 -9,-2 -16,-3 -21,-5 -2,0 -5,0 -8,-1 -20,-3 -46,2 -60,7 -4,2 -23,9 -25,11 -3,2 -7,4 -10,6 -7,4 -13,11 -19,16z"/>
 </g>
</svg>
