<?xml version="1.0" encoding="UTF-8"?>
<!DOCTYPE svg PUBLIC "-//W3C//DTD SVG 1.1//EN" "http://www.w3.org/Graphics/SVG/1.1/DTD/svg11.dtd">
<!-- Creator: CorelDRAW X7 -->
<svg xmlns="http://www.w3.org/2000/svg" xml:space="preserve" width="3.125in" height="3.125in" version="1.1" style="shape-rendering:geometricPrecision; text-rendering:geometricPrecision; image-rendering:optimizeQuality; fill-rule:evenodd; clip-rule:evenodd"
viewBox="0 0 3125 3125"
 xmlns:xlink="http://www.w3.org/1999/xlink">
 <defs>
  <style type="text/css">
   <![CDATA[
    .str0 {stroke:#FFED00;stroke-width:78.7402}
    .fil0 {fill:none}
   ]]>
  </style>
   <clipPath id="id0">
    <path d="M1558 76c816,0 1478,661 1478,1478 0,816 -662,1478 -1478,1478 -817,0 -1478,-662 -1478,-1478 0,-817 661,-1478 1478,-1478z"/>
   </clipPath>
    <clipPath id="id1">
     <path d="M1558 76c816,0 1478,661 1478,1478 0,816 -662,1478 -1478,1478 -817,0 -1478,-662 -1478,-1478 0,-817 661,-1478 1478,-1478z"/>
    </clipPath>
    <clipPath id="id2">
     <path d="M1558 76c816,0 1478,661 1478,1478 0,816 -662,1478 -1478,1478 -817,0 -1478,-662 -1478,-1478 0,-817 661,-1478 1478,-1478z"/>
    </clipPath>
 </defs>
 <g id="Слой_x0020_1">
  <metadata id="CorelCorpID_0Corel-Layer"/>
  <g>
  </g>
  <g style="clip-path:url(#id0)">
   <g>
   </g>
   <g style="clip-path:url(#id1)">
    <image x="-1100" y="-100" width="6015" height="4011" xlink:href="yan_Images\yan_ImgID1.png"/>
   </g>
   <g style="clip-path:url(#id2)">
   </g>
  </g>
  <path class="fil0 str0" d="M1558 76c816,0 1478,661 1478,1478 0,816 -662,1478 -1478,1478 -817,0 -1478,-662 -1478,-1478 0,-817 661,-1478 1478,-1478z"/>
 </g>
</svg>
