<?xml version="1.0" encoding="UTF-8"?>
<!DOCTYPE svg PUBLIC "-//W3C//DTD SVG 1.1//EN" "http://www.w3.org/Graphics/SVG/1.1/DTD/svg11.dtd">
<!-- Creator: CorelDRAW X7 -->
<svg xmlns="http://www.w3.org/2000/svg" xml:space="preserve" width="7.27291in" height="0.870835in" version="1.1" style="shape-rendering:geometricPrecision; text-rendering:geometricPrecision; image-rendering:optimizeQuality; fill-rule:evenodd; clip-rule:evenodd"
viewBox="0 0 7273 871"
 xmlns:xlink="http://www.w3.org/1999/xlink">
 <defs>
  <style type="text/css">
   <![CDATA[
    .fil0 {fill:#FEFEFE;fill-opacity:0.501961}
   ]]>
  </style>
 </defs>
 <g id="Слой_x0020_1">
  <metadata id="CorelCorpID_0Corel-Layer"/>
  <path class="fil0" d="M79 828l7114 0 0 -600c0,-110 -89,-200 -199,-200l-6716 0c-109,0 -199,90 -199,200l0 600zm410 -172c-137,-3 -184,-5 -213,-11 -19,-4 -36,-13 -49,-26 -9,-9 -17,-24 -23,-44 -5,-17 -7,-31 -10,-66 -4,-77 -5,-141 0,-212 5,-39 7,-86 36,-113 14,-13 30,-21 48,-24 29,-5 149,-10 273,-10 124,0 245,5 273,10 23,4 44,17 56,33 27,42 28,95 30,135 1,20 1,131 0,150 -4,65 -7,87 -17,111 -6,15 -11,23 -20,32 -13,13 -31,22 -50,25 -119,9 -219,11 -334,10l0 0zm6462 -256c24,-2 44,-22 44,-47l0 0c0,-27 -22,-48 -48,-48l-209 0c13,-53 58,-74 38,-161 -19,-82 -99,-74 -105,-17 -4,38 10,53 -19,81 -157,151 -131,163 -132,372 2,82 8,84 117,85 84,0 169,0 254,0 26,0 48,-22 48,-48l0 0c0,-15 -7,-29 -18,-37 23,-4 40,-24 40,-47l0 0c0,-17 -9,-32 -22,-41 24,-2 42,-23 42,-47l0 0c0,-20 -13,-38 -30,-45zm-561 -35l79 0c14,0 26,12 26,26l0 248c0,14 -12,26 -26,26l-79 0c-15,0 -26,-12 -26,-26l0 -248c0,-14 11,-26 26,-26z"/>
  <path class="fil0" d="M671 396c-66,-35 -129,-68 -194,-102l0 203c68,-37 140,-71 194,-101l0 0 0 0z"/>
 </g>
</svg>
